<svg width="176" height="209" viewBox="0 0 176 209" fill="none" xmlns="http://www.w3.org/2000/svg">
<g filter="url(#filter0_d_205_12)">
<path d="M12 25C12 16.7157 18.7157 10 27 10H160V145C160 153.284 153.284 160 145 160H12V25Z" fill="#D74500"/>
<path d="M12 25C12 16.7157 18.7157 10 27 10H160V145C160 153.284 153.284 160 145 160H12V25Z" fill="url(#paint0_radial_205_12)" fill-opacity="0.2"/>
</g>
<path d="M64.701 200.77C64.875 200.542 65.112 200.35 65.412 200.194C65.712 200.038 66.051 199.96 66.429 199.96C66.861 199.96 67.254 200.068 67.608 200.284C67.968 200.494 68.25 200.791 68.454 201.175C68.658 201.559 68.76 202 68.76 202.498C68.76 202.996 68.658 203.443 68.454 203.839C68.25 204.229 67.968 204.535 67.608 204.757C67.254 204.973 66.861 205.081 66.429 205.081C66.051 205.081 65.715 205.006 65.421 204.856C65.127 204.7 64.887 204.508 64.701 204.28V207.358H63.675V200.041H64.701V200.77ZM67.716 202.498C67.716 202.156 67.644 201.862 67.5 201.616C67.362 201.364 67.176 201.175 66.942 201.049C66.714 200.917 66.468 200.851 66.204 200.851C65.946 200.851 65.7 200.917 65.466 201.049C65.238 201.181 65.052 201.373 64.908 201.625C64.77 201.877 64.701 202.174 64.701 202.516C64.701 202.858 64.77 203.158 64.908 203.416C65.052 203.668 65.238 203.86 65.466 203.992C65.7 204.124 65.946 204.19 66.204 204.19C66.468 204.19 66.714 204.124 66.942 203.992C67.176 203.854 67.362 203.656 67.5 203.398C67.644 203.14 67.716 202.84 67.716 202.498ZM69.6576 202.498C69.6576 202 69.7596 201.559 69.9636 201.175C70.1736 200.791 70.4556 200.494 70.8096 200.284C71.1696 200.068 71.5656 199.96 71.9976 199.96C72.3876 199.96 72.7266 200.038 73.0146 200.194C73.3086 200.344 73.5426 200.533 73.7166 200.761V200.041H74.7516V205H73.7166V204.262C73.5426 204.496 73.3056 204.691 73.0056 204.847C72.7056 205.003 72.3636 205.081 71.9796 205.081C71.5536 205.081 71.1636 204.973 70.8096 204.757C70.4556 204.535 70.1736 204.229 69.9636 203.839C69.7596 203.443 69.6576 202.996 69.6576 202.498ZM73.7166 202.516C73.7166 202.174 73.6446 201.877 73.5006 201.625C73.3626 201.373 73.1796 201.181 72.9516 201.049C72.7236 200.917 72.4776 200.851 72.2136 200.851C71.9496 200.851 71.7036 200.917 71.4756 201.049C71.2476 201.175 71.0616 201.364 70.9176 201.616C70.7796 201.862 70.7106 202.156 70.7106 202.498C70.7106 202.84 70.7796 203.14 70.9176 203.398C71.0616 203.656 71.2476 203.854 71.4756 203.992C71.7096 204.124 71.9556 204.19 72.2136 204.19C72.4776 204.19 72.7236 204.124 72.9516 203.992C73.1796 203.86 73.3626 203.668 73.5006 203.416C73.6446 203.158 73.7166 202.858 73.7166 202.516ZM75.9822 202.516C75.9822 202.006 76.0842 201.559 76.2882 201.175C76.4982 200.785 76.7862 200.485 77.1522 200.275C77.5182 200.065 77.9382 199.96 78.4122 199.96C79.0122 199.96 79.5072 200.104 79.8972 200.392C80.2932 200.674 80.5602 201.079 80.6982 201.607H79.5912C79.5012 201.361 79.3572 201.169 79.1592 201.031C78.9612 200.893 78.7122 200.824 78.4122 200.824C77.9922 200.824 77.6562 200.974 77.4042 201.274C77.1582 201.568 77.0352 201.982 77.0352 202.516C77.0352 203.05 77.1582 203.467 77.4042 203.767C77.6562 204.067 77.9922 204.217 78.4122 204.217C79.0062 204.217 79.3992 203.956 79.5912 203.434H80.6982C80.5542 203.938 80.2842 204.34 79.8882 204.64C79.4922 204.934 79.0002 205.081 78.4122 205.081C77.9382 205.081 77.5182 204.976 77.1522 204.766C76.7862 204.55 76.4982 204.25 76.2882 203.866C76.0842 203.476 75.9822 203.026 75.9822 202.516ZM82.4677 199.384C82.2817 199.384 82.1257 199.321 81.9997 199.195C81.8737 199.069 81.8107 198.913 81.8107 198.727C81.8107 198.541 81.8737 198.385 81.9997 198.259C82.1257 198.133 82.2817 198.07 82.4677 198.07C82.6477 198.07 82.8007 198.133 82.9267 198.259C83.0527 198.385 83.1157 198.541 83.1157 198.727C83.1157 198.913 83.0527 199.069 82.9267 199.195C82.8007 199.321 82.6477 199.384 82.4677 199.384ZM82.9717 200.041V205H81.9457V200.041H82.9717ZM89.0888 202.399C89.0888 202.585 89.0767 202.753 89.0527 202.903H85.2637C85.2937 203.299 85.4407 203.617 85.7047 203.857C85.9687 204.097 86.2927 204.217 86.6767 204.217C87.2287 204.217 87.6187 203.986 87.8467 203.524H88.9537C88.8037 203.98 88.5307 204.355 88.1347 204.649C87.7447 204.937 87.2587 205.081 86.6767 205.081C86.2027 205.081 85.7767 204.976 85.3987 204.766C85.0267 204.55 84.7327 204.25 84.5167 203.866C84.3067 203.476 84.2017 203.026 84.2017 202.516C84.2017 202.006 84.3037 201.559 84.5077 201.175C84.7177 200.785 85.0087 200.485 85.3807 200.275C85.7587 200.065 86.1907 199.96 86.6767 199.96C87.1447 199.96 87.5617 200.062 87.9277 200.266C88.2937 200.47 88.5787 200.758 88.7827 201.13C88.9867 201.496 89.0888 201.919 89.0888 202.399ZM88.0177 202.075C88.0117 201.697 87.8767 201.394 87.6127 201.166C87.3487 200.938 87.0217 200.824 86.6317 200.824C86.2777 200.824 85.9747 200.938 85.7227 201.166C85.4707 201.388 85.3207 201.691 85.2727 202.075H88.0177ZM92.8254 199.96C93.2154 199.96 93.5634 200.041 93.8694 200.203C94.1814 200.365 94.4244 200.605 94.5984 200.923C94.7724 201.241 94.8594 201.625 94.8594 202.075V205H93.8424V202.228C93.8424 201.784 93.7314 201.445 93.5094 201.211C93.2874 200.971 92.9844 200.851 92.6004 200.851C92.2164 200.851 91.9104 200.971 91.6824 201.211C91.4604 201.445 91.3494 201.784 91.3494 202.228V205H90.3234V200.041H91.3494V200.608C91.5174 200.404 91.7304 200.245 91.9884 200.131C92.2524 200.017 92.5314 199.96 92.8254 199.96ZM97.5902 200.878V203.623C97.5902 203.809 97.6322 203.944 97.7162 204.028C97.8062 204.106 97.9562 204.145 98.1662 204.145H98.7962V205H97.9862C97.5242 205 97.1702 204.892 96.9242 204.676C96.6782 204.46 96.5552 204.109 96.5552 203.623V200.878H95.9702V200.041H96.5552V198.808H97.5902V200.041H98.7962V200.878H97.5902ZM104.512 202.399C104.512 202.585 104.5 202.753 104.476 202.903H100.687C100.717 203.299 100.864 203.617 101.128 203.857C101.392 204.097 101.716 204.217 102.1 204.217C102.652 204.217 103.042 203.986 103.27 203.524H104.377C104.227 203.98 103.954 204.355 103.558 204.649C103.168 204.937 102.682 205.081 102.1 205.081C101.626 205.081 101.2 204.976 100.822 204.766C100.45 204.55 100.156 204.25 99.9398 203.866C99.7298 203.476 99.6248 203.026 99.6248 202.516C99.6248 202.006 99.7268 201.559 99.9308 201.175C100.141 200.785 100.432 200.485 100.804 200.275C101.182 200.065 101.614 199.96 102.1 199.96C102.568 199.96 102.985 200.062 103.351 200.266C103.717 200.47 104.002 200.758 104.206 201.13C104.41 201.496 104.512 201.919 104.512 202.399ZM103.441 202.075C103.435 201.697 103.3 201.394 103.036 201.166C102.772 200.938 102.445 200.824 102.055 200.824C101.701 200.824 101.398 200.938 101.146 201.166C100.894 201.388 100.744 201.691 100.696 202.075H103.441Z" fill="#D78101"/>
<path d="M53.713 185.682V192H52.174V188.211L50.761 192H49.519L48.097 188.202V192H46.558V185.682H48.376L50.149 190.056L51.904 185.682H53.713ZM54.7387 189.48C54.7387 188.964 54.8347 188.511 55.0267 188.121C55.2247 187.731 55.4917 187.431 55.8277 187.221C56.1637 187.011 56.5387 186.906 56.9527 186.906C57.3067 186.906 57.6157 186.978 57.8797 187.122C58.1497 187.266 58.3567 187.455 58.5007 187.689V186.978H60.0397V192H58.5007V191.289C58.3507 191.523 58.1407 191.712 57.8707 191.856C57.6067 192 57.2977 192.072 56.9437 192.072C56.5357 192.072 56.1637 191.967 55.8277 191.757C55.4917 191.541 55.2247 191.238 55.0267 190.848C54.8347 190.452 54.7387 189.996 54.7387 189.48ZM58.5007 189.489C58.5007 189.105 58.3927 188.802 58.1767 188.58C57.9667 188.358 57.7087 188.247 57.4027 188.247C57.0967 188.247 56.8357 188.358 56.6197 188.58C56.4097 188.796 56.3047 189.096 56.3047 189.48C56.3047 189.864 56.4097 190.17 56.6197 190.398C56.8357 190.62 57.0967 190.731 57.4027 190.731C57.7087 190.731 57.9667 190.62 58.1767 190.398C58.3927 190.176 58.5007 189.873 58.5007 189.489ZM62.9171 187.815C63.0971 187.539 63.3221 187.323 63.5921 187.167C63.8621 187.005 64.1621 186.924 64.4921 186.924V188.553H64.0691C63.6851 188.553 63.3971 188.637 63.2051 188.805C63.0131 188.967 62.9171 189.255 62.9171 189.669V192H61.3781V186.978H62.9171V187.815ZM65.1467 189.489C65.1467 188.967 65.2517 188.511 65.4617 188.121C65.6777 187.731 65.9747 187.431 66.3527 187.221C66.7367 187.011 67.1747 186.906 67.6667 186.906C68.2967 186.906 68.8217 187.071 69.2417 187.401C69.6677 187.731 69.9467 188.196 70.0787 188.796H68.4407C68.3027 188.412 68.0357 188.22 67.6397 188.22C67.3577 188.22 67.1327 188.331 66.9647 188.553C66.7967 188.769 66.7127 189.081 66.7127 189.489C66.7127 189.897 66.7967 190.212 66.9647 190.434C67.1327 190.65 67.3577 190.758 67.6397 190.758C68.0357 190.758 68.3027 190.566 68.4407 190.182H70.0787C69.9467 190.77 69.6677 191.232 69.2417 191.568C68.8157 191.904 68.2907 192.072 67.6667 192.072C67.1747 192.072 66.7367 191.967 66.3527 191.757C65.9747 191.547 65.6777 191.247 65.4617 190.857C65.2517 190.467 65.1467 190.011 65.1467 189.489ZM73.4129 192.072C72.9209 192.072 72.4769 191.967 72.0809 191.757C71.6909 191.547 71.3819 191.247 71.1539 190.857C70.9319 190.467 70.8209 190.011 70.8209 189.489C70.8209 188.973 70.9349 188.52 71.1629 188.13C71.3909 187.734 71.7029 187.431 72.0989 187.221C72.4949 187.011 72.9389 186.906 73.4309 186.906C73.9229 186.906 74.3669 187.011 74.7629 187.221C75.1589 187.431 75.4709 187.734 75.6989 188.13C75.9269 188.52 76.0409 188.973 76.0409 189.489C76.0409 190.005 75.9239 190.461 75.6899 190.857C75.4619 191.247 75.1469 191.547 74.7449 191.757C74.3489 191.967 73.9049 192.072 73.4129 192.072ZM73.4129 190.74C73.7069 190.74 73.9559 190.632 74.1599 190.416C74.3699 190.2 74.4749 189.891 74.4749 189.489C74.4749 189.087 74.3729 188.778 74.1689 188.562C73.9709 188.346 73.7249 188.238 73.4309 188.238C73.1309 188.238 72.8819 188.346 72.6839 188.562C72.4859 188.772 72.3869 189.081 72.3869 189.489C72.3869 189.891 72.4829 190.2 72.6749 190.416C72.8729 190.632 73.1189 190.74 73.4129 190.74ZM79.1254 192.072C78.6874 192.072 78.2974 191.997 77.9554 191.847C77.6134 191.697 77.3434 191.493 77.1454 191.235C76.9474 190.971 76.8364 190.677 76.8124 190.353H78.3334C78.3514 190.527 78.4324 190.668 78.5764 190.776C78.7204 190.884 78.8974 190.938 79.1074 190.938C79.2994 190.938 79.4464 190.902 79.5484 190.83C79.6564 190.752 79.7104 190.653 79.7104 190.533C79.7104 190.389 79.6354 190.284 79.4854 190.218C79.3354 190.146 79.0924 190.068 78.7564 189.984C78.3964 189.9 78.0964 189.813 77.8564 189.723C77.6164 189.627 77.4094 189.48 77.2354 189.282C77.0614 189.078 76.9744 188.805 76.9744 188.463C76.9744 188.175 77.0524 187.914 77.2084 187.68C77.3704 187.44 77.6044 187.251 77.9104 187.113C78.2224 186.975 78.5914 186.906 79.0174 186.906C79.6474 186.906 80.1424 187.062 80.5024 187.374C80.8684 187.686 81.0784 188.1 81.1324 188.616H79.7104C79.6864 188.442 79.6084 188.304 79.4764 188.202C79.3504 188.1 79.1824 188.049 78.9724 188.049C78.7924 188.049 78.6544 188.085 78.5584 188.157C78.4624 188.223 78.4144 188.316 78.4144 188.436C78.4144 188.58 78.4894 188.688 78.6394 188.76C78.7954 188.832 79.0354 188.904 79.3594 188.976C79.7314 189.072 80.0344 189.168 80.2684 189.264C80.5024 189.354 80.7064 189.504 80.8804 189.714C81.0604 189.918 81.1534 190.194 81.1594 190.542C81.1594 190.836 81.0754 191.1 80.9074 191.334C80.7454 191.562 80.5084 191.742 80.1964 191.874C79.8904 192.006 79.5334 192.072 79.1254 192.072ZM88.3912 190.884H86.0332L85.6552 192H84.0442L86.3302 185.682H88.1122L90.3982 192H88.7692L88.3912 190.884ZM87.9952 189.696L87.2122 187.383L86.4382 189.696H87.9952ZM94.3789 186.924C94.9669 186.924 95.4349 187.116 95.7829 187.5C96.1369 187.878 96.3139 188.4 96.3139 189.066V192H94.7839V189.273C94.7839 188.937 94.6969 188.676 94.5229 188.49C94.3489 188.304 94.1149 188.211 93.8209 188.211C93.5269 188.211 93.2929 188.304 93.1189 188.49C92.9449 188.676 92.8579 188.937 92.8579 189.273V192H91.3189V186.978H92.8579V187.644C93.0139 187.422 93.2239 187.248 93.4879 187.122C93.7519 186.99 94.0489 186.924 94.3789 186.924ZM100.407 190.695V192H99.6244C99.0664 192 98.6314 191.865 98.3194 191.595C98.0074 191.319 97.8514 190.872 97.8514 190.254V188.256H97.2394V186.978H97.8514V185.754H99.3904V186.978H100.398V188.256H99.3904V190.272C99.3904 190.422 99.4264 190.53 99.4984 190.596C99.5704 190.662 99.6904 190.695 99.8584 190.695H100.407ZM103.776 192.072C103.284 192.072 102.84 191.967 102.444 191.757C102.054 191.547 101.745 191.247 101.517 190.857C101.295 190.467 101.184 190.011 101.184 189.489C101.184 188.973 101.298 188.52 101.526 188.13C101.754 187.734 102.066 187.431 102.462 187.221C102.858 187.011 103.302 186.906 103.794 186.906C104.286 186.906 104.73 187.011 105.126 187.221C105.522 187.431 105.834 187.734 106.062 188.13C106.29 188.52 106.404 188.973 106.404 189.489C106.404 190.005 106.287 190.461 106.053 190.857C105.825 191.247 105.51 191.547 105.108 191.757C104.712 191.967 104.268 192.072 103.776 192.072ZM103.776 190.74C104.07 190.74 104.319 190.632 104.523 190.416C104.733 190.2 104.838 189.891 104.838 189.489C104.838 189.087 104.736 188.778 104.532 188.562C104.334 188.346 104.088 188.238 103.794 188.238C103.494 188.238 103.245 188.346 103.047 188.562C102.849 188.772 102.75 189.081 102.75 189.489C102.75 189.891 102.846 190.2 103.038 190.416C103.236 190.632 103.482 190.74 103.776 190.74ZM103.92 185.862L102.525 186.6V185.538L103.92 184.827L105.315 185.538V186.6L103.92 185.862ZM110.505 186.924C111.093 186.924 111.561 187.116 111.909 187.5C112.263 187.878 112.44 188.4 112.44 189.066V192H110.91V189.273C110.91 188.937 110.823 188.676 110.649 188.49C110.475 188.304 110.241 188.211 109.947 188.211C109.653 188.211 109.419 188.304 109.245 188.49C109.071 188.676 108.984 188.937 108.984 189.273V192H107.445V186.978H108.984V187.644C109.14 187.422 109.35 187.248 109.614 187.122C109.878 186.99 110.175 186.924 110.505 186.924ZM114.509 186.456C114.239 186.456 114.017 186.378 113.843 186.222C113.675 186.06 113.591 185.862 113.591 185.628C113.591 185.388 113.675 185.19 113.843 185.034C114.017 184.872 114.239 184.791 114.509 184.791C114.773 184.791 114.989 184.872 115.157 185.034C115.331 185.19 115.418 185.388 115.418 185.628C115.418 185.862 115.331 186.06 115.157 186.222C114.989 186.378 114.773 186.456 114.509 186.456ZM115.274 186.978V192H113.735V186.978H115.274ZM118.9 192.072C118.408 192.072 117.964 191.967 117.568 191.757C117.178 191.547 116.869 191.247 116.641 190.857C116.419 190.467 116.308 190.011 116.308 189.489C116.308 188.973 116.422 188.52 116.65 188.13C116.878 187.734 117.19 187.431 117.586 187.221C117.982 187.011 118.426 186.906 118.918 186.906C119.41 186.906 119.854 187.011 120.25 187.221C120.646 187.431 120.958 187.734 121.186 188.13C121.414 188.52 121.528 188.973 121.528 189.489C121.528 190.005 121.411 190.461 121.177 190.857C120.949 191.247 120.634 191.547 120.232 191.757C119.836 191.967 119.392 192.072 118.9 192.072ZM118.9 190.74C119.194 190.74 119.443 190.632 119.647 190.416C119.857 190.2 119.962 189.891 119.962 189.489C119.962 189.087 119.86 188.778 119.656 188.562C119.458 188.346 119.212 188.238 118.918 188.238C118.618 188.238 118.369 188.346 118.171 188.562C117.973 188.772 117.874 189.081 117.874 189.489C117.874 189.891 117.97 190.2 118.162 190.416C118.36 190.632 118.606 190.74 118.9 190.74Z" fill="#434343"/>
<path d="M40.1365 60.384V66H38.7685V62.632L37.5125 66H36.4085L35.1445 62.624V66H33.7765V60.384H35.3925L36.9685 64.272L38.5285 60.384H40.1365ZM45.7282 61.536V66H44.3602V65.392C44.2216 65.5893 44.0322 65.7493 43.7922 65.872C43.5576 65.9893 43.2962 66.048 43.0082 66.048C42.6669 66.048 42.3656 65.9733 42.1042 65.824C41.8429 65.6693 41.6402 65.448 41.4962 65.16C41.3522 64.872 41.2802 64.5333 41.2802 64.144V61.536H42.6402V63.96C42.6402 64.2587 42.7176 64.4907 42.8722 64.656C43.0269 64.8213 43.2349 64.904 43.4962 64.904C43.7629 64.904 43.9736 64.8213 44.1282 64.656C44.2829 64.4907 44.3602 64.2587 44.3602 63.96V61.536H45.7282ZM47.5988 61.072C47.3588 61.072 47.1615 61.0027 47.0068 60.864C46.8575 60.72 46.7828 60.544 46.7828 60.336C46.7828 60.1227 46.8575 59.9467 47.0068 59.808C47.1615 59.664 47.3588 59.592 47.5988 59.592C47.8335 59.592 48.0255 59.664 48.1748 59.808C48.3295 59.9467 48.4068 60.1227 48.4068 60.336C48.4068 60.544 48.3295 60.72 48.1748 60.864C48.0255 61.0027 47.8335 61.072 47.5988 61.072ZM48.2788 61.536V66H46.9108V61.536H48.2788ZM51.9582 64.84V66H51.2622C50.7662 66 50.3796 65.88 50.1022 65.64C49.8249 65.3947 49.6862 64.9973 49.6862 64.448V62.672H49.1422V61.536H49.6862V60.448H51.0542V61.536H51.9502V62.672H51.0542V64.464C51.0542 64.5973 51.0862 64.6933 51.1502 64.752C51.2142 64.8107 51.3209 64.84 51.4702 64.84H51.9582ZM54.9522 66.064C54.5149 66.064 54.1202 65.9707 53.7682 65.784C53.4216 65.5973 53.1469 65.3307 52.9442 64.984C52.7469 64.6373 52.6482 64.232 52.6482 63.768C52.6482 63.3093 52.7496 62.9067 52.9522 62.56C53.1549 62.208 53.4322 61.9387 53.7842 61.752C54.1362 61.5653 54.5309 61.472 54.9682 61.472C55.4056 61.472 55.8002 61.5653 56.1522 61.752C56.5042 61.9387 56.7816 62.208 56.9842 62.56C57.1869 62.9067 57.2882 63.3093 57.2882 63.768C57.2882 64.2267 57.1842 64.632 56.9762 64.984C56.7736 65.3307 56.4936 65.5973 56.1362 65.784C55.7842 65.9707 55.3896 66.064 54.9522 66.064ZM54.9522 64.88C55.2136 64.88 55.4349 64.784 55.6162 64.592C55.8029 64.4 55.8962 64.1253 55.8962 63.768C55.8962 63.4107 55.8056 63.136 55.6242 62.944C55.4482 62.752 55.2296 62.656 54.9682 62.656C54.7016 62.656 54.4802 62.752 54.3042 62.944C54.1282 63.1307 54.0402 63.4053 54.0402 63.768C54.0402 64.1253 54.1256 64.4 54.2962 64.592C54.4722 64.784 54.6909 64.88 54.9522 64.88ZM61.4773 62.168C61.6053 61.96 61.7893 61.792 62.0293 61.664C62.2693 61.536 62.5439 61.472 62.8533 61.472C63.2213 61.472 63.5546 61.5653 63.8533 61.752C64.1519 61.9387 64.3866 62.2053 64.5573 62.552C64.7333 62.8987 64.8213 63.3013 64.8213 63.76C64.8213 64.2187 64.7333 64.624 64.5573 64.976C64.3866 65.3227 64.1519 65.592 63.8533 65.784C63.5546 65.9707 63.2213 66.064 62.8533 66.064C62.5386 66.064 62.2639 66.0027 62.0293 65.88C61.7946 65.752 61.6106 65.584 61.4773 65.376V66H60.1093V60.08H61.4773V62.168ZM63.4293 63.76C63.4293 63.4187 63.3333 63.152 63.1413 62.96C62.9546 62.7627 62.7226 62.664 62.4453 62.664C62.1733 62.664 61.9413 62.7627 61.7493 62.96C61.5626 63.1573 61.4693 63.4267 61.4693 63.768C61.4693 64.1093 61.5626 64.3787 61.7493 64.576C61.9413 64.7733 62.1733 64.872 62.4453 64.872C62.7173 64.872 62.9493 64.7733 63.1413 64.576C63.3333 64.3733 63.4293 64.1013 63.4293 63.76ZM67.771 66.064C67.3336 66.064 66.939 65.9707 66.587 65.784C66.2403 65.5973 65.9656 65.3307 65.763 64.984C65.5656 64.6373 65.467 64.232 65.467 63.768C65.467 63.3093 65.5683 62.9067 65.771 62.56C65.9736 62.208 66.251 61.9387 66.603 61.752C66.955 61.5653 67.3496 61.472 67.787 61.472C68.2243 61.472 68.619 61.5653 68.971 61.752C69.323 61.9387 69.6003 62.208 69.803 62.56C70.0056 62.9067 70.107 63.3093 70.107 63.768C70.107 64.2267 70.003 64.632 69.795 64.984C69.5923 65.3307 69.3123 65.5973 68.955 65.784C68.603 65.9707 68.2083 66.064 67.771 66.064ZM67.771 64.88C68.0323 64.88 68.2536 64.784 68.435 64.592C68.6216 64.4 68.715 64.1253 68.715 63.768C68.715 63.4107 68.6243 63.136 68.443 62.944C68.267 62.752 68.0483 62.656 67.787 62.656C67.5203 62.656 67.299 62.752 67.123 62.944C66.947 63.1307 66.859 63.4053 66.859 63.768C66.859 64.1253 66.9443 64.4 67.115 64.592C67.291 64.784 67.5096 64.88 67.771 64.88ZM76.7287 61.488C77.2834 61.488 77.7234 61.656 78.0487 61.992C78.3794 62.328 78.5447 62.7947 78.5447 63.392V66H77.1847V63.576C77.1847 63.288 77.1074 63.0667 76.9527 62.912C76.8034 62.752 76.5954 62.672 76.3287 62.672C76.0621 62.672 75.8514 62.752 75.6967 62.912C75.5474 63.0667 75.4727 63.288 75.4727 63.576V66H74.1127V63.576C74.1127 63.288 74.0354 63.0667 73.8807 62.912C73.7314 62.752 73.5234 62.672 73.2567 62.672C72.99 62.672 72.7794 62.752 72.6247 62.912C72.4754 63.0667 72.4007 63.288 72.4007 63.576V66H71.0327V61.536H72.4007V62.096C72.5394 61.9093 72.7207 61.7627 72.9447 61.656C73.1687 61.544 73.422 61.488 73.7047 61.488C74.0407 61.488 74.3394 61.56 74.6007 61.704C74.8674 61.848 75.0754 62.0533 75.2247 62.32C75.3794 62.0747 75.59 61.8747 75.8567 61.72C76.1234 61.5653 76.4141 61.488 76.7287 61.488ZM81.3248 63.76C81.3248 63.3013 81.4101 62.8987 81.5808 62.552C81.7568 62.2053 81.9941 61.9387 82.2928 61.752C82.5915 61.5653 82.9248 61.472 83.2928 61.472C83.6075 61.472 83.8821 61.536 84.1168 61.664C84.3568 61.792 84.5408 61.96 84.6688 62.168V61.536H86.0368V66H84.6688V65.368C84.5355 65.576 84.3488 65.744 84.1088 65.872C83.8741 66 83.5995 66.064 83.2848 66.064C82.9221 66.064 82.5915 65.9707 82.2928 65.784C81.9941 65.592 81.7568 65.3227 81.5808 64.976C81.4101 64.624 81.3248 64.2187 81.3248 63.76ZM84.6688 63.768C84.6688 63.4267 84.5728 63.1573 84.3808 62.96C84.1941 62.7627 83.9648 62.664 83.6928 62.664C83.4208 62.664 83.1888 62.7627 82.9968 62.96C82.8101 63.152 82.7168 63.4187 82.7168 63.76C82.7168 64.1013 82.8101 64.3733 82.9968 64.576C83.1888 64.7733 83.4208 64.872 83.6928 64.872C83.9648 64.872 84.1941 64.7733 84.3808 64.576C84.5728 64.3787 84.6688 64.1093 84.6688 63.768ZM89.7145 64.84V66H89.0185C88.5225 66 88.1358 65.88 87.8585 65.64C87.5811 65.3947 87.4425 64.9973 87.4425 64.448V62.672H86.8985V61.536H87.4425V60.448H88.8105V61.536H89.7065V62.672H88.8105V64.464C88.8105 64.5973 88.8425 64.6933 88.9065 64.752C88.9705 64.8107 89.0771 64.84 89.2265 64.84H89.7145ZM94.8845 63.696C94.8845 63.824 94.8765 63.9573 94.8605 64.096H91.7645C91.7858 64.3733 91.8738 64.5867 92.0285 64.736C92.1885 64.88 92.3831 64.952 92.6125 64.952C92.9538 64.952 93.1911 64.808 93.3245 64.52H94.7805C94.7058 64.8133 94.5698 65.0773 94.3725 65.312C94.1805 65.5467 93.9378 65.7307 93.6445 65.864C93.3511 65.9973 93.0231 66.064 92.6605 66.064C92.2231 66.064 91.8338 65.9707 91.4925 65.784C91.1511 65.5973 90.8845 65.3307 90.6925 64.984C90.5005 64.6373 90.4045 64.232 90.4045 63.768C90.4045 63.304 90.4978 62.8987 90.6845 62.552C90.8765 62.2053 91.1431 61.9387 91.4845 61.752C91.8258 61.5653 92.2178 61.472 92.6605 61.472C93.0925 61.472 93.4765 61.5627 93.8125 61.744C94.1485 61.9253 94.4098 62.184 94.5965 62.52C94.7885 62.856 94.8845 63.248 94.8845 63.696ZM93.4845 63.336C93.4845 63.1013 93.4045 62.9147 93.2445 62.776C93.0845 62.6373 92.8845 62.568 92.6445 62.568C92.4151 62.568 92.2205 62.6347 92.0605 62.768C91.9058 62.9013 91.8098 63.0907 91.7725 63.336H93.4845ZM98.5262 61.488C99.0488 61.488 99.4648 61.6587 99.7742 62C100.089 62.336 100.246 62.8 100.246 63.392V66H98.8862V63.576C98.8862 63.2773 98.8088 63.0453 98.6542 62.88C98.4995 62.7147 98.2915 62.632 98.0302 62.632C97.7688 62.632 97.5608 62.7147 97.4062 62.88C97.2515 63.0453 97.1742 63.2773 97.1742 63.576V66H95.8062V61.536H97.1742V62.128C97.3128 61.9307 97.4995 61.776 97.7342 61.664C97.9688 61.5467 98.2328 61.488 98.5262 61.488ZM101.125 63.76C101.125 63.3013 101.21 62.8987 101.381 62.552C101.557 62.2053 101.794 61.9387 102.093 61.752C102.391 61.5653 102.725 61.472 103.093 61.472C103.386 61.472 103.653 61.5333 103.893 61.656C104.138 61.7787 104.33 61.944 104.469 62.152V60.08H105.837V66H104.469V65.36C104.341 65.5733 104.157 65.744 103.917 65.872C103.682 66 103.407 66.064 103.093 66.064C102.725 66.064 102.391 65.9707 102.093 65.784C101.794 65.592 101.557 65.3227 101.381 64.976C101.21 64.624 101.125 64.2187 101.125 63.76ZM104.469 63.768C104.469 63.4267 104.373 63.1573 104.181 62.96C103.994 62.7627 103.765 62.664 103.493 62.664C103.221 62.664 102.989 62.7627 102.797 62.96C102.61 63.152 102.517 63.4187 102.517 63.76C102.517 64.1013 102.61 64.3733 102.797 64.576C102.989 64.7733 103.221 64.872 103.493 64.872C103.765 64.872 103.994 64.7733 104.181 64.576C104.373 64.3787 104.469 64.1093 104.469 63.768ZM107.714 61.072C107.474 61.072 107.277 61.0027 107.122 60.864C106.973 60.72 106.898 60.544 106.898 60.336C106.898 60.1227 106.973 59.9467 107.122 59.808C107.277 59.664 107.474 59.592 107.714 59.592C107.949 59.592 108.141 59.664 108.29 59.808C108.445 59.9467 108.522 60.1227 108.522 60.336C108.522 60.544 108.445 60.72 108.29 60.864C108.141 61.0027 107.949 61.072 107.714 61.072ZM108.394 61.536V66H107.026V61.536H108.394ZM115.282 61.488C115.837 61.488 116.277 61.656 116.602 61.992C116.933 62.328 117.098 62.7947 117.098 63.392V66H115.738V63.576C115.738 63.288 115.661 63.0667 115.506 62.912C115.357 62.752 115.149 62.672 114.882 62.672C114.615 62.672 114.405 62.752 114.25 62.912C114.101 63.0667 114.026 63.288 114.026 63.576V66H112.666V63.576C112.666 63.288 112.589 63.0667 112.434 62.912C112.285 62.752 112.077 62.672 111.81 62.672C111.543 62.672 111.333 62.752 111.178 62.912C111.029 63.0667 110.954 63.288 110.954 63.576V66H109.586V61.536H110.954V62.096C111.093 61.9093 111.274 61.7627 111.498 61.656C111.722 61.544 111.975 61.488 112.258 61.488C112.594 61.488 112.893 61.56 113.154 61.704C113.421 61.848 113.629 62.0533 113.778 62.32C113.933 62.0747 114.143 61.8747 114.41 61.72C114.677 61.5653 114.967 61.488 115.282 61.488ZM122.463 63.696C122.463 63.824 122.455 63.9573 122.439 64.096H119.343C119.364 64.3733 119.452 64.5867 119.607 64.736C119.767 64.88 119.961 64.952 120.191 64.952C120.532 64.952 120.769 64.808 120.903 64.52H122.359C122.284 64.8133 122.148 65.0773 121.951 65.312C121.759 65.5467 121.516 65.7307 121.223 65.864C120.929 65.9973 120.601 66.064 120.239 66.064C119.801 66.064 119.412 65.9707 119.071 65.784C118.729 65.5973 118.463 65.3307 118.271 64.984C118.079 64.6373 117.983 64.232 117.983 63.768C117.983 63.304 118.076 62.8987 118.263 62.552C118.455 62.2053 118.721 61.9387 119.063 61.752C119.404 61.5653 119.796 61.472 120.239 61.472C120.671 61.472 121.055 61.5627 121.391 61.744C121.727 61.9253 121.988 62.184 122.175 62.52C122.367 62.856 122.463 63.248 122.463 63.696ZM121.063 63.336C121.063 63.1013 120.983 62.9147 120.823 62.776C120.663 62.6373 120.463 62.568 120.223 62.568C119.993 62.568 119.799 62.6347 119.639 62.768C119.484 62.9013 119.388 63.0907 119.351 63.336H121.063ZM126.104 61.488C126.627 61.488 127.043 61.6587 127.352 62C127.667 62.336 127.824 62.8 127.824 63.392V66H126.464V63.576C126.464 63.2773 126.387 63.0453 126.232 62.88C126.078 62.7147 125.87 62.632 125.608 62.632C125.347 62.632 125.139 62.7147 124.984 62.88C124.83 63.0453 124.752 63.2773 124.752 63.576V66H123.384V61.536H124.752V62.128C124.891 61.9307 125.078 61.776 125.312 61.664C125.547 61.5467 125.811 61.488 126.104 61.488ZM131.463 64.84V66H130.767C130.271 66 129.884 65.88 129.607 65.64C129.33 65.3947 129.191 64.9973 129.191 64.448V62.672H128.647V61.536H129.191V60.448H130.559V61.536H131.455V62.672H130.559V64.464C130.559 64.5973 130.591 64.6933 130.655 64.752C130.719 64.8107 130.826 64.84 130.975 64.84H131.463ZM134.457 66.064C134.02 66.064 133.625 65.9707 133.273 65.784C132.926 65.5973 132.652 65.3307 132.449 64.984C132.252 64.6373 132.153 64.232 132.153 63.768C132.153 63.3093 132.254 62.9067 132.457 62.56C132.66 62.208 132.937 61.9387 133.289 61.752C133.641 61.5653 134.036 61.472 134.473 61.472C134.91 61.472 135.305 61.5653 135.657 61.752C136.009 61.9387 136.286 62.208 136.489 62.56C136.692 62.9067 136.793 63.3093 136.793 63.768C136.793 64.2267 136.689 64.632 136.481 64.984C136.278 65.3307 135.998 65.5973 135.641 65.784C135.289 65.9707 134.894 66.064 134.457 66.064ZM134.457 64.88C134.718 64.88 134.94 64.784 135.121 64.592C135.308 64.4 135.401 64.1253 135.401 63.768C135.401 63.4107 135.31 63.136 135.129 62.944C134.953 62.752 134.734 62.656 134.473 62.656C134.206 62.656 133.985 62.752 133.809 62.944C133.633 63.1307 133.545 63.4053 133.545 63.768C133.545 64.1253 133.63 64.4 133.801 64.592C133.977 64.784 134.196 64.88 134.457 64.88ZM139.191 64.736L138.303 67.032H137.431L137.895 64.736H139.191ZM19.9085 74.168C20.0419 73.96 20.2259 73.792 20.4605 73.664C20.6952 73.536 20.9699 73.472 21.2845 73.472C21.6525 73.472 21.9859 73.5653 22.2845 73.752C22.5832 73.9387 22.8179 74.2053 22.9885 74.552C23.1645 74.8987 23.2525 75.3013 23.2525 75.76C23.2525 76.2187 23.1645 76.624 22.9885 76.976C22.8179 77.3227 22.5832 77.592 22.2845 77.784C21.9859 77.9707 21.6525 78.064 21.2845 78.064C20.9752 78.064 20.7005 78 20.4605 77.872C20.2259 77.744 20.0419 77.5787 19.9085 77.376V80.128H18.5405V73.536H19.9085V74.168ZM21.8605 75.76C21.8605 75.4187 21.7645 75.152 21.5725 74.96C21.3859 74.7627 21.1539 74.664 20.8765 74.664C20.6045 74.664 20.3725 74.7627 20.1805 74.96C19.9939 75.1573 19.9005 75.4267 19.9005 75.768C19.9005 76.1093 19.9939 76.3787 20.1805 76.576C20.3725 76.7733 20.6045 76.872 20.8765 76.872C21.1485 76.872 21.3805 76.7733 21.5725 76.576C21.7645 76.3733 21.8605 76.1013 21.8605 75.76ZM23.8982 75.76C23.8982 75.3013 23.9836 74.8987 24.1542 74.552C24.3302 74.2053 24.5676 73.9387 24.8662 73.752C25.1649 73.5653 25.4982 73.472 25.8662 73.472C26.1809 73.472 26.4556 73.536 26.6902 73.664C26.9302 73.792 27.1142 73.96 27.2422 74.168V73.536H28.6102V78H27.2422V77.368C27.1089 77.576 26.9222 77.744 26.6822 77.872C26.4476 78 26.1729 78.064 25.8582 78.064C25.4956 78.064 25.1649 77.9707 24.8662 77.784C24.5676 77.592 24.3302 77.3227 24.1542 76.976C23.9836 76.624 23.8982 76.2187 23.8982 75.76ZM27.2422 75.768C27.2422 75.4267 27.1462 75.1573 26.9542 74.96C26.7676 74.7627 26.5382 74.664 26.2662 74.664C25.9942 74.664 25.7622 74.7627 25.5702 74.96C25.3836 75.152 25.2902 75.4187 25.2902 75.76C25.2902 76.1013 25.3836 76.3733 25.5702 76.576C25.7622 76.7733 25.9942 76.872 26.2662 76.872C26.5382 76.872 26.7676 76.7733 26.9542 76.576C27.1462 76.3787 27.2422 76.1093 27.2422 75.768ZM31.1679 74.28C31.3279 74.0347 31.5279 73.8427 31.7679 73.704C32.0079 73.56 32.2746 73.488 32.5679 73.488V74.936H32.1919C31.8506 74.936 31.5946 75.0107 31.4239 75.16C31.2532 75.304 31.1679 75.56 31.1679 75.928V78H29.7999V73.536H31.1679V74.28ZM33.1498 75.76C33.1498 75.3013 33.2351 74.8987 33.4058 74.552C33.5818 74.2053 33.8191 73.9387 34.1178 73.752C34.4164 73.5653 34.7498 73.472 35.1178 73.472C35.4324 73.472 35.7071 73.536 35.9418 73.664C36.1818 73.792 36.3658 73.96 36.4938 74.168V73.536H37.8618V78H36.4938V77.368C36.3605 77.576 36.1738 77.744 35.9338 77.872C35.6991 78 35.4244 78.064 35.1098 78.064C34.7471 78.064 34.4164 77.9707 34.1178 77.784C33.8191 77.592 33.5818 77.3227 33.4058 76.976C33.2351 76.624 33.1498 76.2187 33.1498 75.76ZM36.4938 75.768C36.4938 75.4267 36.3978 75.1573 36.2058 74.96C36.0191 74.7627 35.7898 74.664 35.5178 74.664C35.2458 74.664 35.0138 74.7627 34.8218 74.96C34.6351 75.152 34.5418 75.4187 34.5418 75.76C34.5418 76.1013 34.6351 76.3733 34.8218 76.576C35.0138 76.7733 35.2458 76.872 35.5178 76.872C35.7898 76.872 36.0191 76.7733 36.2058 76.576C36.3978 76.3787 36.4938 76.1093 36.4938 75.768ZM40.4195 74.168C40.5475 73.96 40.7315 73.792 40.9715 73.664C41.2115 73.536 41.4861 73.472 41.7955 73.472C42.1635 73.472 42.4968 73.5653 42.7955 73.752C43.0941 73.9387 43.3288 74.2053 43.4995 74.552C43.6755 74.8987 43.7635 75.3013 43.7635 75.76C43.7635 76.2187 43.6755 76.624 43.4995 76.976C43.3288 77.3227 43.0941 77.592 42.7955 77.784C42.4968 77.9707 42.1635 78.064 41.7955 78.064C41.4808 78.064 41.2061 78.0027 40.9715 77.88C40.7368 77.752 40.5528 77.584 40.4195 77.376V78H39.0515V72.08H40.4195V74.168ZM42.3715 75.76C42.3715 75.4187 42.2755 75.152 42.0835 74.96C41.8968 74.7627 41.6648 74.664 41.3875 74.664C41.1155 74.664 40.8835 74.7627 40.6915 74.96C40.5048 75.1573 40.4115 75.4267 40.4115 75.768C40.4115 76.1093 40.5048 76.3787 40.6915 76.576C40.8835 76.7733 41.1155 76.872 41.3875 76.872C41.6595 76.872 41.8915 76.7733 42.0835 76.576C42.2755 76.3733 42.3715 76.1013 42.3715 75.76ZM48.8892 75.696C48.8892 75.824 48.8812 75.9573 48.8652 76.096H45.7692C45.7905 76.3733 45.8785 76.5867 46.0332 76.736C46.1932 76.88 46.3878 76.952 46.6172 76.952C46.9585 76.952 47.1958 76.808 47.3292 76.52H48.7852C48.7105 76.8133 48.5745 77.0773 48.3772 77.312C48.1852 77.5467 47.9425 77.7307 47.6492 77.864C47.3558 77.9973 47.0278 78.064 46.6652 78.064C46.2278 78.064 45.8385 77.9707 45.4972 77.784C45.1558 77.5973 44.8892 77.3307 44.6972 76.984C44.5052 76.6373 44.4092 76.232 44.4092 75.768C44.4092 75.304 44.5025 74.8987 44.6892 74.552C44.8812 74.2053 45.1478 73.9387 45.4892 73.752C45.8305 73.5653 46.2225 73.472 46.6652 73.472C47.0972 73.472 47.4812 73.5627 47.8172 73.744C48.1532 73.9253 48.4145 74.184 48.6012 74.52C48.7932 74.856 48.8892 75.248 48.8892 75.696ZM47.4892 75.336C47.4892 75.1013 47.4092 74.9147 47.2492 74.776C47.0892 74.6373 46.8892 74.568 46.6492 74.568C46.4198 74.568 46.2252 74.6347 46.0652 74.768C45.9105 74.9013 45.8145 75.0907 45.7772 75.336H47.4892ZM52.5308 73.488C53.0535 73.488 53.4695 73.6587 53.7788 74C54.0935 74.336 54.2508 74.8 54.2508 75.392V78H52.8908V75.576C52.8908 75.2773 52.8135 75.0453 52.6588 74.88C52.5042 74.7147 52.2962 74.632 52.0348 74.632C51.7735 74.632 51.5655 74.7147 51.4108 74.88C51.2562 75.0453 51.1788 75.2773 51.1788 75.576V78H49.8108V73.536H51.1788V74.128C51.3175 73.9307 51.5042 73.776 51.7388 73.664C51.9735 73.5467 52.2375 73.488 52.5308 73.488ZM56.0895 73.072C55.8495 73.072 55.6521 73.0027 55.4975 72.864C55.3481 72.72 55.2735 72.544 55.2735 72.336C55.2735 72.1227 55.3481 71.9467 55.4975 71.808C55.6521 71.664 55.8495 71.592 56.0895 71.592C56.3241 71.592 56.5161 71.664 56.6655 71.808C56.8201 71.9467 56.8975 72.1227 56.8975 72.336C56.8975 72.544 56.8201 72.72 56.6655 72.864C56.5161 73.0027 56.3241 73.072 56.0895 73.072ZM56.7695 73.536V78H55.4015V73.536H56.7695ZM59.2408 76.872H61.1768V78H57.7128V76.912L59.5688 74.664H57.7288V73.536H61.1368V74.624L59.2408 76.872ZM64.1616 78.064C63.7243 78.064 63.3296 77.9707 62.9776 77.784C62.6309 77.5973 62.3563 77.3307 62.1536 76.984C61.9563 76.6373 61.8576 76.232 61.8576 75.768C61.8576 75.3093 61.9589 74.9067 62.1616 74.56C62.3643 74.208 62.6416 73.9387 62.9936 73.752C63.3456 73.5653 63.7403 73.472 64.1776 73.472C64.6149 73.472 65.0096 73.5653 65.3616 73.752C65.7136 73.9387 65.9909 74.208 66.1936 74.56C66.3963 74.9067 66.4976 75.3093 66.4976 75.768C66.4976 76.2267 66.3936 76.632 66.1856 76.984C65.9829 77.3307 65.7029 77.5973 65.3456 77.784C64.9936 77.9707 64.5989 78.064 64.1616 78.064ZM64.1616 76.88C64.4229 76.88 64.6443 76.784 64.8256 76.592C65.0123 76.4 65.1056 76.1253 65.1056 75.768C65.1056 75.4107 65.0149 75.136 64.8336 74.944C64.6576 74.752 64.4389 74.656 64.1776 74.656C63.9109 74.656 63.6896 74.752 63.5136 74.944C63.3376 75.1307 63.2496 75.4053 63.2496 75.768C63.2496 76.1253 63.3349 76.4 63.5056 76.592C63.6816 76.784 63.9003 76.88 64.1616 76.88ZM71.3507 78.064C70.9133 78.064 70.5187 77.9707 70.1667 77.784C69.82 77.5973 69.5453 77.3307 69.3427 76.984C69.1453 76.6373 69.0467 76.232 69.0467 75.768C69.0467 75.3093 69.148 74.9067 69.3507 74.56C69.5533 74.208 69.8307 73.9387 70.1827 73.752C70.5347 73.5653 70.9293 73.472 71.3667 73.472C71.804 73.472 72.1987 73.5653 72.5507 73.752C72.9027 73.9387 73.18 74.208 73.3827 74.56C73.5853 74.9067 73.6867 75.3093 73.6867 75.768C73.6867 76.2267 73.5827 76.632 73.3747 76.984C73.172 77.3307 72.892 77.5973 72.5347 77.784C72.1827 77.9707 71.788 78.064 71.3507 78.064ZM71.3507 76.88C71.612 76.88 71.8333 76.784 72.0147 76.592C72.2013 76.4 72.2947 76.1253 72.2947 75.768C72.2947 75.4107 72.204 75.136 72.0227 74.944C71.8467 74.752 71.628 74.656 71.3667 74.656C71.1 74.656 70.8787 74.752 70.7027 74.944C70.5267 75.1307 70.4387 75.4053 70.4387 75.768C70.4387 76.1253 70.524 76.4 70.6947 76.592C70.8707 76.784 71.0893 76.88 71.3507 76.88ZM78.3237 78.064C77.9344 78.064 77.5877 77.9973 77.2837 77.864C76.9797 77.7307 76.7397 77.5493 76.5637 77.32C76.3877 77.0853 76.2891 76.824 76.2677 76.536H77.6197C77.6357 76.6907 77.7077 76.816 77.8357 76.912C77.9637 77.008 78.1211 77.056 78.3077 77.056C78.4784 77.056 78.6091 77.024 78.6997 76.96C78.7957 76.8907 78.8437 76.8027 78.8437 76.696C78.8437 76.568 78.7771 76.4747 78.6437 76.416C78.5104 76.352 78.2944 76.2827 77.9957 76.208C77.6757 76.1333 77.4091 76.056 77.1957 75.976C76.9824 75.8907 76.7984 75.76 76.6437 75.584C76.4891 75.4027 76.4117 75.16 76.4117 74.856C76.4117 74.6 76.4811 74.368 76.6197 74.16C76.7637 73.9467 76.9717 73.7787 77.2437 73.656C77.5211 73.5333 77.8491 73.472 78.2277 73.472C78.7877 73.472 79.2277 73.6107 79.5477 73.888C79.8731 74.1653 80.0597 74.5333 80.1077 74.992H78.8437C78.8224 74.8373 78.7531 74.7147 78.6357 74.624C78.5237 74.5333 78.3744 74.488 78.1877 74.488C78.0277 74.488 77.9051 74.52 77.8197 74.584C77.7344 74.6427 77.6917 74.7253 77.6917 74.832C77.6917 74.96 77.7584 75.056 77.8917 75.12C78.0304 75.184 78.2437 75.248 78.5317 75.312C78.8624 75.3973 79.1317 75.4827 79.3397 75.568C79.5477 75.648 79.7291 75.7813 79.8837 75.968C80.0437 76.1493 80.1264 76.3947 80.1317 76.704C80.1317 76.9653 80.0571 77.2 79.9077 77.408C79.7637 77.6107 79.5531 77.7707 79.2757 77.888C79.0037 78.0053 78.6864 78.064 78.3237 78.064ZM85.3767 75.696C85.3767 75.824 85.3687 75.9573 85.3527 76.096H82.2567C82.278 76.3733 82.366 76.5867 82.5207 76.736C82.6807 76.88 82.8753 76.952 83.1047 76.952C83.446 76.952 83.6833 76.808 83.8167 76.52H85.2727C85.198 76.8133 85.062 77.0773 84.8647 77.312C84.6727 77.5467 84.43 77.7307 84.1367 77.864C83.8433 77.9973 83.5153 78.064 83.1527 78.064C82.7153 78.064 82.326 77.9707 81.9847 77.784C81.6433 77.5973 81.3767 77.3307 81.1847 76.984C80.9927 76.6373 80.8967 76.232 80.8967 75.768C80.8967 75.304 80.99 74.8987 81.1767 74.552C81.3687 74.2053 81.6353 73.9387 81.9767 73.752C82.318 73.5653 82.71 73.472 83.1527 73.472C83.5847 73.472 83.9687 73.5627 84.3047 73.744C84.6407 73.9253 84.902 74.184 85.0887 74.52C85.2807 74.856 85.3767 75.248 85.3767 75.696ZM83.9767 75.336C83.9767 75.1013 83.8967 74.9147 83.7367 74.776C83.5767 74.6373 83.3767 74.568 83.1367 74.568C82.9073 74.568 82.7127 74.6347 82.5527 74.768C82.398 74.9013 82.302 75.0907 82.2647 75.336H83.9767ZM88.7863 76.84V78H88.0903C87.5943 78 87.2077 77.88 86.9303 77.64C86.653 77.3947 86.5143 76.9973 86.5143 76.448V74.672H85.9703V73.536H86.5143V72.448H87.8823V73.536H88.7783V74.672H87.8823V76.464C87.8823 76.5973 87.9143 76.6933 87.9783 76.752C88.0423 76.8107 88.149 76.84 88.2983 76.84H88.7863ZM91.7803 78.064C91.343 78.064 90.9483 77.9707 90.5963 77.784C90.2497 77.5973 89.975 77.3307 89.7723 76.984C89.575 76.6373 89.4763 76.232 89.4763 75.768C89.4763 75.3093 89.5777 74.9067 89.7803 74.56C89.983 74.208 90.2603 73.9387 90.6123 73.752C90.9643 73.5653 91.359 73.472 91.7963 73.472C92.2337 73.472 92.6283 73.5653 92.9803 73.752C93.3323 73.9387 93.6097 74.208 93.8123 74.56C94.015 74.9067 94.1163 75.3093 94.1163 75.768C94.1163 76.2267 94.0123 76.632 93.8043 76.984C93.6017 77.3307 93.3217 77.5973 92.9643 77.784C92.6123 77.9707 92.2177 78.064 91.7803 78.064ZM91.7803 76.88C92.0417 76.88 92.263 76.784 92.4443 76.592C92.631 76.4 92.7243 76.1253 92.7243 75.768C92.7243 75.4107 92.6337 75.136 92.4523 74.944C92.2763 74.752 92.0577 74.656 91.7963 74.656C91.5297 74.656 91.3083 74.752 91.1323 74.944C90.9563 75.1307 90.8683 75.4053 90.8683 75.768C90.8683 76.1253 90.9537 76.4 91.1243 76.592C91.3003 76.784 91.519 76.88 91.7803 76.88ZM96.4101 74.28C96.5701 74.0347 96.7701 73.8427 97.0101 73.704C97.2501 73.56 97.5168 73.488 97.8101 73.488V74.936H97.4341C97.0928 74.936 96.8368 75.0107 96.6661 75.16C96.4954 75.304 96.4101 75.56 96.4101 75.928V78H95.0421V73.536H96.4101V74.28ZM100.287 75.76C100.287 75.3013 100.373 74.8987 100.543 74.552C100.719 74.2053 100.957 73.9387 101.255 73.752C101.554 73.5653 101.887 73.472 102.255 73.472C102.549 73.472 102.815 73.5333 103.055 73.656C103.301 73.7787 103.493 73.944 103.631 74.152V72.08H104.999V78H103.631V77.36C103.503 77.5733 103.319 77.744 103.079 77.872C102.845 78 102.57 78.064 102.255 78.064C101.887 78.064 101.554 77.9707 101.255 77.784C100.957 77.592 100.719 77.3227 100.543 76.976C100.373 76.624 100.287 76.2187 100.287 75.76ZM103.631 75.768C103.631 75.4267 103.535 75.1573 103.343 74.96C103.157 74.7627 102.927 74.664 102.655 74.664C102.383 74.664 102.151 74.7627 101.959 74.96C101.773 75.152 101.679 75.4187 101.679 75.76C101.679 76.1013 101.773 76.3733 101.959 76.576C102.151 76.7733 102.383 76.872 102.655 76.872C102.927 76.872 103.157 76.7733 103.343 76.576C103.535 76.3787 103.631 76.1093 103.631 75.768ZM110.397 75.696C110.397 75.824 110.389 75.9573 110.373 76.096H107.277C107.298 76.3733 107.386 76.5867 107.541 76.736C107.701 76.88 107.896 76.952 108.125 76.952C108.466 76.952 108.704 76.808 108.837 76.52H110.293C110.218 76.8133 110.082 77.0773 109.885 77.312C109.693 77.5467 109.45 77.7307 109.157 77.864C108.864 77.9973 108.536 78.064 108.173 78.064C107.736 78.064 107.346 77.9707 107.005 77.784C106.664 77.5973 106.397 77.3307 106.205 76.984C106.013 76.6373 105.917 76.232 105.917 75.768C105.917 75.304 106.01 74.8987 106.197 74.552C106.389 74.2053 106.656 73.9387 106.997 73.752C107.338 73.5653 107.73 73.472 108.173 73.472C108.605 73.472 108.989 73.5627 109.325 73.744C109.661 73.9253 109.922 74.184 110.109 74.52C110.301 74.856 110.397 75.248 110.397 75.696ZM108.997 75.336C108.997 75.1013 108.917 74.9147 108.757 74.776C108.597 74.6373 108.397 74.568 108.157 74.568C107.928 74.568 107.733 74.6347 107.573 74.768C107.418 74.9013 107.322 75.0907 107.285 75.336H108.997ZM115.246 78.064C114.809 78.064 114.414 77.9707 114.062 77.784C113.715 77.5973 113.441 77.3307 113.238 76.984C113.041 76.6373 112.942 76.232 112.942 75.768C112.942 75.3093 113.043 74.9067 113.246 74.56C113.449 74.208 113.726 73.9387 114.078 73.752C114.43 73.5653 114.825 73.472 115.262 73.472C115.699 73.472 116.094 73.5653 116.446 73.752C116.798 73.9387 117.075 74.208 117.278 74.56C117.481 74.9067 117.582 75.3093 117.582 75.768C117.582 76.2267 117.478 76.632 117.27 76.984C117.067 77.3307 116.787 77.5973 116.43 77.784C116.078 77.9707 115.683 78.064 115.246 78.064ZM115.246 76.88C115.507 76.88 115.729 76.784 115.91 76.592C116.097 76.4 116.19 76.1253 116.19 75.768C116.19 75.4107 116.099 75.136 115.918 74.944C115.742 74.752 115.523 74.656 115.262 74.656C114.995 74.656 114.774 74.752 114.598 74.944C114.422 75.1307 114.334 75.4053 114.334 75.768C114.334 76.1253 114.419 76.4 114.59 76.592C114.766 76.784 114.985 76.88 115.246 76.88ZM119.876 74.28C120.036 74.0347 120.236 73.8427 120.476 73.704C120.716 73.56 120.982 73.488 121.276 73.488V74.936H120.9C120.558 74.936 120.302 75.0107 120.132 75.16C119.961 75.304 119.876 75.56 119.876 75.928V78H118.508V73.536H119.876V74.28ZM124.618 76.84V78H123.922C123.426 78 123.039 77.88 122.762 77.64C122.484 77.3947 122.346 76.9973 122.346 76.448V74.672H121.802V73.536H122.346V72.448H123.714V73.536H124.61V74.672H123.714V76.464C123.714 76.5973 123.746 76.6933 123.81 76.752C123.874 76.8107 123.98 76.84 124.13 76.84H124.618ZM127.612 78.064C127.174 78.064 126.78 77.9707 126.428 77.784C126.081 77.5973 125.806 77.3307 125.604 76.984C125.406 76.6373 125.308 76.232 125.308 75.768C125.308 75.3093 125.409 74.9067 125.612 74.56C125.814 74.208 126.092 73.9387 126.444 73.752C126.796 73.5653 127.19 73.472 127.628 73.472C128.065 73.472 128.46 73.5653 128.812 73.752C129.164 73.9387 129.441 74.208 129.644 74.56C129.846 74.9067 129.948 75.3093 129.948 75.768C129.948 76.2267 129.844 76.632 129.636 76.984C129.433 77.3307 129.153 77.5973 128.796 77.784C128.444 77.9707 128.049 78.064 127.612 78.064ZM127.612 76.88C127.873 76.88 128.094 76.784 128.276 76.592C128.462 76.4 128.556 76.1253 128.556 75.768C128.556 75.4107 128.465 75.136 128.284 74.944C128.108 74.752 127.889 74.656 127.628 74.656C127.361 74.656 127.14 74.752 126.964 74.944C126.788 75.1307 126.7 75.4053 126.7 75.768C126.7 76.1253 126.785 76.4 126.956 76.592C127.132 76.784 127.35 76.88 127.612 76.88ZM132.241 74.168C132.375 73.96 132.559 73.792 132.793 73.664C133.028 73.536 133.303 73.472 133.617 73.472C133.985 73.472 134.319 73.5653 134.617 73.752C134.916 73.9387 135.151 74.2053 135.321 74.552C135.497 74.8987 135.585 75.3013 135.585 75.76C135.585 76.2187 135.497 76.624 135.321 76.976C135.151 77.3227 134.916 77.592 134.617 77.784C134.319 77.9707 133.985 78.064 133.617 78.064C133.308 78.064 133.033 78 132.793 77.872C132.559 77.744 132.375 77.5787 132.241 77.376V80.128H130.873V73.536H132.241V74.168ZM134.193 75.76C134.193 75.4187 134.097 75.152 133.905 74.96C133.719 74.7627 133.487 74.664 133.209 74.664C132.937 74.664 132.705 74.7627 132.513 74.96C132.327 75.1573 132.233 75.4267 132.233 75.768C132.233 76.1093 132.327 76.3787 132.513 76.576C132.705 76.7733 132.937 76.872 133.209 76.872C133.481 76.872 133.713 76.7733 133.905 76.576C134.097 76.3733 134.193 76.1013 134.193 75.76ZM140.711 75.696C140.711 75.824 140.703 75.9573 140.687 76.096H137.591C137.612 76.3733 137.7 76.5867 137.855 76.736C138.015 76.88 138.21 76.952 138.439 76.952C138.78 76.952 139.018 76.808 139.151 76.52H140.607C140.532 76.8133 140.396 77.0773 140.199 77.312C140.007 77.5467 139.764 77.7307 139.471 77.864C139.178 77.9973 138.85 78.064 138.487 78.064C138.05 78.064 137.66 77.9707 137.319 77.784C136.978 77.5973 136.711 77.3307 136.519 76.984C136.327 76.6373 136.231 76.232 136.231 75.768C136.231 75.304 136.324 74.8987 136.511 74.552C136.703 74.2053 136.97 73.9387 137.311 73.752C137.652 73.5653 138.044 73.472 138.487 73.472C138.919 73.472 139.303 73.5627 139.639 73.744C139.975 73.9253 140.236 74.184 140.423 74.52C140.615 74.856 140.711 75.248 140.711 75.696ZM139.311 75.336C139.311 75.1013 139.231 74.9147 139.071 74.776C138.911 74.6373 138.711 74.568 138.471 74.568C138.242 74.568 138.047 74.6347 137.887 74.768C137.732 74.9013 137.636 75.0907 137.599 75.336H139.311ZM141.361 75.76C141.361 75.3013 141.446 74.8987 141.617 74.552C141.793 74.2053 142.03 73.9387 142.329 73.752C142.627 73.5653 142.961 73.472 143.329 73.472C143.622 73.472 143.889 73.5333 144.129 73.656C144.374 73.7787 144.566 73.944 144.705 74.152V72.08H146.073V78H144.705V77.36C144.577 77.5733 144.393 77.744 144.153 77.872C143.918 78 143.643 78.064 143.329 78.064C142.961 78.064 142.627 77.9707 142.329 77.784C142.03 77.592 141.793 77.3227 141.617 76.976C141.446 76.624 141.361 76.2187 141.361 75.76ZM144.705 75.768C144.705 75.4267 144.609 75.1573 144.417 74.96C144.23 74.7627 144.001 74.664 143.729 74.664C143.457 74.664 143.225 74.7627 143.033 74.96C142.846 75.152 142.753 75.4187 142.753 75.76C142.753 76.1013 142.846 76.3733 143.033 76.576C143.225 76.7733 143.457 76.872 143.729 76.872C144.001 76.872 144.23 76.7733 144.417 76.576C144.609 76.3787 144.705 76.1093 144.705 75.768ZM147.95 73.072C147.71 73.072 147.513 73.0027 147.358 72.864C147.209 72.72 147.134 72.544 147.134 72.336C147.134 72.1227 147.209 71.9467 147.358 71.808C147.513 71.664 147.71 71.592 147.95 71.592C148.185 71.592 148.377 71.664 148.526 71.808C148.681 71.9467 148.758 72.1227 148.758 72.336C148.758 72.544 148.681 72.72 148.526 72.864C148.377 73.0027 148.185 73.072 147.95 73.072ZM148.63 73.536V78H147.262V73.536H148.63ZM149.55 75.76C149.55 75.3013 149.635 74.8987 149.806 74.552C149.982 74.2053 150.219 73.9387 150.518 73.752C150.816 73.5653 151.15 73.472 151.518 73.472C151.832 73.472 152.107 73.536 152.342 73.664C152.582 73.792 152.766 73.96 152.894 74.168V73.536H154.262V78H152.894V77.368C152.76 77.576 152.574 77.744 152.334 77.872C152.099 78 151.824 78.064 151.51 78.064C151.147 78.064 150.816 77.9707 150.518 77.784C150.219 77.592 149.982 77.3227 149.806 76.976C149.635 76.624 149.55 76.2187 149.55 75.76ZM152.894 75.768C152.894 75.4267 152.798 75.1573 152.606 74.96C152.419 74.7627 152.19 74.664 151.918 74.664C151.646 74.664 151.414 74.7627 151.222 74.96C151.035 75.152 150.942 75.4187 150.942 75.76C150.942 76.1013 151.035 76.3733 151.222 76.576C151.414 76.7733 151.646 76.872 151.918 76.872C152.19 76.872 152.419 76.7733 152.606 76.576C152.798 76.3787 152.894 76.1093 152.894 75.768ZM30.5209 87.76C30.5209 87.3013 30.6062 86.8987 30.7769 86.552C30.9529 86.2053 31.1902 85.9387 31.4889 85.752C31.7875 85.5653 32.1209 85.472 32.4889 85.472C32.7822 85.472 33.0489 85.5333 33.2889 85.656C33.5342 85.7787 33.7262 85.944 33.8649 86.152V84.08H35.2329V90H33.8649V89.36C33.7369 89.5733 33.5529 89.744 33.3129 89.872C33.0782 90 32.8035 90.064 32.4889 90.064C32.1209 90.064 31.7875 89.9707 31.4889 89.784C31.1902 89.592 30.9529 89.3227 30.7769 88.976C30.6062 88.624 30.5209 88.2187 30.5209 87.76ZM33.8649 87.768C33.8649 87.4267 33.7689 87.1573 33.5769 86.96C33.3902 86.7627 33.1609 86.664 32.8889 86.664C32.6169 86.664 32.3849 86.7627 32.1929 86.96C32.0062 87.152 31.9129 87.4187 31.9129 87.76C31.9129 88.1013 32.0062 88.3733 32.1929 88.576C32.3849 88.7733 32.6169 88.872 32.8889 88.872C33.1609 88.872 33.3902 88.7733 33.5769 88.576C33.7689 88.3787 33.8649 88.1093 33.8649 87.768ZM40.6306 87.696C40.6306 87.824 40.6226 87.9573 40.6066 88.096H37.5106C37.5319 88.3733 37.6199 88.5867 37.7746 88.736C37.9346 88.88 38.1292 88.952 38.3586 88.952C38.6999 88.952 38.9372 88.808 39.0706 88.52H40.5266C40.4519 88.8133 40.3159 89.0773 40.1186 89.312C39.9266 89.5467 39.6839 89.7307 39.3906 89.864C39.0972 89.9973 38.7692 90.064 38.4066 90.064C37.9692 90.064 37.5799 89.9707 37.2386 89.784C36.8972 89.5973 36.6306 89.3307 36.4386 88.984C36.2466 88.6373 36.1506 88.232 36.1506 87.768C36.1506 87.304 36.2439 86.8987 36.4306 86.552C36.6226 86.2053 36.8892 85.9387 37.2306 85.752C37.5719 85.5653 37.9639 85.472 38.4066 85.472C38.8386 85.472 39.2226 85.5627 39.5586 85.744C39.8946 85.9253 40.1559 86.184 40.3426 86.52C40.5346 86.856 40.6306 87.248 40.6306 87.696ZM39.2306 87.336C39.2306 87.1013 39.1506 86.9147 38.9906 86.776C38.8306 86.6373 38.6306 86.568 38.3906 86.568C38.1612 86.568 37.9666 86.6347 37.8066 86.768C37.6519 86.9013 37.5559 87.0907 37.5186 87.336H39.2306ZM43.3682 90.064C42.9789 90.064 42.6322 89.9973 42.3282 89.864C42.0242 89.7307 41.7842 89.5493 41.6082 89.32C41.4322 89.0853 41.3336 88.824 41.3122 88.536H42.6642C42.6802 88.6907 42.7522 88.816 42.8802 88.912C43.0082 89.008 43.1656 89.056 43.3522 89.056C43.5229 89.056 43.6536 89.024 43.7442 88.96C43.8402 88.8907 43.8882 88.8027 43.8882 88.696C43.8882 88.568 43.8216 88.4747 43.6882 88.416C43.5549 88.352 43.3389 88.2827 43.0402 88.208C42.7202 88.1333 42.4536 88.056 42.2402 87.976C42.0269 87.8907 41.8429 87.76 41.6882 87.584C41.5336 87.4027 41.4562 87.16 41.4562 86.856C41.4562 86.6 41.5256 86.368 41.6642 86.16C41.8082 85.9467 42.0162 85.7787 42.2882 85.656C42.5656 85.5333 42.8936 85.472 43.2722 85.472C43.8322 85.472 44.2722 85.6107 44.5922 85.888C44.9176 86.1653 45.1042 86.5333 45.1522 86.992H43.8882C43.8669 86.8373 43.7976 86.7147 43.6802 86.624C43.5682 86.5333 43.4189 86.488 43.2322 86.488C43.0722 86.488 42.9496 86.52 42.8642 86.584C42.7789 86.6427 42.7362 86.7253 42.7362 86.832C42.7362 86.96 42.8029 87.056 42.9362 87.12C43.0749 87.184 43.2882 87.248 43.5762 87.312C43.9069 87.3973 44.1762 87.4827 44.3842 87.568C44.5922 87.648 44.7736 87.7813 44.9282 87.968C45.0882 88.1493 45.1709 88.3947 45.1762 88.704C45.1762 88.9653 45.1016 89.2 44.9522 89.408C44.8082 89.6107 44.5976 89.7707 44.3202 89.888C44.0482 90.0053 43.7309 90.064 43.3682 90.064ZM45.9412 87.76C45.9412 87.3013 46.0265 86.8987 46.1972 86.552C46.3732 86.2053 46.6105 85.9387 46.9092 85.752C47.2079 85.5653 47.5412 85.472 47.9092 85.472C48.2025 85.472 48.4692 85.5333 48.7092 85.656C48.9545 85.7787 49.1465 85.944 49.2852 86.152V84.08H50.6532V90H49.2852V89.36C49.1572 89.5733 48.9732 89.744 48.7332 89.872C48.4985 90 48.2239 90.064 47.9092 90.064C47.5412 90.064 47.2079 89.9707 46.9092 89.784C46.6105 89.592 46.3732 89.3227 46.1972 88.976C46.0265 88.624 45.9412 88.2187 45.9412 87.76ZM49.2852 87.768C49.2852 87.4267 49.1892 87.1573 48.9972 86.96C48.8105 86.7627 48.5812 86.664 48.3092 86.664C48.0372 86.664 47.8052 86.7627 47.6132 86.96C47.4265 87.152 47.3332 87.4187 47.3332 87.76C47.3332 88.1013 47.4265 88.3733 47.6132 88.576C47.8052 88.7733 48.0372 88.872 48.3092 88.872C48.5812 88.872 48.8105 88.7733 48.9972 88.576C49.1892 88.3787 49.2852 88.1093 49.2852 87.768ZM56.0509 87.696C56.0509 87.824 56.0429 87.9573 56.0269 88.096H52.9309C52.9522 88.3733 53.0402 88.5867 53.1949 88.736C53.3549 88.88 53.5495 88.952 53.7789 88.952C54.1202 88.952 54.3575 88.808 54.4909 88.52H55.9469C55.8722 88.8133 55.7362 89.0773 55.5389 89.312C55.3469 89.5467 55.1042 89.7307 54.8109 89.864C54.5175 89.9973 54.1895 90.064 53.8269 90.064C53.3895 90.064 53.0002 89.9707 52.6589 89.784C52.3175 89.5973 52.0509 89.3307 51.8589 88.984C51.6669 88.6373 51.5709 88.232 51.5709 87.768C51.5709 87.304 51.6642 86.8987 51.8509 86.552C52.0429 86.2053 52.3095 85.9387 52.6509 85.752C52.9922 85.5653 53.3842 85.472 53.8269 85.472C54.2589 85.472 54.6429 85.5627 54.9789 85.744C55.3149 85.9253 55.5762 86.184 55.7629 86.52C55.9549 86.856 56.0509 87.248 56.0509 87.696ZM54.6509 87.336C54.6509 87.1013 54.5709 86.9147 54.4109 86.776C54.2509 86.6373 54.0509 86.568 53.8109 86.568C53.5815 86.568 53.3869 86.6347 53.2269 86.768C53.0722 86.9013 52.9762 87.0907 52.9389 87.336H54.6509ZM58.5959 87.76C58.5959 87.3013 58.6812 86.8987 58.8519 86.552C59.0279 86.2053 59.2652 85.9387 59.5639 85.752C59.8625 85.5653 60.1959 85.472 60.5639 85.472C60.8572 85.472 61.1239 85.5333 61.3639 85.656C61.6092 85.7787 61.8012 85.944 61.9399 86.152V84.08H63.3079V90H61.9399V89.36C61.8119 89.5733 61.6279 89.744 61.3879 89.872C61.1532 90 60.8785 90.064 60.5639 90.064C60.1959 90.064 59.8625 89.9707 59.5639 89.784C59.2652 89.592 59.0279 89.3227 58.8519 88.976C58.6812 88.624 58.5959 88.2187 58.5959 87.76ZM61.9399 87.768C61.9399 87.4267 61.8439 87.1573 61.6519 86.96C61.4652 86.7627 61.2359 86.664 60.9639 86.664C60.6919 86.664 60.4599 86.7627 60.2679 86.96C60.0812 87.152 59.9879 87.4187 59.9879 87.76C59.9879 88.1013 60.0812 88.3733 60.2679 88.576C60.4599 88.7733 60.6919 88.872 60.9639 88.872C61.2359 88.872 61.4652 88.7733 61.6519 88.576C61.8439 88.3787 61.9399 88.1093 61.9399 87.768ZM68.7056 87.696C68.7056 87.824 68.6976 87.9573 68.6816 88.096H65.5856C65.6069 88.3733 65.6949 88.5867 65.8496 88.736C66.0096 88.88 66.2042 88.952 66.4336 88.952C66.7749 88.952 67.0122 88.808 67.1456 88.52H68.6016C68.5269 88.8133 68.3909 89.0773 68.1936 89.312C68.0016 89.5467 67.7589 89.7307 67.4656 89.864C67.1722 89.9973 66.8442 90.064 66.4816 90.064C66.0442 90.064 65.6549 89.9707 65.3136 89.784C64.9722 89.5973 64.7056 89.3307 64.5136 88.984C64.3216 88.6373 64.2256 88.232 64.2256 87.768C64.2256 87.304 64.3189 86.8987 64.5056 86.552C64.6976 86.2053 64.9642 85.9387 65.3056 85.752C65.6469 85.5653 66.0389 85.472 66.4816 85.472C66.9136 85.472 67.2976 85.5627 67.6336 85.744C67.9696 85.9253 68.2309 86.184 68.4176 86.52C68.6096 86.856 68.7056 87.248 68.7056 87.696ZM67.3056 87.336C67.3056 87.1013 67.2256 86.9147 67.0656 86.776C66.9056 86.6373 66.7056 86.568 66.4656 86.568C66.2362 86.568 66.0416 86.6347 65.8816 86.768C65.7269 86.9013 65.6309 87.0907 65.5936 87.336H67.3056ZM71.2506 87.76C71.2506 87.3013 71.3359 86.8987 71.5066 86.552C71.6826 86.2053 71.9199 85.9387 72.2186 85.752C72.5172 85.5653 72.8506 85.472 73.2186 85.472C73.5332 85.472 73.8079 85.536 74.0426 85.664C74.2826 85.792 74.4666 85.96 74.5946 86.168V85.536H75.9626V90H74.5946V89.368C74.4612 89.576 74.2746 89.744 74.0346 89.872C73.7999 90 73.5252 90.064 73.2106 90.064C72.8479 90.064 72.5172 89.9707 72.2186 89.784C71.9199 89.592 71.6826 89.3227 71.5066 88.976C71.3359 88.624 71.2506 88.2187 71.2506 87.76ZM74.5946 87.768C74.5946 87.4267 74.4986 87.1573 74.3066 86.96C74.1199 86.7627 73.8906 86.664 73.6186 86.664C73.3466 86.664 73.1146 86.7627 72.9226 86.96C72.7359 87.152 72.6426 87.4187 72.6426 87.76C72.6426 88.1013 72.7359 88.3733 72.9226 88.576C73.1146 88.7733 73.3466 88.872 73.6186 88.872C73.8906 88.872 74.1199 88.7733 74.3066 88.576C74.4986 88.3787 74.5946 88.1093 74.5946 87.768ZM80.4156 86.28C80.5756 86.0347 80.7756 85.8427 81.0156 85.704C81.2556 85.56 81.5222 85.488 81.8156 85.488V86.936H81.4396C81.0982 86.936 80.8422 87.0107 80.6716 87.16C80.5009 87.304 80.4156 87.56 80.4156 87.928V90H79.0476V85.536H80.4156V86.28ZM86.8774 87.696C86.8774 87.824 86.8694 87.9573 86.8534 88.096H83.7574C83.7788 88.3733 83.8668 88.5867 84.0214 88.736C84.1814 88.88 84.3761 88.952 84.6054 88.952C84.9468 88.952 85.1841 88.808 85.3174 88.52H86.7734C86.6988 88.8133 86.5628 89.0773 86.3654 89.312C86.1734 89.5467 85.9308 89.7307 85.6374 89.864C85.3441 89.9973 85.0161 90.064 84.6534 90.064C84.2161 90.064 83.8268 89.9707 83.4854 89.784C83.1441 89.5973 82.8774 89.3307 82.6854 88.984C82.4934 88.6373 82.3974 88.232 82.3974 87.768C82.3974 87.304 82.4908 86.8987 82.6774 86.552C82.8694 86.2053 83.1361 85.9387 83.4774 85.752C83.8188 85.5653 84.2108 85.472 84.6534 85.472C85.0854 85.472 85.4694 85.5627 85.8054 85.744C86.1414 85.9253 86.4028 86.184 86.5894 86.52C86.7814 86.856 86.8774 87.248 86.8774 87.696ZM85.4774 87.336C85.4774 87.1013 85.3974 86.9147 85.2374 86.776C85.0774 86.6373 84.8774 86.568 84.6374 86.568C84.4081 86.568 84.2134 86.6347 84.0534 86.768C83.8988 86.9013 83.8028 87.0907 83.7654 87.336H85.4774ZM87.5271 87.768C87.5271 87.304 87.6205 86.8987 87.8071 86.552C87.9991 86.2053 88.2631 85.9387 88.5991 85.752C88.9405 85.5653 89.3298 85.472 89.7671 85.472C90.3271 85.472 90.7938 85.6187 91.1671 85.912C91.5458 86.2053 91.7938 86.6187 91.9111 87.152H90.4551C90.3325 86.8107 90.0951 86.64 89.7431 86.64C89.4925 86.64 89.2925 86.7387 89.1431 86.936C88.9938 87.128 88.9191 87.4053 88.9191 87.768C88.9191 88.1307 88.9938 88.4107 89.1431 88.608C89.2925 88.8 89.4925 88.896 89.7431 88.896C90.0951 88.896 90.3325 88.7253 90.4551 88.384H91.9111C91.7938 88.9067 91.5458 89.3173 91.1671 89.616C90.7885 89.9147 90.3218 90.064 89.7671 90.064C89.3298 90.064 88.9405 89.9707 88.5991 89.784C88.2631 89.5973 87.9991 89.3307 87.8071 88.984C87.6205 88.6373 87.5271 88.232 87.5271 87.768ZM97.0509 87.696C97.0509 87.824 97.0429 87.9573 97.0269 88.096H93.9309C93.9522 88.3733 94.0402 88.5867 94.1949 88.736C94.3549 88.88 94.5495 88.952 94.7789 88.952C95.1202 88.952 95.3575 88.808 95.4909 88.52H96.9469C96.8722 88.8133 96.7362 89.0773 96.5389 89.312C96.3469 89.5467 96.1042 89.7307 95.8109 89.864C95.5175 89.9973 95.1895 90.064 94.8269 90.064C94.3895 90.064 94.0002 89.9707 93.6589 89.784C93.3175 89.5973 93.0509 89.3307 92.8589 88.984C92.6669 88.6373 92.5709 88.232 92.5709 87.768C92.5709 87.304 92.6642 86.8987 92.8509 86.552C93.0429 86.2053 93.3095 85.9387 93.6509 85.752C93.9922 85.5653 94.3842 85.472 94.8269 85.472C95.2589 85.472 95.6429 85.5627 95.9789 85.744C96.3149 85.9253 96.5762 86.184 96.7629 86.52C96.9549 86.856 97.0509 87.248 97.0509 87.696ZM95.6509 87.336C95.6509 87.1013 95.5709 86.9147 95.4109 86.776C95.2509 86.6373 95.0509 86.568 94.8109 86.568C94.5815 86.568 94.3869 86.6347 94.2269 86.768C94.0722 86.9013 93.9762 87.0907 93.9389 87.336H95.6509ZM99.3406 86.168C99.4739 85.96 99.6579 85.792 99.8926 85.664C100.127 85.536 100.402 85.472 100.717 85.472C101.085 85.472 101.418 85.5653 101.717 85.752C102.015 85.9387 102.25 86.2053 102.421 86.552C102.597 86.8987 102.685 87.3013 102.685 87.76C102.685 88.2187 102.597 88.624 102.421 88.976C102.25 89.3227 102.015 89.592 101.717 89.784C101.418 89.9707 101.085 90.064 100.717 90.064C100.407 90.064 100.133 90 99.8926 89.872C99.6579 89.744 99.4739 89.5787 99.3406 89.376V92.128H97.9726V85.536H99.3406V86.168ZM101.293 87.76C101.293 87.4187 101.197 87.152 101.005 86.96C100.818 86.7627 100.586 86.664 100.309 86.664C100.037 86.664 99.8046 86.7627 99.6126 86.96C99.4259 87.1573 99.3326 87.4267 99.3326 87.768C99.3326 88.1093 99.4259 88.3787 99.6126 88.576C99.8046 88.7733 100.037 88.872 100.309 88.872C100.581 88.872 100.813 88.7733 101.005 88.576C101.197 88.3733 101.293 88.1013 101.293 87.76ZM105.546 88.896C105.898 88.896 106.136 88.7253 106.258 88.384H107.714C107.613 88.8373 107.41 89.208 107.106 89.496C106.802 89.784 106.424 89.9627 105.97 90.032V90.328C106.248 90.328 106.49 90.4027 106.698 90.552C106.906 90.7067 107.01 90.936 107.01 91.24C107.01 91.544 106.901 91.7733 106.682 91.928C106.464 92.088 106.202 92.168 105.898 92.168H104.666V91.416H105.714C105.821 91.416 105.901 91.4 105.954 91.368C106.008 91.336 106.034 91.2827 106.034 91.208C106.034 91.1333 106.008 91.08 105.954 91.048C105.901 91.0213 105.821 91.008 105.714 91.008H105.146V90.032C104.597 89.9467 104.157 89.704 103.826 89.304C103.496 88.8987 103.33 88.3867 103.33 87.768C103.33 87.304 103.424 86.8987 103.61 86.552C103.802 86.2053 104.066 85.9387 104.402 85.752C104.744 85.5653 105.133 85.472 105.57 85.472C106.13 85.472 106.597 85.6187 106.97 85.912C107.349 86.2053 107.597 86.6187 107.714 87.152H106.258C106.136 86.8107 105.898 86.64 105.546 86.64C105.296 86.64 105.096 86.7387 104.946 86.936C104.797 87.128 104.722 87.4053 104.722 87.768C104.722 88.1307 104.797 88.4107 104.946 88.608C105.096 88.8 105.296 88.896 105.546 88.896ZM108.374 87.76C108.374 87.3013 108.459 86.8987 108.63 86.552C108.806 86.2053 109.043 85.9387 109.342 85.752C109.641 85.5653 109.974 85.472 110.342 85.472C110.657 85.472 110.931 85.536 111.166 85.664C111.406 85.792 111.59 85.96 111.718 86.168V85.536H113.086V90H111.718V89.368C111.585 89.576 111.398 89.744 111.158 89.872C110.923 90 110.649 90.064 110.334 90.064C109.971 90.064 109.641 89.9707 109.342 89.784C109.043 89.592 108.806 89.3227 108.63 88.976C108.459 88.624 108.374 88.2187 108.374 87.76ZM111.718 87.768C111.718 87.4267 111.622 87.1573 111.43 86.96C111.243 86.7627 111.014 86.664 110.742 86.664C110.47 86.664 110.238 86.7627 110.046 86.96C109.859 87.152 109.766 87.4187 109.766 87.76C109.766 88.1013 109.859 88.3733 110.046 88.576C110.238 88.7733 110.47 88.872 110.742 88.872C111.014 88.872 111.243 88.7733 111.43 88.576C111.622 88.3787 111.718 88.1093 111.718 87.768ZM109.294 85.16C109.422 84.3707 109.79 83.976 110.398 83.976C110.515 83.976 110.617 83.9947 110.702 84.032C110.793 84.064 110.902 84.1147 111.03 84.184C111.126 84.2373 111.203 84.2773 111.262 84.304C111.321 84.3253 111.382 84.336 111.446 84.336C111.643 84.336 111.758 84.216 111.79 83.976H112.494C112.366 84.7653 111.998 85.16 111.39 85.16C111.273 85.16 111.169 85.144 111.078 85.112C110.993 85.0747 110.886 85.0213 110.758 84.952C110.662 84.8987 110.585 84.8613 110.526 84.84C110.467 84.8133 110.406 84.8 110.342 84.8C110.145 84.8 110.027 84.92 109.99 85.16H109.294ZM116.308 90.064C115.87 90.064 115.476 89.9707 115.124 89.784C114.777 89.5973 114.502 89.3307 114.3 88.984C114.102 88.6373 114.004 88.232 114.004 87.768C114.004 87.3093 114.105 86.9067 114.308 86.56C114.51 86.208 114.788 85.9387 115.14 85.752C115.492 85.5653 115.886 85.472 116.324 85.472C116.761 85.472 117.156 85.5653 117.508 85.752C117.86 85.9387 118.137 86.208 118.34 86.56C118.542 86.9067 118.644 87.3093 118.644 87.768C118.644 88.2267 118.54 88.632 118.332 88.984C118.129 89.3307 117.849 89.5973 117.492 89.784C117.14 89.9707 116.745 90.064 116.308 90.064ZM116.308 88.88C116.569 88.88 116.79 88.784 116.972 88.592C117.158 88.4 117.252 88.1253 117.252 87.768C117.252 87.4107 117.161 87.136 116.98 86.944C116.804 86.752 116.585 86.656 116.324 86.656C116.057 86.656 115.836 86.752 115.66 86.944C115.484 87.1307 115.396 87.4053 115.396 87.768C115.396 88.1253 115.481 88.4 115.652 88.592C115.828 88.784 116.046 88.88 116.308 88.88ZM121.193 87.76C121.193 87.3013 121.278 86.8987 121.449 86.552C121.625 86.2053 121.862 85.9387 122.161 85.752C122.459 85.5653 122.793 85.472 123.161 85.472C123.475 85.472 123.75 85.536 123.985 85.664C124.225 85.792 124.409 85.96 124.537 86.168V85.536H125.905V90H124.537V89.368C124.403 89.576 124.217 89.744 123.977 89.872C123.742 90 123.467 90.064 123.153 90.064C122.79 90.064 122.459 89.9707 122.161 89.784C121.862 89.592 121.625 89.3227 121.449 88.976C121.278 88.624 121.193 88.2187 121.193 87.76ZM124.537 87.768C124.537 87.4267 124.441 87.1573 124.249 86.96C124.062 86.7627 123.833 86.664 123.561 86.664C123.289 86.664 123.057 86.7627 122.865 86.96C122.678 87.152 122.585 87.4187 122.585 87.76C122.585 88.1013 122.678 88.3733 122.865 88.576C123.057 88.7733 123.289 88.872 123.561 88.872C123.833 88.872 124.062 88.7733 124.249 88.576C124.441 88.3787 124.537 88.1093 124.537 87.768ZM129.582 88.84V90H128.886C128.39 90 128.004 89.88 127.726 89.64C127.449 89.3947 127.31 88.9973 127.31 88.448V86.672H126.766V85.536H127.31V84.448H128.678V85.536H129.574V86.672H128.678V88.464C128.678 88.5973 128.71 88.6933 128.774 88.752C128.838 88.8107 128.945 88.84 129.094 88.84H129.582ZM134.752 87.696C134.752 87.824 134.744 87.9573 134.728 88.096H131.632C131.654 88.3733 131.742 88.5867 131.896 88.736C132.056 88.88 132.251 88.952 132.48 88.952C132.822 88.952 133.059 88.808 133.192 88.52H134.648C134.574 88.8133 134.438 89.0773 134.24 89.312C134.048 89.5467 133.806 89.7307 133.512 89.864C133.219 89.9973 132.891 90.064 132.528 90.064C132.091 90.064 131.702 89.9707 131.36 89.784C131.019 89.5973 130.752 89.3307 130.56 88.984C130.368 88.6373 130.272 88.232 130.272 87.768C130.272 87.304 130.366 86.8987 130.552 86.552C130.744 86.2053 131.011 85.9387 131.352 85.752C131.694 85.5653 132.086 85.472 132.528 85.472C132.96 85.472 133.344 85.5627 133.68 85.744C134.016 85.9253 134.278 86.184 134.464 86.52C134.656 86.856 134.752 87.248 134.752 87.696ZM133.352 87.336C133.352 87.1013 133.272 86.9147 133.112 86.776C132.952 86.6373 132.752 86.568 132.512 86.568C132.283 86.568 132.088 86.6347 131.928 86.768C131.774 86.9013 131.678 87.0907 131.64 87.336H133.352ZM133.448 84.392L131.52 85.2V84.256L133.448 83.328V84.392ZM137.297 87.76C137.297 87.3013 137.383 86.8987 137.553 86.552C137.729 86.2053 137.967 85.9387 138.265 85.752C138.564 85.5653 138.897 85.472 139.265 85.472C139.58 85.472 139.855 85.536 140.089 85.664C140.329 85.792 140.513 85.96 140.641 86.168V85.536H142.009V90H140.641V89.368C140.508 89.576 140.321 89.744 140.081 89.872C139.847 90 139.572 90.064 139.257 90.064C138.895 90.064 138.564 89.9707 138.265 89.784C137.967 89.592 137.729 89.3227 137.553 88.976C137.383 88.624 137.297 88.2187 137.297 87.76ZM140.641 87.768C140.641 87.4267 140.545 87.1573 140.353 86.96C140.167 86.7627 139.937 86.664 139.665 86.664C139.393 86.664 139.161 86.7627 138.969 86.96C138.783 87.152 138.689 87.4187 138.689 87.76C138.689 88.1013 138.783 88.3733 138.969 88.576C139.161 88.7733 139.393 88.872 139.665 88.872C139.937 88.872 140.167 88.7733 140.353 88.576C140.545 88.3787 140.641 88.1093 140.641 87.768ZM26.4895 97.072C26.2495 97.072 26.0521 97.0027 25.8975 96.864C25.7481 96.72 25.6735 96.544 25.6735 96.336C25.6735 96.1227 25.7481 95.9467 25.8975 95.808C26.0521 95.664 26.2495 95.592 26.4895 95.592C26.7241 95.592 26.9161 95.664 27.0655 95.808C27.2201 95.9467 27.2975 96.1227 27.2975 96.336C27.2975 96.544 27.2201 96.72 27.0655 96.864C26.9161 97.0027 26.7241 97.072 26.4895 97.072ZM27.1695 97.536V102H25.8015V97.536H27.1695ZM34.0568 97.488C34.6115 97.488 35.0515 97.656 35.3768 97.992C35.7075 98.328 35.8728 98.7947 35.8728 99.392V102H34.5128V99.576C34.5128 99.288 34.4355 99.0667 34.2808 98.912C34.1315 98.752 33.9235 98.672 33.6568 98.672C33.3902 98.672 33.1795 98.752 33.0248 98.912C32.8755 99.0667 32.8008 99.288 32.8008 99.576V102H31.4408V99.576C31.4408 99.288 31.3635 99.0667 31.2088 98.912C31.0595 98.752 30.8515 98.672 30.5848 98.672C30.3182 98.672 30.1075 98.752 29.9528 98.912C29.8035 99.0667 29.7288 99.288 29.7288 99.576V102H28.3608V97.536H29.7288V98.096C29.8675 97.9093 30.0488 97.7627 30.2728 97.656C30.4968 97.544 30.7502 97.488 31.0328 97.488C31.3688 97.488 31.6675 97.56 31.9288 97.704C32.1955 97.848 32.4035 98.0533 32.5528 98.32C32.7075 98.0747 32.9182 97.8747 33.1848 97.72C33.4515 97.5653 33.7422 97.488 34.0568 97.488ZM39.0616 102.064C38.6243 102.064 38.2296 101.971 37.8776 101.784C37.5309 101.597 37.2563 101.331 37.0536 100.984C36.8563 100.637 36.7576 100.232 36.7576 99.768C36.7576 99.3093 36.8589 98.9067 37.0616 98.56C37.2643 98.208 37.5416 97.9387 37.8936 97.752C38.2456 97.5653 38.6403 97.472 39.0776 97.472C39.5149 97.472 39.9096 97.5653 40.2616 97.752C40.6136 97.9387 40.8909 98.208 41.0936 98.56C41.2963 98.9067 41.3976 99.3093 41.3976 99.768C41.3976 100.227 41.2936 100.632 41.0856 100.984C40.8829 101.331 40.6029 101.597 40.2456 101.784C39.8936 101.971 39.4989 102.064 39.0616 102.064ZM39.0616 100.88C39.3229 100.88 39.5443 100.784 39.7256 100.592C39.9123 100.4 40.0056 100.125 40.0056 99.768C40.0056 99.4107 39.9149 99.136 39.7336 98.944C39.5576 98.752 39.3389 98.656 39.0776 98.656C38.8109 98.656 38.5896 98.752 38.4136 98.944C38.2376 99.1307 38.1496 99.4053 38.1496 99.768C38.1496 100.125 38.2349 100.4 38.4056 100.592C38.5816 100.784 38.8003 100.88 39.0616 100.88ZM43.6913 98.168C43.8193 97.96 44.0033 97.792 44.2433 97.664C44.4833 97.536 44.758 97.472 45.0673 97.472C45.4353 97.472 45.7687 97.5653 46.0673 97.752C46.366 97.9387 46.6007 98.2053 46.7713 98.552C46.9473 98.8987 47.0353 99.3013 47.0353 99.76C47.0353 100.219 46.9473 100.624 46.7713 100.976C46.6007 101.323 46.366 101.592 46.0673 101.784C45.7687 101.971 45.4353 102.064 45.0673 102.064C44.7527 102.064 44.478 102.003 44.2433 101.88C44.0087 101.752 43.8247 101.584 43.6913 101.376V102H42.3233V96.08H43.6913V98.168ZM45.6433 99.76C45.6433 99.4187 45.5473 99.152 45.3553 98.96C45.1687 98.7627 44.9367 98.664 44.6593 98.664C44.3873 98.664 44.1553 98.7627 43.9633 98.96C43.7767 99.1573 43.6833 99.4267 43.6833 99.768C43.6833 100.109 43.7767 100.379 43.9633 100.576C44.1553 100.773 44.3873 100.872 44.6593 100.872C44.9313 100.872 45.1633 100.773 45.3553 100.576C45.5473 100.373 45.6433 100.101 45.6433 99.76ZM48.641 97.072C48.401 97.072 48.2037 97.0027 48.049 96.864C47.8997 96.72 47.825 96.544 47.825 96.336C47.825 96.1227 47.8997 95.9467 48.049 95.808C48.2037 95.664 48.401 95.592 48.641 95.592C48.8757 95.592 49.0677 95.664 49.217 95.808C49.3717 95.9467 49.449 96.1227 49.449 96.336C49.449 96.544 49.3717 96.72 49.217 96.864C49.0677 97.0027 48.8757 97.072 48.641 97.072ZM49.321 97.536V102H47.953V97.536H49.321ZM51.8804 96.08V102H50.5124V96.08H51.8804ZM53.7598 97.072C53.5198 97.072 53.3224 97.0027 53.1678 96.864C53.0184 96.72 52.9438 96.544 52.9438 96.336C52.9438 96.1227 53.0184 95.9467 53.1678 95.808C53.3224 95.664 53.5198 95.592 53.7598 95.592C53.9944 95.592 54.1864 95.664 54.3358 95.808C54.4904 95.9467 54.5678 96.1227 54.5678 96.336C54.5678 96.544 54.4904 96.72 54.3358 96.864C54.1864 97.0027 53.9944 97.072 53.7598 97.072ZM54.4398 97.536V102H53.0718V97.536H54.4398ZM56.9112 100.872H58.8472V102H55.3832V100.912L57.2392 98.664H55.3992V97.536H58.8072V98.624L56.9112 100.872ZM59.5279 99.76C59.5279 99.3013 59.6132 98.8987 59.7839 98.552C59.9599 98.2053 60.1972 97.9387 60.4959 97.752C60.7946 97.5653 61.1279 97.472 61.4959 97.472C61.8106 97.472 62.0852 97.536 62.3199 97.664C62.5599 97.792 62.7439 97.96 62.8719 98.168V97.536H64.2399V102H62.8719V101.368C62.7386 101.576 62.5519 101.744 62.3119 101.872C62.0772 102 61.8026 102.064 61.4879 102.064C61.1252 102.064 60.7946 101.971 60.4959 101.784C60.1972 101.592 59.9599 101.323 59.7839 100.976C59.6132 100.624 59.5279 100.219 59.5279 99.76ZM62.8719 99.768C62.8719 99.4267 62.7759 99.1573 62.5839 98.96C62.3972 98.7627 62.1679 98.664 61.8959 98.664C61.6239 98.664 61.3919 98.7627 61.1999 98.96C61.0132 99.152 60.9199 99.4187 60.9199 99.76C60.9199 100.101 61.0132 100.373 61.1999 100.576C61.3919 100.773 61.6239 100.872 61.8959 100.872C62.1679 100.872 62.3972 100.773 62.5839 100.576C62.7759 100.379 62.8719 100.109 62.8719 99.768ZM67.3736 100.896C67.7256 100.896 67.9629 100.725 68.0856 100.384H69.5416C69.4403 100.837 69.2376 101.208 68.9336 101.496C68.6296 101.784 68.2509 101.963 67.7976 102.032V102.328C68.0749 102.328 68.3176 102.403 68.5256 102.552C68.7336 102.707 68.8376 102.936 68.8376 103.24C68.8376 103.544 68.7283 103.773 68.5096 103.928C68.2909 104.088 68.0296 104.168 67.7256 104.168H66.4936V103.416H67.5416C67.6483 103.416 67.7283 103.4 67.7816 103.368C67.8349 103.336 67.8616 103.283 67.8616 103.208C67.8616 103.133 67.8349 103.08 67.7816 103.048C67.7283 103.021 67.6483 103.008 67.5416 103.008H66.9736V102.032C66.4243 101.947 65.9843 101.704 65.6536 101.304C65.3229 100.899 65.1576 100.387 65.1576 99.768C65.1576 99.304 65.2509 98.8987 65.4376 98.552C65.6296 98.2053 65.8936 97.9387 66.2296 97.752C66.5709 97.5653 66.9603 97.472 67.3976 97.472C67.9576 97.472 68.4243 97.6187 68.7976 97.912C69.1763 98.2053 69.4243 98.6187 69.5416 99.152H68.0856C67.9629 98.8107 67.7256 98.64 67.3736 98.64C67.1229 98.64 66.9229 98.7387 66.7736 98.936C66.6243 99.128 66.5496 99.4053 66.5496 99.768C66.5496 100.131 66.6243 100.411 66.7736 100.608C66.9229 100.8 67.1229 100.896 67.3736 100.896ZM70.2013 99.76C70.2013 99.3013 70.2867 98.8987 70.4573 98.552C70.6333 98.2053 70.8707 97.9387 71.1693 97.752C71.468 97.5653 71.8013 97.472 72.1693 97.472C72.484 97.472 72.7587 97.536 72.9933 97.664C73.2333 97.792 73.4173 97.96 73.5453 98.168V97.536H74.9133V102H73.5453V101.368C73.412 101.576 73.2253 101.744 72.9853 101.872C72.7507 102 72.476 102.064 72.1613 102.064C71.7987 102.064 71.468 101.971 71.1693 101.784C70.8707 101.592 70.6333 101.323 70.4573 100.976C70.2867 100.624 70.2013 100.219 70.2013 99.76ZM73.5453 99.768C73.5453 99.4267 73.4493 99.1573 73.2573 98.96C73.0707 98.7627 72.8413 98.664 72.5693 98.664C72.2973 98.664 72.0653 98.7627 71.8733 98.96C71.6867 99.152 71.5933 99.4187 71.5933 99.76C71.5933 100.101 71.6867 100.373 71.8733 100.576C72.0653 100.773 72.2973 100.872 72.5693 100.872C72.8413 100.872 73.0707 100.773 73.2573 100.576C73.4493 100.379 73.5453 100.109 73.5453 99.768ZM71.1213 97.16C71.2493 96.3707 71.6173 95.976 72.2253 95.976C72.3427 95.976 72.444 95.9947 72.5293 96.032C72.62 96.064 72.7293 96.1147 72.8573 96.184C72.9533 96.2373 73.0307 96.2773 73.0893 96.304C73.148 96.3253 73.2093 96.336 73.2733 96.336C73.4707 96.336 73.5853 96.216 73.6173 95.976H74.3213C74.1933 96.7653 73.8253 97.16 73.2173 97.16C73.1 97.16 72.996 97.144 72.9053 97.112C72.82 97.0747 72.7133 97.0213 72.5853 96.952C72.4893 96.8987 72.412 96.8613 72.3533 96.84C72.2947 96.8133 72.2333 96.8 72.1693 96.8C71.972 96.8 71.8547 96.92 71.8173 97.16H71.1213ZM78.135 102.064C77.6977 102.064 77.303 101.971 76.951 101.784C76.6044 101.597 76.3297 101.331 76.127 100.984C75.9297 100.637 75.831 100.232 75.831 99.768C75.831 99.3093 75.9324 98.9067 76.135 98.56C76.3377 98.208 76.615 97.9387 76.967 97.752C77.319 97.5653 77.7137 97.472 78.151 97.472C78.5884 97.472 78.983 97.5653 79.335 97.752C79.687 97.9387 79.9644 98.208 80.167 98.56C80.3697 98.9067 80.471 99.3093 80.471 99.768C80.471 100.227 80.367 100.632 80.159 100.984C79.9564 101.331 79.6764 101.597 79.319 101.784C78.967 101.971 78.5724 102.064 78.135 102.064ZM78.135 100.88C78.3964 100.88 78.6177 100.784 78.799 100.592C78.9857 100.4 79.079 100.125 79.079 99.768C79.079 99.4107 78.9884 99.136 78.807 98.944C78.631 98.752 78.4124 98.656 78.151 98.656C77.8844 98.656 77.663 98.752 77.487 98.944C77.311 99.1307 77.223 99.4053 77.223 99.768C77.223 100.125 77.3084 100.4 77.479 100.592C77.655 100.784 77.8737 100.88 78.135 100.88ZM82.0368 102.064C81.7968 102.064 81.5995 101.995 81.4448 101.856C81.2955 101.712 81.2208 101.536 81.2208 101.328C81.2208 101.115 81.2955 100.936 81.4448 100.792C81.5995 100.648 81.7968 100.576 82.0368 100.576C82.2715 100.576 82.4635 100.648 82.6128 100.792C82.7675 100.936 82.8448 101.115 82.8448 101.328C82.8448 101.536 82.7675 101.712 82.6128 101.856C82.4635 101.995 82.2715 102.064 82.0368 102.064ZM87.1179 97.48V98.616H88.9499V99.672H87.1179V100.904H89.1899V102H85.7499V96.384H89.1899V97.48H87.1179ZM92.094 102.064C91.7047 102.064 91.358 101.997 91.054 101.864C90.75 101.731 90.51 101.549 90.334 101.32C90.158 101.085 90.0594 100.824 90.038 100.536H91.39C91.406 100.691 91.478 100.816 91.606 100.912C91.734 101.008 91.8914 101.056 92.078 101.056C92.2487 101.056 92.3794 101.024 92.47 100.96C92.566 100.891 92.614 100.803 92.614 100.696C92.614 100.568 92.5474 100.475 92.414 100.416C92.2807 100.352 92.0647 100.283 91.766 100.208C91.446 100.133 91.1794 100.056 90.966 99.976C90.7527 99.8907 90.5687 99.76 90.414 99.584C90.2594 99.4027 90.182 99.16 90.182 98.856C90.182 98.6 90.2514 98.368 90.39 98.16C90.534 97.9467 90.742 97.7787 91.014 97.656C91.2914 97.5333 91.6194 97.472 91.998 97.472C92.558 97.472 92.998 97.6107 93.318 97.888C93.6434 98.1653 93.83 98.5333 93.878 98.992H92.614C92.5927 98.8373 92.5234 98.7147 92.406 98.624C92.294 98.5333 92.1447 98.488 91.958 98.488C91.798 98.488 91.6754 98.52 91.59 98.584C91.5047 98.6427 91.462 98.7253 91.462 98.832C91.462 98.96 91.5287 99.056 91.662 99.12C91.8007 99.184 92.014 99.248 92.302 99.312C92.6327 99.3973 92.902 99.4827 93.11 99.568C93.318 99.648 93.4994 99.7813 93.654 99.968C93.814 100.149 93.8967 100.395 93.902 100.704C93.902 100.965 93.8274 101.2 93.678 101.408C93.534 101.611 93.3234 101.771 93.046 101.888C92.774 102.005 92.4567 102.064 92.094 102.064ZM97.427 100.84V102H96.731C96.235 102 95.8483 101.88 95.571 101.64C95.2936 101.395 95.155 100.997 95.155 100.448V98.672H94.611V97.536H95.155V96.448H96.523V97.536H97.419V98.672H96.523V100.464C96.523 100.597 96.555 100.693 96.619 100.752C96.683 100.811 96.7896 100.84 96.939 100.84H97.427ZM98.117 99.76C98.117 99.3013 98.2023 98.8987 98.373 98.552C98.549 98.2053 98.7863 97.9387 99.085 97.752C99.3836 97.5653 99.717 97.472 100.085 97.472C100.4 97.472 100.674 97.536 100.909 97.664C101.149 97.792 101.333 97.96 101.461 98.168V97.536H102.829V102H101.461V101.368C101.328 101.576 101.141 101.744 100.901 101.872C100.666 102 100.392 102.064 100.077 102.064C99.7143 102.064 99.3836 101.971 99.085 101.784C98.7863 101.592 98.549 101.323 98.373 100.976C98.2023 100.624 98.117 100.219 98.117 99.76ZM101.461 99.768C101.461 99.4267 101.365 99.1573 101.173 98.96C100.986 98.7627 100.757 98.664 100.485 98.664C100.213 98.664 99.981 98.7627 99.789 98.96C99.6023 99.152 99.509 99.4187 99.509 99.76C99.509 100.101 99.6023 100.373 99.789 100.576C99.981 100.773 100.213 100.872 100.485 100.872C100.757 100.872 100.986 100.773 101.173 100.576C101.365 100.379 101.461 100.109 101.461 99.768ZM99.037 97.16C99.165 96.3707 99.533 95.976 100.141 95.976C100.258 95.976 100.36 95.9947 100.445 96.032C100.536 96.064 100.645 96.1147 100.773 96.184C100.869 96.2373 100.946 96.2773 101.005 96.304C101.064 96.3253 101.125 96.336 101.189 96.336C101.386 96.336 101.501 96.216 101.533 95.976H102.237C102.109 96.7653 101.741 97.16 101.133 97.16C101.016 97.16 100.912 97.144 100.821 97.112C100.736 97.0747 100.629 97.0213 100.501 96.952C100.405 96.8987 100.328 96.8613 100.269 96.84C100.21 96.8133 100.149 96.8 100.085 96.8C99.8876 96.8 99.7703 96.92 99.733 97.16H99.037ZM106.051 102.064C105.613 102.064 105.219 101.971 104.867 101.784C104.52 101.597 104.245 101.331 104.043 100.984C103.845 100.637 103.747 100.232 103.747 99.768C103.747 99.3093 103.848 98.9067 104.051 98.56C104.253 98.208 104.531 97.9387 104.883 97.752C105.235 97.5653 105.629 97.472 106.067 97.472C106.504 97.472 106.899 97.5653 107.251 97.752C107.603 97.9387 107.88 98.208 108.083 98.56C108.285 98.9067 108.387 99.3093 108.387 99.768C108.387 100.227 108.283 100.632 108.075 100.984C107.872 101.331 107.592 101.597 107.235 101.784C106.883 101.971 106.488 102.064 106.051 102.064ZM106.051 100.88C106.312 100.88 106.533 100.784 106.715 100.592C106.901 100.4 106.995 100.125 106.995 99.768C106.995 99.4107 106.904 99.136 106.723 98.944C106.547 98.752 106.328 98.656 106.067 98.656C105.8 98.656 105.579 98.752 105.403 98.944C105.227 99.1307 105.139 99.4053 105.139 99.768C105.139 100.125 105.224 100.4 105.395 100.592C105.571 100.784 105.789 100.88 106.051 100.88ZM113.696 100.84V102H113C112.504 102 112.117 101.88 111.84 101.64C111.562 101.395 111.424 100.997 111.424 100.448V98.672H110.88V97.536H111.424V96.448H112.792V97.536H113.688V98.672H112.792V100.464C112.792 100.597 112.824 100.693 112.888 100.752C112.952 100.811 113.058 100.84 113.208 100.84H113.696ZM116.69 102.064C116.252 102.064 115.858 101.971 115.506 101.784C115.159 101.597 114.884 101.331 114.682 100.984C114.484 100.637 114.386 100.232 114.386 99.768C114.386 99.3093 114.487 98.9067 114.69 98.56C114.892 98.208 115.17 97.9387 115.522 97.752C115.874 97.5653 116.268 97.472 116.706 97.472C117.143 97.472 117.538 97.5653 117.89 97.752C118.242 97.9387 118.519 98.208 118.722 98.56C118.924 98.9067 119.026 99.3093 119.026 99.768C119.026 100.227 118.922 100.632 118.714 100.984C118.511 101.331 118.231 101.597 117.874 101.784C117.522 101.971 117.127 102.064 116.69 102.064ZM116.69 100.88C116.951 100.88 117.172 100.784 117.354 100.592C117.54 100.4 117.634 100.125 117.634 99.768C117.634 99.4107 117.543 99.136 117.362 98.944C117.186 98.752 116.967 98.656 116.706 98.656C116.439 98.656 116.218 98.752 116.042 98.944C115.866 99.1307 115.778 99.4053 115.778 99.768C115.778 100.125 115.863 100.4 116.034 100.592C116.21 100.784 116.428 100.88 116.69 100.88ZM119.679 99.76C119.679 99.3013 119.765 98.8987 119.935 98.552C120.111 98.2053 120.349 97.9387 120.647 97.752C120.946 97.5653 121.279 97.472 121.647 97.472C121.941 97.472 122.207 97.5333 122.447 97.656C122.693 97.7787 122.885 97.944 123.023 98.152V96.08H124.391V102H123.023V101.36C122.895 101.573 122.711 101.744 122.471 101.872C122.237 102 121.962 102.064 121.647 102.064C121.279 102.064 120.946 101.971 120.647 101.784C120.349 101.592 120.111 101.323 119.935 100.976C119.765 100.624 119.679 100.219 119.679 99.76ZM123.023 99.768C123.023 99.4267 122.927 99.1573 122.735 98.96C122.549 98.7627 122.319 98.664 122.047 98.664C121.775 98.664 121.543 98.7627 121.351 98.96C121.165 99.152 121.071 99.4187 121.071 99.76C121.071 100.101 121.165 100.373 121.351 100.576C121.543 100.773 121.775 100.872 122.047 100.872C122.319 100.872 122.549 100.773 122.735 100.576C122.927 100.379 123.023 100.109 123.023 99.768ZM127.613 102.064C127.176 102.064 126.781 101.971 126.429 101.784C126.082 101.597 125.808 101.331 125.605 100.984C125.408 100.637 125.309 100.232 125.309 99.768C125.309 99.3093 125.41 98.9067 125.613 98.56C125.816 98.208 126.093 97.9387 126.445 97.752C126.797 97.5653 127.192 97.472 127.629 97.472C128.066 97.472 128.461 97.5653 128.813 97.752C129.165 97.9387 129.442 98.208 129.645 98.56C129.848 98.9067 129.949 99.3093 129.949 99.768C129.949 100.227 129.845 100.632 129.637 100.984C129.434 101.331 129.154 101.597 128.797 101.784C128.445 101.971 128.05 102.064 127.613 102.064ZM127.613 100.88C127.874 100.88 128.096 100.784 128.277 100.592C128.464 100.4 128.557 100.125 128.557 99.768C128.557 99.4107 128.466 99.136 128.285 98.944C128.109 98.752 127.89 98.656 127.629 98.656C127.362 98.656 127.141 98.752 126.965 98.944C126.789 99.1307 126.701 99.4053 126.701 99.768C126.701 100.125 126.786 100.4 126.957 100.592C127.133 100.784 127.352 100.88 127.613 100.88ZM132.691 102.064C132.302 102.064 131.955 101.997 131.651 101.864C131.347 101.731 131.107 101.549 130.931 101.32C130.755 101.085 130.656 100.824 130.635 100.536H131.987C132.003 100.691 132.075 100.816 132.203 100.912C132.331 101.008 132.488 101.056 132.675 101.056C132.846 101.056 132.976 101.024 133.067 100.96C133.163 100.891 133.211 100.803 133.211 100.696C133.211 100.568 133.144 100.475 133.011 100.416C132.878 100.352 132.662 100.283 132.363 100.208C132.043 100.133 131.776 100.056 131.563 99.976C131.35 99.8907 131.166 99.76 131.011 99.584C130.856 99.4027 130.779 99.16 130.779 98.856C130.779 98.6 130.848 98.368 130.987 98.16C131.131 97.9467 131.339 97.7787 131.611 97.656C131.888 97.5333 132.216 97.472 132.595 97.472C133.155 97.472 133.595 97.6107 133.915 97.888C134.24 98.1653 134.427 98.5333 134.475 98.992H133.211C133.19 98.8373 133.12 98.7147 133.003 98.624C132.891 98.5333 132.742 98.488 132.555 98.488C132.395 98.488 132.272 98.52 132.187 98.584C132.102 98.6427 132.059 98.7253 132.059 98.832C132.059 98.96 132.126 99.056 132.259 99.12C132.398 99.184 132.611 99.248 132.899 99.312C133.23 99.3973 133.499 99.4827 133.707 99.568C133.915 99.648 134.096 99.7813 134.251 99.968C134.411 100.149 134.494 100.395 134.499 100.704C134.499 100.965 134.424 101.2 134.275 101.408C134.131 101.611 133.92 101.771 133.643 101.888C133.371 102.005 133.054 102.064 132.691 102.064ZM137.159 99.76C137.159 99.3013 137.244 98.8987 137.415 98.552C137.591 98.2053 137.828 97.9387 138.127 97.752C138.426 97.5653 138.759 97.472 139.127 97.472C139.42 97.472 139.687 97.5333 139.927 97.656C140.172 97.7787 140.364 97.944 140.503 98.152V96.08H141.871V102H140.503V101.36C140.375 101.573 140.191 101.744 139.951 101.872C139.716 102 139.442 102.064 139.127 102.064C138.759 102.064 138.426 101.971 138.127 101.784C137.828 101.592 137.591 101.323 137.415 100.976C137.244 100.624 137.159 100.219 137.159 99.76ZM140.503 99.768C140.503 99.4267 140.407 99.1573 140.215 98.96C140.028 98.7627 139.799 98.664 139.527 98.664C139.255 98.664 139.023 98.7627 138.831 98.96C138.644 99.152 138.551 99.4187 138.551 99.76C138.551 100.101 138.644 100.373 138.831 100.576C139.023 100.773 139.255 100.872 139.527 100.872C139.799 100.872 140.028 100.773 140.215 100.576C140.407 100.379 140.503 100.109 140.503 99.768ZM147.269 99.696C147.269 99.824 147.261 99.9573 147.245 100.096H144.149C144.17 100.373 144.258 100.587 144.413 100.736C144.573 100.88 144.768 100.952 144.997 100.952C145.338 100.952 145.576 100.808 145.709 100.52H147.165C147.09 100.813 146.954 101.077 146.757 101.312C146.565 101.547 146.322 101.731 146.029 101.864C145.736 101.997 145.408 102.064 145.045 102.064C144.608 102.064 144.218 101.971 143.877 101.784C143.536 101.597 143.269 101.331 143.077 100.984C142.885 100.637 142.789 100.232 142.789 99.768C142.789 99.304 142.882 98.8987 143.069 98.552C143.261 98.2053 143.528 97.9387 143.869 97.752C144.21 97.5653 144.602 97.472 145.045 97.472C145.477 97.472 145.861 97.5627 146.197 97.744C146.533 97.9253 146.794 98.184 146.981 98.52C147.173 98.856 147.269 99.248 147.269 99.696ZM145.869 99.336C145.869 99.1013 145.789 98.9147 145.629 98.776C145.469 98.6373 145.269 98.568 145.029 98.568C144.8 98.568 144.605 98.6347 144.445 98.768C144.29 98.9013 144.194 99.0907 144.157 99.336H145.869ZM67.7031 110.168C67.8364 109.96 68.0204 109.792 68.2551 109.664C68.4897 109.536 68.7644 109.472 69.0791 109.472C69.4471 109.472 69.7804 109.565 70.0791 109.752C70.3777 109.939 70.6124 110.205 70.7831 110.552C70.9591 110.899 71.0471 111.301 71.0471 111.76C71.0471 112.219 70.9591 112.624 70.7831 112.976C70.6124 113.323 70.3777 113.592 70.0791 113.784C69.7804 113.971 69.4471 114.064 69.0791 114.064C68.7697 114.064 68.4951 114 68.2551 113.872C68.0204 113.744 67.8364 113.579 67.7031 113.376V116.128H66.3351V109.536H67.7031V110.168ZM69.6551 111.76C69.6551 111.419 69.5591 111.152 69.3671 110.96C69.1804 110.763 68.9484 110.664 68.6711 110.664C68.3991 110.664 68.1671 110.763 67.9751 110.96C67.7884 111.157 67.6951 111.427 67.6951 111.768C67.6951 112.109 67.7884 112.379 67.9751 112.576C68.1671 112.773 68.3991 112.872 68.6711 112.872C68.9431 112.872 69.1751 112.773 69.3671 112.576C69.5591 112.373 69.6551 112.101 69.6551 111.76ZM71.6928 111.76C71.6928 111.301 71.7781 110.899 71.9488 110.552C72.1248 110.205 72.3621 109.939 72.6608 109.752C72.9594 109.565 73.2928 109.472 73.6608 109.472C73.9754 109.472 74.2501 109.536 74.4848 109.664C74.7248 109.792 74.9088 109.96 75.0368 110.168V109.536H76.4048V114H75.0368V113.368C74.9034 113.576 74.7168 113.744 74.4768 113.872C74.2421 114 73.9674 114.064 73.6528 114.064C73.2901 114.064 72.9594 113.971 72.6608 113.784C72.3621 113.592 72.1248 113.323 71.9488 112.976C71.7781 112.624 71.6928 112.219 71.6928 111.76ZM75.0368 111.768C75.0368 111.427 74.9408 111.157 74.7488 110.96C74.5621 110.763 74.3328 110.664 74.0608 110.664C73.7888 110.664 73.5568 110.763 73.3648 110.96C73.1781 111.152 73.0848 111.419 73.0848 111.76C73.0848 112.101 73.1781 112.373 73.3648 112.576C73.5568 112.773 73.7888 112.872 74.0608 112.872C74.3328 112.872 74.5621 112.773 74.7488 112.576C74.9408 112.379 75.0368 112.109 75.0368 111.768ZM78.9624 110.28C79.1224 110.035 79.3224 109.843 79.5624 109.704C79.8024 109.56 80.0691 109.488 80.3624 109.488V110.936H79.9864C79.6451 110.936 79.3891 111.011 79.2184 111.16C79.0478 111.304 78.9624 111.56 78.9624 111.928V114H77.5944V109.536H78.9624V110.28ZM80.9443 111.76C80.9443 111.301 81.0296 110.899 81.2003 110.552C81.3763 110.205 81.6136 109.939 81.9123 109.752C82.211 109.565 82.5443 109.472 82.9123 109.472C83.227 109.472 83.5016 109.536 83.7363 109.664C83.9763 109.792 84.1603 109.96 84.2883 110.168V109.536H85.6563V114H84.2883V113.368C84.155 113.576 83.9683 113.744 83.7283 113.872C83.4936 114 83.219 114.064 82.9043 114.064C82.5416 114.064 82.211 113.971 81.9123 113.784C81.6136 113.592 81.3763 113.323 81.2003 112.976C81.0296 112.624 80.9443 112.219 80.9443 111.76ZM84.2883 111.768C84.2883 111.427 84.1923 111.157 84.0003 110.96C83.8136 110.763 83.5843 110.664 83.3123 110.664C83.0403 110.664 82.8083 110.763 82.6163 110.96C82.4296 111.152 82.3363 111.419 82.3363 111.76C82.3363 112.101 82.4296 112.373 82.6163 112.576C82.8083 112.773 83.0403 112.872 83.3123 112.872C83.5843 112.872 83.8136 112.773 84.0003 112.576C84.1923 112.379 84.2883 112.109 84.2883 111.768ZM88.214 110.168C88.342 109.96 88.526 109.792 88.766 109.664C89.006 109.536 89.2807 109.472 89.59 109.472C89.958 109.472 90.2913 109.565 90.59 109.752C90.8887 109.939 91.1233 110.205 91.294 110.552C91.47 110.899 91.558 111.301 91.558 111.76C91.558 112.219 91.47 112.624 91.294 112.976C91.1233 113.323 90.8887 113.592 90.59 113.784C90.2913 113.971 89.958 114.064 89.59 114.064C89.2753 114.064 89.0007 114.003 88.766 113.88C88.5313 113.752 88.3473 113.584 88.214 113.376V114H86.846V108.08H88.214V110.168ZM90.166 111.76C90.166 111.419 90.07 111.152 89.878 110.96C89.6913 110.763 89.4593 110.664 89.182 110.664C88.91 110.664 88.678 110.763 88.486 110.96C88.2993 111.157 88.206 111.427 88.206 111.768C88.206 112.109 88.2993 112.379 88.486 112.576C88.678 112.773 88.91 112.872 89.182 112.872C89.454 112.872 89.686 112.773 89.878 112.576C90.07 112.373 90.166 112.101 90.166 111.76ZM96.6837 111.696C96.6837 111.824 96.6757 111.957 96.6597 112.096H93.5637C93.585 112.373 93.673 112.587 93.8277 112.736C93.9877 112.88 94.1824 112.952 94.4117 112.952C94.753 112.952 94.9904 112.808 95.1237 112.52H96.5797C96.505 112.813 96.369 113.077 96.1717 113.312C95.9797 113.547 95.737 113.731 95.4437 113.864C95.1504 113.997 94.8224 114.064 94.4597 114.064C94.0224 114.064 93.633 113.971 93.2917 113.784C92.9504 113.597 92.6837 113.331 92.4917 112.984C92.2997 112.637 92.2037 112.232 92.2037 111.768C92.2037 111.304 92.297 110.899 92.4837 110.552C92.6757 110.205 92.9424 109.939 93.2837 109.752C93.625 109.565 94.017 109.472 94.4597 109.472C94.8917 109.472 95.2757 109.563 95.6117 109.744C95.9477 109.925 96.209 110.184 96.3957 110.52C96.5877 110.856 96.6837 111.248 96.6837 111.696ZM95.2837 111.336C95.2837 111.101 95.2037 110.915 95.0437 110.776C94.8837 110.637 94.6837 110.568 94.4437 110.568C94.2144 110.568 94.0197 110.635 93.8597 110.768C93.705 110.901 93.609 111.091 93.5717 111.336H95.2837ZM95.3797 108.392L93.4517 109.2V108.256L95.3797 107.328V108.392ZM100.325 109.488C100.848 109.488 101.264 109.659 101.573 110C101.888 110.336 102.045 110.8 102.045 111.392V114H100.685V111.576C100.685 111.277 100.608 111.045 100.453 110.88C100.299 110.715 100.091 110.632 99.8294 110.632C99.568 110.632 99.36 110.715 99.2054 110.88C99.0507 111.045 98.9734 111.277 98.9734 111.576V114H97.6054V109.536H98.9734V110.128C99.112 109.931 99.2987 109.776 99.5334 109.664C99.768 109.547 100.032 109.488 100.325 109.488ZM105.012 114.064C104.623 114.064 104.276 113.997 103.972 113.864C103.668 113.731 103.428 113.549 103.252 113.32C103.076 113.085 102.977 112.824 102.956 112.536H104.308C104.324 112.691 104.396 112.816 104.524 112.912C104.652 113.008 104.809 113.056 104.996 113.056C105.167 113.056 105.297 113.024 105.388 112.96C105.484 112.891 105.532 112.803 105.532 112.696C105.532 112.568 105.465 112.475 105.332 112.416C105.199 112.352 104.983 112.283 104.684 112.208C104.364 112.133 104.097 112.056 103.884 111.976C103.671 111.891 103.487 111.76 103.332 111.584C103.177 111.403 103.1 111.16 103.1 110.856C103.1 110.6 103.169 110.368 103.308 110.16C103.452 109.947 103.66 109.779 103.932 109.656C104.209 109.533 104.537 109.472 104.916 109.472C105.476 109.472 105.916 109.611 106.236 109.888C106.561 110.165 106.748 110.533 106.796 110.992H105.532C105.511 110.837 105.441 110.715 105.324 110.624C105.212 110.533 105.063 110.488 104.876 110.488C104.716 110.488 104.593 110.52 104.508 110.584C104.423 110.643 104.38 110.725 104.38 110.832C104.38 110.96 104.447 111.056 104.58 111.12C104.719 111.184 104.932 111.248 105.22 111.312C105.551 111.397 105.82 111.483 106.028 111.568C106.236 111.648 106.417 111.781 106.572 111.968C106.732 112.149 106.815 112.395 106.82 112.704C106.82 112.965 106.745 113.2 106.596 113.408C106.452 113.611 106.241 113.771 105.964 113.888C105.692 114.005 105.375 114.064 105.012 114.064Z" fill="white"/>
<circle cx="84" cy="162" r="17" fill="#D9D9D9"/>
<path d="M74.517 152.545H79.0682L83.875 164.273H84.0795L88.8864 152.545H93.4375V170H89.858V158.639H89.7131L85.196 169.915H82.7585L78.2415 158.597H78.0966V170H74.517V152.545Z" fill="#545454"/>
<defs>
<filter id="filter0_d_205_12" x="0" y="0" width="176" height="178" filterUnits="userSpaceOnUse" color-interpolation-filters="sRGB">
<feFlood flood-opacity="0" result="BackgroundImageFix"/>
<feColorMatrix in="SourceAlpha" type="matrix" values="0 0 0 0 0 0 0 0 0 0 0 0 0 0 0 0 0 0 127 0" result="hardAlpha"/>
<feOffset dx="2" dy="4"/>
<feGaussianBlur stdDeviation="7"/>
<feComposite in2="hardAlpha" operator="out"/>
<feColorMatrix type="matrix" values="0 0 0 0 0 0 0 0 0 0 0 0 0 0 0 0 0 0 0.35 0"/>
<feBlend mode="normal" in2="BackgroundImageFix" result="effect1_dropShadow_205_12"/>
<feBlend mode="normal" in="SourceGraphic" in2="effect1_dropShadow_205_12" result="shape"/>
</filter>
<radialGradient id="paint0_radial_205_12" cx="0" cy="0" r="1" gradientUnits="userSpaceOnUse" gradientTransform="translate(160 167.5) rotate(-133.132) scale(195.265 192.662)">
<stop stop-color="white"/>
<stop offset="1" stop-opacity="0"/>
</radialGradient>
</defs>
</svg>
