<svg width="176" height="212" viewBox="0 0 176 212" fill="none" xmlns="http://www.w3.org/2000/svg">
<g filter="url(#filter0_d_205_22)">
<path d="M12 25C12 16.7157 18.7157 10 27 10H160V145C160 153.284 153.284 160 145 160H12V25Z" fill="#D74500"/>
<path d="M12 25C12 16.7157 18.7157 10 27 10H160V145C160 153.284 153.284 160 145 160H12V25Z" fill="url(#paint0_radial_205_22)" fill-opacity="0.2"/>
</g>
<path d="M68.049 203.608C68.049 203.926 67.974 204.226 67.824 204.508C67.674 204.79 67.434 205.021 67.104 205.201C66.774 205.375 66.351 205.462 65.835 205.462H64.701V208H63.675V201.745H65.835C66.315 201.745 66.72 201.829 67.05 201.997C67.386 202.159 67.635 202.381 67.797 202.663C67.965 202.945 68.049 203.26 68.049 203.608ZM65.835 204.625C66.225 204.625 66.516 204.538 66.708 204.364C66.9 204.184 66.996 203.932 66.996 203.608C66.996 202.924 66.609 202.582 65.835 202.582H64.701V204.625H65.835ZM68.9105 205.498C68.9105 205 69.0125 204.559 69.2165 204.175C69.4265 203.791 69.7085 203.494 70.0625 203.284C70.4225 203.068 70.8185 202.96 71.2505 202.96C71.6405 202.96 71.9795 203.038 72.2675 203.194C72.5615 203.344 72.7955 203.533 72.9695 203.761V203.041H74.0045V208H72.9695V207.262C72.7955 207.496 72.5585 207.691 72.2585 207.847C71.9585 208.003 71.6165 208.081 71.2325 208.081C70.8065 208.081 70.4165 207.973 70.0625 207.757C69.7085 207.535 69.4265 207.229 69.2165 206.839C69.0125 206.443 68.9105 205.996 68.9105 205.498ZM72.9695 205.516C72.9695 205.174 72.8975 204.877 72.7535 204.625C72.6155 204.373 72.4325 204.181 72.2045 204.049C71.9765 203.917 71.7305 203.851 71.4665 203.851C71.2025 203.851 70.9565 203.917 70.7285 204.049C70.5005 204.175 70.3145 204.364 70.1705 204.616C70.0325 204.862 69.9635 205.156 69.9635 205.498C69.9635 205.84 70.0325 206.14 70.1705 206.398C70.3145 206.656 70.5005 206.854 70.7285 206.992C70.9625 207.124 71.2085 207.19 71.4665 207.19C71.7305 207.19 71.9765 207.124 72.2045 206.992C72.4325 206.86 72.6155 206.668 72.7535 206.416C72.8975 206.158 72.9695 205.858 72.9695 205.516ZM75.2351 205.516C75.2351 205.006 75.3371 204.559 75.5411 204.175C75.7511 203.785 76.0391 203.485 76.4051 203.275C76.7711 203.065 77.1911 202.96 77.6651 202.96C78.2651 202.96 78.7601 203.104 79.1501 203.392C79.5461 203.674 79.8131 204.079 79.9511 204.607H78.8441C78.7541 204.361 78.6101 204.169 78.4121 204.031C78.2141 203.893 77.9651 203.824 77.6651 203.824C77.2451 203.824 76.9091 203.974 76.6571 204.274C76.4111 204.568 76.2881 204.982 76.2881 205.516C76.2881 206.05 76.4111 206.467 76.6571 206.767C76.9091 207.067 77.2451 207.217 77.6651 207.217C78.2591 207.217 78.6521 206.956 78.8441 206.434H79.9511C79.8071 206.938 79.5371 207.34 79.1411 207.64C78.7451 207.934 78.2531 208.081 77.6651 208.081C77.1911 208.081 76.7711 207.976 76.4051 207.766C76.0391 207.55 75.7511 207.25 75.5411 206.866C75.3371 206.476 75.2351 206.026 75.2351 205.516ZM81.7206 202.384C81.5346 202.384 81.3786 202.321 81.2526 202.195C81.1266 202.069 81.0636 201.913 81.0636 201.727C81.0636 201.541 81.1266 201.385 81.2526 201.259C81.3786 201.133 81.5346 201.07 81.7206 201.07C81.9006 201.07 82.0536 201.133 82.1796 201.259C82.3056 201.385 82.3686 201.541 82.3686 201.727C82.3686 201.913 82.3056 202.069 82.1796 202.195C82.0536 202.321 81.9006 202.384 81.7206 202.384ZM82.2246 203.041V208H81.1986V203.041H82.2246ZM88.3417 205.399C88.3417 205.585 88.3297 205.753 88.3057 205.903H84.5167C84.5467 206.299 84.6937 206.617 84.9577 206.857C85.2217 207.097 85.5457 207.217 85.9297 207.217C86.4817 207.217 86.8717 206.986 87.0997 206.524H88.2067C88.0567 206.98 87.7837 207.355 87.3877 207.649C86.9977 207.937 86.5117 208.081 85.9297 208.081C85.4557 208.081 85.0297 207.976 84.6517 207.766C84.2797 207.55 83.9857 207.25 83.7697 206.866C83.5597 206.476 83.4547 206.026 83.4547 205.516C83.4547 205.006 83.5567 204.559 83.7607 204.175C83.9707 203.785 84.2617 203.485 84.6337 203.275C85.0117 203.065 85.4437 202.96 85.9297 202.96C86.3977 202.96 86.8147 203.062 87.1807 203.266C87.5467 203.47 87.8317 203.758 88.0357 204.13C88.2397 204.496 88.3417 204.919 88.3417 205.399ZM87.2707 205.075C87.2647 204.697 87.1297 204.394 86.8657 204.166C86.6017 203.938 86.2747 203.824 85.8847 203.824C85.5307 203.824 85.2277 203.938 84.9757 204.166C84.7237 204.388 84.5737 204.691 84.5257 205.075H87.2707ZM92.0784 202.96C92.4684 202.96 92.8164 203.041 93.1224 203.203C93.4344 203.365 93.6774 203.605 93.8514 203.923C94.0254 204.241 94.1124 204.625 94.1124 205.075V208H93.0954V205.228C93.0954 204.784 92.9844 204.445 92.7624 204.211C92.5404 203.971 92.2374 203.851 91.8534 203.851C91.4694 203.851 91.1634 203.971 90.9354 204.211C90.7134 204.445 90.6024 204.784 90.6024 205.228V208H89.5764V203.041H90.6024V203.608C90.7704 203.404 90.9834 203.245 91.2414 203.131C91.5054 203.017 91.7844 202.96 92.0784 202.96ZM96.8431 203.878V206.623C96.8431 206.809 96.8851 206.944 96.9691 207.028C97.0591 207.106 97.2091 207.145 97.4191 207.145H98.0491V208H97.2391C96.7771 208 96.4231 207.892 96.1771 207.676C95.9311 207.46 95.8081 207.109 95.8081 206.623V203.878H95.2231V203.041H95.8081V201.808H96.8431V203.041H98.0491V203.878H96.8431ZM103.765 205.399C103.765 205.585 103.753 205.753 103.729 205.903H99.9397C99.9697 206.299 100.117 206.617 100.381 206.857C100.645 207.097 100.969 207.217 101.353 207.217C101.905 207.217 102.295 206.986 102.523 206.524H103.63C103.48 206.98 103.207 207.355 102.811 207.649C102.421 207.937 101.935 208.081 101.353 208.081C100.879 208.081 100.453 207.976 100.075 207.766C99.7027 207.55 99.4087 207.25 99.1927 206.866C98.9827 206.476 98.8777 206.026 98.8777 205.516C98.8777 205.006 98.9797 204.559 99.1837 204.175C99.3937 203.785 99.6847 203.485 100.057 203.275C100.435 203.065 100.867 202.96 101.353 202.96C101.821 202.96 102.238 203.062 102.604 203.266C102.97 203.47 103.255 203.758 103.459 204.13C103.663 204.496 103.765 204.919 103.765 205.399ZM102.694 205.075C102.688 204.697 102.553 204.394 102.289 204.166C102.025 203.938 101.698 203.824 101.308 203.824C100.954 203.824 100.651 203.938 100.399 204.166C100.147 204.388 99.9967 204.691 99.9487 205.075H102.694Z" fill="#D78101"/>
<path d="M46.297 190.832C46.297 190.208 46.432 189.653 46.702 189.167C46.972 188.675 47.347 188.294 47.827 188.024C48.313 187.748 48.862 187.61 49.474 187.61C50.224 187.61 50.866 187.808 51.4 188.204C51.934 188.6 52.291 189.14 52.471 189.824H50.779C50.653 189.56 50.473 189.359 50.239 189.221C50.011 189.083 49.75 189.014 49.456 189.014C48.982 189.014 48.598 189.179 48.304 189.509C48.01 189.839 47.863 190.28 47.863 190.832C47.863 191.384 48.01 191.825 48.304 192.155C48.598 192.485 48.982 192.65 49.456 192.65C49.75 192.65 50.011 192.581 50.239 192.443C50.473 192.305 50.653 192.104 50.779 191.84H52.471C52.291 192.524 51.934 193.064 51.4 193.46C50.866 193.85 50.224 194.045 49.474 194.045C48.862 194.045 48.313 193.91 47.827 193.64C47.347 193.364 46.972 192.983 46.702 192.497C46.432 192.011 46.297 191.456 46.297 190.832ZM53.3325 191.48C53.3325 190.964 53.4285 190.511 53.6205 190.121C53.8185 189.731 54.0855 189.431 54.4215 189.221C54.7575 189.011 55.1325 188.906 55.5465 188.906C55.9005 188.906 56.2095 188.978 56.4735 189.122C56.7435 189.266 56.9505 189.455 57.0945 189.689V188.978H58.6335V194H57.0945V193.289C56.9445 193.523 56.7345 193.712 56.4645 193.856C56.2005 194 55.8915 194.072 55.5375 194.072C55.1295 194.072 54.7575 193.967 54.4215 193.757C54.0855 193.541 53.8185 193.238 53.6205 192.848C53.4285 192.452 53.3325 191.996 53.3325 191.48ZM57.0945 191.489C57.0945 191.105 56.9865 190.802 56.7705 190.58C56.5605 190.358 56.3025 190.247 55.9965 190.247C55.6905 190.247 55.4295 190.358 55.2135 190.58C55.0035 190.796 54.8985 191.096 54.8985 191.48C54.8985 191.864 55.0035 192.17 55.2135 192.398C55.4295 192.62 55.6905 192.731 55.9965 192.731C56.3025 192.731 56.5605 192.62 56.7705 192.398C56.9865 192.176 57.0945 191.873 57.0945 191.489ZM61.5109 189.815C61.6909 189.539 61.9159 189.323 62.1859 189.167C62.4559 189.005 62.7559 188.924 63.0859 188.924V190.553H62.6629C62.2789 190.553 61.9909 190.637 61.7989 190.805C61.6069 190.967 61.5109 191.255 61.5109 191.669V194H59.9719V188.978H61.5109V189.815ZM65.5855 187.34V194H64.0465V187.34H65.5855ZM66.6198 191.48C66.6198 190.964 66.7158 190.511 66.9078 190.121C67.1058 189.731 67.3728 189.431 67.7088 189.221C68.0448 189.011 68.4198 188.906 68.8338 188.906C69.1878 188.906 69.4968 188.978 69.7608 189.122C70.0308 189.266 70.2378 189.455 70.3818 189.689V188.978H71.9208V194H70.3818V193.289C70.2318 193.523 70.0218 193.712 69.7518 193.856C69.4878 194 69.1788 194.072 68.8248 194.072C68.4168 194.072 68.0448 193.967 67.7088 193.757C67.3728 193.541 67.1058 193.238 66.9078 192.848C66.7158 192.452 66.6198 191.996 66.6198 191.48ZM70.3818 191.489C70.3818 191.105 70.2738 190.802 70.0578 190.58C69.8478 190.358 69.5898 190.247 69.2838 190.247C68.9778 190.247 68.7168 190.358 68.5008 190.58C68.2908 190.796 68.1858 191.096 68.1858 191.48C68.1858 191.864 68.2908 192.17 68.5008 192.398C68.7168 192.62 68.9778 192.731 69.2838 192.731C69.5898 192.731 69.8478 192.62 70.0578 192.398C70.2738 192.176 70.3818 191.873 70.3818 191.489ZM79.5044 187.682V188.915H76.9304V190.247H78.8564V191.444H76.9304V194H75.3914V187.682H79.5044ZM85.2723 191.408C85.2723 191.552 85.2633 191.702 85.2453 191.858H81.7623C81.7863 192.17 81.8853 192.41 82.0593 192.578C82.2393 192.74 82.4583 192.821 82.7163 192.821C83.1003 192.821 83.3673 192.659 83.5173 192.335H85.1553C85.0713 192.665 84.9183 192.962 84.6963 193.226C84.4803 193.49 84.2073 193.697 83.8773 193.847C83.5473 193.997 83.1783 194.072 82.7703 194.072C82.2783 194.072 81.8403 193.967 81.4563 193.757C81.0723 193.547 80.7723 193.247 80.5563 192.857C80.3403 192.467 80.2323 192.011 80.2323 191.489C80.2323 190.967 80.3373 190.511 80.5473 190.121C80.7633 189.731 81.0633 189.431 81.4473 189.221C81.8313 189.011 82.2723 188.906 82.7703 188.906C83.2563 188.906 83.6883 189.008 84.0663 189.212C84.4443 189.416 84.7383 189.707 84.9483 190.085C85.1643 190.463 85.2723 190.904 85.2723 191.408ZM83.6973 191.003C83.6973 190.739 83.6073 190.529 83.4273 190.373C83.2473 190.217 83.0223 190.139 82.7523 190.139C82.4943 190.139 82.2753 190.214 82.0953 190.364C81.9213 190.514 81.8133 190.727 81.7713 191.003H83.6973ZM87.8482 189.815C88.0282 189.539 88.2532 189.323 88.5232 189.167C88.7932 189.005 89.0932 188.924 89.4232 188.924V190.553H89.0002C88.6162 190.553 88.3282 190.637 88.1362 190.805C87.9442 190.967 87.8482 191.255 87.8482 191.669V194H86.3092V188.978H87.8482V189.815ZM93.4438 188.924C94.0318 188.924 94.4998 189.116 94.8478 189.5C95.2018 189.878 95.3788 190.4 95.3788 191.066V194H93.8488V191.273C93.8488 190.937 93.7618 190.676 93.5878 190.49C93.4138 190.304 93.1798 190.211 92.8858 190.211C92.5918 190.211 92.3578 190.304 92.1838 190.49C92.0098 190.676 91.9228 190.937 91.9228 191.273V194H90.3838V188.978H91.9228V189.644C92.0788 189.422 92.2888 189.248 92.5528 189.122C92.8168 188.99 93.1138 188.924 93.4438 188.924ZM96.3672 191.48C96.3672 190.964 96.4632 190.511 96.6552 190.121C96.8532 189.731 97.1202 189.431 97.4562 189.221C97.7922 189.011 98.1672 188.906 98.5812 188.906C98.9352 188.906 99.2442 188.978 99.5082 189.122C99.7782 189.266 99.9852 189.455 100.129 189.689V188.978H101.668V194H100.129V193.289C99.9792 193.523 99.7692 193.712 99.4992 193.856C99.2352 194 98.9262 194.072 98.5722 194.072C98.1642 194.072 97.7922 193.967 97.4562 193.757C97.1202 193.541 96.8532 193.238 96.6552 192.848C96.4632 192.452 96.3672 191.996 96.3672 191.48ZM100.129 191.489C100.129 191.105 100.021 190.802 99.8052 190.58C99.5952 190.358 99.3372 190.247 99.0312 190.247C98.7252 190.247 98.4642 190.358 98.2482 190.58C98.0382 190.796 97.9332 191.096 97.9332 191.48C97.9332 191.864 98.0382 192.17 98.2482 192.398C98.4642 192.62 98.7252 192.731 99.0312 192.731C99.3372 192.731 99.5952 192.62 99.8052 192.398C100.021 192.176 100.129 191.873 100.129 191.489ZM106.067 188.924C106.655 188.924 107.123 189.116 107.471 189.5C107.825 189.878 108.002 190.4 108.002 191.066V194H106.472V191.273C106.472 190.937 106.385 190.676 106.211 190.49C106.037 190.304 105.803 190.211 105.509 190.211C105.215 190.211 104.981 190.304 104.807 190.49C104.633 190.676 104.546 190.937 104.546 191.273V194H103.007V188.978H104.546V189.644C104.702 189.422 104.912 189.248 105.176 189.122C105.44 188.99 105.737 188.924 106.067 188.924ZM108.99 191.48C108.99 190.964 109.086 190.511 109.278 190.121C109.476 189.731 109.743 189.431 110.079 189.221C110.415 189.011 110.79 188.906 111.204 188.906C111.534 188.906 111.834 188.975 112.104 189.113C112.38 189.251 112.596 189.437 112.752 189.671V187.34H114.291V194H112.752V193.28C112.608 193.52 112.401 193.712 112.131 193.856C111.867 194 111.558 194.072 111.204 194.072C110.79 194.072 110.415 193.967 110.079 193.757C109.743 193.541 109.476 193.238 109.278 192.848C109.086 192.452 108.99 191.996 108.99 191.48ZM112.752 191.489C112.752 191.105 112.644 190.802 112.428 190.58C112.218 190.358 111.96 190.247 111.654 190.247C111.348 190.247 111.087 190.358 110.871 190.58C110.661 190.796 110.556 191.096 110.556 191.48C110.556 191.864 110.661 192.17 110.871 192.398C111.087 192.62 111.348 192.731 111.654 192.731C111.96 192.731 112.218 192.62 112.428 192.398C112.644 192.176 112.752 191.873 112.752 191.489ZM120.363 191.408C120.363 191.552 120.354 191.702 120.336 191.858H116.853C116.877 192.17 116.976 192.41 117.15 192.578C117.33 192.74 117.549 192.821 117.807 192.821C118.191 192.821 118.458 192.659 118.608 192.335H120.246C120.162 192.665 120.009 192.962 119.787 193.226C119.571 193.49 119.298 193.697 118.968 193.847C118.638 193.997 118.269 194.072 117.861 194.072C117.369 194.072 116.931 193.967 116.547 193.757C116.163 193.547 115.863 193.247 115.647 192.857C115.431 192.467 115.323 192.011 115.323 191.489C115.323 190.967 115.428 190.511 115.638 190.121C115.854 189.731 116.154 189.431 116.538 189.221C116.922 189.011 117.363 188.906 117.861 188.906C118.347 188.906 118.779 189.008 119.157 189.212C119.535 189.416 119.829 189.707 120.039 190.085C120.255 190.463 120.363 190.904 120.363 191.408ZM118.788 191.003C118.788 190.739 118.698 190.529 118.518 190.373C118.338 190.217 118.113 190.139 117.843 190.139C117.585 190.139 117.366 190.214 117.186 190.364C117.012 190.514 116.904 190.727 116.862 191.003H118.788ZM123.443 194.072C123.005 194.072 122.615 193.997 122.273 193.847C121.931 193.697 121.661 193.493 121.463 193.235C121.265 192.971 121.154 192.677 121.13 192.353H122.651C122.669 192.527 122.75 192.668 122.894 192.776C123.038 192.884 123.215 192.938 123.425 192.938C123.617 192.938 123.764 192.902 123.866 192.83C123.974 192.752 124.028 192.653 124.028 192.533C124.028 192.389 123.953 192.284 123.803 192.218C123.653 192.146 123.41 192.068 123.074 191.984C122.714 191.9 122.414 191.813 122.174 191.723C121.934 191.627 121.727 191.48 121.553 191.282C121.379 191.078 121.292 190.805 121.292 190.463C121.292 190.175 121.37 189.914 121.526 189.68C121.688 189.44 121.922 189.251 122.228 189.113C122.54 188.975 122.909 188.906 123.335 188.906C123.965 188.906 124.46 189.062 124.82 189.374C125.186 189.686 125.396 190.1 125.45 190.616H124.028C124.004 190.442 123.926 190.304 123.794 190.202C123.668 190.1 123.5 190.049 123.29 190.049C123.11 190.049 122.972 190.085 122.876 190.157C122.78 190.223 122.732 190.316 122.732 190.436C122.732 190.58 122.807 190.688 122.957 190.76C123.113 190.832 123.353 190.904 123.677 190.976C124.049 191.072 124.352 191.168 124.586 191.264C124.82 191.354 125.024 191.504 125.198 191.714C125.378 191.918 125.471 192.194 125.477 192.542C125.477 192.836 125.393 193.1 125.225 193.334C125.063 193.562 124.826 193.742 124.514 193.874C124.208 194.006 123.851 194.072 123.443 194.072Z" fill="#434343"/>
<path d="M24.9239 55.384V56.48H22.6359V57.664H24.3479V58.728H22.6359V61H21.2679V55.384H24.9239ZM30.2509 56.536V61H28.8829V60.392C28.7442 60.5893 28.5549 60.7493 28.3149 60.872C28.0802 60.9893 27.8189 61.048 27.5309 61.048C27.1895 61.048 26.8882 60.9733 26.6269 60.824C26.3655 60.6693 26.1629 60.448 26.0189 60.16C25.8749 59.872 25.8029 59.5333 25.8029 59.144V56.536H27.1629V58.96C27.1629 59.2587 27.2402 59.4907 27.3949 59.656C27.5495 59.8213 27.7575 59.904 28.0189 59.904C28.2855 59.904 28.4962 59.8213 28.6509 59.656C28.8055 59.4907 28.8829 59.2587 28.8829 58.96V56.536H30.2509ZM32.1215 56.072C31.8815 56.072 31.6842 56.0027 31.5295 55.864C31.3802 55.72 31.3055 55.544 31.3055 55.336C31.3055 55.1227 31.3802 54.9467 31.5295 54.808C31.6842 54.664 31.8815 54.592 32.1215 54.592C32.3562 54.592 32.5482 54.664 32.6975 54.808C32.8522 54.9467 32.9295 55.1227 32.9295 55.336C32.9295 55.544 32.8522 55.72 32.6975 55.864C32.5482 56.0027 32.3562 56.072 32.1215 56.072ZM32.8015 56.536V61H31.4335V56.536H32.8015ZM41.5842 56.488C42.1389 56.488 42.5789 56.656 42.9042 56.992C43.2349 57.328 43.4002 57.7947 43.4002 58.392V61H42.0402V58.576C42.0402 58.288 41.9629 58.0667 41.8082 57.912C41.6589 57.752 41.4509 57.672 41.1842 57.672C40.9175 57.672 40.7069 57.752 40.5522 57.912C40.4029 58.0667 40.3282 58.288 40.3282 58.576V61H38.9682V58.576C38.9682 58.288 38.8909 58.0667 38.7362 57.912C38.5869 57.752 38.3789 57.672 38.1122 57.672C37.8455 57.672 37.6349 57.752 37.4802 57.912C37.3309 58.0667 37.2562 58.288 37.2562 58.576V61H35.8882V56.536H37.2562V57.096C37.3949 56.9093 37.5762 56.7627 37.8002 56.656C38.0242 56.544 38.2775 56.488 38.5602 56.488C38.8962 56.488 39.1949 56.56 39.4562 56.704C39.7229 56.848 39.9309 57.0533 40.0802 57.32C40.2349 57.0747 40.4455 56.8747 40.7122 56.72C40.9789 56.5653 41.2695 56.488 41.5842 56.488ZM48.9649 56.536V61H47.5969V60.392C47.4583 60.5893 47.2689 60.7493 47.0289 60.872C46.7943 60.9893 46.5329 61.048 46.2449 61.048C45.9036 61.048 45.6023 60.9733 45.3409 60.824C45.0796 60.6693 44.8769 60.448 44.7329 60.16C44.5889 59.872 44.5169 59.5333 44.5169 59.144V56.536H45.8769V58.96C45.8769 59.2587 45.9543 59.4907 46.1089 59.656C46.2636 59.8213 46.4716 59.904 46.7329 59.904C46.9996 59.904 47.2103 59.8213 47.3649 59.656C47.5196 59.4907 47.5969 59.2587 47.5969 58.96V56.536H48.9649ZM50.8356 56.072C50.5956 56.072 50.3982 56.0027 50.2436 55.864C50.0942 55.72 50.0196 55.544 50.0196 55.336C50.0196 55.1227 50.0942 54.9467 50.2436 54.808C50.3982 54.664 50.5956 54.592 50.8356 54.592C51.0702 54.592 51.2622 54.664 51.4116 54.808C51.5662 54.9467 51.6436 55.1227 51.6436 55.336C51.6436 55.544 51.5662 55.72 51.4116 55.864C51.2622 56.0027 51.0702 56.072 50.8356 56.072ZM51.5156 56.536V61H50.1476V56.536H51.5156ZM55.1949 59.84V61H54.4989C54.0029 61 53.6163 60.88 53.3389 60.64C53.0616 60.3947 52.9229 59.9973 52.9229 59.448V57.672H52.3789V56.536H52.9229V55.448H54.2909V56.536H55.1869V57.672H54.2909V59.464C54.2909 59.5973 54.3229 59.6933 54.3869 59.752C54.4509 59.8107 54.5576 59.84 54.7069 59.84H55.1949ZM58.1889 61.064C57.7516 61.064 57.3569 60.9707 57.0049 60.784C56.6583 60.5973 56.3836 60.3307 56.1809 59.984C55.9836 59.6373 55.8849 59.232 55.8849 58.768C55.8849 58.3093 55.9863 57.9067 56.1889 57.56C56.3916 57.208 56.6689 56.9387 57.0209 56.752C57.3729 56.5653 57.7676 56.472 58.2049 56.472C58.6423 56.472 59.0369 56.5653 59.3889 56.752C59.7409 56.9387 60.0183 57.208 60.2209 57.56C60.4236 57.9067 60.5249 58.3093 60.5249 58.768C60.5249 59.2267 60.4209 59.632 60.2129 59.984C60.0103 60.3307 59.7303 60.5973 59.3729 60.784C59.0209 60.9707 58.6263 61.064 58.1889 61.064ZM58.1889 59.88C58.4503 59.88 58.6716 59.784 58.8529 59.592C59.0396 59.4 59.1329 59.1253 59.1329 58.768C59.1329 58.4107 59.0423 58.136 58.8609 57.944C58.6849 57.752 58.4663 57.656 58.2049 57.656C57.9383 57.656 57.7169 57.752 57.5409 57.944C57.3649 58.1307 57.2769 58.4053 57.2769 58.768C57.2769 59.1253 57.3623 59.4 57.5329 59.592C57.7089 59.784 57.9276 59.88 58.1889 59.88ZM64.714 57.168C64.842 56.96 65.026 56.792 65.266 56.664C65.506 56.536 65.7807 56.472 66.09 56.472C66.458 56.472 66.7913 56.5653 67.09 56.752C67.3887 56.9387 67.6233 57.2053 67.794 57.552C67.97 57.8987 68.058 58.3013 68.058 58.76C68.058 59.2187 67.97 59.624 67.794 59.976C67.6233 60.3227 67.3887 60.592 67.09 60.784C66.7913 60.9707 66.458 61.064 66.09 61.064C65.7753 61.064 65.5007 61.0027 65.266 60.88C65.0313 60.752 64.8473 60.584 64.714 60.376V61H63.346V55.08H64.714V57.168ZM66.666 58.76C66.666 58.4187 66.57 58.152 66.378 57.96C66.1913 57.7627 65.9593 57.664 65.682 57.664C65.41 57.664 65.178 57.7627 64.986 57.96C64.7993 58.1573 64.706 58.4267 64.706 58.768C64.706 59.1093 64.7993 59.3787 64.986 59.576C65.178 59.7733 65.41 59.872 65.682 59.872C65.954 59.872 66.186 59.7733 66.378 59.576C66.57 59.3733 66.666 59.1013 66.666 58.76ZM73.1837 58.696C73.1837 58.824 73.1757 58.9573 73.1597 59.096H70.0637C70.085 59.3733 70.173 59.5867 70.3277 59.736C70.4877 59.88 70.6824 59.952 70.9117 59.952C71.253 59.952 71.4904 59.808 71.6237 59.52H73.0797C73.005 59.8133 72.869 60.0773 72.6717 60.312C72.4797 60.5467 72.237 60.7307 71.9437 60.864C71.6504 60.9973 71.3224 61.064 70.9597 61.064C70.5224 61.064 70.133 60.9707 69.7917 60.784C69.4504 60.5973 69.1837 60.3307 68.9917 59.984C68.7997 59.6373 68.7037 59.232 68.7037 58.768C68.7037 58.304 68.797 57.8987 68.9837 57.552C69.1757 57.2053 69.4424 56.9387 69.7837 56.752C70.125 56.5653 70.517 56.472 70.9597 56.472C71.3917 56.472 71.7757 56.5627 72.1117 56.744C72.4477 56.9253 72.709 57.184 72.8957 57.52C73.0877 57.856 73.1837 58.248 73.1837 58.696ZM71.7837 58.336C71.7837 58.1013 71.7037 57.9147 71.5437 57.776C71.3837 57.6373 71.1837 57.568 70.9437 57.568C70.7144 57.568 70.5197 57.6347 70.3597 57.768C70.205 57.9013 70.109 58.0907 70.0717 58.336H71.7837ZM79.8014 56.488C80.356 56.488 80.796 56.656 81.1214 56.992C81.452 57.328 81.6174 57.7947 81.6174 58.392V61H80.2574V58.576C80.2574 58.288 80.18 58.0667 80.0254 57.912C79.876 57.752 79.668 57.672 79.4014 57.672C79.1347 57.672 78.924 57.752 78.7694 57.912C78.62 58.0667 78.5454 58.288 78.5454 58.576V61H77.1854V58.576C77.1854 58.288 77.108 58.0667 76.9534 57.912C76.804 57.752 76.596 57.672 76.3294 57.672C76.0627 57.672 75.852 57.752 75.6974 57.912C75.548 58.0667 75.4734 58.288 75.4734 58.576V61H74.1054V56.536H75.4734V57.096C75.612 56.9093 75.7934 56.7627 76.0174 56.656C76.2414 56.544 76.4947 56.488 76.7774 56.488C77.1134 56.488 77.412 56.56 77.6734 56.704C77.94 56.848 78.148 57.0533 78.2974 57.32C78.452 57.0747 78.6627 56.8747 78.9294 56.72C79.196 56.5653 79.4867 56.488 79.8014 56.488ZM84.3974 58.76C84.3974 58.3013 84.4828 57.8987 84.6534 57.552C84.8294 57.2053 85.0668 56.9387 85.3654 56.752C85.6641 56.5653 85.9974 56.472 86.3654 56.472C86.6801 56.472 86.9548 56.536 87.1894 56.664C87.4294 56.792 87.6134 56.96 87.7414 57.168V56.536H89.1094V61H87.7414V60.368C87.6081 60.576 87.4214 60.744 87.1814 60.872C86.9468 61 86.6721 61.064 86.3574 61.064C85.9948 61.064 85.6641 60.9707 85.3654 60.784C85.0668 60.592 84.8294 60.3227 84.6534 59.976C84.4828 59.624 84.3974 59.2187 84.3974 58.76ZM87.7414 58.768C87.7414 58.4267 87.6454 58.1573 87.4534 57.96C87.2668 57.7627 87.0374 57.664 86.7654 57.664C86.4934 57.664 86.2614 57.7627 86.0694 57.96C85.8828 58.152 85.7894 58.4187 85.7894 58.76C85.7894 59.1013 85.8828 59.3733 86.0694 59.576C86.2614 59.7733 86.4934 59.872 86.7654 59.872C87.0374 59.872 87.2668 59.7733 87.4534 59.576C87.6454 59.3787 87.7414 59.1093 87.7414 58.768ZM92.7871 59.84V61H92.0911C91.5951 61 91.2085 60.88 90.9311 60.64C90.6538 60.3947 90.5151 59.9973 90.5151 59.448V57.672H89.9711V56.536H90.5151V55.448H91.8831V56.536H92.7791V57.672H91.8831V59.464C91.8831 59.5973 91.9151 59.6933 91.9791 59.752C92.0431 59.8107 92.1498 59.84 92.2991 59.84H92.7871ZM97.9571 58.696C97.9571 58.824 97.9491 58.9573 97.9331 59.096H94.8371C94.8585 59.3733 94.9465 59.5867 95.1011 59.736C95.2611 59.88 95.4558 59.952 95.6851 59.952C96.0265 59.952 96.2638 59.808 96.3971 59.52H97.8531C97.7785 59.8133 97.6425 60.0773 97.4451 60.312C97.2531 60.5467 97.0105 60.7307 96.7171 60.864C96.4238 60.9973 96.0958 61.064 95.7331 61.064C95.2958 61.064 94.9065 60.9707 94.5651 60.784C94.2238 60.5973 93.9571 60.3307 93.7651 59.984C93.5731 59.6373 93.4771 59.232 93.4771 58.768C93.4771 58.304 93.5705 57.8987 93.7571 57.552C93.9491 57.2053 94.2158 56.9387 94.5571 56.752C94.8985 56.5653 95.2905 56.472 95.7331 56.472C96.1651 56.472 96.5491 56.5627 96.8851 56.744C97.2211 56.9253 97.4825 57.184 97.6691 57.52C97.8611 57.856 97.9571 58.248 97.9571 58.696ZM96.5571 58.336C96.5571 58.1013 96.4771 57.9147 96.3171 57.776C96.1571 57.6373 95.9571 57.568 95.7171 57.568C95.4878 57.568 95.2931 57.6347 95.1331 57.768C94.9785 57.9013 94.8825 58.0907 94.8451 58.336H96.5571ZM101.599 56.488C102.121 56.488 102.537 56.6587 102.847 57C103.161 57.336 103.319 57.8 103.319 58.392V61H101.959V58.576C101.959 58.2773 101.881 58.0453 101.727 57.88C101.572 57.7147 101.364 57.632 101.103 57.632C100.841 57.632 100.633 57.7147 100.479 57.88C100.324 58.0453 100.247 58.2773 100.247 58.576V61H98.8788V56.536H100.247V57.128C100.385 56.9307 100.572 56.776 100.807 56.664C101.041 56.5467 101.305 56.488 101.599 56.488ZM104.197 58.76C104.197 58.3013 104.283 57.8987 104.453 57.552C104.629 57.2053 104.867 56.9387 105.165 56.752C105.464 56.5653 105.797 56.472 106.165 56.472C106.459 56.472 106.725 56.5333 106.965 56.656C107.211 56.7787 107.403 56.944 107.541 57.152V55.08H108.909V61H107.541V60.36C107.413 60.5733 107.229 60.744 106.989 60.872C106.755 61 106.48 61.064 106.165 61.064C105.797 61.064 105.464 60.9707 105.165 60.784C104.867 60.592 104.629 60.3227 104.453 59.976C104.283 59.624 104.197 59.2187 104.197 58.76ZM107.541 58.768C107.541 58.4267 107.445 58.1573 107.253 57.96C107.067 57.7627 106.837 57.664 106.565 57.664C106.293 57.664 106.061 57.7627 105.869 57.96C105.683 58.152 105.589 58.4187 105.589 58.76C105.589 59.1013 105.683 59.3733 105.869 59.576C106.061 59.7733 106.293 59.872 106.565 59.872C106.837 59.872 107.067 59.7733 107.253 59.576C107.445 59.3787 107.541 59.1093 107.541 58.768ZM110.787 56.072C110.547 56.072 110.35 56.0027 110.195 55.864C110.046 55.72 109.971 55.544 109.971 55.336C109.971 55.1227 110.046 54.9467 110.195 54.808C110.35 54.664 110.547 54.592 110.787 54.592C111.022 54.592 111.214 54.664 111.363 54.808C111.518 54.9467 111.595 55.1227 111.595 55.336C111.595 55.544 111.518 55.72 111.363 55.864C111.214 56.0027 111.022 56.072 110.787 56.072ZM111.467 56.536V61H110.099V56.536H111.467ZM112.386 58.76C112.386 58.3013 112.472 57.8987 112.642 57.552C112.818 57.2053 113.056 56.9387 113.354 56.752C113.653 56.5653 113.986 56.472 114.354 56.472C114.648 56.472 114.914 56.5333 115.154 56.656C115.4 56.7787 115.592 56.944 115.73 57.152V55.08H117.098V61H115.73V60.36C115.602 60.5733 115.418 60.744 115.178 60.872C114.944 61 114.669 61.064 114.354 61.064C113.986 61.064 113.653 60.9707 113.354 60.784C113.056 60.592 112.818 60.3227 112.642 59.976C112.472 59.624 112.386 59.2187 112.386 58.76ZM115.73 58.768C115.73 58.4267 115.634 58.1573 115.442 57.96C115.256 57.7627 115.026 57.664 114.754 57.664C114.482 57.664 114.25 57.7627 114.058 57.96C113.872 58.152 113.778 58.4187 113.778 58.76C113.778 59.1013 113.872 59.3733 114.058 59.576C114.25 59.7733 114.482 59.872 114.754 59.872C115.026 59.872 115.256 59.7733 115.442 59.576C115.634 59.3787 115.73 59.1093 115.73 58.768ZM118.016 58.76C118.016 58.3013 118.102 57.8987 118.272 57.552C118.448 57.2053 118.686 56.9387 118.984 56.752C119.283 56.5653 119.616 56.472 119.984 56.472C120.299 56.472 120.574 56.536 120.808 56.664C121.048 56.792 121.232 56.96 121.36 57.168V56.536H122.728V61H121.36V60.368C121.227 60.576 121.04 60.744 120.8 60.872C120.566 61 120.291 61.064 119.976 61.064C119.614 61.064 119.283 60.9707 118.984 60.784C118.686 60.592 118.448 60.3227 118.272 59.976C118.102 59.624 118.016 59.2187 118.016 58.76ZM121.36 58.768C121.36 58.4267 121.264 58.1573 121.072 57.96C120.886 57.7627 120.656 57.664 120.384 57.664C120.112 57.664 119.88 57.7627 119.688 57.96C119.502 58.152 119.408 58.4187 119.408 58.76C119.408 59.1013 119.502 59.3733 119.688 59.576C119.88 59.7733 120.112 59.872 120.384 59.872C120.656 59.872 120.886 59.7733 121.072 59.576C121.264 59.3787 121.36 59.1093 121.36 58.768ZM125.39 59.736L124.502 62.032H123.63L124.094 59.736H125.39ZM130.798 59.84V61H130.102C129.606 61 129.219 60.88 128.942 60.64C128.665 60.3947 128.526 59.9973 128.526 59.448V57.672H127.982V56.536H128.526V55.448H129.894V56.536H130.79V57.672H129.894V59.464C129.894 59.5973 129.926 59.6933 129.99 59.752C130.054 59.8107 130.161 59.84 130.31 59.84H130.798ZM131.488 58.76C131.488 58.3013 131.573 57.8987 131.744 57.552C131.92 57.2053 132.157 56.9387 132.456 56.752C132.755 56.5653 133.088 56.472 133.456 56.472C133.771 56.472 134.045 56.536 134.28 56.664C134.52 56.792 134.704 56.96 134.832 57.168V56.536H136.2V61H134.832V60.368C134.699 60.576 134.512 60.744 134.272 60.872C134.037 61 133.763 61.064 133.448 61.064C133.085 61.064 132.755 60.9707 132.456 60.784C132.157 60.592 131.92 60.3227 131.744 59.976C131.573 59.624 131.488 59.2187 131.488 58.76ZM134.832 58.768C134.832 58.4267 134.736 58.1573 134.544 57.96C134.357 57.7627 134.128 57.664 133.856 57.664C133.584 57.664 133.352 57.7627 133.16 57.96C132.973 58.152 132.88 58.4187 132.88 58.76C132.88 59.1013 132.973 59.3733 133.16 59.576C133.352 59.7733 133.584 59.872 133.856 59.872C134.128 59.872 134.357 59.7733 134.544 59.576C134.736 59.3787 134.832 59.1093 134.832 58.768ZM140.11 56.488C140.632 56.488 141.048 56.6587 141.358 57C141.672 57.336 141.83 57.8 141.83 58.392V61H140.47V58.576C140.47 58.2773 140.392 58.0453 140.238 57.88C140.083 57.7147 139.875 57.632 139.614 57.632C139.352 57.632 139.144 57.7147 138.99 57.88C138.835 58.0453 138.758 58.2773 138.758 58.576V61H137.39V56.536H138.758V57.128C138.896 56.9307 139.083 56.776 139.318 56.664C139.552 56.5467 139.816 56.488 140.11 56.488ZM145.468 59.84V61H144.772C144.276 61 143.89 60.88 143.612 60.64C143.335 60.3947 143.196 59.9973 143.196 59.448V57.672H142.652V56.536H143.196V55.448H144.564V56.536H145.46V57.672H144.564V59.464C144.564 59.5973 144.596 59.6933 144.66 59.752C144.724 59.8107 144.831 59.84 144.98 59.84H145.468ZM148.462 61.064C148.025 61.064 147.63 60.9707 147.278 60.784C146.932 60.5973 146.657 60.3307 146.454 59.984C146.257 59.6373 146.158 59.232 146.158 58.768C146.158 58.3093 146.26 57.9067 146.462 57.56C146.665 57.208 146.942 56.9387 147.294 56.752C147.646 56.5653 148.041 56.472 148.478 56.472C148.916 56.472 149.31 56.5653 149.662 56.752C150.014 56.9387 150.292 57.208 150.494 57.56C150.697 57.9067 150.798 58.3093 150.798 58.768C150.798 59.2267 150.694 59.632 150.486 59.984C150.284 60.3307 150.004 60.5973 149.646 60.784C149.294 60.9707 148.9 61.064 148.462 61.064ZM148.462 59.88C148.724 59.88 148.945 59.784 149.126 59.592C149.313 59.4 149.406 59.1253 149.406 58.768C149.406 58.4107 149.316 58.136 149.134 57.944C148.958 57.752 148.74 57.656 148.478 57.656C148.212 57.656 147.99 57.752 147.814 57.944C147.638 58.1307 147.55 58.4053 147.55 58.768C147.55 59.1253 147.636 59.4 147.806 59.592C147.982 59.784 148.201 59.88 148.462 59.88ZM27.8968 69.168C28.0301 68.96 28.2141 68.792 28.4488 68.664C28.6835 68.536 28.9581 68.472 29.2728 68.472C29.6408 68.472 29.9741 68.5653 30.2728 68.752C30.5715 68.9387 30.8061 69.2053 30.9768 69.552C31.1528 69.8987 31.2408 70.3013 31.2408 70.76C31.2408 71.2187 31.1528 71.624 30.9768 71.976C30.8061 72.3227 30.5715 72.592 30.2728 72.784C29.9741 72.9707 29.6408 73.064 29.2728 73.064C28.9635 73.064 28.6888 73 28.4488 72.872C28.2141 72.744 28.0301 72.5787 27.8968 72.376V75.128H26.5288V68.536H27.8968V69.168ZM29.8488 70.76C29.8488 70.4187 29.7528 70.152 29.5608 69.96C29.3741 69.7627 29.1421 69.664 28.8648 69.664C28.5928 69.664 28.3608 69.7627 28.1688 69.96C27.9821 70.1573 27.8888 70.4267 27.8888 70.768C27.8888 71.1093 27.9821 71.3787 28.1688 71.576C28.3608 71.7733 28.5928 71.872 28.8648 71.872C29.1368 71.872 29.3688 71.7733 29.5608 71.576C29.7528 71.3733 29.8488 71.1013 29.8488 70.76ZM36.3665 70.696C36.3665 70.824 36.3585 70.9573 36.3425 71.096H33.2465C33.2678 71.3733 33.3558 71.5867 33.5105 71.736C33.6705 71.88 33.8652 71.952 34.0945 71.952C34.4358 71.952 34.6732 71.808 34.8065 71.52H36.2625C36.1878 71.8133 36.0518 72.0773 35.8545 72.312C35.6625 72.5467 35.4198 72.7307 35.1265 72.864C34.8332 72.9973 34.5052 73.064 34.1425 73.064C33.7052 73.064 33.3158 72.9707 32.9745 72.784C32.6332 72.5973 32.3665 72.3307 32.1745 71.984C31.9825 71.6373 31.8865 71.232 31.8865 70.768C31.8865 70.304 31.9798 69.8987 32.1665 69.552C32.3585 69.2053 32.6252 68.9387 32.9665 68.752C33.3078 68.5653 33.6998 68.472 34.1425 68.472C34.5745 68.472 34.9585 68.5627 35.2945 68.744C35.6305 68.9253 35.8918 69.184 36.0785 69.52C36.2705 69.856 36.3665 70.248 36.3665 70.696ZM34.9665 70.336C34.9665 70.1013 34.8865 69.9147 34.7265 69.776C34.5665 69.6373 34.3665 69.568 34.1265 69.568C33.8972 69.568 33.7025 69.6347 33.5425 69.768C33.3878 69.9013 33.2918 70.0907 33.2545 70.336H34.9665ZM38.6562 67.08V73H37.2882V67.08H38.6562ZM39.5756 70.76C39.5756 70.3013 39.6609 69.8987 39.8316 69.552C40.0076 69.2053 40.2449 68.9387 40.5436 68.752C40.8422 68.5653 41.1756 68.472 41.5436 68.472C41.8582 68.472 42.1329 68.536 42.3676 68.664C42.6076 68.792 42.7916 68.96 42.9196 69.168V68.536H44.2876V73H42.9196V72.368C42.7862 72.576 42.5996 72.744 42.3596 72.872C42.1249 73 41.8502 73.064 41.5356 73.064C41.1729 73.064 40.8422 72.9707 40.5436 72.784C40.2449 72.592 40.0076 72.3227 39.8316 71.976C39.6609 71.624 39.5756 71.2187 39.5756 70.76ZM42.9196 70.768C42.9196 70.4267 42.8236 70.1573 42.6316 69.96C42.4449 69.7627 42.2156 69.664 41.9436 69.664C41.6716 69.664 41.4396 69.7627 41.2476 69.96C41.0609 70.152 40.9676 70.4187 40.9676 70.76C40.9676 71.1013 41.0609 71.3733 41.2476 71.576C41.4396 71.7733 41.6716 71.872 41.9436 71.872C42.2156 71.872 42.4449 71.7733 42.6316 71.576C42.8236 71.3787 42.9196 71.1093 42.9196 70.768ZM48.7406 69.28C48.9006 69.0347 49.1006 68.8427 49.3406 68.704C49.5806 68.56 49.8472 68.488 50.1406 68.488V69.936H49.7646C49.4232 69.936 49.1672 70.0107 48.9966 70.16C48.8259 70.304 48.7406 70.56 48.7406 70.928V73H47.3726V68.536H48.7406V69.28ZM55.2024 70.696C55.2024 70.824 55.1944 70.9573 55.1784 71.096H52.0824C52.1038 71.3733 52.1918 71.5867 52.3464 71.736C52.5064 71.88 52.7011 71.952 52.9304 71.952C53.2718 71.952 53.5091 71.808 53.6424 71.52H55.0984C55.0238 71.8133 54.8878 72.0773 54.6904 72.312C54.4984 72.5467 54.2558 72.7307 53.9624 72.864C53.6691 72.9973 53.3411 73.064 52.9784 73.064C52.5411 73.064 52.1518 72.9707 51.8104 72.784C51.4691 72.5973 51.2024 72.3307 51.0104 71.984C50.8184 71.6373 50.7224 71.232 50.7224 70.768C50.7224 70.304 50.8158 69.8987 51.0024 69.552C51.1944 69.2053 51.4611 68.9387 51.8024 68.752C52.1438 68.5653 52.5358 68.472 52.9784 68.472C53.4104 68.472 53.7944 68.5627 54.1304 68.744C54.4664 68.9253 54.7278 69.184 54.9144 69.52C55.1064 69.856 55.2024 70.248 55.2024 70.696ZM53.8024 70.336C53.8024 70.1013 53.7224 69.9147 53.5624 69.776C53.4024 69.6373 53.2024 69.568 52.9624 69.568C52.7331 69.568 52.5384 69.6347 52.3784 69.768C52.2238 69.9013 52.1278 70.0907 52.0904 70.336H53.8024ZM55.8521 70.768C55.8521 70.304 55.9455 69.8987 56.1321 69.552C56.3241 69.2053 56.5881 68.9387 56.9241 68.752C57.2655 68.5653 57.6548 68.472 58.0921 68.472C58.6521 68.472 59.1188 68.6187 59.4921 68.912C59.8708 69.2053 60.1188 69.6187 60.2361 70.152H58.7801C58.6575 69.8107 58.4201 69.64 58.0681 69.64C57.8175 69.64 57.6175 69.7387 57.4681 69.936C57.3188 70.128 57.2441 70.4053 57.2441 70.768C57.2441 71.1307 57.3188 71.4107 57.4681 71.608C57.6175 71.8 57.8175 71.896 58.0681 71.896C58.4201 71.896 58.6575 71.7253 58.7801 71.384H60.2361C60.1188 71.9067 59.8708 72.3173 59.4921 72.616C59.1135 72.9147 58.6468 73.064 58.0921 73.064C57.6548 73.064 57.2655 72.9707 56.9241 72.784C56.5881 72.5973 56.3241 72.3307 56.1321 71.984C55.9455 71.6373 55.8521 71.232 55.8521 70.768ZM65.3759 70.696C65.3759 70.824 65.3679 70.9573 65.3519 71.096H62.2559C62.2772 71.3733 62.3652 71.5867 62.5199 71.736C62.6799 71.88 62.8745 71.952 63.1039 71.952C63.4452 71.952 63.6825 71.808 63.8159 71.52H65.2719C65.1972 71.8133 65.0612 72.0773 64.8639 72.312C64.6719 72.5467 64.4292 72.7307 64.1359 72.864C63.8425 72.9973 63.5145 73.064 63.1519 73.064C62.7145 73.064 62.3252 72.9707 61.9839 72.784C61.6425 72.5973 61.3759 72.3307 61.1839 71.984C60.9919 71.6373 60.8959 71.232 60.8959 70.768C60.8959 70.304 60.9892 69.8987 61.1759 69.552C61.3679 69.2053 61.6345 68.9387 61.9759 68.752C62.3172 68.5653 62.7092 68.472 63.1519 68.472C63.5839 68.472 63.9679 68.5627 64.3039 68.744C64.6399 68.9253 64.9012 69.184 65.0879 69.52C65.2799 69.856 65.3759 70.248 65.3759 70.696ZM63.9759 70.336C63.9759 70.1013 63.8959 69.9147 63.7359 69.776C63.5759 69.6373 63.3759 69.568 63.1359 69.568C62.9065 69.568 62.7119 69.6347 62.5519 69.768C62.3972 69.9013 62.3012 70.0907 62.2639 70.336H63.9759ZM67.6656 69.168C67.7989 68.96 67.9829 68.792 68.2176 68.664C68.4522 68.536 68.7269 68.472 69.0416 68.472C69.4096 68.472 69.7429 68.5653 70.0416 68.752C70.3402 68.9387 70.5749 69.2053 70.7456 69.552C70.9216 69.8987 71.0096 70.3013 71.0096 70.76C71.0096 71.2187 70.9216 71.624 70.7456 71.976C70.5749 72.3227 70.3402 72.592 70.0416 72.784C69.7429 72.9707 69.4096 73.064 69.0416 73.064C68.7322 73.064 68.4576 73 68.2176 72.872C67.9829 72.744 67.7989 72.5787 67.6656 72.376V75.128H66.2976V68.536H67.6656V69.168ZM69.6176 70.76C69.6176 70.4187 69.5216 70.152 69.3296 69.96C69.1429 69.7627 68.9109 69.664 68.6336 69.664C68.3616 69.664 68.1296 69.7627 67.9376 69.96C67.7509 70.1573 67.6576 70.4267 67.6576 70.768C67.6576 71.1093 67.7509 71.3787 67.9376 71.576C68.1296 71.7733 68.3616 71.872 68.6336 71.872C68.9056 71.872 69.1376 71.7733 69.3296 71.576C69.5216 71.3733 69.6176 71.1013 69.6176 70.76ZM73.8713 71.896C74.2233 71.896 74.4606 71.7253 74.5833 71.384H76.0393C75.9379 71.8373 75.7353 72.208 75.4313 72.496C75.1273 72.784 74.7486 72.9627 74.2953 73.032V73.328C74.5726 73.328 74.8153 73.4027 75.0233 73.552C75.2313 73.7067 75.3353 73.936 75.3353 74.24C75.3353 74.544 75.2259 74.7733 75.0073 74.928C74.7886 75.088 74.5273 75.168 74.2233 75.168H72.9913V74.416H74.0393C74.1459 74.416 74.2259 74.4 74.2793 74.368C74.3326 74.336 74.3593 74.2827 74.3593 74.208C74.3593 74.1333 74.3326 74.08 74.2793 74.048C74.2259 74.0213 74.1459 74.008 74.0393 74.008H73.4713V73.032C72.9219 72.9467 72.4819 72.704 72.1513 72.304C71.8206 71.8987 71.6553 71.3867 71.6553 70.768C71.6553 70.304 71.7486 69.8987 71.9353 69.552C72.1273 69.2053 72.3913 68.9387 72.7273 68.752C73.0686 68.5653 73.4579 68.472 73.8953 68.472C74.4553 68.472 74.9219 68.6187 75.2953 68.912C75.6739 69.2053 75.9219 69.6187 76.0393 70.152H74.5833C74.4606 69.8107 74.2233 69.64 73.8713 69.64C73.6206 69.64 73.4206 69.7387 73.2713 69.936C73.1219 70.128 73.0473 70.4053 73.0473 70.768C73.0473 71.1307 73.1219 71.4107 73.2713 71.608C73.4206 71.8 73.6206 71.896 73.8713 71.896ZM76.699 70.76C76.699 70.3013 76.7843 69.8987 76.955 69.552C77.131 69.2053 77.3683 68.9387 77.667 68.752C77.9657 68.5653 78.299 68.472 78.667 68.472C78.9817 68.472 79.2563 68.536 79.491 68.664C79.731 68.792 79.915 68.96 80.043 69.168V68.536H81.411V73H80.043V72.368C79.9097 72.576 79.723 72.744 79.483 72.872C79.2483 73 78.9737 73.064 78.659 73.064C78.2963 73.064 77.9657 72.9707 77.667 72.784C77.3683 72.592 77.131 72.3227 76.955 71.976C76.7843 71.624 76.699 71.2187 76.699 70.76ZM80.043 70.768C80.043 70.4267 79.947 70.1573 79.755 69.96C79.5683 69.7627 79.339 69.664 79.067 69.664C78.795 69.664 78.563 69.7627 78.371 69.96C78.1843 70.152 78.091 70.4187 78.091 70.76C78.091 71.1013 78.1843 71.3733 78.371 71.576C78.563 71.7733 78.795 71.872 79.067 71.872C79.339 71.872 79.5683 71.7733 79.755 71.576C79.947 71.3787 80.043 71.1093 80.043 70.768ZM77.619 68.16C77.747 67.3707 78.115 66.976 78.723 66.976C78.8403 66.976 78.9417 66.9947 79.027 67.032C79.1177 67.064 79.227 67.1147 79.355 67.184C79.451 67.2373 79.5283 67.2773 79.587 67.304C79.6457 67.3253 79.707 67.336 79.771 67.336C79.9683 67.336 80.083 67.216 80.115 66.976H80.819C80.691 67.7653 80.323 68.16 79.715 68.16C79.5977 68.16 79.4937 68.144 79.403 68.112C79.3177 68.0747 79.211 68.0213 79.083 67.952C78.987 67.8987 78.9097 67.8613 78.851 67.84C78.7923 67.8133 78.731 67.8 78.667 67.8C78.4697 67.8 78.3523 67.92 78.315 68.16H77.619ZM84.6327 73.064C84.1954 73.064 83.8007 72.9707 83.4487 72.784C83.102 72.5973 82.8274 72.3307 82.6247 71.984C82.4274 71.6373 82.3287 71.232 82.3287 70.768C82.3287 70.3093 82.43 69.9067 82.6327 69.56C82.8354 69.208 83.1127 68.9387 83.4647 68.752C83.8167 68.5653 84.2114 68.472 84.6487 68.472C85.086 68.472 85.4807 68.5653 85.8327 68.752C86.1847 68.9387 86.462 69.208 86.6647 69.56C86.8674 69.9067 86.9687 70.3093 86.9687 70.768C86.9687 71.2267 86.8647 71.632 86.6567 71.984C86.454 72.3307 86.174 72.5973 85.8167 72.784C85.4647 72.9707 85.07 73.064 84.6327 73.064ZM84.6327 71.88C84.894 71.88 85.1154 71.784 85.2967 71.592C85.4834 71.4 85.5767 71.1253 85.5767 70.768C85.5767 70.4107 85.486 70.136 85.3047 69.944C85.1287 69.752 84.91 69.656 84.6487 69.656C84.382 69.656 84.1607 69.752 83.9847 69.944C83.8087 70.1307 83.7207 70.4053 83.7207 70.768C83.7207 71.1253 83.806 71.4 83.9767 71.592C84.1527 71.784 84.3714 71.88 84.6327 71.88ZM89.5177 70.76C89.5177 70.3013 89.6031 69.8987 89.7737 69.552C89.9497 69.2053 90.1871 68.9387 90.4857 68.752C90.7844 68.5653 91.1177 68.472 91.4857 68.472C91.8004 68.472 92.0751 68.536 92.3097 68.664C92.5497 68.792 92.7337 68.96 92.8617 69.168V68.536H94.2297V73H92.8617V72.368C92.7284 72.576 92.5417 72.744 92.3017 72.872C92.0671 73 91.7924 73.064 91.4777 73.064C91.1151 73.064 90.7844 72.9707 90.4857 72.784C90.1871 72.592 89.9497 72.3227 89.7737 71.976C89.6031 71.624 89.5177 71.2187 89.5177 70.76ZM92.8617 70.768C92.8617 70.4267 92.7657 70.1573 92.5737 69.96C92.3871 69.7627 92.1577 69.664 91.8857 69.664C91.6137 69.664 91.3817 69.7627 91.1897 69.96C91.0031 70.152 90.9097 70.4187 90.9097 70.76C90.9097 71.1013 91.0031 71.3733 91.1897 71.576C91.3817 71.7733 91.6137 71.872 91.8857 71.872C92.1577 71.872 92.3871 71.7733 92.5737 71.576C92.7657 71.3787 92.8617 71.1093 92.8617 70.768ZM97.4514 73.064C97.0141 73.064 96.6194 72.9707 96.2674 72.784C95.9208 72.5973 95.6461 72.3307 95.4434 71.984C95.2461 71.6373 95.1474 71.232 95.1474 70.768C95.1474 70.3093 95.2488 69.9067 95.4514 69.56C95.6541 69.208 95.9314 68.9387 96.2834 68.752C96.6354 68.5653 97.0301 68.472 97.4674 68.472C97.9048 68.472 98.2994 68.5653 98.6514 68.752C99.0034 68.9387 99.2808 69.208 99.4834 69.56C99.6861 69.9067 99.7874 70.3093 99.7874 70.768C99.7874 71.2267 99.6834 71.632 99.4754 71.984C99.2728 72.3307 98.9928 72.5973 98.6354 72.784C98.2834 72.9707 97.8888 73.064 97.4514 73.064ZM97.4514 71.88C97.7128 71.88 97.9341 71.784 98.1154 71.592C98.3021 71.4 98.3954 71.1253 98.3954 70.768C98.3954 70.4107 98.3048 70.136 98.1234 69.944C97.9474 69.752 97.7288 69.656 97.4674 69.656C97.2008 69.656 96.9794 69.752 96.8034 69.944C96.6274 70.1307 96.5394 70.4053 96.5394 70.768C96.5394 71.1253 96.6248 71.4 96.7954 71.592C96.9714 71.784 97.1901 71.88 97.4514 71.88ZM108.305 68.488C108.859 68.488 109.299 68.656 109.625 68.992C109.955 69.328 110.121 69.7947 110.121 70.392V73H108.761V70.576C108.761 70.288 108.683 70.0667 108.529 69.912C108.379 69.752 108.171 69.672 107.905 69.672C107.638 69.672 107.427 69.752 107.273 69.912C107.123 70.0667 107.049 70.288 107.049 70.576V73H105.689V70.576C105.689 70.288 105.611 70.0667 105.457 69.912C105.307 69.752 105.099 69.672 104.833 69.672C104.566 69.672 104.355 69.752 104.201 69.912C104.051 70.0667 103.977 70.288 103.977 70.576V73H102.609V68.536H103.977V69.096C104.115 68.9093 104.297 68.7627 104.521 68.656C104.745 68.544 104.998 68.488 105.281 68.488C105.617 68.488 105.915 68.56 106.177 68.704C106.443 68.848 106.651 69.0533 106.801 69.32C106.955 69.0747 107.166 68.8747 107.433 68.72C107.699 68.5653 107.99 68.488 108.305 68.488ZM115.485 70.696C115.485 70.824 115.477 70.9573 115.461 71.096H112.365C112.387 71.3733 112.475 71.5867 112.629 71.736C112.789 71.88 112.984 71.952 113.213 71.952C113.555 71.952 113.792 71.808 113.925 71.52H115.381C115.307 71.8133 115.171 72.0773 114.973 72.312C114.781 72.5467 114.539 72.7307 114.245 72.864C113.952 72.9973 113.624 73.064 113.261 73.064C112.824 73.064 112.435 72.9707 112.093 72.784C111.752 72.5973 111.485 72.3307 111.293 71.984C111.101 71.6373 111.005 71.232 111.005 70.768C111.005 70.304 111.099 69.8987 111.285 69.552C111.477 69.2053 111.744 68.9387 112.085 68.752C112.427 68.5653 112.819 68.472 113.261 68.472C113.693 68.472 114.077 68.5627 114.413 68.744C114.749 68.9253 115.011 69.184 115.197 69.52C115.389 69.856 115.485 70.248 115.485 70.696ZM114.085 70.336C114.085 70.1013 114.005 69.9147 113.845 69.776C113.685 69.6373 113.485 69.568 113.245 69.568C113.016 69.568 112.821 69.6347 112.661 69.768C112.507 69.9013 112.411 70.0907 112.373 70.336H114.085ZM114.181 67.392L112.253 68.2V67.256L114.181 66.328V67.392ZM116.135 70.76C116.135 70.3013 116.22 69.8987 116.391 69.552C116.567 69.2053 116.804 68.9387 117.103 68.752C117.402 68.5653 117.735 68.472 118.103 68.472C118.396 68.472 118.663 68.5333 118.903 68.656C119.148 68.7787 119.34 68.944 119.479 69.152V67.08H120.847V73H119.479V72.36C119.351 72.5733 119.167 72.744 118.927 72.872C118.692 73 118.418 73.064 118.103 73.064C117.735 73.064 117.402 72.9707 117.103 72.784C116.804 72.592 116.567 72.3227 116.391 71.976C116.22 71.624 116.135 71.2187 116.135 70.76ZM119.479 70.768C119.479 70.4267 119.383 70.1573 119.191 69.96C119.004 69.7627 118.775 69.664 118.503 69.664C118.231 69.664 117.999 69.7627 117.807 69.96C117.62 70.152 117.527 70.4187 117.527 70.76C117.527 71.1013 117.62 71.3733 117.807 71.576C117.999 71.7733 118.231 71.872 118.503 71.872C118.775 71.872 119.004 71.7733 119.191 71.576C119.383 71.3787 119.479 71.1093 119.479 70.768ZM122.725 68.072C122.485 68.072 122.287 68.0027 122.133 67.864C121.983 67.72 121.909 67.544 121.909 67.336C121.909 67.1227 121.983 66.9467 122.133 66.808C122.287 66.664 122.485 66.592 122.725 66.592C122.959 66.592 123.151 66.664 123.301 66.808C123.455 66.9467 123.533 67.1227 123.533 67.336C123.533 67.544 123.455 67.72 123.301 67.864C123.151 68.0027 122.959 68.072 122.725 68.072ZM123.405 68.536V73H122.037V68.536H123.405ZM124.324 70.768C124.324 70.304 124.417 69.8987 124.604 69.552C124.796 69.2053 125.06 68.9387 125.396 68.752C125.737 68.5653 126.127 68.472 126.564 68.472C127.124 68.472 127.591 68.6187 127.964 68.912C128.343 69.2053 128.591 69.6187 128.708 70.152H127.252C127.129 69.8107 126.892 69.64 126.54 69.64C126.289 69.64 126.089 69.7387 125.94 69.936C125.791 70.128 125.716 70.4053 125.716 70.768C125.716 71.1307 125.791 71.4107 125.94 71.608C126.089 71.8 126.289 71.896 126.54 71.896C126.892 71.896 127.129 71.7253 127.252 71.384H128.708C128.591 71.9067 128.343 72.3173 127.964 72.616C127.585 72.9147 127.119 73.064 126.564 73.064C126.127 73.064 125.737 72.9707 125.396 72.784C125.06 72.5973 124.796 72.3307 124.604 71.984C124.417 71.6373 124.324 71.232 124.324 70.768ZM131.672 73.064C131.234 73.064 130.84 72.9707 130.488 72.784C130.141 72.5973 129.866 72.3307 129.664 71.984C129.466 71.6373 129.368 71.232 129.368 70.768C129.368 70.3093 129.469 69.9067 129.672 69.56C129.874 69.208 130.152 68.9387 130.504 68.752C130.856 68.5653 131.25 68.472 131.688 68.472C132.125 68.472 132.52 68.5653 132.872 68.752C133.224 68.9387 133.501 69.208 133.704 69.56C133.906 69.9067 134.008 70.3093 134.008 70.768C134.008 71.2267 133.904 71.632 133.696 71.984C133.493 72.3307 133.213 72.5973 132.856 72.784C132.504 72.9707 132.109 73.064 131.672 73.064ZM131.672 71.88C131.933 71.88 132.154 71.784 132.336 71.592C132.522 71.4 132.616 71.1253 132.616 70.768C132.616 70.4107 132.525 70.136 132.344 69.944C132.168 69.752 131.949 69.656 131.688 69.656C131.421 69.656 131.2 69.752 131.024 69.944C130.848 70.1307 130.76 70.4053 130.76 70.768C130.76 71.1253 130.845 71.4 131.016 71.592C131.192 71.784 131.41 71.88 131.672 71.88ZM138.933 67.384C139.525 67.384 140.042 67.5013 140.485 67.736C140.927 67.9707 141.269 68.3013 141.509 68.728C141.754 69.1493 141.877 69.6373 141.877 70.192C141.877 70.7413 141.754 71.2293 141.509 71.656C141.269 72.0827 140.925 72.4133 140.477 72.648C140.034 72.8827 139.519 73 138.933 73H136.829V67.384H138.933ZM138.845 71.816C139.362 71.816 139.765 71.6747 140.053 71.392C140.341 71.1093 140.485 70.7093 140.485 70.192C140.485 69.6747 140.341 69.272 140.053 68.984C139.765 68.696 139.362 68.552 138.845 68.552H138.197V71.816H138.845ZM144.209 69.28C144.369 69.0347 144.569 68.8427 144.809 68.704C145.049 68.56 145.316 68.488 145.609 68.488V69.936H145.233C144.892 69.936 144.636 70.0107 144.465 70.16C144.295 70.304 144.209 70.56 144.209 70.928V73H142.841V68.536H144.209V69.28ZM33.006 79.384V85H31.638V81.632L30.382 85H29.278L28.014 81.624V85H26.646V79.384H28.262L29.838 83.272L31.398 79.384H33.006ZM33.9178 82.76C33.9178 82.3013 34.0031 81.8987 34.1738 81.552C34.3498 81.2053 34.5871 80.9387 34.8858 80.752C35.1844 80.5653 35.5178 80.472 35.8858 80.472C36.2004 80.472 36.4751 80.536 36.7098 80.664C36.9498 80.792 37.1338 80.96 37.2618 81.168V80.536H38.6298V85H37.2618V84.368C37.1284 84.576 36.9418 84.744 36.7018 84.872C36.4671 85 36.1924 85.064 35.8778 85.064C35.5151 85.064 35.1844 84.9707 34.8858 84.784C34.5871 84.592 34.3498 84.3227 34.1738 83.976C34.0031 83.624 33.9178 83.2187 33.9178 82.76ZM37.2618 82.768C37.2618 82.4267 37.1658 82.1573 36.9738 81.96C36.7871 81.7627 36.5578 81.664 36.2858 81.664C36.0138 81.664 35.7818 81.7627 35.5898 81.96C35.4031 82.152 35.3098 82.4187 35.3098 82.76C35.3098 83.1013 35.4031 83.3733 35.5898 83.576C35.7818 83.7733 36.0138 83.872 36.2858 83.872C36.5578 83.872 36.7871 83.7733 36.9738 83.576C37.1658 83.3787 37.2618 83.1093 37.2618 82.768ZM41.1874 81.28C41.3474 81.0347 41.5474 80.8427 41.7874 80.704C42.0274 80.56 42.2941 80.488 42.5874 80.488V81.936H42.2114C41.8701 81.936 41.6141 82.0107 41.4434 82.16C41.2728 82.304 41.1874 82.56 41.1874 82.928V85H39.8194V80.536H41.1874V81.28ZM43.1693 82.768C43.1693 82.304 43.2626 81.8987 43.4493 81.552C43.6413 81.2053 43.9053 80.9387 44.2413 80.752C44.5826 80.5653 44.972 80.472 45.4093 80.472C45.9693 80.472 46.436 80.6187 46.8093 80.912C47.188 81.2053 47.436 81.6187 47.5533 82.152H46.0973C45.9746 81.8107 45.7373 81.64 45.3853 81.64C45.1346 81.64 44.9346 81.7387 44.7853 81.936C44.636 82.128 44.5613 82.4053 44.5613 82.768C44.5613 83.1307 44.636 83.4107 44.7853 83.608C44.9346 83.8 45.1346 83.896 45.3853 83.896C45.7373 83.896 45.9746 83.7253 46.0973 83.384H47.5533C47.436 83.9067 47.188 84.3173 46.8093 84.616C46.4306 84.9147 45.964 85.064 45.4093 85.064C44.972 85.064 44.5826 84.9707 44.2413 84.784C43.9053 84.5973 43.6413 84.3307 43.4493 83.984C43.2626 83.6373 43.1693 83.232 43.1693 82.768ZM50.5171 85.064C50.0797 85.064 49.6851 84.9707 49.3331 84.784C48.9864 84.5973 48.7117 84.3307 48.5091 83.984C48.3117 83.6373 48.2131 83.232 48.2131 82.768C48.2131 82.3093 48.3144 81.9067 48.5171 81.56C48.7197 81.208 48.9971 80.9387 49.3491 80.752C49.7011 80.5653 50.0957 80.472 50.5331 80.472C50.9704 80.472 51.3651 80.5653 51.7171 80.752C52.0691 80.9387 52.3464 81.208 52.5491 81.56C52.7517 81.9067 52.8531 82.3093 52.8531 82.768C52.8531 83.2267 52.7491 83.632 52.5411 83.984C52.3384 84.3307 52.0584 84.5973 51.7011 84.784C51.3491 84.9707 50.9544 85.064 50.5171 85.064ZM50.5171 83.88C50.7784 83.88 50.9997 83.784 51.1811 83.592C51.3677 83.4 51.4611 83.1253 51.4611 82.768C51.4611 82.4107 51.3704 82.136 51.1891 81.944C51.0131 81.752 50.7944 81.656 50.5331 81.656C50.2664 81.656 50.0451 81.752 49.8691 81.944C49.6931 82.1307 49.6051 82.4053 49.6051 82.768C49.6051 83.1253 49.6904 83.4 49.8611 83.592C50.0371 83.784 50.2557 83.88 50.5171 83.88ZM55.5948 85.064C55.2055 85.064 54.8588 84.9973 54.5548 84.864C54.2508 84.7307 54.0108 84.5493 53.8348 84.32C53.6588 84.0853 53.5601 83.824 53.5388 83.536H54.8908C54.9068 83.6907 54.9788 83.816 55.1068 83.912C55.2348 84.008 55.3921 84.056 55.5788 84.056C55.7495 84.056 55.8801 84.024 55.9708 83.96C56.0668 83.8907 56.1148 83.8027 56.1148 83.696C56.1148 83.568 56.0481 83.4747 55.9148 83.416C55.7815 83.352 55.5655 83.2827 55.2668 83.208C54.9468 83.1333 54.6801 83.056 54.4668 82.976C54.2535 82.8907 54.0695 82.76 53.9148 82.584C53.7601 82.4027 53.6828 82.16 53.6828 81.856C53.6828 81.6 53.7521 81.368 53.8908 81.16C54.0348 80.9467 54.2428 80.7787 54.5148 80.656C54.7921 80.5333 55.1201 80.472 55.4988 80.472C56.0588 80.472 56.4988 80.6107 56.8188 80.888C57.1441 81.1653 57.3308 81.5333 57.3788 81.992H56.1148C56.0935 81.8373 56.0241 81.7147 55.9068 81.624C55.7948 81.5333 55.6455 81.488 55.4588 81.488C55.2988 81.488 55.1761 81.52 55.0908 81.584C55.0055 81.6427 54.9628 81.7253 54.9628 81.832C54.9628 81.96 55.0295 82.056 55.1628 82.12C55.3015 82.184 55.5148 82.248 55.8028 82.312C56.1335 82.3973 56.4028 82.4827 56.6108 82.568C56.8188 82.648 57.0001 82.7813 57.1548 82.968C57.3148 83.1493 57.3975 83.3947 57.4028 83.704C57.4028 83.9653 57.3281 84.2 57.1788 84.408C57.0348 84.6107 56.8241 84.7707 56.5468 84.888C56.2748 85.0053 55.9575 85.064 55.5948 85.064ZM59.9118 83.736L59.0238 86.032H58.1518L58.6158 83.736H59.9118ZM67.0399 82.696C67.0399 82.824 67.0319 82.9573 67.0159 83.096H63.9199C63.9413 83.3733 64.0293 83.5867 64.1839 83.736C64.3439 83.88 64.5386 83.952 64.7679 83.952C65.1093 83.952 65.3466 83.808 65.4799 83.52H66.9359C66.8613 83.8133 66.7253 84.0773 66.5279 84.312C66.3359 84.5467 66.0933 84.7307 65.7999 84.864C65.5066 84.9973 65.1786 85.064 64.8159 85.064C64.3786 85.064 63.9893 84.9707 63.6479 84.784C63.3066 84.5973 63.0399 84.3307 62.8479 83.984C62.6559 83.6373 62.5599 83.232 62.5599 82.768C62.5599 82.304 62.6533 81.8987 62.8399 81.552C63.0319 81.2053 63.2986 80.9387 63.6399 80.752C63.9813 80.5653 64.3733 80.472 64.8159 80.472C65.2479 80.472 65.6319 80.5627 65.9679 80.744C66.3039 80.9253 66.5653 81.184 66.7519 81.52C66.9439 81.856 67.0399 82.248 67.0399 82.696ZM65.6399 82.336C65.6399 82.1013 65.5599 81.9147 65.3999 81.776C65.2399 81.6373 65.0399 81.568 64.7999 81.568C64.5706 81.568 64.3759 81.6347 64.2159 81.768C64.0613 81.9013 63.9653 82.0907 63.9279 82.336H65.6399ZM71.2249 81.168C71.3583 80.96 71.5423 80.792 71.7769 80.664C72.0116 80.536 72.2863 80.472 72.6009 80.472C72.9689 80.472 73.3023 80.5653 73.6009 80.752C73.8996 80.9387 74.1343 81.2053 74.3049 81.552C74.4809 81.8987 74.5689 82.3013 74.5689 82.76C74.5689 83.2187 74.4809 83.624 74.3049 83.976C74.1343 84.3227 73.8996 84.592 73.6009 84.784C73.3023 84.9707 72.9689 85.064 72.6009 85.064C72.2916 85.064 72.0169 85 71.7769 84.872C71.5423 84.744 71.3583 84.5787 71.2249 84.376V87.128H69.8569V80.536H71.2249V81.168ZM73.1769 82.76C73.1769 82.4187 73.0809 82.152 72.8889 81.96C72.7023 81.7627 72.4703 81.664 72.1929 81.664C71.9209 81.664 71.6889 81.7627 71.4969 81.96C71.3103 82.1573 71.2169 82.4267 71.2169 82.768C71.2169 83.1093 71.3103 83.3787 71.4969 83.576C71.6889 83.7733 71.9209 83.872 72.1929 83.872C72.4649 83.872 72.6969 83.7733 72.8889 83.576C73.0809 83.3733 73.1769 83.1013 73.1769 82.76ZM79.6946 82.696C79.6946 82.824 79.6866 82.9573 79.6706 83.096H76.5746C76.596 83.3733 76.684 83.5867 76.8386 83.736C76.9986 83.88 77.1933 83.952 77.4226 83.952C77.764 83.952 78.0013 83.808 78.1346 83.52H79.5906C79.516 83.8133 79.38 84.0773 79.1826 84.312C78.9906 84.5467 78.748 84.7307 78.4546 84.864C78.1613 84.9973 77.8333 85.064 77.4706 85.064C77.0333 85.064 76.644 84.9707 76.3026 84.784C75.9613 84.5973 75.6946 84.3307 75.5026 83.984C75.3106 83.6373 75.2146 83.232 75.2146 82.768C75.2146 82.304 75.308 81.8987 75.4946 81.552C75.6866 81.2053 75.9533 80.9387 76.2946 80.752C76.636 80.5653 77.028 80.472 77.4706 80.472C77.9026 80.472 78.2866 80.5627 78.6226 80.744C78.9586 80.9253 79.22 81.184 79.4066 81.52C79.5986 81.856 79.6946 82.248 79.6946 82.696ZM78.2946 82.336C78.2946 82.1013 78.2146 81.9147 78.0546 81.776C77.8946 81.6373 77.6946 81.568 77.4546 81.568C77.2253 81.568 77.0306 81.6347 76.8706 81.768C76.716 81.9013 76.62 82.0907 76.5826 82.336H78.2946ZM81.9843 79.08V85H80.6163V79.08H81.9843ZM82.9037 82.76C82.9037 82.3013 82.989 81.8987 83.1597 81.552C83.3357 81.2053 83.573 80.9387 83.8717 80.752C84.1704 80.5653 84.5037 80.472 84.8717 80.472C85.1864 80.472 85.461 80.536 85.6957 80.664C85.9357 80.792 86.1197 80.96 86.2477 81.168V80.536H87.6157V85H86.2477V84.368C86.1144 84.576 85.9277 84.744 85.6877 84.872C85.453 85 85.1784 85.064 84.8637 85.064C84.501 85.064 84.1704 84.9707 83.8717 84.784C83.573 84.592 83.3357 84.3227 83.1597 83.976C82.989 83.624 82.9037 83.2187 82.9037 82.76ZM86.2477 82.768C86.2477 82.4267 86.1517 82.1573 85.9597 81.96C85.773 81.7627 85.5437 81.664 85.2717 81.664C84.9997 81.664 84.7677 81.7627 84.5757 81.96C84.389 82.152 84.2957 82.4187 84.2957 82.76C84.2957 83.1013 84.389 83.3733 84.5757 83.576C84.7677 83.7733 84.9997 83.872 85.2717 83.872C85.5437 83.872 85.773 83.7733 85.9597 83.576C86.1517 83.3787 86.2477 83.1093 86.2477 82.768ZM90.6214 85.064C90.232 85.064 89.8854 84.9973 89.5814 84.864C89.2774 84.7307 89.0374 84.5493 88.8614 84.32C88.6854 84.0853 88.5867 83.824 88.5654 83.536H89.9174C89.9334 83.6907 90.0054 83.816 90.1334 83.912C90.2614 84.008 90.4187 84.056 90.6054 84.056C90.776 84.056 90.9067 84.024 90.9974 83.96C91.0934 83.8907 91.1414 83.8027 91.1414 83.696C91.1414 83.568 91.0747 83.4747 90.9414 83.416C90.808 83.352 90.592 83.2827 90.2934 83.208C89.9734 83.1333 89.7067 83.056 89.4934 82.976C89.28 82.8907 89.096 82.76 88.9414 82.584C88.7867 82.4027 88.7094 82.16 88.7094 81.856C88.7094 81.6 88.7787 81.368 88.9174 81.16C89.0614 80.9467 89.2694 80.7787 89.5414 80.656C89.8187 80.5333 90.1467 80.472 90.5254 80.472C91.0854 80.472 91.5254 80.6107 91.8454 80.888C92.1707 81.1653 92.3574 81.5333 92.4054 81.992H91.1414C91.12 81.8373 91.0507 81.7147 90.9334 81.624C90.8214 81.5333 90.672 81.488 90.4854 81.488C90.3254 81.488 90.2027 81.52 90.1174 81.584C90.032 81.6427 89.9894 81.7253 89.9894 81.832C89.9894 81.96 90.056 82.056 90.1894 82.12C90.328 82.184 90.5414 82.248 90.8294 82.312C91.16 82.3973 91.4294 82.4827 91.6374 82.568C91.8454 82.648 92.0267 82.7813 92.1814 82.968C92.3414 83.1493 92.424 83.3947 92.4294 83.704C92.4294 83.9653 92.3547 84.2 92.2054 84.408C92.0614 84.6107 91.8507 84.7707 91.5734 84.888C91.3014 85.0053 90.984 85.064 90.6214 85.064ZM101.058 80.488C101.612 80.488 102.052 80.656 102.378 80.992C102.708 81.328 102.874 81.7947 102.874 82.392V85H101.514V82.576C101.514 82.288 101.436 82.0667 101.282 81.912C101.132 81.752 100.924 81.672 100.658 81.672C100.391 81.672 100.18 81.752 100.026 81.912C99.8763 82.0667 99.8016 82.288 99.8016 82.576V85H98.4416V82.576C98.4416 82.288 98.3643 82.0667 98.2096 81.912C98.0603 81.752 97.8523 81.672 97.5856 81.672C97.319 81.672 97.1083 81.752 96.9536 81.912C96.8043 82.0667 96.7296 82.288 96.7296 82.576V85H95.3616V80.536H96.7296V81.096C96.8683 80.9093 97.0496 80.7627 97.2736 80.656C97.4976 80.544 97.751 80.488 98.0336 80.488C98.3696 80.488 98.6683 80.56 98.9296 80.704C99.1963 80.848 99.4043 81.0533 99.5536 81.32C99.7083 81.0747 99.919 80.8747 100.186 80.72C100.452 80.5653 100.743 80.488 101.058 80.488ZM108.238 82.696C108.238 82.824 108.23 82.9573 108.214 83.096H105.118C105.14 83.3733 105.228 83.5867 105.382 83.736C105.542 83.88 105.737 83.952 105.966 83.952C106.308 83.952 106.545 83.808 106.678 83.52H108.134C108.06 83.8133 107.924 84.0773 107.726 84.312C107.534 84.5467 107.292 84.7307 106.998 84.864C106.705 84.9973 106.377 85.064 106.014 85.064C105.577 85.064 105.188 84.9707 104.846 84.784C104.505 84.5973 104.238 84.3307 104.046 83.984C103.854 83.6373 103.758 83.232 103.758 82.768C103.758 82.304 103.852 81.8987 104.038 81.552C104.23 81.2053 104.497 80.9387 104.838 80.752C105.18 80.5653 105.572 80.472 106.014 80.472C106.446 80.472 106.83 80.5627 107.166 80.744C107.502 80.9253 107.764 81.184 107.95 81.52C108.142 81.856 108.238 82.248 108.238 82.696ZM106.838 82.336C106.838 82.1013 106.758 81.9147 106.598 81.776C106.438 81.6373 106.238 81.568 105.998 81.568C105.769 81.568 105.574 81.6347 105.414 81.768C105.26 81.9013 105.164 82.0907 105.126 82.336H106.838ZM111.88 80.488C112.403 80.488 112.819 80.6587 113.128 81C113.443 81.336 113.6 81.8 113.6 82.392V85H112.24V82.576C112.24 82.2773 112.163 82.0453 112.008 81.88C111.853 81.7147 111.645 81.632 111.384 81.632C111.123 81.632 110.915 81.7147 110.76 81.88C110.605 82.0453 110.528 82.2773 110.528 82.576V85H109.16V80.536H110.528V81.128C110.667 80.9307 110.853 80.776 111.088 80.664C111.323 80.5467 111.587 80.488 111.88 80.488ZM115.439 80.072C115.199 80.072 115.001 80.0027 114.847 79.864C114.697 79.72 114.623 79.544 114.623 79.336C114.623 79.1227 114.697 78.9467 114.847 78.808C115.001 78.664 115.199 78.592 115.439 78.592C115.673 78.592 115.865 78.664 116.015 78.808C116.169 78.9467 116.247 79.1227 116.247 79.336C116.247 79.544 116.169 79.72 116.015 79.864C115.865 80.0027 115.673 80.072 115.439 80.072ZM116.119 80.536V85H114.751V80.536H116.119ZM120.03 80.488C120.553 80.488 120.969 80.6587 121.278 81C121.593 81.336 121.75 81.8 121.75 82.392V85H120.39V82.576C120.39 82.2773 120.313 82.0453 120.158 81.88C120.003 81.7147 119.795 81.632 119.534 81.632C119.273 81.632 119.065 81.7147 118.91 81.88C118.755 82.0453 118.678 82.2773 118.678 82.576V85H117.31V80.536H118.678V81.128C118.817 80.9307 119.003 80.776 119.238 80.664C119.473 80.5467 119.737 80.488 120.03 80.488ZM122.629 82.76C122.629 82.3013 122.714 81.8987 122.885 81.552C123.061 81.2053 123.298 80.9387 123.597 80.752C123.895 80.5653 124.229 80.472 124.597 80.472C124.911 80.472 125.186 80.536 125.421 80.664C125.661 80.792 125.845 80.96 125.973 81.168V80.536H127.341V85H125.973V84.368C125.839 84.576 125.653 84.744 125.413 84.872C125.178 85 124.903 85.064 124.589 85.064C124.226 85.064 123.895 84.9707 123.597 84.784C123.298 84.592 123.061 84.3227 122.885 83.976C122.714 83.624 122.629 83.2187 122.629 82.76ZM125.973 82.768C125.973 82.4267 125.877 82.1573 125.685 81.96C125.498 81.7627 125.269 81.664 124.997 81.664C124.725 81.664 124.493 81.7627 124.301 81.96C124.114 82.152 124.021 82.4187 124.021 82.76C124.021 83.1013 124.114 83.3733 124.301 83.576C124.493 83.7733 124.725 83.872 124.997 83.872C125.269 83.872 125.498 83.7733 125.685 83.576C125.877 83.3787 125.973 83.1093 125.973 82.768ZM130.346 85.064C129.957 85.064 129.61 84.9973 129.306 84.864C129.002 84.7307 128.762 84.5493 128.586 84.32C128.41 84.0853 128.312 83.824 128.29 83.536H129.642C129.658 83.6907 129.73 83.816 129.858 83.912C129.986 84.008 130.144 84.056 130.33 84.056C130.501 84.056 130.632 84.024 130.722 83.96C130.818 83.8907 130.866 83.8027 130.866 83.696C130.866 83.568 130.8 83.4747 130.666 83.416C130.533 83.352 130.317 83.2827 130.018 83.208C129.698 83.1333 129.432 83.056 129.218 82.976C129.005 82.8907 128.821 82.76 128.666 82.584C128.512 82.4027 128.434 82.16 128.434 81.856C128.434 81.6 128.504 81.368 128.642 81.16C128.786 80.9467 128.994 80.7787 129.266 80.656C129.544 80.5333 129.872 80.472 130.25 80.472C130.81 80.472 131.25 80.6107 131.57 80.888C131.896 81.1653 132.082 81.5333 132.13 81.992H130.866C130.845 81.8373 130.776 81.7147 130.658 81.624C130.546 81.5333 130.397 81.488 130.21 81.488C130.05 81.488 129.928 81.52 129.842 81.584C129.757 81.6427 129.714 81.7253 129.714 81.832C129.714 81.96 129.781 82.056 129.914 82.12C130.053 82.184 130.266 82.248 130.554 82.312C130.885 82.3973 131.154 82.4827 131.362 82.568C131.57 82.648 131.752 82.7813 131.906 82.968C132.066 83.1493 132.149 83.3947 132.154 83.704C132.154 83.9653 132.08 84.2 131.93 84.408C131.786 84.6107 131.576 84.7707 131.298 84.888C131.026 85.0053 130.709 85.064 130.346 85.064ZM134.815 82.76C134.815 82.3013 134.9 81.8987 135.071 81.552C135.247 81.2053 135.484 80.9387 135.783 80.752C136.081 80.5653 136.415 80.472 136.783 80.472C137.076 80.472 137.343 80.5333 137.583 80.656C137.828 80.7787 138.02 80.944 138.159 81.152V79.08H139.527V85H138.159V84.36C138.031 84.5733 137.847 84.744 137.607 84.872C137.372 85 137.097 85.064 136.783 85.064C136.415 85.064 136.081 84.9707 135.783 84.784C135.484 84.592 135.247 84.3227 135.071 83.976C134.9 83.624 134.815 83.2187 134.815 82.76ZM138.159 82.768C138.159 82.4267 138.063 82.1573 137.871 81.96C137.684 81.7627 137.455 81.664 137.183 81.664C136.911 81.664 136.679 81.7627 136.487 81.96C136.3 82.152 136.207 82.4187 136.207 82.76C136.207 83.1013 136.3 83.3733 136.487 83.576C136.679 83.7733 136.911 83.872 137.183 83.872C137.455 83.872 137.684 83.7733 137.871 83.576C138.063 83.3787 138.159 83.1093 138.159 82.768ZM140.444 82.76C140.444 82.3013 140.53 81.8987 140.7 81.552C140.876 81.2053 141.114 80.9387 141.412 80.752C141.711 80.5653 142.044 80.472 142.412 80.472C142.727 80.472 143.002 80.536 143.236 80.664C143.476 80.792 143.66 80.96 143.788 81.168V80.536H145.156V85H143.788V84.368C143.655 84.576 143.468 84.744 143.228 84.872C142.994 85 142.719 85.064 142.404 85.064C142.042 85.064 141.711 84.9707 141.412 84.784C141.114 84.592 140.876 84.3227 140.7 83.976C140.53 83.624 140.444 83.2187 140.444 82.76ZM143.788 82.768C143.788 82.4267 143.692 82.1573 143.5 81.96C143.314 81.7627 143.084 81.664 142.812 81.664C142.54 81.664 142.308 81.7627 142.116 81.96C141.93 82.152 141.836 82.4187 141.836 82.76C141.836 83.1013 141.93 83.3733 142.116 83.576C142.308 83.7733 142.54 83.872 142.812 83.872C143.084 83.872 143.314 83.7733 143.5 83.576C143.692 83.3787 143.788 83.1093 143.788 82.768ZM30.9342 92.488C31.4889 92.488 31.9289 92.656 32.2542 92.992C32.5849 93.328 32.7502 93.7947 32.7502 94.392V97H31.3902V94.576C31.3902 94.288 31.3129 94.0667 31.1582 93.912C31.0089 93.752 30.8009 93.672 30.5342 93.672C30.2675 93.672 30.0569 93.752 29.9022 93.912C29.7529 94.0667 29.6782 94.288 29.6782 94.576V97H28.3182V94.576C28.3182 94.288 28.2409 94.0667 28.0862 93.912C27.9369 93.752 27.7289 93.672 27.4622 93.672C27.1955 93.672 26.9849 93.752 26.8302 93.912C26.6809 94.0667 26.6062 94.288 26.6062 94.576V97H25.2382V92.536H26.6062V93.096C26.7449 92.9093 26.9262 92.7627 27.1502 92.656C27.3742 92.544 27.6275 92.488 27.9102 92.488C28.2462 92.488 28.5449 92.56 28.8062 92.704C29.0729 92.848 29.2809 93.0533 29.4302 93.32C29.5849 93.0747 29.7955 92.8747 30.0622 92.72C30.3289 92.5653 30.6195 92.488 30.9342 92.488ZM38.1149 94.696C38.1149 94.824 38.1069 94.9573 38.0909 95.096H34.9949C35.0163 95.3733 35.1043 95.5867 35.2589 95.736C35.4189 95.88 35.6136 95.952 35.8429 95.952C36.1843 95.952 36.4216 95.808 36.5549 95.52H38.0109C37.9363 95.8133 37.8003 96.0773 37.6029 96.312C37.4109 96.5467 37.1683 96.7307 36.8749 96.864C36.5816 96.9973 36.2536 97.064 35.8909 97.064C35.4536 97.064 35.0643 96.9707 34.7229 96.784C34.3816 96.5973 34.1149 96.3307 33.9229 95.984C33.7309 95.6373 33.6349 95.232 33.6349 94.768C33.6349 94.304 33.7283 93.8987 33.9149 93.552C34.1069 93.2053 34.3736 92.9387 34.7149 92.752C35.0563 92.5653 35.4483 92.472 35.8909 92.472C36.3229 92.472 36.7069 92.5627 37.0429 92.744C37.3789 92.9253 37.6403 93.184 37.8269 93.52C38.0189 93.856 38.1149 94.248 38.1149 94.696ZM36.7149 94.336C36.7149 94.1013 36.6349 93.9147 36.4749 93.776C36.3149 93.6373 36.1149 93.568 35.8749 93.568C35.6456 93.568 35.4509 93.6347 35.2909 93.768C35.1363 93.9013 35.0403 94.0907 35.0029 94.336H36.7149ZM38.7646 94.76C38.7646 94.3013 38.85 93.8987 39.0206 93.552C39.1966 93.2053 39.434 92.9387 39.7326 92.752C40.0313 92.5653 40.3646 92.472 40.7326 92.472C41.026 92.472 41.2926 92.5333 41.5326 92.656C41.778 92.7787 41.97 92.944 42.1086 93.152V91.08H43.4766V97H42.1086V96.36C41.9806 96.5733 41.7966 96.744 41.5566 96.872C41.322 97 41.0473 97.064 40.7326 97.064C40.3646 97.064 40.0313 96.9707 39.7326 96.784C39.434 96.592 39.1966 96.3227 39.0206 95.976C38.85 95.624 38.7646 95.2187 38.7646 94.76ZM42.1086 94.768C42.1086 94.4267 42.0126 94.1573 41.8206 93.96C41.634 93.7627 41.4046 93.664 41.1326 93.664C40.8606 93.664 40.6286 93.7627 40.4366 93.96C40.25 94.152 40.1566 94.4187 40.1566 94.76C40.1566 95.1013 40.25 95.3733 40.4366 95.576C40.6286 95.7733 40.8606 95.872 41.1326 95.872C41.4046 95.872 41.634 95.7733 41.8206 95.576C42.0126 95.3787 42.1086 95.1093 42.1086 94.768ZM45.3543 92.072C45.1143 92.072 44.917 92.0027 44.7623 91.864C44.613 91.72 44.5383 91.544 44.5383 91.336C44.5383 91.1227 44.613 90.9467 44.7623 90.808C44.917 90.664 45.1143 90.592 45.3543 90.592C45.589 90.592 45.781 90.664 45.9303 90.808C46.085 90.9467 46.1623 91.1227 46.1623 91.336C46.1623 91.544 46.085 91.72 45.9303 91.864C45.781 92.0027 45.589 92.072 45.3543 92.072ZM46.0343 92.536V97H44.6663V92.536H46.0343ZM46.9537 94.768C46.9537 94.304 47.047 93.8987 47.2337 93.552C47.4257 93.2053 47.6897 92.9387 48.0257 92.752C48.367 92.5653 48.7564 92.472 49.1937 92.472C49.7537 92.472 50.2204 92.6187 50.5937 92.912C50.9724 93.2053 51.2204 93.6187 51.3377 94.152H49.8817C49.759 93.8107 49.5217 93.64 49.1697 93.64C48.919 93.64 48.719 93.7387 48.5697 93.936C48.4204 94.128 48.3457 94.4053 48.3457 94.768C48.3457 95.1307 48.4204 95.4107 48.5697 95.608C48.719 95.8 48.919 95.896 49.1697 95.896C49.5217 95.896 49.759 95.7253 49.8817 95.384H51.3377C51.2204 95.9067 50.9724 96.3173 50.5937 96.616C50.215 96.9147 49.7484 97.064 49.1937 97.064C48.7564 97.064 48.367 96.9707 48.0257 96.784C47.6897 96.5973 47.4257 96.3307 47.2337 95.984C47.047 95.6373 46.9537 95.232 46.9537 94.768ZM51.9974 94.76C51.9974 94.3013 52.0828 93.8987 52.2534 93.552C52.4294 93.2053 52.6668 92.9387 52.9654 92.752C53.2641 92.5653 53.5974 92.472 53.9654 92.472C54.2801 92.472 54.5548 92.536 54.7894 92.664C55.0294 92.792 55.2134 92.96 55.3414 93.168V92.536H56.7094V97H55.3414V96.368C55.2081 96.576 55.0214 96.744 54.7814 96.872C54.5468 97 54.2721 97.064 53.9574 97.064C53.5948 97.064 53.2641 96.9707 52.9654 96.784C52.6668 96.592 52.4294 96.3227 52.2534 95.976C52.0828 95.624 51.9974 95.2187 51.9974 94.76ZM55.3414 94.768C55.3414 94.4267 55.2454 94.1573 55.0534 93.96C54.8668 93.7627 54.6374 93.664 54.3654 93.664C54.0934 93.664 53.8614 93.7627 53.6694 93.96C53.4828 94.152 53.3894 94.4187 53.3894 94.76C53.3894 95.1013 53.4828 95.3733 53.6694 95.576C53.8614 95.7733 54.0934 95.872 54.3654 95.872C54.6374 95.872 54.8668 95.7733 55.0534 95.576C55.2454 95.3787 55.3414 95.1093 55.3414 94.768ZM59.8431 95.896C60.1951 95.896 60.4325 95.7253 60.5551 95.384H62.0111C61.9098 95.8373 61.7071 96.208 61.4031 96.496C61.0991 96.784 60.7205 96.9627 60.2671 97.032V97.328C60.5445 97.328 60.7871 97.4027 60.9951 97.552C61.2031 97.7067 61.3071 97.936 61.3071 98.24C61.3071 98.544 61.1978 98.7733 60.9791 98.928C60.7605 99.088 60.4991 99.168 60.1951 99.168H58.9631V98.416H60.0111C60.1178 98.416 60.1978 98.4 60.2511 98.368C60.3045 98.336 60.3311 98.2827 60.3311 98.208C60.3311 98.1333 60.3045 98.08 60.2511 98.048C60.1978 98.0213 60.1178 98.008 60.0111 98.008H59.4431V97.032C58.8938 96.9467 58.4538 96.704 58.1231 96.304C57.7925 95.8987 57.6271 95.3867 57.6271 94.768C57.6271 94.304 57.7205 93.8987 57.9071 93.552C58.0991 93.2053 58.3631 92.9387 58.6991 92.752C59.0405 92.5653 59.4298 92.472 59.8671 92.472C60.4271 92.472 60.8938 92.6187 61.2671 92.912C61.6458 93.2053 61.8938 93.6187 62.0111 94.152H60.5551C60.4325 93.8107 60.1951 93.64 59.8431 93.64C59.5925 93.64 59.3925 93.7387 59.2431 93.936C59.0938 94.128 59.0191 94.4053 59.0191 94.768C59.0191 95.1307 59.0938 95.4107 59.2431 95.608C59.3925 95.8 59.5925 95.896 59.8431 95.896ZM62.6709 94.76C62.6709 94.3013 62.7562 93.8987 62.9269 93.552C63.1029 93.2053 63.3402 92.9387 63.6389 92.752C63.9375 92.5653 64.2709 92.472 64.6389 92.472C64.9535 92.472 65.2282 92.536 65.4629 92.664C65.7029 92.792 65.8869 92.96 66.0149 93.168V92.536H67.3829V97H66.0149V96.368C65.8815 96.576 65.6949 96.744 65.4549 96.872C65.2202 97 64.9455 97.064 64.6309 97.064C64.2682 97.064 63.9375 96.9707 63.6389 96.784C63.3402 96.592 63.1029 96.3227 62.9269 95.976C62.7562 95.624 62.6709 95.2187 62.6709 94.76ZM66.0149 94.768C66.0149 94.4267 65.9189 94.1573 65.7269 93.96C65.5402 93.7627 65.3109 93.664 65.0389 93.664C64.7669 93.664 64.5349 93.7627 64.3429 93.96C64.1562 94.152 64.0629 94.4187 64.0629 94.76C64.0629 95.1013 64.1562 95.3733 64.3429 95.576C64.5349 95.7733 64.7669 95.872 65.0389 95.872C65.3109 95.872 65.5402 95.7733 65.7269 95.576C65.9189 95.3787 66.0149 95.1093 66.0149 94.768ZM63.5909 92.16C63.7189 91.3707 64.0869 90.976 64.6949 90.976C64.8122 90.976 64.9135 90.9947 64.9989 91.032C65.0895 91.064 65.1989 91.1147 65.3269 91.184C65.4229 91.2373 65.5002 91.2773 65.5589 91.304C65.6175 91.3253 65.6789 91.336 65.7429 91.336C65.9402 91.336 66.0549 91.216 66.0869 90.976H66.7909C66.6629 91.7653 66.2949 92.16 65.6869 92.16C65.5695 92.16 65.4655 92.144 65.3749 92.112C65.2895 92.0747 65.1829 92.0213 65.0549 91.952C64.9589 91.8987 64.8815 91.8613 64.8229 91.84C64.7642 91.8133 64.7029 91.8 64.6389 91.8C64.4415 91.8 64.3242 91.92 64.2869 92.16H63.5909ZM70.6046 97.064C70.1672 97.064 69.7726 96.9707 69.4206 96.784C69.0739 96.5973 68.7992 96.3307 68.5966 95.984C68.3992 95.6373 68.3006 95.232 68.3006 94.768C68.3006 94.3093 68.4019 93.9067 68.6046 93.56C68.8072 93.208 69.0846 92.9387 69.4366 92.752C69.7886 92.5653 70.1832 92.472 70.6206 92.472C71.0579 92.472 71.4526 92.5653 71.8046 92.752C72.1566 92.9387 72.4339 93.208 72.6366 93.56C72.8392 93.9067 72.9406 94.3093 72.9406 94.768C72.9406 95.2267 72.8366 95.632 72.6286 95.984C72.4259 96.3307 72.1459 96.5973 71.7886 96.784C71.4366 96.9707 71.0419 97.064 70.6046 97.064ZM70.6046 95.88C70.8659 95.88 71.0872 95.784 71.2686 95.592C71.4552 95.4 71.5486 95.1253 71.5486 94.768C71.5486 94.4107 71.4579 94.136 71.2766 93.944C71.1006 93.752 70.8819 93.656 70.6206 93.656C70.3539 93.656 70.1326 93.752 69.9566 93.944C69.7806 94.1307 69.6926 94.4053 69.6926 94.768C69.6926 95.1253 69.7779 95.4 69.9486 95.592C70.1246 95.784 70.3432 95.88 70.6046 95.88ZM74.5063 97.064C74.2663 97.064 74.069 96.9947 73.9143 96.856C73.765 96.712 73.6903 96.536 73.6903 96.328C73.6903 96.1147 73.765 95.936 73.9143 95.792C74.069 95.648 74.2663 95.576 74.5063 95.576C74.741 95.576 74.933 95.648 75.0823 95.792C75.237 95.936 75.3143 96.1147 75.3143 96.328C75.3143 96.536 75.237 96.712 75.0823 96.856C74.933 96.9947 74.741 97.064 74.5063 97.064ZM81.7154 96.008H79.6194L79.2834 97H77.8514L79.8834 91.384H81.4674L83.4994 97H82.0514L81.7154 96.008ZM81.3634 94.952L80.6674 92.896L79.9794 94.952H81.3634ZM86.0139 92.472C86.3285 92.472 86.6032 92.536 86.8379 92.664C87.0779 92.792 87.2619 92.96 87.3899 93.168V92.536H88.7579V96.992C88.7579 97.4027 88.6752 97.7733 88.5099 98.104C88.3499 98.44 88.1019 98.7067 87.7659 98.904C87.4352 99.1013 87.0219 99.2 86.5259 99.2C85.8645 99.2 85.3285 99.0427 84.9179 98.728C84.5072 98.4187 84.2725 97.9973 84.2139 97.464H85.5659C85.6085 97.6347 85.7099 97.768 85.8699 97.864C86.0299 97.9653 86.2272 98.016 86.4619 98.016C86.7445 98.016 86.9685 97.9333 87.1339 97.768C87.3045 97.608 87.3899 97.3493 87.3899 96.992V96.36C87.2565 96.568 87.0725 96.7387 86.8379 96.872C86.6032 97 86.3285 97.064 86.0139 97.064C85.6459 97.064 85.3125 96.9707 85.0139 96.784C84.7152 96.592 84.4779 96.3227 84.3019 95.976C84.1312 95.624 84.0459 95.2187 84.0459 94.76C84.0459 94.3013 84.1312 93.8987 84.3019 93.552C84.4779 93.2053 84.7152 92.9387 85.0139 92.752C85.3125 92.5653 85.6459 92.472 86.0139 92.472ZM87.3899 94.768C87.3899 94.4267 87.2939 94.1573 87.1019 93.96C86.9152 93.7627 86.6859 93.664 86.4139 93.664C86.1419 93.664 85.9099 93.7627 85.7179 93.96C85.5312 94.152 85.4379 94.4187 85.4379 94.76C85.4379 95.1013 85.5312 95.3733 85.7179 95.576C85.9099 95.7733 86.1419 95.872 86.4139 95.872C86.6859 95.872 86.9152 95.7733 87.1019 95.576C87.2939 95.3787 87.3899 95.1093 87.3899 94.768ZM91.3156 93.28C91.4756 93.0347 91.6756 92.8427 91.9156 92.704C92.1556 92.56 92.4222 92.488 92.7156 92.488V93.936H92.3396C91.9982 93.936 91.7422 94.0107 91.5716 94.16C91.4009 94.304 91.3156 94.56 91.3156 94.928V97H89.9476V92.536H91.3156V93.28ZM93.2974 94.76C93.2974 94.3013 93.3828 93.8987 93.5534 93.552C93.7294 93.2053 93.9668 92.9387 94.2654 92.752C94.5641 92.5653 94.8974 92.472 95.2654 92.472C95.5801 92.472 95.8548 92.536 96.0894 92.664C96.3294 92.792 96.5134 92.96 96.6414 93.168V92.536H98.0094V97H96.6414V96.368C96.5081 96.576 96.3214 96.744 96.0814 96.872C95.8468 97 95.5721 97.064 95.2574 97.064C94.8948 97.064 94.5641 96.9707 94.2654 96.784C93.9668 96.592 93.7294 96.3227 93.5534 95.976C93.3828 95.624 93.2974 95.2187 93.2974 94.76ZM96.6414 94.768C96.6414 94.4267 96.5454 94.1573 96.3534 93.96C96.1668 93.7627 95.9374 93.664 95.6654 93.664C95.3934 93.664 95.1614 93.7627 94.9694 93.96C94.7828 94.152 94.6894 94.4187 94.6894 94.76C94.6894 95.1013 94.7828 95.3733 94.9694 95.576C95.1614 95.7733 95.3934 95.872 95.6654 95.872C95.9374 95.872 96.1668 95.7733 96.3534 95.576C96.5454 95.3787 96.6414 95.1093 96.6414 94.768ZM98.9271 94.76C98.9271 94.3013 99.0125 93.8987 99.1831 93.552C99.3591 93.2053 99.5965 92.9387 99.8951 92.752C100.194 92.5653 100.527 92.472 100.895 92.472C101.188 92.472 101.455 92.5333 101.695 92.656C101.94 92.7787 102.132 92.944 102.271 93.152V91.08H103.639V97H102.271V96.36C102.143 96.5733 101.959 96.744 101.719 96.872C101.484 97 101.21 97.064 100.895 97.064C100.527 97.064 100.194 96.9707 99.8951 96.784C99.5965 96.592 99.3591 96.3227 99.1831 95.976C99.0125 95.624 98.9271 95.2187 98.9271 94.76ZM102.271 94.768C102.271 94.4267 102.175 94.1573 101.983 93.96C101.796 93.7627 101.567 93.664 101.295 93.664C101.023 93.664 100.791 93.7627 100.599 93.96C100.412 94.152 100.319 94.4187 100.319 94.76C100.319 95.1013 100.412 95.3733 100.599 95.576C100.791 95.7733 101.023 95.872 101.295 95.872C101.567 95.872 101.796 95.7733 101.983 95.576C102.175 95.3787 102.271 95.1093 102.271 94.768ZM109.037 94.696C109.037 94.824 109.029 94.9573 109.013 95.096H105.917C105.938 95.3733 106.026 95.5867 106.181 95.736C106.341 95.88 106.535 95.952 106.765 95.952C107.106 95.952 107.343 95.808 107.477 95.52H108.933C108.858 95.8133 108.722 96.0773 108.525 96.312C108.333 96.5467 108.09 96.7307 107.797 96.864C107.503 96.9973 107.175 97.064 106.813 97.064C106.375 97.064 105.986 96.9707 105.645 96.784C105.303 96.5973 105.037 96.3307 104.845 95.984C104.653 95.6373 104.557 95.232 104.557 94.768C104.557 94.304 104.65 93.8987 104.837 93.552C105.029 93.2053 105.295 92.9387 105.637 92.752C105.978 92.5653 106.37 92.472 106.813 92.472C107.245 92.472 107.629 92.5627 107.965 92.744C108.301 92.9253 108.562 93.184 108.749 93.52C108.941 93.856 109.037 94.248 109.037 94.696ZM107.637 94.336C107.637 94.1013 107.557 93.9147 107.397 93.776C107.237 93.6373 107.037 93.568 106.797 93.568C106.567 93.568 106.373 93.6347 106.213 93.768C106.058 93.9013 105.962 94.0907 105.925 94.336H107.637ZM111.903 95.896C112.255 95.896 112.492 95.7253 112.615 95.384H114.071C113.969 95.8373 113.767 96.208 113.463 96.496C113.159 96.784 112.78 96.9627 112.327 97.032V97.328C112.604 97.328 112.847 97.4027 113.055 97.552C113.263 97.7067 113.367 97.936 113.367 98.24C113.367 98.544 113.257 98.7733 113.039 98.928C112.82 99.088 112.559 99.168 112.255 99.168H111.023V98.416H112.071C112.177 98.416 112.257 98.4 112.311 98.368C112.364 98.336 112.391 98.2827 112.391 98.208C112.391 98.1333 112.364 98.08 112.311 98.048C112.257 98.0213 112.177 98.008 112.071 98.008H111.503V97.032C110.953 96.9467 110.513 96.704 110.183 96.304C109.852 95.8987 109.687 95.3867 109.687 94.768C109.687 94.304 109.78 93.8987 109.967 93.552C110.159 93.2053 110.423 92.9387 110.759 92.752C111.1 92.5653 111.489 92.472 111.927 92.472C112.487 92.472 112.953 92.6187 113.327 92.912C113.705 93.2053 113.953 93.6187 114.071 94.152H112.615C112.492 93.8107 112.255 93.64 111.903 93.64C111.652 93.64 111.452 93.7387 111.303 93.936C111.153 94.128 111.079 94.4053 111.079 94.768C111.079 95.1307 111.153 95.4107 111.303 95.608C111.452 95.8 111.652 95.896 111.903 95.896ZM117.034 97.064C116.597 97.064 116.202 96.9707 115.85 96.784C115.504 96.5973 115.229 96.3307 115.026 95.984C114.829 95.6373 114.73 95.232 114.73 94.768C114.73 94.3093 114.832 93.9067 115.034 93.56C115.237 93.208 115.514 92.9387 115.866 92.752C116.218 92.5653 116.613 92.472 117.05 92.472C117.488 92.472 117.882 92.5653 118.234 92.752C118.586 92.9387 118.864 93.208 119.066 93.56C119.269 93.9067 119.37 94.3093 119.37 94.768C119.37 95.2267 119.266 95.632 119.058 95.984C118.856 96.3307 118.576 96.5973 118.218 96.784C117.866 96.9707 117.472 97.064 117.034 97.064ZM117.034 95.88C117.296 95.88 117.517 95.784 117.698 95.592C117.885 95.4 117.978 95.1253 117.978 94.768C117.978 94.4107 117.888 94.136 117.706 93.944C117.53 93.752 117.312 93.656 117.05 93.656C116.784 93.656 116.562 93.752 116.386 93.944C116.21 94.1307 116.122 94.4053 116.122 94.768C116.122 95.1253 116.208 95.4 116.378 95.592C116.554 95.784 116.773 95.88 117.034 95.88ZM127.887 92.488C128.442 92.488 128.882 92.656 129.207 92.992C129.538 93.328 129.703 93.7947 129.703 94.392V97H128.343V94.576C128.343 94.288 128.266 94.0667 128.111 93.912C127.962 93.752 127.754 93.672 127.487 93.672C127.221 93.672 127.01 93.752 126.855 93.912C126.706 94.0667 126.631 94.288 126.631 94.576V97H125.271V94.576C125.271 94.288 125.194 94.0667 125.039 93.912C124.89 93.752 124.682 93.672 124.415 93.672C124.149 93.672 123.938 93.752 123.783 93.912C123.634 94.0667 123.559 94.288 123.559 94.576V97H122.191V92.536H123.559V93.096C123.698 92.9093 123.879 92.7627 124.103 92.656C124.327 92.544 124.581 92.488 124.863 92.488C125.199 92.488 125.498 92.56 125.759 92.704C126.026 92.848 126.234 93.0533 126.383 93.32C126.538 93.0747 126.749 92.8747 127.015 92.72C127.282 92.5653 127.573 92.488 127.887 92.488ZM135.268 92.536V97H133.9V96.392C133.761 96.5893 133.572 96.7493 133.332 96.872C133.097 96.9893 132.836 97.048 132.548 97.048C132.207 97.048 131.905 96.9733 131.644 96.824C131.383 96.6693 131.18 96.448 131.036 96.16C130.892 95.872 130.82 95.5333 130.82 95.144V92.536H132.18V94.96C132.18 95.2587 132.257 95.4907 132.412 95.656C132.567 95.8213 132.775 95.904 133.036 95.904C133.303 95.904 133.513 95.8213 133.668 95.656C133.823 95.4907 133.9 95.2587 133.9 94.96V92.536H135.268ZM137.139 92.072C136.899 92.072 136.701 92.0027 136.547 91.864C136.397 91.72 136.323 91.544 136.323 91.336C136.323 91.1227 136.397 90.9467 136.547 90.808C136.701 90.664 136.899 90.592 137.139 90.592C137.373 90.592 137.565 90.664 137.715 90.808C137.869 90.9467 137.947 91.1227 137.947 91.336C137.947 91.544 137.869 91.72 137.715 91.864C137.565 92.0027 137.373 92.072 137.139 92.072ZM137.819 92.536V97H136.451V92.536H137.819ZM141.498 95.84V97H140.802C140.306 97 139.919 96.88 139.642 96.64C139.365 96.3947 139.226 95.9973 139.226 95.448V93.672H138.682V92.536H139.226V91.448H140.594V92.536H141.49V93.672H140.594V95.464C140.594 95.5973 140.626 95.6933 140.69 95.752C140.754 95.8107 140.861 95.84 141.01 95.84H141.498ZM144.492 97.064C144.055 97.064 143.66 96.9707 143.308 96.784C142.961 96.5973 142.687 96.3307 142.484 95.984C142.287 95.6373 142.188 95.232 142.188 94.768C142.188 94.3093 142.289 93.9067 142.492 93.56C142.695 93.208 142.972 92.9387 143.324 92.752C143.676 92.5653 144.071 92.472 144.508 92.472C144.945 92.472 145.34 92.5653 145.692 92.752C146.044 92.9387 146.321 93.208 146.524 93.56C146.727 93.9067 146.828 94.3093 146.828 94.768C146.828 95.2267 146.724 95.632 146.516 95.984C146.313 96.3307 146.033 96.5973 145.676 96.784C145.324 96.9707 144.929 97.064 144.492 97.064ZM144.492 95.88C144.753 95.88 144.975 95.784 145.156 95.592C145.343 95.4 145.436 95.1253 145.436 94.768C145.436 94.4107 145.345 94.136 145.164 93.944C144.988 93.752 144.769 93.656 144.508 93.656C144.241 93.656 144.02 93.752 143.844 93.944C143.668 94.1307 143.58 94.4053 143.58 94.768C143.58 95.1253 143.665 95.4 143.836 95.592C144.012 95.784 144.231 95.88 144.492 95.88ZM48.4203 105.168C48.5536 104.96 48.7376 104.792 48.9723 104.664C49.2069 104.536 49.4816 104.472 49.7963 104.472C50.1643 104.472 50.4976 104.565 50.7963 104.752C51.0949 104.939 51.3296 105.205 51.5003 105.552C51.6763 105.899 51.7643 106.301 51.7643 106.76C51.7643 107.219 51.6763 107.624 51.5003 107.976C51.3296 108.323 51.0949 108.592 50.7963 108.784C50.4976 108.971 50.1643 109.064 49.7963 109.064C49.4869 109.064 49.2123 109 48.9723 108.872C48.7376 108.744 48.5536 108.579 48.4203 108.376V111.128H47.0523V104.536H48.4203V105.168ZM50.3723 106.76C50.3723 106.419 50.2763 106.152 50.0843 105.96C49.8976 105.763 49.6656 105.664 49.3883 105.664C49.1163 105.664 48.8843 105.763 48.6923 105.96C48.5056 106.157 48.4123 106.427 48.4123 106.768C48.4123 107.109 48.5056 107.379 48.6923 107.576C48.8843 107.773 49.1163 107.872 49.3883 107.872C49.6603 107.872 49.8923 107.773 50.0843 107.576C50.2763 107.373 50.3723 107.101 50.3723 106.76ZM56.8899 106.696C56.8899 106.824 56.8819 106.957 56.8659 107.096H53.7699C53.7913 107.373 53.8793 107.587 54.0339 107.736C54.1939 107.88 54.3886 107.952 54.6179 107.952C54.9593 107.952 55.1966 107.808 55.3299 107.52H56.7859C56.7113 107.813 56.5753 108.077 56.3779 108.312C56.1859 108.547 55.9433 108.731 55.6499 108.864C55.3566 108.997 55.0286 109.064 54.6659 109.064C54.2286 109.064 53.8393 108.971 53.4979 108.784C53.1566 108.597 52.8899 108.331 52.6979 107.984C52.5059 107.637 52.4099 107.232 52.4099 106.768C52.4099 106.304 52.5033 105.899 52.6899 105.552C52.8819 105.205 53.1486 104.939 53.4899 104.752C53.8313 104.565 54.2233 104.472 54.6659 104.472C55.0979 104.472 55.4819 104.563 55.8179 104.744C56.1539 104.925 56.4153 105.184 56.6019 105.52C56.7939 105.856 56.8899 106.248 56.8899 106.696ZM55.4899 106.336C55.4899 106.101 55.4099 105.915 55.2499 105.776C55.0899 105.637 54.8899 105.568 54.6499 105.568C54.4206 105.568 54.2259 105.635 54.0659 105.768C53.9113 105.901 53.8153 106.091 53.7779 106.336H55.4899ZM59.1796 103.08V109H57.8116V103.08H59.1796ZM62.403 109.064C61.9657 109.064 61.571 108.971 61.219 108.784C60.8723 108.597 60.5977 108.331 60.395 107.984C60.1977 107.637 60.099 107.232 60.099 106.768C60.099 106.309 60.2003 105.907 60.403 105.56C60.6057 105.208 60.883 104.939 61.235 104.752C61.587 104.565 61.9817 104.472 62.419 104.472C62.8563 104.472 63.251 104.565 63.603 104.752C63.955 104.939 64.2323 105.208 64.435 105.56C64.6377 105.907 64.739 106.309 64.739 106.768C64.739 107.227 64.635 107.632 64.427 107.984C64.2243 108.331 63.9443 108.597 63.587 108.784C63.235 108.971 62.8403 109.064 62.403 109.064ZM62.403 107.88C62.6643 107.88 62.8857 107.784 63.067 107.592C63.2537 107.4 63.347 107.125 63.347 106.768C63.347 106.411 63.2563 106.136 63.075 105.944C62.899 105.752 62.6803 105.656 62.419 105.656C62.1523 105.656 61.931 105.752 61.755 105.944C61.579 106.131 61.491 106.405 61.491 106.768C61.491 107.125 61.5763 107.4 61.747 107.592C61.923 107.784 62.1417 107.88 62.403 107.88ZM67.2881 106.76C67.2881 106.301 67.3734 105.899 67.5441 105.552C67.7201 105.205 67.9574 104.939 68.2561 104.752C68.5547 104.565 68.8881 104.472 69.2561 104.472C69.5707 104.472 69.8454 104.536 70.0801 104.664C70.3201 104.792 70.5041 104.96 70.6321 105.168V104.536H72.0001V109H70.6321V108.368C70.4987 108.576 70.3121 108.744 70.0721 108.872C69.8374 109 69.5627 109.064 69.2481 109.064C68.8854 109.064 68.5547 108.971 68.2561 108.784C67.9574 108.592 67.7201 108.323 67.5441 107.976C67.3734 107.624 67.2881 107.219 67.2881 106.76ZM70.6321 106.768C70.6321 106.427 70.5361 106.157 70.3441 105.96C70.1574 105.763 69.9281 105.664 69.6561 105.664C69.3841 105.664 69.1521 105.763 68.9601 105.96C68.7734 106.152 68.6801 106.419 68.6801 106.76C68.6801 107.101 68.7734 107.373 68.9601 107.576C69.1521 107.773 69.3841 107.872 69.6561 107.872C69.9281 107.872 70.1574 107.773 70.3441 107.576C70.5361 107.379 70.6321 107.109 70.6321 106.768ZM75.6778 107.84V109H74.9818C74.4858 109 74.0991 108.88 73.8218 108.64C73.5444 108.395 73.4058 107.997 73.4058 107.448V105.672H72.8618V104.536H73.4058V103.448H74.7738V104.536H75.6698V105.672H74.7738V107.464C74.7738 107.597 74.8058 107.693 74.8698 107.752C74.9338 107.811 75.0404 107.84 75.1898 107.84H75.6778ZM80.8478 106.696C80.8478 106.824 80.8398 106.957 80.8238 107.096H77.7278C77.7491 107.373 77.8371 107.587 77.9918 107.736C78.1518 107.88 78.3464 107.952 78.5758 107.952C78.9171 107.952 79.1544 107.808 79.2878 107.52H80.7438C80.6691 107.813 80.5331 108.077 80.3358 108.312C80.1438 108.547 79.9011 108.731 79.6078 108.864C79.3144 108.997 78.9864 109.064 78.6238 109.064C78.1864 109.064 77.7971 108.971 77.4558 108.784C77.1144 108.597 76.8478 108.331 76.6558 107.984C76.4638 107.637 76.3678 107.232 76.3678 106.768C76.3678 106.304 76.4611 105.899 76.6478 105.552C76.8398 105.205 77.1064 104.939 77.4478 104.752C77.7891 104.565 78.1811 104.472 78.6238 104.472C79.0558 104.472 79.4398 104.563 79.7758 104.744C80.1118 104.925 80.3731 105.184 80.5598 105.52C80.7518 105.856 80.8478 106.248 80.8478 106.696ZM79.4478 106.336C79.4478 106.101 79.3678 105.915 79.2078 105.776C79.0478 105.637 78.8478 105.568 78.6078 105.568C78.3784 105.568 78.1838 105.635 78.0238 105.768C77.8691 105.901 77.7731 106.091 77.7358 106.336H79.4478ZM84.4894 104.488C85.0121 104.488 85.4281 104.659 85.7374 105C86.0521 105.336 86.2094 105.8 86.2094 106.392V109H84.8494V106.576C84.8494 106.277 84.7721 106.045 84.6174 105.88C84.4628 105.715 84.2548 105.632 83.9934 105.632C83.7321 105.632 83.5241 105.715 83.3694 105.88C83.2148 106.045 83.1374 106.277 83.1374 106.576V109H81.7694V104.536H83.1374V105.128C83.2761 104.931 83.4628 104.776 83.6974 104.664C83.9321 104.547 84.1961 104.488 84.4894 104.488ZM87.0881 106.76C87.0881 106.301 87.1734 105.899 87.3441 105.552C87.5201 105.205 87.7574 104.939 88.0561 104.752C88.3547 104.565 88.6881 104.472 89.0561 104.472C89.3494 104.472 89.6161 104.533 89.8561 104.656C90.1014 104.779 90.2934 104.944 90.4321 105.152V103.08H91.8001V109H90.4321V108.36C90.3041 108.573 90.1201 108.744 89.8801 108.872C89.6454 109 89.3707 109.064 89.0561 109.064C88.6881 109.064 88.3547 108.971 88.0561 108.784C87.7574 108.592 87.5201 108.323 87.3441 107.976C87.1734 107.624 87.0881 107.219 87.0881 106.76ZM90.4321 106.768C90.4321 106.427 90.3361 106.157 90.1441 105.96C89.9574 105.763 89.7281 105.664 89.4561 105.664C89.1841 105.664 88.9521 105.763 88.7601 105.96C88.5734 106.152 88.4801 106.419 88.4801 106.76C88.4801 107.101 88.5734 107.373 88.7601 107.576C88.9521 107.773 89.1841 107.872 89.4561 107.872C89.7281 107.872 89.9574 107.773 90.1441 107.576C90.3361 107.379 90.4321 107.109 90.4321 106.768ZM93.6778 104.072C93.4378 104.072 93.2404 104.003 93.0858 103.864C92.9364 103.72 92.8618 103.544 92.8618 103.336C92.8618 103.123 92.9364 102.947 93.0858 102.808C93.2404 102.664 93.4378 102.592 93.6778 102.592C93.9124 102.592 94.1044 102.664 94.2538 102.808C94.4084 102.947 94.4858 103.123 94.4858 103.336C94.4858 103.544 94.4084 103.72 94.2538 103.864C94.1044 104.003 93.9124 104.072 93.6778 104.072ZM94.3578 104.536V109H92.9898V104.536H94.3578ZM101.245 104.488C101.8 104.488 102.24 104.656 102.565 104.992C102.896 105.328 103.061 105.795 103.061 106.392V109H101.701V106.576C101.701 106.288 101.624 106.067 101.469 105.912C101.32 105.752 101.112 105.672 100.845 105.672C100.578 105.672 100.368 105.752 100.213 105.912C100.064 106.067 99.9891 106.288 99.9891 106.576V109H98.6291V106.576C98.6291 106.288 98.5518 106.067 98.3971 105.912C98.2478 105.752 98.0398 105.672 97.7731 105.672C97.5065 105.672 97.2958 105.752 97.1411 105.912C96.9918 106.067 96.9171 106.288 96.9171 106.576V109H95.5491V104.536H96.9171V105.096C97.0558 104.909 97.2371 104.763 97.4611 104.656C97.6851 104.544 97.9385 104.488 98.2211 104.488C98.5571 104.488 98.8558 104.56 99.1171 104.704C99.3838 104.848 99.5918 105.053 99.7411 105.32C99.8958 105.075 100.106 104.875 100.373 104.72C100.64 104.565 100.93 104.488 101.245 104.488ZM108.426 106.696C108.426 106.824 108.418 106.957 108.402 107.096H105.306C105.327 107.373 105.415 107.587 105.57 107.736C105.73 107.88 105.925 107.952 106.154 107.952C106.495 107.952 106.733 107.808 106.866 107.52H108.322C108.247 107.813 108.111 108.077 107.914 108.312C107.722 108.547 107.479 108.731 107.186 108.864C106.893 108.997 106.565 109.064 106.202 109.064C105.765 109.064 105.375 108.971 105.034 108.784C104.693 108.597 104.426 108.331 104.234 107.984C104.042 107.637 103.946 107.232 103.946 106.768C103.946 106.304 104.039 105.899 104.226 105.552C104.418 105.205 104.685 104.939 105.026 104.752C105.367 104.565 105.759 104.472 106.202 104.472C106.634 104.472 107.018 104.563 107.354 104.744C107.69 104.925 107.951 105.184 108.138 105.52C108.33 105.856 108.426 106.248 108.426 106.696ZM107.026 106.336C107.026 106.101 106.946 105.915 106.786 105.776C106.626 105.637 106.426 105.568 106.186 105.568C105.957 105.568 105.762 105.635 105.602 105.768C105.447 105.901 105.351 106.091 105.314 106.336H107.026ZM112.068 104.488C112.59 104.488 113.006 104.659 113.316 105C113.63 105.336 113.788 105.8 113.788 106.392V109H112.428V106.576C112.428 106.277 112.35 106.045 112.196 105.88C112.041 105.715 111.833 105.632 111.572 105.632C111.31 105.632 111.102 105.715 110.948 105.88C110.793 106.045 110.716 106.277 110.716 106.576V109H109.348V104.536H110.716V105.128C110.854 104.931 111.041 104.776 111.276 104.664C111.51 104.547 111.774 104.488 112.068 104.488ZM117.426 107.84V109H116.73C116.234 109 115.848 108.88 115.57 108.64C115.293 108.395 115.154 107.997 115.154 107.448V105.672H114.61V104.536H115.154V103.448H116.522V104.536H117.418V105.672H116.522V107.464C116.522 107.597 116.554 107.693 116.618 107.752C116.682 107.811 116.789 107.84 116.938 107.84H117.426ZM120.42 109.064C119.983 109.064 119.588 108.971 119.236 108.784C118.89 108.597 118.615 108.331 118.412 107.984C118.215 107.637 118.116 107.232 118.116 106.768C118.116 106.309 118.218 105.907 118.42 105.56C118.623 105.208 118.9 104.939 119.252 104.752C119.604 104.565 119.999 104.472 120.436 104.472C120.874 104.472 121.268 104.565 121.62 104.752C121.972 104.939 122.25 105.208 122.452 105.56C122.655 105.907 122.756 106.309 122.756 106.768C122.756 107.227 122.652 107.632 122.444 107.984C122.242 108.331 121.962 108.597 121.604 108.784C121.252 108.971 120.858 109.064 120.42 109.064ZM120.42 107.88C120.682 107.88 120.903 107.784 121.084 107.592C121.271 107.4 121.364 107.125 121.364 106.768C121.364 106.411 121.274 106.136 121.092 105.944C120.916 105.752 120.698 105.656 120.436 105.656C120.17 105.656 119.948 105.752 119.772 105.944C119.596 106.131 119.508 106.405 119.508 106.768C119.508 107.125 119.594 107.4 119.764 107.592C119.94 107.784 120.159 107.88 120.42 107.88ZM124.322 109.064C124.082 109.064 123.885 108.995 123.73 108.856C123.581 108.712 123.506 108.536 123.506 108.328C123.506 108.115 123.581 107.936 123.73 107.792C123.885 107.648 124.082 107.576 124.322 107.576C124.557 107.576 124.749 107.648 124.898 107.792C125.053 107.936 125.13 108.115 125.13 108.328C125.13 108.536 125.053 108.712 124.898 108.856C124.749 108.995 124.557 109.064 124.322 109.064Z" fill="white"/>
<circle cx="84" cy="162" r="17" fill="#D9D9D9"/>
<path d="M91.9176 158.656H88.1847C88.1165 158.173 87.9773 157.744 87.767 157.369C87.5568 156.989 87.2869 156.665 86.9574 156.398C86.6278 156.131 86.2472 155.926 85.8153 155.784C85.3892 155.642 84.9261 155.571 84.4261 155.571C83.5227 155.571 82.7358 155.795 82.0653 156.244C81.3949 156.687 80.875 157.335 80.5057 158.188C80.1364 159.034 79.9517 160.062 79.9517 161.273C79.9517 162.517 80.1364 163.562 80.5057 164.409C80.8807 165.256 81.4034 165.895 82.0739 166.327C82.7443 166.759 83.5199 166.974 84.4006 166.974C84.8949 166.974 85.3523 166.909 85.7727 166.778C86.1989 166.648 86.5767 166.457 86.9062 166.207C87.2358 165.952 87.5085 165.642 87.7244 165.278C87.946 164.915 88.0994 164.5 88.1847 164.034L91.9176 164.051C91.821 164.852 91.5795 165.625 91.1932 166.369C90.8125 167.108 90.2983 167.77 89.6506 168.355C89.0085 168.935 88.2415 169.395 87.3494 169.736C86.4631 170.071 85.4602 170.239 84.3409 170.239C82.7841 170.239 81.392 169.886 80.1648 169.182C78.9432 168.477 77.9773 167.457 77.267 166.122C76.5625 164.787 76.2102 163.17 76.2102 161.273C76.2102 159.369 76.5682 157.75 77.2841 156.415C78 155.08 78.9716 154.062 80.1989 153.364C81.4261 152.659 82.8068 152.307 84.3409 152.307C85.3523 152.307 86.2898 152.449 87.1534 152.733C88.0227 153.017 88.7926 153.432 89.4631 153.977C90.1335 154.517 90.679 155.179 91.0994 155.963C91.5256 156.747 91.7983 157.645 91.9176 158.656Z" fill="#545454"/>
<defs>
<filter id="filter0_d_205_22" x="0" y="0" width="176" height="178" filterUnits="userSpaceOnUse" color-interpolation-filters="sRGB">
<feFlood flood-opacity="0" result="BackgroundImageFix"/>
<feColorMatrix in="SourceAlpha" type="matrix" values="0 0 0 0 0 0 0 0 0 0 0 0 0 0 0 0 0 0 127 0" result="hardAlpha"/>
<feOffset dx="2" dy="4"/>
<feGaussianBlur stdDeviation="7"/>
<feComposite in2="hardAlpha" operator="out"/>
<feColorMatrix type="matrix" values="0 0 0 0 0 0 0 0 0 0 0 0 0 0 0 0 0 0 0.35 0"/>
<feBlend mode="normal" in2="BackgroundImageFix" result="effect1_dropShadow_205_22"/>
<feBlend mode="normal" in="SourceGraphic" in2="effect1_dropShadow_205_22" result="shape"/>
</filter>
<radialGradient id="paint0_radial_205_22" cx="0" cy="0" r="1" gradientUnits="userSpaceOnUse" gradientTransform="translate(160 167.5) rotate(-133.132) scale(195.265 192.662)">
<stop stop-color="white"/>
<stop offset="1" stop-opacity="0"/>
</radialGradient>
</defs>
</svg>
