<svg width="142" height="167" viewBox="0 0 142 167" fill="none" xmlns="http://www.w3.org/2000/svg">
<path d="M20.4588 158.328H18.5923C18.5582 158.087 18.4886 157.872 18.3835 157.685C18.2784 157.494 18.1435 157.332 17.9787 157.199C17.8139 157.065 17.6236 156.963 17.4077 156.892C17.1946 156.821 16.9631 156.786 16.7131 156.786C16.2614 156.786 15.8679 156.898 15.5327 157.122C15.1974 157.344 14.9375 157.668 14.7528 158.094C14.5682 158.517 14.4759 159.031 14.4759 159.636C14.4759 160.259 14.5682 160.781 14.7528 161.205C14.9403 161.628 15.2017 161.947 15.5369 162.163C15.8722 162.379 16.2599 162.487 16.7003 162.487C16.9474 162.487 17.1761 162.455 17.3864 162.389C17.5994 162.324 17.7884 162.229 17.9531 162.104C18.1179 161.976 18.2543 161.821 18.3622 161.639C18.473 161.457 18.5497 161.25 18.5923 161.017L20.4588 161.026C20.4105 161.426 20.2898 161.812 20.0966 162.185C19.9063 162.554 19.6491 162.885 19.3253 163.178C19.0043 163.467 18.6207 163.697 18.1747 163.868C17.7315 164.036 17.2301 164.119 16.6705 164.119C15.892 164.119 15.196 163.943 14.5824 163.591C13.9716 163.239 13.4886 162.729 13.1335 162.061C12.7812 161.393 12.6051 160.585 12.6051 159.636C12.6051 158.685 12.7841 157.875 13.142 157.207C13.5 156.54 13.9858 156.031 14.5994 155.682C15.2131 155.33 15.9034 155.153 16.6705 155.153C17.1761 155.153 17.6449 155.224 18.0767 155.366C18.5114 155.509 18.8963 155.716 19.2315 155.989C19.5668 156.259 19.8395 156.589 20.0497 156.982C20.2628 157.374 20.3991 157.822 20.4588 158.328ZM23.9271 155.273V164H22.082V155.273H23.9271ZM25.7452 164V155.273H29.1884C29.8475 155.273 30.41 155.391 30.8759 155.626C31.3447 155.859 31.7012 156.19 31.9455 156.619C32.1927 157.045 32.3163 157.547 32.3163 158.124C32.3163 158.703 32.1913 159.202 31.9413 159.619C31.6913 160.034 31.329 160.352 30.8546 160.574C30.383 160.795 29.812 160.906 29.1415 160.906H26.8362V159.423H28.8433C29.1955 159.423 29.4881 159.375 29.7211 159.278C29.954 159.182 30.1273 159.037 30.241 158.844C30.3575 158.651 30.4157 158.411 30.4157 158.124C30.4157 157.834 30.3575 157.589 30.241 157.391C30.1273 157.192 29.9526 157.041 29.7168 156.939C29.4839 156.834 29.1898 156.781 28.8347 156.781H27.5904V164H25.7452ZM30.4583 160.028L32.6273 164H30.5904L28.4683 160.028H30.4583ZM39.3109 155.273H41.156V160.94C41.156 161.577 41.004 162.134 40.7001 162.611C40.3989 163.088 39.9771 163.46 39.4344 163.727C38.8918 163.991 38.2597 164.124 37.5381 164.124C36.8137 164.124 36.1802 163.991 35.6376 163.727C35.095 163.46 34.6731 163.088 34.3719 162.611C34.0708 162.134 33.9202 161.577 33.9202 160.94V155.273H35.7654V160.783C35.7654 161.115 35.8379 161.411 35.9827 161.669C36.1305 161.928 36.3379 162.131 36.6049 162.278C36.8719 162.426 37.183 162.5 37.5381 162.5C37.8961 162.5 38.2072 162.426 38.4714 162.278C38.7384 162.131 38.9444 161.928 39.0893 161.669C39.237 161.411 39.3109 161.115 39.3109 160.783V155.273ZM42.9741 164V155.273H46.4173C47.0764 155.273 47.6389 155.391 48.1048 155.626C48.5736 155.859 48.9301 156.19 49.1744 156.619C49.4216 157.045 49.5452 157.547 49.5452 158.124C49.5452 158.703 49.4202 159.202 49.1702 159.619C48.9202 160.034 48.558 160.352 48.0835 160.574C47.6119 160.795 47.0409 160.906 46.3705 160.906H44.0651V159.423H46.0722C46.4244 159.423 46.717 159.375 46.95 159.278C47.183 159.182 47.3563 159.037 47.4699 158.844C47.5864 158.651 47.6446 158.411 47.6446 158.124C47.6446 157.834 47.5864 157.589 47.4699 157.391C47.3563 157.192 47.1815 157.041 46.9457 156.939C46.7128 156.834 46.4188 156.781 46.0636 156.781H44.8193V164H42.9741ZM47.6872 160.028L49.8563 164H47.8193L45.6972 160.028H47.6872ZM56.9361 158.094C56.8764 157.886 56.7926 157.703 56.6847 157.544C56.5767 157.382 56.4446 157.246 56.2884 157.135C56.1349 157.021 55.9588 156.935 55.7599 156.875C55.5639 156.815 55.3466 156.786 55.108 156.786C54.6619 156.786 54.2699 156.896 53.9318 157.118C53.5966 157.339 53.3352 157.662 53.1477 158.085C52.9602 158.506 52.8665 159.02 52.8665 159.628C52.8665 160.236 52.9588 160.753 53.1435 161.179C53.3281 161.605 53.5895 161.93 53.9276 162.155C54.2656 162.376 54.6648 162.487 55.125 162.487C55.5426 162.487 55.8991 162.413 56.1946 162.266C56.4929 162.115 56.7202 161.903 56.8764 161.631C57.0355 161.358 57.1151 161.036 57.1151 160.663L57.4901 160.719H55.2401V159.33H58.892V160.429C58.892 161.196 58.7301 161.855 58.4062 162.406C58.0824 162.955 57.6364 163.378 57.0682 163.676C56.5 163.972 55.8494 164.119 55.1165 164.119C54.2983 164.119 53.5795 163.939 52.9602 163.578C52.3409 163.214 51.858 162.699 51.5114 162.031C51.1676 161.361 50.9957 160.565 50.9957 159.645C50.9957 158.937 51.098 158.307 51.3026 157.753C51.5099 157.196 51.7997 156.724 52.1719 156.338C52.544 155.952 52.9773 155.658 53.4716 155.456C53.9659 155.254 54.5014 155.153 55.0781 155.153C55.5724 155.153 56.0327 155.226 56.4588 155.371C56.8849 155.513 57.2628 155.714 57.5923 155.976C57.9247 156.237 58.196 156.548 58.4062 156.909C58.6165 157.267 58.7514 157.662 58.8111 158.094H56.9361ZM62.4232 155.273V164H60.5781V155.273H62.4232ZM65.7456 164H63.7683L66.7811 155.273H69.1589L72.1675 164H70.1902L68.0041 157.267H67.9359L65.7456 164ZM65.622 160.57H70.2925V162.01H65.622V160.57ZM78.0531 157.783C78.019 157.439 77.8727 157.172 77.6141 156.982C77.3556 156.791 77.0048 156.696 76.5616 156.696C76.2604 156.696 76.0062 156.739 75.7988 156.824C75.5914 156.906 75.4323 157.021 75.3215 157.169C75.2136 157.317 75.1596 157.484 75.1596 157.672C75.1539 157.828 75.1866 157.964 75.2576 158.081C75.3315 158.197 75.4323 158.298 75.5602 158.384C75.688 158.466 75.8357 158.538 76.0033 158.601C76.171 158.661 76.3499 158.712 76.5403 158.754L77.3244 158.942C77.705 159.027 78.0545 159.141 78.3727 159.283C78.6908 159.425 78.9664 159.599 79.1994 159.807C79.4323 160.014 79.6127 160.259 79.7406 160.54C79.8712 160.821 79.938 161.143 79.9408 161.507C79.938 162.041 79.8016 162.504 79.5317 162.896C79.2647 163.286 78.8783 163.588 78.3727 163.804C77.8698 164.017 77.2633 164.124 76.5531 164.124C75.8485 164.124 75.2349 164.016 74.7121 163.8C74.1923 163.584 73.786 163.264 73.4934 162.841C73.2036 162.415 73.0516 161.888 73.0374 161.26H74.8229C74.8428 161.553 74.9266 161.797 75.0744 161.993C75.2249 162.186 75.4252 162.332 75.6752 162.432C75.9281 162.528 76.2136 162.577 76.5317 162.577C76.8442 162.577 77.1156 162.531 77.3457 162.44C77.5786 162.349 77.759 162.223 77.8869 162.061C78.0147 161.899 78.0786 161.713 78.0786 161.503C78.0786 161.307 78.0204 161.142 77.9039 161.009C77.7903 160.875 77.6227 160.761 77.4011 160.668C77.1823 160.574 76.9139 160.489 76.5957 160.412L75.6454 160.173C74.9096 159.994 74.3286 159.714 73.9025 159.334C73.4764 158.953 73.2647 158.44 73.2675 157.795C73.2647 157.267 73.4053 156.805 73.6894 156.411C73.9764 156.016 74.3698 155.707 74.8698 155.486C75.3698 155.264 75.938 155.153 76.5744 155.153C77.2221 155.153 77.7874 155.264 78.2704 155.486C78.7562 155.707 79.134 156.016 79.4039 156.411C79.6738 156.805 79.813 157.263 79.8215 157.783H78.0531ZM84.5593 164V155.273H90.3377V156.794H86.4045V158.874H89.9542V160.395H86.4045V164H84.5593ZM92.2933 164H90.316L93.3288 155.273H95.7066L98.7151 164H96.7379L94.5518 157.267H94.4836L92.2933 164ZM92.1697 160.57H96.8401V162.01H92.1697V160.57ZM107.356 158.328H105.489C105.455 158.087 105.386 157.872 105.28 157.685C105.175 157.494 105.04 157.332 104.876 157.199C104.711 157.065 104.52 156.963 104.305 156.892C104.091 156.821 103.86 156.786 103.61 156.786C103.158 156.786 102.765 156.898 102.43 157.122C102.094 157.344 101.834 157.668 101.65 158.094C101.465 158.517 101.373 159.031 101.373 159.636C101.373 160.259 101.465 160.781 101.65 161.205C101.837 161.628 102.099 161.947 102.434 162.163C102.769 162.379 103.157 162.487 103.597 162.487C103.844 162.487 104.073 162.455 104.283 162.389C104.496 162.324 104.685 162.229 104.85 162.104C105.015 161.976 105.151 161.821 105.259 161.639C105.37 161.457 105.447 161.25 105.489 161.017L107.356 161.026C107.307 161.426 107.187 161.812 106.993 162.185C106.803 162.554 106.546 162.885 106.222 163.178C105.901 163.467 105.518 163.697 105.072 163.868C104.628 164.036 104.127 164.119 103.567 164.119C102.789 164.119 102.093 163.943 101.479 163.591C100.868 163.239 100.386 162.729 100.03 162.061C99.6781 161.393 99.502 160.585 99.502 159.636C99.502 158.685 99.681 157.875 100.039 157.207C100.397 156.54 100.883 156.031 101.496 155.682C102.11 155.33 102.8 155.153 103.567 155.153C104.073 155.153 104.542 155.224 104.974 155.366C105.408 155.509 105.793 155.716 106.128 155.989C106.464 156.259 106.736 156.589 106.947 156.982C107.16 157.374 107.296 157.822 107.356 158.328ZM110.824 155.273V164H108.979V155.273H110.824ZM114.146 164H112.169L115.182 155.273H117.56L120.568 164H118.591L116.405 157.267H116.337L114.146 164ZM114.023 160.57H118.693V162.01H114.023V160.57ZM123.764 155.273V164H121.919V155.273H123.764ZM130.316 157.783C130.282 157.439 130.136 157.172 129.877 156.982C129.619 156.791 129.268 156.696 128.825 156.696C128.524 156.696 128.269 156.739 128.062 156.824C127.855 156.906 127.696 157.021 127.585 157.169C127.477 157.317 127.423 157.484 127.423 157.672C127.417 157.828 127.45 157.964 127.521 158.081C127.595 158.197 127.696 158.298 127.823 158.384C127.951 158.466 128.099 158.538 128.267 158.601C128.434 158.661 128.613 158.712 128.804 158.754L129.588 158.942C129.968 159.027 130.318 159.141 130.636 159.283C130.954 159.425 131.23 159.599 131.463 159.807C131.696 160.014 131.876 160.259 132.004 160.54C132.135 160.821 132.201 161.143 132.204 161.507C132.201 162.041 132.065 162.504 131.795 162.896C131.528 163.286 131.142 163.588 130.636 163.804C130.133 164.017 129.527 164.124 128.816 164.124C128.112 164.124 127.498 164.016 126.975 163.8C126.456 163.584 126.049 163.264 125.757 162.841C125.467 162.415 125.315 161.888 125.301 161.26H127.086C127.106 161.553 127.19 161.797 127.338 161.993C127.488 162.186 127.688 162.332 127.938 162.432C128.191 162.528 128.477 162.577 128.795 162.577C129.108 162.577 129.379 162.531 129.609 162.44C129.842 162.349 130.022 162.223 130.15 162.061C130.278 161.899 130.342 161.713 130.342 161.503C130.342 161.307 130.284 161.142 130.167 161.009C130.054 160.875 129.886 160.761 129.664 160.668C129.446 160.574 129.177 160.489 128.859 160.412L127.909 160.173C127.173 159.994 126.592 159.714 126.166 159.334C125.74 158.953 125.528 158.44 125.531 157.795C125.528 157.267 125.669 156.805 125.953 156.411C126.24 156.016 126.633 155.707 127.133 155.486C127.633 155.264 128.201 155.153 128.838 155.153C129.485 155.153 130.051 155.264 130.534 155.486C131.019 155.707 131.397 156.016 131.667 156.411C131.937 156.805 132.076 157.263 132.085 157.783H130.316Z" fill="#393939"/>
<path d="M0 127.693C0 127.882 0.143011 128.033 0.321097 128.033H141.243C141.421 128.033 141.564 127.882 141.564 127.693C141.564 127.505 141.421 127.354 141.243 127.354H0.321097C0.143009 127.354 0 127.505 0 127.693Z" fill="#3F3C57"/>
<path d="M45.9788 13.7094L47.5113 21.1037L44.2517 31.3958L39 20.3378L39.7287 13.9225L45.9788 13.7094Z" fill="#FDB4B4"/>
<path d="M47.796 20.7208H38.7284V32.3054H47.796V20.7208Z" fill="#D74500"/>
<path d="M44.0673 17.4341C47.4873 17.4341 50.2598 14.5025 50.2598 10.8862C50.2598 7.26995 47.4873 4.33838 44.0673 4.33838C40.6472 4.33838 37.8747 7.26995 37.8747 10.8862C37.8747 14.5025 40.6472 17.4341 44.0673 17.4341Z" fill="#FDB4B4"/>
<path d="M38.6769 15.7552C38.6769 15.7552 34.061 6.74122 38.2228 2.40346C42.3846 -1.9343 45.7255 0.924014 45.7255 0.924014L47.6333 0.842489C47.6333 0.842489 48.0312 2.43002 48.6728 1.57062C49.3144 0.711224 50.4737 3.84104 50.4737 3.84104C52.6255 7.93872 45.166 8.85668 45.166 8.85668C45.166 8.85668 45.7046 10.671 45.1571 11.051C44.6096 11.4309 43.1468 12.8603 43.1468 12.8603L41.8375 13.9059L41.0593 12.6523C41.0593 12.6523 40.2466 11.9739 39.836 12.2589C39.4253 12.5439 39.9902 16.2934 39.9902 16.2934L38.6769 15.7552L38.6769 15.7552H38.6769Z" fill="#2E2E41"/>
<path d="M31.2481 82.0697L28.8805 119.412L34.7008 119.621L42.3954 82.3826L31.2481 82.0697Z" fill="#2E2E41"/>
<path d="M45.3549 81.861L42.9873 119.204L48.8076 119.412L56.5022 82.1739L45.3549 81.861Z" fill="#2E2E41"/>
<path d="M29.8224 90.6013L32.9209 49.93L28.1693 28.7515C27.7597 25.6033 29.6356 22.6245 32.531 21.8122L37.1804 20.5079L39.2383 18.3318L43.9191 29.2617L46.8425 18.3402L49.1224 20.0934L55.8844 23.2479L55.8813 23.3217L54.7967 48.9052L57.2178 90.2392L57.1104 90.2407L29.8224 90.6013V90.6013Z" fill="#E8E9EA"/>
<path d="M48.4338 118.988L50.1191 124.308C50.1191 124.308 56.7123 125.255 56.8149 127.414C56.9175 129.572 47.8544 128.323 42.5474 128.605C37.2405 128.887 41.6581 122.81 41.6581 122.81L42.2236 119.318L48.4338 118.988V118.988V118.988Z" fill="#2E2E41"/>
<path d="M34.6709 118.605L36.3562 123.925C36.3562 123.925 42.9494 124.872 43.052 127.031C43.1546 129.189 34.0915 127.94 28.7845 128.222C23.4775 128.504 27.8952 122.427 27.8952 122.427L28.4607 118.935L34.6709 118.605V118.605H34.6709Z" fill="#2E2E41"/>
<path d="M26.4487 69.0012C26.3773 67.9524 26.5445 66.9006 26.9363 65.9341L25.6785 55.0242L30.6056 54.5432L31.3508 65.6618C31.846 66.5734 32.1275 67.5971 32.1717 68.6474C32.3167 71.2744 31.153 73.4821 29.5724 73.5796C27.9919 73.6771 26.5933 71.6273 26.4487 69.0012H26.4487L26.4487 69.0012L26.4487 69.0012Z" fill="#FDB4B4"/>
<path d="M57.6555 70.6026C57.5948 69.553 57.7729 68.5033 58.1747 67.5413L57.0294 56.6175L61.9612 56.1934L62.5917 67.3199C63.0775 68.2372 63.3484 69.2641 63.3818 70.3148C63.4996 72.9433 62.3132 75.1374 60.7318 75.2167C59.1503 75.296 57.7729 73.2302 57.6555 70.6026H57.6555L57.6555 70.6026H57.6555Z" fill="#FDB4B4"/>
<path d="M25.6582 64.626L25.6416 64.5318L23.0738 49.9637L26.1079 26.241C26.3786 24.123 28.1672 22.5974 30.1841 22.7679C31.2374 22.857 32.1824 23.3853 32.8453 24.2555C33.5081 25.1257 33.7949 26.2146 33.6528 27.3218L31.3692 45.1135L32.807 64.1434L25.6582 64.626V64.626Z" fill="#E8E9EA"/>
<path d="M56.1337 64.2841L50.971 27.8454C50.7027 26.7769 50.8598 25.6587 51.4156 24.7086C51.9714 23.7584 52.8474 23.1105 53.8822 22.8842C55.862 22.4512 57.8169 23.7308 58.3336 25.7969L63.2933 63.8265L56.1337 64.2841V64.2841Z" fill="#E8E9EA"/>
<path d="M44.0706 32.5926C44.4206 32.5926 44.7044 32.2925 44.7044 31.9224C44.7044 31.5523 44.4206 31.2522 44.0706 31.2522C43.7205 31.2522 43.4368 31.5523 43.4368 31.9224C43.4368 32.2925 43.7205 32.5926 44.0706 32.5926Z" fill="#D6D7D8"/>
<path d="M44.0706 37.6668C44.4206 37.6668 44.7044 37.3668 44.7044 36.9967C44.7044 36.6265 44.4206 36.3265 44.0706 36.3265C43.7205 36.3265 43.4368 36.6265 43.4368 36.9967C43.4368 37.3668 43.7205 37.6668 44.0706 37.6668Z" fill="#D6D7D8"/>
<path d="M44.0706 42.7411C44.4206 42.7411 44.7044 42.4411 44.7044 42.0709C44.7044 41.7008 44.4206 41.4008 44.0706 41.4008C43.7205 41.4008 43.4368 41.7008 43.4368 42.0709C43.4368 42.4411 43.7205 42.7411 44.0706 42.7411Z" fill="#D6D7D8"/>
<path d="M44.0706 47.8154C44.4206 47.8154 44.7044 47.5153 44.7044 47.1452C44.7044 46.7751 44.4206 46.475 44.0706 46.475C43.7205 46.475 43.4368 46.7751 43.4368 47.1452C43.4368 47.5153 43.7205 47.8154 44.0706 47.8154Z" fill="#D6D7D8"/>
<path d="M44.0706 52.8896C44.4206 52.8896 44.7044 52.5896 44.7044 52.2194C44.7044 51.8493 44.4206 51.5493 44.0706 51.5493C43.7205 51.5493 43.4368 51.8493 43.4368 52.2194C43.4368 52.5896 43.7205 52.8896 44.0706 52.8896Z" fill="#D6D7D8"/>
<path d="M44.0706 57.9639C44.4206 57.9639 44.7044 57.6638 44.7044 57.2937C44.7044 56.9236 44.4206 56.6235 44.0706 56.6235C43.7205 56.6235 43.4368 56.9236 43.4368 57.2937C43.4368 57.6638 43.7205 57.9639 44.0706 57.9639Z" fill="#D6D7D8"/>
<path d="M44.0706 63.0381C44.4206 63.0381 44.7044 62.7381 44.7044 62.3679C44.7044 61.9978 44.4206 61.6978 44.0706 61.6978C43.7205 61.6978 43.4368 61.9978 43.4368 62.3679C43.4368 62.7381 43.7205 63.0381 44.0706 63.0381Z" fill="#D6D7D8"/>
<path d="M44.0706 68.1124C44.4206 68.1124 44.7044 67.8123 44.7044 67.4422C44.7044 67.0721 44.4206 66.772 44.0706 66.772C43.7205 66.772 43.4368 67.0721 43.4368 67.4422C43.4368 67.8123 43.7205 68.1124 44.0706 68.1124Z" fill="#D6D7D8"/>
<path d="M44.0713 72.0376L32.0788 70.3477L31.8478 70.3153L25.7187 55.3721L22.0686 46.4753H31.576L44.0713 72.0376Z" fill="#969696"/>
<path d="M92.1551 15.3352L99.7797 10.9185V23.5374H90.9617L92.1551 15.3352Z" fill="#2E2E41"/>
<path d="M101.414 18.1485L102.118 24.3437L97.0467 35.0222L93.8989 25.0833L95.3788 17.9427L101.414 18.1485Z" fill="#FDB4B4"/>
<path d="M93.624 35.9006H102.38V24.7135H93.624V35.9006Z" fill="#D74500"/>
<path d="M109.604 83.9572L111.89 120.018L106.27 120.22L98.8393 84.2594L109.604 83.9572Z" fill="#2E2E41"/>
<path d="M95.9813 83.7558L98.2676 119.817L92.6471 120.018L85.2165 84.058L95.9813 83.7558Z" fill="#2E2E41"/>
<path d="M115.542 91.6056L115.408 91.6052L79.6026 91.4816L79.6348 91.3476L88.8403 52.7823L86.5343 33.3199C86.0974 29.632 87.9645 26.1461 91.1804 24.646L92.3414 24.1045L94.547 22.4085L97.3684 32.9506L101.887 22.4003L103.877 24.5046L108.366 25.7639C111.164 26.5488 112.977 29.4272 112.582 32.4593L112.578 32.4804L105.723 53.163L115.542 91.6056H115.542Z" fill="#E8E9EA"/>
<path d="M93.008 119.609L99.0051 119.927L99.5512 123.3C99.5512 123.3 103.817 129.168 98.6924 128.895C93.5675 128.623 84.8154 129.83 84.9145 127.745C85.0135 125.661 91.3805 124.746 91.3805 124.746L93.008 119.609V119.609V119.609Z" fill="#2E2E41"/>
<path d="M106.299 119.239L112.296 119.558L112.842 122.93C112.842 122.93 117.108 128.798 111.983 128.526C106.858 128.253 98.1061 129.46 98.2051 127.376C98.3042 125.291 104.671 124.376 104.671 124.376L106.299 119.239V119.239V119.239Z" fill="#2E2E41"/>
<path d="M111.79 70.9675V70.9675C111.651 73.5034 110.3 75.4829 108.774 75.3887C107.248 75.2945 106.124 73.1626 106.264 70.6257C106.307 69.6116 106.578 68.623 107.057 67.7426L107.776 57.0055L112.534 57.47L111.32 68.0056C111.698 68.939 111.859 69.9546 111.79 70.9675V70.9675V70.9675Z" fill="#FDB4B4"/>
<path d="M87.3396 70.0031H87.3396C87.1491 72.5354 85.7589 74.484 84.2348 74.3555C82.7108 74.227 81.6302 72.0702 81.8211 69.5371C81.8843 68.5241 82.176 67.5419 82.6717 66.6725L83.6074 55.954L88.355 56.5255L86.9285 67.0313C87.2881 67.973 87.429 68.992 87.3396 70.0031L87.3396 70.0031V70.0031Z" fill="#FDB4B4"/>
<path d="M112.557 66.7462L105.646 66.2798L105.655 66.1703L107.035 47.8994L104.83 30.7187C104.693 29.6485 104.97 28.5959 105.611 27.7548C106.251 26.9136 107.165 26.403 108.183 26.3168C110.133 26.1543 111.861 27.6268 112.123 29.6739L115.053 52.5832L115.05 52.6003L112.557 66.7462V66.7462Z" fill="#E8E9EA"/>
<path d="M88.49 66.0463L81.5689 65.6039L81.5841 65.4883L86.3567 28.8877C86.8586 26.8775 88.7491 25.6411 90.6619 26.0594C91.6622 26.2781 92.5088 26.9043 93.0461 27.8229C93.5834 28.7414 93.7352 29.8221 93.4736 30.8661L88.49 66.0463V66.0463Z" fill="#E8E9EA"/>
<path d="M97.2215 36.178C97.5596 36.178 97.8336 35.8882 97.8336 35.5308C97.8336 35.1733 97.5596 34.8836 97.2215 34.8836C96.8835 34.8836 96.6095 35.1733 96.6095 35.5308C96.6095 35.8882 96.8835 36.178 97.2215 36.178Z" fill="#D6D7D8"/>
<path d="M97.2215 41.0781C97.5596 41.0781 97.8336 40.7883 97.8336 40.4309C97.8336 40.0735 97.5596 39.7837 97.2215 39.7837C96.8835 39.7837 96.6095 40.0735 96.6095 40.4309C96.6095 40.7883 96.8835 41.0781 97.2215 41.0781Z" fill="#D6D7D8"/>
<path d="M97.2215 45.9782C97.5596 45.9782 97.8336 45.6885 97.8336 45.3311C97.8336 44.9736 97.5596 44.6839 97.2215 44.6839C96.8835 44.6839 96.6095 44.9736 96.6095 45.3311C96.6095 45.6885 96.8835 45.9782 97.2215 45.9782Z" fill="#D6D7D8"/>
<path d="M97.2215 50.8784C97.5596 50.8784 97.8336 50.5886 97.8336 50.2312C97.8336 49.8737 97.5596 49.584 97.2215 49.584C96.8835 49.584 96.6095 49.8737 96.6095 50.2312C96.6095 50.5886 96.8835 50.8784 97.2215 50.8784Z" fill="#D6D7D8"/>
<path d="M97.2215 55.7785C97.5596 55.7785 97.8336 55.4888 97.8336 55.1313C97.8336 54.7739 97.5596 54.4841 97.2215 54.4841C96.8835 54.4841 96.6095 54.7739 96.6095 55.1313C96.6095 55.4888 96.8835 55.7785 97.2215 55.7785Z" fill="#D6D7D8"/>
<path d="M97.2215 60.6786C97.5596 60.6786 97.8336 60.3889 97.8336 60.0314C97.8336 59.674 97.5596 59.3842 97.2215 59.3842C96.8835 59.3842 96.6095 59.674 96.6095 60.0314C96.6095 60.3889 96.8835 60.6786 97.2215 60.6786Z" fill="#D6D7D8"/>
<path d="M97.2215 65.5788C97.5596 65.5788 97.8336 65.289 97.8336 64.9316C97.8336 64.5742 97.5596 64.2844 97.2215 64.2844C96.8835 64.2844 96.6095 64.5742 96.6095 64.9316C96.6095 65.289 96.8835 65.5788 97.2215 65.5788Z" fill="#D6D7D8"/>
<path d="M97.2215 70.4789C97.5596 70.4789 97.8336 70.1891 97.8336 69.8317C97.8336 69.4743 97.5596 69.1845 97.2215 69.1845C96.8835 69.1845 96.6095 69.4743 96.6095 69.8317C96.6095 70.1891 96.8835 70.4789 97.2215 70.4789Z" fill="#D6D7D8"/>
<path d="M98.1507 21.3103C101.313 21.3103 103.876 18.6001 103.876 15.2568C103.876 11.9136 101.313 9.20334 98.1507 9.20334C94.9889 9.20334 92.4257 11.9136 92.4257 15.2568C92.4257 18.6001 94.9889 21.3103 98.1507 21.3103Z" fill="#FDB4B4"/>
<path d="M101.151 8.19013C101.425 8.78008 100.99 9.517 100.414 9.76504C99.8386 10.0131 99.1882 9.91257 98.5742 9.80933C97.9601 9.70608 97.3088 9.60818 96.7347 9.86061C95.9919 10.1872 95.5731 11.0065 95.2123 11.7668C94.5388 13.1861 93.8652 14.6054 93.1917 16.0248C92.8626 16.7182 92.526 17.4429 92.5197 18.2187C92.508 19.6428 93.5765 20.7809 94.1513 22.0688C94.8512 23.6369 94.7935 25.5587 94.0009 27.0767C93.2083 28.5947 91.7011 29.6702 90.0732 29.8794C89.6448 29.9345 89.1915 29.9285 88.8064 29.7227C88.4213 29.517 88.1274 29.0677 88.1987 28.6177C88.3382 27.7377 89.61 27.532 89.8435 26.6746C89.9655 26.227 89.7495 25.7489 89.4584 25.3993C89.1673 25.0497 88.7992 24.777 88.5215 24.4153C87.8812 23.5815 87.8386 22.2942 88.4221 21.415C88.765 20.8983 89.2954 20.5144 89.517 19.9282C89.7059 19.4286 89.6373 18.867 89.5658 18.3343C89.4738 17.6498 89.3819 16.9653 89.29 16.2808C89.1827 15.4822 89.0771 14.6549 89.2891 13.8801C89.7749 12.1044 91.671 11.2704 92.7831 9.8441C93.2998 9.1813 93.6474 8.38418 94.1775 7.73332C95.0672 6.64107 96.4677 6.03853 97.8259 6.16378C99.184 6.28904 100.465 7.13887 101.162 8.37748" fill="#2E2E41"/>
<path d="M100.247 8.30209C99.9674 8.40786 99.8636 8.79306 99.9441 9.09539C100.025 9.39773 100.235 9.63795 100.428 9.87673C102.611 12.5774 103.118 16.6625 101.669 19.8674C101.284 20.7199 100.77 21.5222 100.562 22.4412C100.411 23.1098 100.419 23.8433 100.068 24.4222C99.7111 25.0115 99.0033 25.4064 98.9333 26.1024C98.8884 26.5491 99.1459 26.983 99.4911 27.2449C99.8362 27.5067 100.258 27.6266 100.673 27.7243C101.75 27.9782 102.852 28.1168 103.956 28.1374C104.316 28.144 104.688 28.1358 105.018 27.9842C105.348 27.8325 105.63 27.5037 105.634 27.123C105.636 26.8239 105.473 26.5479 105.452 26.2496C105.39 25.3556 106.528 24.8801 106.749 24.0148C106.895 23.446 106.608 22.8607 106.302 22.368C105.996 21.8753 105.647 21.358 105.655 20.7687C105.662 20.2046 105.997 19.7078 106.127 19.1607C106.307 18.4038 106.086 17.6122 105.867 16.8671C105.68 16.2336 105.494 15.6002 105.307 14.9667C105.109 14.2933 104.911 13.6198 104.713 12.9464C104.367 11.7708 104.003 10.5611 103.254 9.61814C102.506 8.67521 101.265 8.05719 100.159 8.44217" fill="#2E2E41"/>
<path d="M104.148 31.7594L103.756 31.6385C104.573 28.6746 102.811 23.1436 102.793 23.0881L103.18 22.9486C103.254 23.1807 105.002 28.6657 104.148 31.7594V31.7594Z" fill="#3F3C57"/>
<path d="M103.952 35.1637C104.895 35.1637 105.659 34.3554 105.659 33.3584C105.659 32.3614 104.895 31.5531 103.952 31.5531C103.009 31.5531 102.245 32.3614 102.245 33.3584C102.245 34.3554 103.009 35.1637 103.952 35.1637Z" fill="#3F3C57"/>
<path d="M92.7337 39.7498H91.6983C91.5853 39.7498 91.4939 39.653 91.4939 39.5337C91.4939 39.4143 91.5853 39.3176 91.6983 39.3176H92.7337C93.0191 39.3176 93.2872 39.2 93.4888 38.9864C93.6901 38.773 93.8009 38.4893 93.8003 38.1877L93.7877 31.444C93.7877 29.979 92.6609 28.7875 91.2758 28.7875C89.8907 28.7875 88.7636 29.979 88.7636 31.4436L88.7762 37.7557C88.7774 38.3715 89.2522 38.8763 89.8346 38.881L90.5453 38.8867C90.6581 38.8877 90.7489 38.9851 90.7481 39.1045C90.7473 39.2232 90.6559 39.3189 90.5437 39.3189H90.5421L89.8314 39.3132C89.0259 39.3067 88.3691 38.6083 88.3675 37.7565L88.3549 31.444C88.3549 29.7408 89.6652 28.3553 91.2758 28.3553C92.8862 28.3553 94.1965 29.7407 94.1965 31.4436L94.209 38.1868C94.2098 38.6041 94.0568 38.9965 93.7779 39.2917C93.4993 39.587 93.1283 39.7498 92.7337 39.7498V39.7498Z" fill="#3F3C57"/>
<path d="M90.5438 39.8688C90.9438 39.8688 91.2682 39.5258 91.2682 39.1028C91.2682 38.6798 90.9438 38.3369 90.5438 38.3369C90.1437 38.3369 89.8194 38.6798 89.8194 39.1028C89.8194 39.5258 90.1437 39.8688 90.5438 39.8688Z" fill="#3F3C57"/>
<path d="M91.6982 40.2996C92.0983 40.2996 92.4226 39.9567 92.4226 39.5337C92.4226 39.1107 92.0983 38.7678 91.6982 38.7678C91.2982 38.7678 90.9739 39.1107 90.9739 39.5337C90.9739 39.9567 91.2982 40.2996 91.6982 40.2996Z" fill="#3F3C57"/>
<path d="M49.8813 28.5201L49.489 28.3992C50.3065 25.4354 48.5636 19.8187 48.5458 19.7632L49.0363 20.1542C49.1111 20.3862 50.7348 25.4265 49.8813 28.5201V28.5201Z" fill="#3F3C57"/>
<path d="M36.0883 29.0467L36.4806 28.9258C35.6632 25.962 37.4259 20.431 37.4436 20.3755L37.0239 20.6728C36.9491 20.9048 35.2349 25.9531 36.0883 29.0467V29.0467Z" fill="#3F3C57"/>
<path d="M49.6852 31.9245C50.6281 31.9245 51.3925 31.1162 51.3925 30.1192C51.3925 29.1221 50.6281 28.3139 49.6852 28.3139C48.7422 28.3139 47.9778 29.1221 47.9778 30.1192C47.9778 31.1162 48.7422 31.9245 49.6852 31.9245Z" fill="#3F3C57"/>
<path d="M37.9085 40.1486H36.8731C36.7601 40.1486 36.6687 40.0519 36.6687 39.9325C36.6687 39.8132 36.7601 39.7165 36.8731 39.7165H37.9085C38.1939 39.7165 38.4619 39.5989 38.6635 39.3853C38.8649 39.1719 38.9757 38.8881 38.9751 38.5866L38.9625 31.8429C38.9625 30.3779 37.8357 29.1864 36.4506 29.1864C35.0655 29.1864 33.9384 30.3779 33.9384 31.8425L33.951 38.1546C33.9522 38.7704 34.427 39.2752 35.0094 39.2799L35.7201 39.2856C35.8329 39.2866 35.9237 39.384 35.9229 39.5034C35.9221 39.6221 35.8307 39.7178 35.7185 39.7178H35.7169L35.0062 39.7121C34.2007 39.7056 33.5438 39.0072 33.5422 38.1554L33.5297 31.8429C33.5297 30.1396 34.8399 28.7542 36.4506 28.7542C38.061 28.7542 39.3712 30.1396 39.3712 31.8425L39.3838 38.5857C39.3846 39.0029 39.2315 39.3954 38.9527 39.6906C38.6741 39.9859 38.3031 40.1486 37.9085 40.1486H37.9085Z" fill="#3F3C57"/>
<path d="M35.7186 40.2677C36.1186 40.2677 36.4429 39.9248 36.4429 39.5018C36.4429 39.0788 36.1186 38.7358 35.7186 38.7358C35.3185 38.7358 34.9942 39.0788 34.9942 39.5018C34.9942 39.9248 35.3185 40.2677 35.7186 40.2677Z" fill="#3F3C57"/>
<path d="M36.873 40.6985C37.2731 40.6985 37.5974 40.3556 37.5974 39.9326C37.5974 39.5095 37.2731 39.1666 36.873 39.1666C36.473 39.1666 36.1487 39.5095 36.1487 39.9326C36.1487 40.3556 36.473 40.6985 36.873 40.6985Z" fill="#3F3C57"/>
</svg>
