<svg width="143" height="167" viewBox="0 0 143 167" fill="none" xmlns="http://www.w3.org/2000/svg">
<path d="M8.42614 156.794V155.273H15.5938V156.794H12.9219V164H11.098V156.794H8.42614ZM17.0741 164V155.273H20.5173C21.1764 155.273 21.7389 155.391 22.2048 155.626C22.6736 155.859 23.0301 156.19 23.2744 156.619C23.5216 157.045 23.6452 157.547 23.6452 158.124C23.6452 158.703 23.5202 159.202 23.2702 159.619C23.0202 160.034 22.658 160.352 22.1835 160.574C21.7119 160.795 21.1409 160.906 20.4705 160.906H18.1651V159.423H20.1722C20.5244 159.423 20.817 159.375 21.05 159.278C21.283 159.182 21.4563 159.037 21.5699 158.844C21.6864 158.651 21.7446 158.411 21.7446 158.124C21.7446 157.834 21.6864 157.589 21.5699 157.391C21.4563 157.192 21.2815 157.041 21.0457 156.939C20.8128 156.834 20.5188 156.781 20.1636 156.781H18.9193V164H17.0741ZM21.7872 160.028L23.9563 164H21.9193L19.7972 160.028H21.7872ZM26.7534 164H24.7761L27.7889 155.273H30.1668L33.1753 164H31.198L29.0119 157.267H28.9438L26.7534 164ZM26.6298 160.57H31.3003V162.01H26.6298V160.57ZM33.1269 156.794V155.273H40.2945V156.794H37.6227V164H35.7988V156.794H33.1269ZM42.2128 164H40.2355L43.2483 155.273H45.6261L48.6347 164H46.6574L44.4713 157.267H44.4031L42.2128 164ZM42.0892 160.57H46.7597V162.01H42.0892V160.57ZM49.9851 155.273H52.2607L54.6641 161.136H54.7663L57.1697 155.273H59.4453V164H57.6555V158.32H57.5831L55.3246 163.957H54.1058L51.8473 158.298H51.7749V164H49.9851V155.273ZM61.2656 164V155.273H67.1462V156.794H63.1107V158.874H66.8437V160.395H63.1107V162.479H67.1633V164H61.2656ZM76.2129 155.273V164H74.6192L70.8223 158.507H70.7584V164H68.9132V155.273H70.5325L74.2996 160.761H74.3763V155.273H76.2129ZM77.705 156.794V155.273H84.8727V156.794H82.2008V164H80.3769V156.794H77.705ZM93.9745 159.636C93.9745 160.588 93.7941 161.398 93.4333 162.065C93.0754 162.733 92.5867 163.243 91.9674 163.595C91.3509 163.945 90.6577 164.119 89.8879 164.119C89.1123 164.119 88.4163 163.943 87.7998 163.591C87.1833 163.239 86.6961 162.729 86.3381 162.061C85.9802 161.393 85.8012 160.585 85.8012 159.636C85.8012 158.685 85.9802 157.875 86.3381 157.207C86.6961 156.54 87.1833 156.031 87.7998 155.682C88.4163 155.33 89.1123 155.153 89.8879 155.153C90.6577 155.153 91.3509 155.33 91.9674 155.682C92.5867 156.031 93.0754 156.54 93.4333 157.207C93.7941 157.875 93.9745 158.685 93.9745 159.636ZM92.1038 159.636C92.1038 159.02 92.0114 158.5 91.8268 158.077C91.645 157.653 91.3879 157.332 91.0555 157.114C90.7231 156.895 90.3339 156.786 89.8879 156.786C89.4418 156.786 89.0526 156.895 88.7202 157.114C88.3879 157.332 88.1293 157.653 87.9447 158.077C87.7629 158.5 87.6719 159.02 87.6719 159.636C87.6719 160.253 87.7629 160.773 87.9447 161.196C88.1293 161.619 88.3879 161.94 88.7202 162.159C89.0526 162.378 89.4418 162.487 89.8879 162.487C90.3339 162.487 90.7231 162.378 91.0555 162.159C91.3879 161.94 91.645 161.619 91.8268 161.196C92.0114 160.773 92.1038 160.253 92.1038 159.636ZM98.7187 164V155.273H104.497V156.794H100.564V158.874H104.114V160.395H100.564V164H98.7187ZM106.453 164H104.475L107.488 155.273H109.866L112.875 164H110.897L108.711 157.267H108.643L106.453 164ZM106.329 160.57H111V162.01H106.329V160.57ZM121.515 158.328H119.649C119.614 158.087 119.545 157.872 119.44 157.685C119.335 157.494 119.2 157.332 119.035 157.199C118.87 157.065 118.68 156.963 118.464 156.892C118.251 156.821 118.019 156.786 117.769 156.786C117.318 156.786 116.924 156.898 116.589 157.122C116.254 157.344 115.994 157.668 115.809 158.094C115.624 158.517 115.532 159.031 115.532 159.636C115.532 160.259 115.624 160.781 115.809 161.205C115.997 161.628 116.258 161.947 116.593 162.163C116.928 162.379 117.316 162.487 117.757 162.487C118.004 162.487 118.232 162.455 118.443 162.389C118.656 162.324 118.845 162.229 119.009 162.104C119.174 161.976 119.311 161.821 119.418 161.639C119.529 161.457 119.606 161.25 119.649 161.017L121.515 161.026C121.467 161.426 121.346 161.812 121.153 162.185C120.963 162.554 120.705 162.885 120.382 163.178C120.061 163.467 119.677 163.697 119.231 163.868C118.788 164.036 118.286 164.119 117.727 164.119C116.948 164.119 116.252 163.943 115.639 163.591C115.028 163.239 114.545 162.729 114.19 162.061C113.838 161.393 113.661 160.585 113.661 159.636C113.661 158.685 113.84 157.875 114.198 157.207C114.556 156.54 115.042 156.031 115.656 155.682C116.269 155.33 116.96 155.153 117.727 155.153C118.232 155.153 118.701 155.224 119.133 155.366C119.568 155.509 119.953 155.716 120.288 155.989C120.623 156.259 120.896 156.589 121.106 156.982C121.319 157.374 121.455 157.822 121.515 158.328ZM124.983 155.273V164H123.138V155.273H124.983ZM128.306 164H126.328L129.341 155.273H131.719L134.728 164H132.75L130.564 157.267H130.496L128.306 164ZM128.182 160.57H132.853V162.01H128.182V160.57ZM136.078 164V155.273H137.923V162.479H141.665V164H136.078Z" fill="#393939"/>
<path d="M0 127.694C0 127.882 0.143011 128.033 0.321097 128.033H141.243C141.421 128.033 141.564 127.882 141.564 127.694C141.564 127.505 141.421 127.354 141.243 127.354H0.321097C0.143009 127.354 0 127.505 0 127.694Z" fill="#3F3C57"/>
<path d="M45.9788 13.7094L47.5113 21.1037L44.2517 31.3958L39.0001 20.3378L39.7287 13.9225L45.9788 13.7094Z" fill="#FDB4B4"/>
<path d="M47.796 20.7208H38.7284V32.3054H47.796V20.7208Z" fill="#D74500"/>
<path d="M44.0673 17.4341C47.4873 17.4341 50.2598 14.5025 50.2598 10.8862C50.2598 7.26995 47.4873 4.33838 44.0673 4.33838C40.6472 4.33838 37.8748 7.26995 37.8748 10.8862C37.8748 14.5025 40.6472 17.4341 44.0673 17.4341Z" fill="#FDB4B4"/>
<path d="M38.6769 15.7552C38.6769 15.7552 34.061 6.74122 38.2228 2.40346C42.3846 -1.9343 45.7255 0.924014 45.7255 0.924014L47.6333 0.842489C47.6333 0.842489 48.0312 2.43002 48.6728 1.57062C49.3144 0.711224 50.4737 3.84104 50.4737 3.84104C52.6256 7.93872 45.166 8.85668 45.166 8.85668C45.166 8.85668 45.7047 10.671 45.1571 11.051C44.6096 11.4309 43.1468 12.8603 43.1468 12.8603L41.8375 13.9059L41.0594 12.6523C41.0594 12.6523 40.2466 11.9739 39.836 12.2589C39.4253 12.5439 39.9902 16.2934 39.9902 16.2934L38.6769 15.7552L38.6769 15.7552H38.6769Z" fill="#2E2E41"/>
<path d="M31.2481 82.0696L28.8806 119.412L34.7008 119.621L42.3954 82.3826L31.2481 82.0696Z" fill="#2E2E41"/>
<path d="M45.3549 81.861L42.9873 119.204L48.8076 119.412L56.5022 82.1739L45.3549 81.861Z" fill="#2E2E41"/>
<path d="M29.8224 90.6013L32.9208 49.93L28.1693 28.7515C27.7597 25.6033 29.6356 22.6245 32.531 21.8122L37.1804 20.5079L39.2383 18.3318L43.9191 29.2617L46.8425 18.3402L49.1224 20.0934L55.8844 23.2479L55.8813 23.3217L54.7966 48.9052L57.2178 90.2392L57.1104 90.2407L29.8224 90.6013V90.6013Z" fill="#E8E9EA"/>
<path d="M48.4338 118.988L50.1191 124.308C50.1191 124.308 56.7123 125.255 56.8149 127.414C56.9175 129.572 47.8544 128.323 42.5474 128.605C37.2405 128.887 41.6581 122.81 41.6581 122.81L42.2236 119.318L48.4338 118.988V118.988V118.988Z" fill="#2E2E41"/>
<path d="M34.6709 118.605L36.3562 123.925C36.3562 123.925 42.9494 124.872 43.052 127.031C43.1546 129.189 34.0915 127.94 28.7845 128.222C23.4775 128.504 27.8952 122.427 27.8952 122.427L28.4607 118.935L34.6709 118.605V118.605H34.6709Z" fill="#2E2E41"/>
<path d="M26.4487 69.0012C26.3773 67.9523 26.5445 66.9006 26.9363 65.9341L25.6785 55.0242L30.6056 54.5432L31.3508 65.6618C31.846 66.5734 32.1275 67.5971 32.1717 68.6473C32.3166 71.2743 31.1529 73.482 29.5724 73.5796C27.9919 73.6771 26.5932 71.6273 26.4487 69.0012H26.4487L26.4487 69.0012L26.4487 69.0012Z" fill="#FDB4B4"/>
<path d="M57.6555 70.6026C57.5949 69.553 57.7729 68.5033 58.1747 67.5413L57.0294 56.6175L61.9612 56.1934L62.5917 67.3199C63.0775 68.2372 63.3484 69.2641 63.3818 70.3148C63.4996 72.9433 62.3132 75.1374 60.7318 75.2167C59.1503 75.296 57.7729 73.2302 57.6555 70.6026H57.6555L57.6555 70.6026H57.6555Z" fill="#FDB4B4"/>
<path d="M25.6582 64.626L25.6416 64.5318L23.0738 49.9637L26.1079 26.241C26.3786 24.123 28.1672 22.5974 30.1841 22.7679C31.2374 22.857 32.1824 23.3853 32.8453 24.2555C33.5081 25.1257 33.7949 26.2146 33.6528 27.3218L31.3692 45.1135L32.807 64.1434L25.6582 64.626V64.626Z" fill="#E8E9EA"/>
<path d="M56.1337 64.2841L50.971 27.8454C50.7027 26.7769 50.8598 25.6587 51.4156 24.7086C51.9714 23.7584 52.8474 23.1105 53.8822 22.8842C55.862 22.4512 57.8169 23.7308 58.3336 25.7969L63.2933 63.8265L56.1337 64.2841V64.2841Z" fill="#E8E9EA"/>
<path d="M44.0706 32.5926C44.4206 32.5926 44.7044 32.2925 44.7044 31.9224C44.7044 31.5522 44.4206 31.2522 44.0706 31.2522C43.7205 31.2522 43.4368 31.5522 43.4368 31.9224C43.4368 32.2925 43.7205 32.5926 44.0706 32.5926Z" fill="#D6D7D8"/>
<path d="M44.0706 37.6668C44.4206 37.6668 44.7044 37.3668 44.7044 36.9967C44.7044 36.6265 44.4206 36.3265 44.0706 36.3265C43.7205 36.3265 43.4368 36.6265 43.4368 36.9967C43.4368 37.3668 43.7205 37.6668 44.0706 37.6668Z" fill="#D6D7D8"/>
<path d="M44.0706 42.7411C44.4206 42.7411 44.7044 42.4411 44.7044 42.0709C44.7044 41.7008 44.4206 41.4008 44.0706 41.4008C43.7205 41.4008 43.4368 41.7008 43.4368 42.0709C43.4368 42.4411 43.7205 42.7411 44.0706 42.7411Z" fill="#D6D7D8"/>
<path d="M44.0706 47.8153C44.4206 47.8153 44.7044 47.5153 44.7044 47.1452C44.7044 46.775 44.4206 46.475 44.0706 46.475C43.7205 46.475 43.4368 46.775 43.4368 47.1452C43.4368 47.5153 43.7205 47.8153 44.0706 47.8153Z" fill="#D6D7D8"/>
<path d="M44.0706 52.8896C44.4206 52.8896 44.7044 52.5896 44.7044 52.2194C44.7044 51.8493 44.4206 51.5493 44.0706 51.5493C43.7205 51.5493 43.4368 51.8493 43.4368 52.2194C43.4368 52.5896 43.7205 52.8896 44.0706 52.8896Z" fill="#D6D7D8"/>
<path d="M44.0706 57.9638C44.4206 57.9638 44.7044 57.6638 44.7044 57.2937C44.7044 56.9235 44.4206 56.6235 44.0706 56.6235C43.7205 56.6235 43.4368 56.9235 43.4368 57.2937C43.4368 57.6638 43.7205 57.9638 44.0706 57.9638Z" fill="#D6D7D8"/>
<path d="M44.0706 63.0381C44.4206 63.0381 44.7044 62.7381 44.7044 62.3679C44.7044 61.9978 44.4206 61.6978 44.0706 61.6978C43.7205 61.6978 43.4368 61.9978 43.4368 62.3679C43.4368 62.7381 43.7205 63.0381 44.0706 63.0381Z" fill="#D6D7D8"/>
<path d="M44.0706 68.1123C44.4206 68.1123 44.7044 67.8123 44.7044 67.4422C44.7044 67.072 44.4206 66.772 44.0706 66.772C43.7205 66.772 43.4368 67.072 43.4368 67.4422C43.4368 67.8123 43.7205 68.1123 44.0706 68.1123Z" fill="#D6D7D8"/>
<path d="M44.0713 72.0376L32.0788 70.3477L31.8478 70.3153L25.7187 55.3721L22.0686 46.4753H31.576L44.0713 72.0376Z" fill="#969696"/>
<path d="M92.1551 15.3352L99.7797 10.9186V23.5374H90.9617L92.1551 15.3352Z" fill="#2E2E41"/>
<path d="M101.414 18.1485L102.118 24.3437L97.0467 35.0222L93.8989 25.0833L95.3788 17.9427L101.414 18.1485Z" fill="#FDB4B4"/>
<path d="M93.624 35.9006H102.38V24.7135H93.624V35.9006Z" fill="#D74500"/>
<path d="M109.604 83.9573L111.89 120.018L106.27 120.22L98.8393 84.2595L109.604 83.9573Z" fill="#2E2E41"/>
<path d="M95.9813 83.7557L98.2676 119.817L92.6471 120.018L85.2165 84.0579L95.9813 83.7557Z" fill="#2E2E41"/>
<path d="M115.542 91.6056L115.408 91.6052L79.6027 91.4816L79.6348 91.3476L88.8403 52.7823L86.5343 33.3199C86.0975 29.632 87.9646 26.1461 91.1804 24.646L92.3414 24.1045L94.547 22.4085L97.3685 32.9506L101.887 22.4003L103.877 24.5046L108.366 25.7639C111.164 26.5488 112.977 29.4272 112.582 32.4593L112.578 32.4804L105.723 53.163L115.542 91.6056H115.542Z" fill="#E8E9EA"/>
<path d="M93.008 119.609L99.0051 119.927L99.5512 123.3C99.5512 123.3 103.817 129.168 98.6924 128.895C93.5675 128.623 84.8154 129.83 84.9145 127.745C85.0135 125.661 91.3805 124.746 91.3805 124.746L93.008 119.609V119.609V119.609Z" fill="#2E2E41"/>
<path d="M106.299 119.239L112.296 119.558L112.842 122.93C112.842 122.93 117.108 128.798 111.983 128.526C106.858 128.253 98.1061 129.46 98.2051 127.376C98.3042 125.291 104.671 124.376 104.671 124.376L106.299 119.239V119.239V119.239Z" fill="#2E2E41"/>
<path d="M111.79 70.9674V70.9674C111.651 73.5034 110.3 75.4829 108.774 75.3887C107.248 75.2945 106.124 73.1626 106.264 70.6257C106.307 69.6115 106.578 68.6229 107.057 67.7426L107.776 57.0055L112.534 57.47L111.32 68.0056C111.698 68.9389 111.859 69.9546 111.79 70.9674V70.9674V70.9674Z" fill="#FDB4B4"/>
<path d="M87.3396 70.0032H87.3396C87.1491 72.5354 85.7589 74.484 84.2348 74.3555C82.7108 74.227 81.6302 72.0703 81.8211 69.5371C81.8843 68.5241 82.176 67.5419 82.6717 66.6725L83.6074 55.954L88.355 56.5255L86.9285 67.0314C87.2881 67.973 87.429 68.9921 87.3396 70.0032L87.3396 70.0032V70.0032Z" fill="#FDB4B4"/>
<path d="M112.557 66.7462L105.646 66.2798L105.655 66.1703L107.035 47.8994L104.83 30.7187C104.693 29.6485 104.97 28.5959 105.611 27.7548C106.251 26.9136 107.165 26.403 108.183 26.3168C110.133 26.1543 111.861 27.6268 112.123 29.6739L115.053 52.5832L115.05 52.6003L112.557 66.7462V66.7462Z" fill="#E8E9EA"/>
<path d="M88.49 66.0463L81.5689 65.6038L81.5841 65.4883L86.3567 28.8877C86.8587 26.8775 88.7491 25.6411 90.6619 26.0593C91.6622 26.2781 92.5088 26.9043 93.0461 27.8228C93.5834 28.7413 93.7353 29.822 93.4736 30.866L88.49 66.0463V66.0463Z" fill="#E8E9EA"/>
<path d="M97.2215 36.1779C97.5596 36.1779 97.8336 35.8882 97.8336 35.5307C97.8336 35.1733 97.5596 34.8835 97.2215 34.8835C96.8835 34.8835 96.6095 35.1733 96.6095 35.5307C96.6095 35.8882 96.8835 36.1779 97.2215 36.1779Z" fill="#D6D7D8"/>
<path d="M97.2215 41.0781C97.5596 41.0781 97.8336 40.7883 97.8336 40.4309C97.8336 40.0734 97.5596 39.7837 97.2215 39.7837C96.8835 39.7837 96.6095 40.0734 96.6095 40.4309C96.6095 40.7883 96.8835 41.0781 97.2215 41.0781Z" fill="#D6D7D8"/>
<path d="M97.2215 45.9782C97.5596 45.9782 97.8336 45.6885 97.8336 45.331C97.8336 44.9736 97.5596 44.6838 97.2215 44.6838C96.8835 44.6838 96.6095 44.9736 96.6095 45.331C96.6095 45.6885 96.8835 45.9782 97.2215 45.9782Z" fill="#D6D7D8"/>
<path d="M97.2215 50.8784C97.5596 50.8784 97.8336 50.5886 97.8336 50.2312C97.8336 49.8737 97.5596 49.584 97.2215 49.584C96.8835 49.584 96.6095 49.8737 96.6095 50.2312C96.6095 50.5886 96.8835 50.8784 97.2215 50.8784Z" fill="#D6D7D8"/>
<path d="M97.2215 55.7785C97.5596 55.7785 97.8336 55.4888 97.8336 55.1313C97.8336 54.7739 97.5596 54.4841 97.2215 54.4841C96.8835 54.4841 96.6095 54.7739 96.6095 55.1313C96.6095 55.4888 96.8835 55.7785 97.2215 55.7785Z" fill="#D6D7D8"/>
<path d="M97.2215 60.6786C97.5596 60.6786 97.8336 60.3888 97.8336 60.0314C97.8336 59.674 97.5596 59.3842 97.2215 59.3842C96.8835 59.3842 96.6095 59.674 96.6095 60.0314C96.6095 60.3888 96.8835 60.6786 97.2215 60.6786Z" fill="#D6D7D8"/>
<path d="M97.2215 65.5787C97.5596 65.5787 97.8336 65.289 97.8336 64.9316C97.8336 64.5741 97.5596 64.2844 97.2215 64.2844C96.8835 64.2844 96.6095 64.5741 96.6095 64.9316C96.6095 65.289 96.8835 65.5787 97.2215 65.5787Z" fill="#D6D7D8"/>
<path d="M97.2215 70.4789C97.5596 70.4789 97.8336 70.1891 97.8336 69.8317C97.8336 69.4743 97.5596 69.1845 97.2215 69.1845C96.8835 69.1845 96.6095 69.4743 96.6095 69.8317C96.6095 70.1891 96.8835 70.4789 97.2215 70.4789Z" fill="#D6D7D8"/>
<path d="M98.1507 21.3103C101.313 21.3103 103.876 18.6 103.876 15.2568C103.876 11.9135 101.313 9.20331 98.1507 9.20331C94.9889 9.20331 92.4257 11.9135 92.4257 15.2568C92.4257 18.6 94.9889 21.3103 98.1507 21.3103Z" fill="#FDB4B4"/>
<path d="M101.151 8.19013C101.425 8.78008 100.99 9.517 100.414 9.76504C99.8386 10.0131 99.1882 9.91257 98.5742 9.80933C97.9601 9.70608 97.3088 9.60818 96.7347 9.86061C95.9919 10.1872 95.5732 11.0065 95.2124 11.7668C94.5388 13.1861 93.8652 14.6054 93.1917 16.0248C92.8626 16.7182 92.526 17.4429 92.5197 18.2187C92.508 19.6428 93.5765 20.7809 94.1513 22.0688C94.8512 23.6369 94.7935 25.5587 94.0009 27.0767C93.2083 28.5947 91.7011 29.6702 90.0732 29.8794C89.6448 29.9345 89.1915 29.9285 88.8064 29.7227C88.4213 29.517 88.1274 29.0677 88.1987 28.6177C88.3382 27.7377 89.61 27.532 89.8435 26.6746C89.9655 26.227 89.7495 25.7489 89.4584 25.3993C89.1673 25.0497 88.7992 24.777 88.5215 24.4153C87.8813 23.5815 87.8386 22.2942 88.4221 21.415C88.765 20.8983 89.2954 20.5144 89.517 19.9282C89.7059 19.4286 89.6373 18.867 89.5658 18.3343C89.4738 17.6498 89.3819 16.9653 89.29 16.2808C89.1827 15.4822 89.0771 14.6549 89.2891 13.8801C89.7749 12.1044 91.6711 11.2704 92.7831 9.8441C93.2998 9.1813 93.6474 8.38418 94.1775 7.73332C95.0672 6.64107 96.4678 6.03853 97.8259 6.16378C99.184 6.28904 100.465 7.13887 101.162 8.37748" fill="#2E2E41"/>
<path d="M100.247 8.30212C99.9674 8.40789 99.8636 8.79309 99.9441 9.09543C100.025 9.39776 100.235 9.63798 100.428 9.87677C102.611 12.5775 103.118 16.6626 101.669 19.8675C101.284 20.72 100.77 21.5222 100.562 22.4412C100.411 23.1099 100.419 23.8433 100.068 24.4222C99.7111 25.0115 99.0033 25.4064 98.9333 26.1025C98.8884 26.5491 99.1459 26.983 99.4911 27.2449C99.8362 27.5068 100.258 27.6266 100.673 27.7243C101.75 27.9782 102.852 28.1169 103.956 28.1374C104.316 28.1441 104.688 28.1358 105.018 27.9842C105.348 27.8326 105.63 27.5037 105.634 27.1231C105.636 26.8239 105.473 26.548 105.452 26.2496C105.39 25.3557 106.528 24.8801 106.749 24.0149C106.895 23.446 106.608 22.8607 106.302 22.368C105.996 21.8754 105.647 21.358 105.655 20.7688C105.662 20.2046 105.997 19.7078 106.127 19.1607C106.307 18.4039 106.086 17.6123 105.867 16.8671C105.68 16.2337 105.494 15.6002 105.307 14.9667C105.109 14.2933 104.911 13.6199 104.713 12.9465C104.367 11.7708 104.003 10.5611 103.255 9.61817C102.506 8.67524 101.265 8.05722 100.159 8.4422" fill="#2E2E41"/>
<path d="M104.148 31.7594L103.756 31.6385C104.573 28.6746 102.811 23.1437 102.793 23.0882L103.18 22.9487C103.254 23.1807 105.002 28.6658 104.148 31.7594V31.7594Z" fill="#3F3C57"/>
<path d="M103.952 35.1637C104.895 35.1637 105.659 34.3554 105.659 33.3584C105.659 32.3614 104.895 31.5531 103.952 31.5531C103.009 31.5531 102.245 32.3614 102.245 33.3584C102.245 34.3554 103.009 35.1637 103.952 35.1637Z" fill="#3F3C57"/>
<path d="M92.7337 39.7498H91.6983C91.5854 39.7498 91.4939 39.653 91.4939 39.5337C91.4939 39.4143 91.5854 39.3176 91.6983 39.3176H92.7337C93.0192 39.3176 93.2872 39.2 93.4888 38.9865C93.6901 38.773 93.8009 38.4893 93.8003 38.1877L93.7877 31.444C93.7877 29.979 92.6609 28.7875 91.2758 28.7875C89.8907 28.7875 88.7637 29.979 88.7637 31.4436L88.7762 37.7557C88.7774 38.3715 89.2522 38.8763 89.8346 38.8811L90.5453 38.8868C90.6581 38.8877 90.7489 38.9851 90.7481 39.1045C90.7473 39.2233 90.6559 39.319 90.5437 39.319H90.5421L89.8314 39.3133C89.0259 39.3067 88.3691 38.6083 88.3675 37.7566L88.3549 31.444C88.3549 29.7408 89.6652 28.3553 91.2758 28.3553C92.8862 28.3553 94.1965 29.7408 94.1965 31.4436L94.2091 38.1869C94.2099 38.6041 94.0568 38.9965 93.778 39.2917C93.4993 39.5871 93.1283 39.7498 92.7337 39.7498V39.7498Z" fill="#3F3C57"/>
<path d="M90.5438 39.8688C90.9438 39.8688 91.2682 39.5259 91.2682 39.1029C91.2682 38.6799 90.9438 38.337 90.5438 38.337C90.1437 38.337 89.8194 38.6799 89.8194 39.1029C89.8194 39.5259 90.1437 39.8688 90.5438 39.8688Z" fill="#3F3C57"/>
<path d="M91.6982 40.2997C92.0983 40.2997 92.4226 39.9568 92.4226 39.5337C92.4226 39.1107 92.0983 38.7678 91.6982 38.7678C91.2982 38.7678 90.9739 39.1107 90.9739 39.5337C90.9739 39.9568 91.2982 40.2997 91.6982 40.2997Z" fill="#3F3C57"/>
<path d="M49.8813 28.5202L49.489 28.3993C50.3065 25.4354 48.5636 19.8187 48.5458 19.7632L49.0363 20.1542C49.1111 20.3862 50.7348 25.4265 49.8813 28.5202V28.5202Z" fill="#3F3C57"/>
<path d="M36.0882 29.0467L36.4806 28.9258C35.6631 25.962 37.4258 20.431 37.4436 20.3755L37.0239 20.6728C36.949 20.9048 35.2348 25.9531 36.0882 29.0467V29.0467Z" fill="#3F3C57"/>
<path d="M49.6852 31.9245C50.6281 31.9245 51.3925 31.1162 51.3925 30.1192C51.3925 29.1222 50.6281 28.3139 49.6852 28.3139C48.7422 28.3139 47.9778 29.1222 47.9778 30.1192C47.9778 31.1162 48.7422 31.9245 49.6852 31.9245Z" fill="#3F3C57"/>
<path d="M37.9085 40.1486H36.8731C36.7601 40.1486 36.6687 40.0519 36.6687 39.9325C36.6687 39.8132 36.7601 39.7165 36.8731 39.7165H37.9085C38.1939 39.7165 38.4619 39.5989 38.6635 39.3853C38.8649 39.1719 38.9757 38.8881 38.9751 38.5866L38.9625 31.8429C38.9625 30.3779 37.8356 29.1864 36.4505 29.1864C35.0654 29.1864 33.9384 30.3779 33.9384 31.8425L33.951 38.1546C33.9522 38.7704 34.427 39.2752 35.0094 39.2799L35.7201 39.2856C35.8328 39.2866 35.9236 39.384 35.9229 39.5034C35.9221 39.6221 35.8306 39.7178 35.7185 39.7178H35.7169L35.0062 39.7121C34.2007 39.7056 33.5438 39.0072 33.5422 38.1554L33.5297 31.8429C33.5297 30.1396 34.8399 28.7542 36.4505 28.7542C38.061 28.7542 39.3712 30.1396 39.3712 31.8425L39.3838 38.5857C39.3846 39.0029 39.2315 39.3954 38.9527 39.6906C38.6741 39.9859 38.3031 40.1486 37.9085 40.1486H37.9085Z" fill="#3F3C57"/>
<path d="M35.7186 40.2677C36.1186 40.2677 36.4429 39.9248 36.4429 39.5018C36.4429 39.0788 36.1186 38.7358 35.7186 38.7358C35.3185 38.7358 34.9942 39.0788 34.9942 39.5018C34.9942 39.9248 35.3185 40.2677 35.7186 40.2677Z" fill="#3F3C57"/>
<path d="M36.873 40.6985C37.2731 40.6985 37.5974 40.3556 37.5974 39.9326C37.5974 39.5095 37.2731 39.1666 36.873 39.1666C36.473 39.1666 36.1487 39.5095 36.1487 39.9326C36.1487 40.3556 36.473 40.6985 36.873 40.6985Z" fill="#3F3C57"/>
</svg>
