<svg width="187" height="161" viewBox="0 0 187 161" fill="none" xmlns="http://www.w3.org/2000/svg">
<path d="M38.4588 152.328H36.5923C36.5582 152.087 36.4886 151.872 36.3835 151.685C36.2784 151.494 36.1435 151.332 35.9787 151.199C35.8139 151.065 35.6236 150.963 35.4077 150.892C35.1946 150.821 34.9631 150.786 34.7131 150.786C34.2614 150.786 33.8679 150.898 33.5327 151.122C33.1974 151.344 32.9375 151.668 32.7528 152.094C32.5682 152.517 32.4759 153.031 32.4759 153.636C32.4759 154.259 32.5682 154.781 32.7528 155.205C32.9403 155.628 33.2017 155.947 33.5369 156.163C33.8722 156.379 34.2599 156.487 34.7003 156.487C34.9474 156.487 35.1761 156.455 35.3864 156.389C35.5994 156.324 35.7884 156.229 35.9531 156.104C36.1179 155.976 36.2543 155.821 36.3622 155.639C36.473 155.457 36.5497 155.25 36.5923 155.017L38.4588 155.026C38.4105 155.426 38.2898 155.812 38.0966 156.185C37.9063 156.554 37.6491 156.885 37.3253 157.178C37.0043 157.467 36.6207 157.697 36.1747 157.868C35.7315 158.036 35.2301 158.119 34.6705 158.119C33.892 158.119 33.196 157.943 32.5824 157.591C31.9716 157.239 31.4886 156.729 31.1335 156.061C30.7812 155.393 30.6051 154.585 30.6051 153.636C30.6051 152.685 30.7841 151.875 31.142 151.207C31.5 150.54 31.9858 150.031 32.5994 149.682C33.2131 149.33 33.9034 149.153 34.6705 149.153C35.1761 149.153 35.6449 149.224 36.0767 149.366C36.5114 149.509 36.8963 149.716 37.2315 149.989C37.5668 150.259 37.8395 150.589 38.0497 150.982C38.2628 151.374 38.3991 151.822 38.4588 152.328ZM40.082 158V149.273H41.9271V156.479H45.6686V158H40.082ZM49.0357 149.273V158H47.1906V149.273H49.0357ZM47.4675 148.429L48.371 146.49H50.0499L48.7502 148.429H47.4675ZM58.1536 149.273V158H56.5598L52.7629 152.507H52.699V158H50.8538V149.273H52.4732L56.2402 154.761H56.3169V149.273H58.1536ZM61.8232 149.273V158H59.9781V149.273H61.8232ZM71.3416 152.328H69.4751C69.4411 152.087 69.3714 151.872 69.2663 151.685C69.1612 151.494 69.0263 151.332 68.8615 151.199C68.6967 151.065 68.5064 150.963 68.2905 150.892C68.0774 150.821 67.8459 150.786 67.5959 150.786C67.1442 150.786 66.7507 150.898 66.4155 151.122C66.0803 151.344 65.8203 151.668 65.6357 152.094C65.451 152.517 65.3587 153.031 65.3587 153.636C65.3587 154.259 65.451 154.781 65.6357 155.205C65.8232 155.628 66.0845 155.947 66.4197 156.163C66.755 156.379 67.1428 156.487 67.5831 156.487C67.8303 156.487 68.0589 156.455 68.2692 156.389C68.4822 156.324 68.6712 156.229 68.8359 156.104C69.0007 155.976 69.1371 155.821 69.245 155.639C69.3558 155.457 69.4325 155.25 69.4751 155.017L71.3416 155.026C71.2933 155.426 71.1726 155.812 70.9794 156.185C70.7891 156.554 70.532 156.885 70.2081 157.178C69.8871 157.467 69.5036 157.697 69.0575 157.868C68.6143 158.036 68.1129 158.119 67.5533 158.119C66.7749 158.119 66.0788 157.943 65.4652 157.591C64.8544 157.239 64.3714 156.729 64.0163 156.061C63.6641 155.393 63.4879 154.585 63.4879 153.636C63.4879 152.685 63.6669 151.875 64.0249 151.207C64.3828 150.54 64.8686 150.031 65.4822 149.682C66.0959 149.33 66.7862 149.153 67.5533 149.153C68.0589 149.153 68.5277 149.224 68.9595 149.366C69.3942 149.509 69.7791 149.716 70.1143 149.989C70.4496 150.259 70.7223 150.589 70.9325 150.982C71.1456 151.374 71.282 151.822 71.3416 152.328ZM80.9847 153.636C80.9847 154.588 80.8043 155.398 80.4435 156.065C80.0855 156.733 79.5969 157.243 78.9776 157.595C78.3611 157.945 77.6679 158.119 76.898 158.119C76.1224 158.119 75.4264 157.943 74.8099 157.591C74.1935 157.239 73.7062 156.729 73.3483 156.061C72.9903 155.393 72.8114 154.585 72.8114 153.636C72.8114 152.685 72.9903 151.875 73.3483 151.207C73.7062 150.54 74.1935 150.031 74.8099 149.682C75.4264 149.33 76.1224 149.153 76.898 149.153C77.6679 149.153 78.3611 149.33 78.9776 149.682C79.5969 150.031 80.0855 150.54 80.4435 151.207C80.8043 151.875 80.9847 152.685 80.9847 153.636ZM79.1139 153.636C79.1139 153.02 79.0216 152.5 78.8369 152.077C78.6551 151.653 78.398 151.332 78.0656 151.114C77.7332 150.895 77.344 150.786 76.898 150.786C76.452 150.786 76.0628 150.895 75.7304 151.114C75.398 151.332 75.1395 151.653 74.9548 152.077C74.773 152.5 74.6821 153.02 74.6821 153.636C74.6821 154.253 74.773 154.773 74.9548 155.196C75.1395 155.619 75.398 155.94 75.7304 156.159C76.0628 156.378 76.452 156.487 76.898 156.487C77.344 156.487 77.7332 156.378 78.0656 156.159C78.398 155.94 78.6551 155.619 78.8369 155.196C79.0216 154.773 79.1139 154.253 79.1139 153.636ZM91.5158 152.094C91.4561 151.886 91.3723 151.703 91.2643 151.544C91.1564 151.382 91.0243 151.246 90.868 151.135C90.7146 151.021 90.5385 150.935 90.3396 150.875C90.1436 150.815 89.9263 150.786 89.6876 150.786C89.2416 150.786 88.8496 150.896 88.5115 151.118C88.1763 151.339 87.9149 151.662 87.7274 152.085C87.5399 152.506 87.4462 153.02 87.4462 153.628C87.4462 154.236 87.5385 154.753 87.7232 155.179C87.9078 155.605 88.1692 155.93 88.5072 156.155C88.8453 156.376 89.2445 156.487 89.7047 156.487C90.1223 156.487 90.4788 156.413 90.7743 156.266C91.0726 156.115 91.2999 155.903 91.4561 155.631C91.6152 155.358 91.6947 155.036 91.6947 154.663L92.0697 154.719H89.8197V153.33H93.4717V154.429C93.4717 155.196 93.3098 155.855 92.9859 156.406C92.6621 156.955 92.2161 157.378 91.6479 157.676C91.0797 157.972 90.4291 158.119 89.6962 158.119C88.878 158.119 88.1592 157.939 87.5399 157.578C86.9206 157.214 86.4376 156.699 86.0911 156.031C85.7473 155.361 85.5754 154.565 85.5754 153.645C85.5754 152.937 85.6777 152.307 85.8822 151.753C86.0896 151.196 86.3794 150.724 86.7516 150.338C87.1237 149.952 87.557 149.658 88.0513 149.456C88.5456 149.254 89.0811 149.153 89.6578 149.153C90.1521 149.153 90.6124 149.226 91.0385 149.371C91.4646 149.513 91.8425 149.714 92.172 149.976C92.5044 150.237 92.7757 150.548 92.9859 150.909C93.1962 151.267 93.3311 151.662 93.3908 152.094H91.5158ZM95.1577 158V149.273H101.038V150.794H97.0029V152.874H100.736V154.395H97.0029V156.479H101.055V158H95.1577ZM102.805 158V149.273H106.249C106.908 149.273 107.47 149.391 107.936 149.626C108.405 149.859 108.761 150.19 109.006 150.619C109.253 151.045 109.376 151.547 109.376 152.124C109.376 152.703 109.251 153.202 109.001 153.619C108.751 154.034 108.389 154.352 107.915 154.574C107.443 154.795 106.872 154.906 106.202 154.906H103.896V153.423H105.903C106.256 153.423 106.548 153.375 106.781 153.278C107.014 153.182 107.188 153.037 107.301 152.844C107.418 152.651 107.476 152.411 107.476 152.124C107.476 151.834 107.418 151.589 107.301 151.391C107.188 151.192 107.013 151.041 106.777 150.939C106.544 150.834 106.25 150.781 105.895 150.781H104.651V158H102.805ZM107.518 154.028L109.688 158H107.651L105.528 154.028H107.518ZM112.485 158H110.507L113.52 149.273H115.898L118.907 158H116.929L114.743 151.267H114.675L112.485 158ZM112.361 154.57H117.032V156.01H112.361V154.57ZM120.257 158V149.273H122.102V156.479H125.844V158H120.257Z" fill="#393939"/>
<path d="M55.2172 60.7513H31.9951V88.6334H55.2172V60.7513Z" fill="#CCCCCC"/>
<path d="M20.1731 130.57H8.35095L7.08429 119.689H21.4398L20.1731 130.57Z" fill="#B0B0B0"/>
<path d="M43.9124 122.689L43.5135 128.545C43.4954 128.81 43.5304 129.076 43.6159 129.326C43.7015 129.575 43.8358 129.802 44.0097 129.991C44.1837 130.18 44.3933 130.327 44.6244 130.422C44.8556 130.517 45.103 130.558 45.3501 130.542L48.1515 130.36C48.2813 130.351 48.4078 130.312 48.522 130.245C48.6361 130.178 48.7352 130.085 48.812 129.973C48.8889 129.86 48.9418 129.731 48.9668 129.594C48.9919 129.457 48.9885 129.315 48.957 129.18L47.402 122.501L43.9124 122.689Z" fill="#E6E6E6"/>
<path d="M67.3448 126.152C70.6418 126.98 72.9971 128.157 74.5443 129.75C75.0953 130.313 75.8162 130.645 76.5759 130.685C77.5463 130.74 78.3397 130.623 78.936 130.337H78.9361C79.0888 130.265 79.2208 130.15 79.3182 130.005C79.4156 129.859 79.475 129.688 79.4902 129.51C79.5083 129.328 79.4809 129.145 79.4108 128.979C79.3407 128.813 79.2304 128.67 79.0915 128.565L71.2721 122.591L67.9507 124.018L67.1759 124.85C67.092 124.94 67.0287 125.05 66.991 125.17C66.9533 125.291 66.9422 125.42 66.9586 125.546C66.9749 125.672 67.0183 125.792 67.0854 125.898C67.1524 126.003 67.2412 126.09 67.3448 126.152H67.3448Z" fill="#E6E6E6"/>
<path d="M57.1982 30.5331L34.8473 30.3109C34.9035 26.8153 35.6609 23.3827 37.3166 20.311C38.404 18.2936 38.3805 16.0981 38.1184 14.2485C37.714 11.3941 38.6544 8.47359 40.744 6.65656C42.3409 5.26555 44.3564 4.54951 46.4108 4.64331L46.8448 4.66272C48.2584 4.72581 49.6347 5.16923 50.8472 5.95227C52.0597 6.73532 53.0696 7.83289 53.7841 9.14422C54.5103 10.5441 54.8032 12.1557 54.6204 13.7461C54.4787 15.2425 54.8177 16.7541 55.6106 18.2802C56.9786 21.6311 57.2748 25.9191 57.1982 30.5331Z" fill="#2F2E41"/>
<path d="M72.1521 122.903L67.7655 124.131L46.4046 74.1622L47.7397 122.903H43.3531C38.6657 99.9716 30.2029 73.5067 34.0077 65.1513L56.7036 63.7178L72.1521 122.903Z" fill="#D74500"/>
<path d="M46.2139 22.145C49.4792 22.145 52.1263 19.3027 52.1263 15.7965C52.1263 12.2903 49.4792 9.44794 46.2139 9.44794C42.9486 9.44794 40.3015 12.2903 40.3015 15.7965C40.3015 19.3027 42.9486 22.145 46.2139 22.145Z" fill="#FFB9B9"/>
<path d="M51.3634 27.4696L41.6365 26.8552C42.5898 24.5059 42.9706 22.2436 42.5901 20.0971H49.8376C49.8212 21.7452 50.585 24.5962 51.3634 27.4696Z" fill="#FFB9B9"/>
<path d="M57.4665 65.5608L36.1058 67.1993L38.299 26.5481L42.0181 25.4217L46.2139 26.4456L50.4098 24.1928L53.0799 25.217L57.4665 65.5608Z" fill="#D74500"/>
<path d="M39.7294 94.8462L25.1392 91.2623C29.4776 75.8142 37.2935 40.4735 34.7706 27.8792L42.3995 24.193L39.7294 94.8462Z" fill="#B0B0B0"/>
<path d="M32.6727 50.2015L27.1417 46.5153L31.8586 31.6812C32.3847 30.1505 33.3924 28.8653 34.7074 28.0478L36.2964 27.06L35.3428 42.0098L32.6727 50.2015Z" fill="#B0B0B0"/>
<path d="M70.1496 91.4671C65.5446 94.3279 54.0337 95.9226 48.9794 93.9246C48.6075 79.967 47.8782 40.4863 50.2191 23.7834L58.6109 27.4696L57.848 38.5284C53.8361 47.9885 65.4859 80.9384 70.1496 91.4671Z" fill="#B0B0B0"/>
<path d="M69.482 48.3585L64.3324 46.5153L57.4665 38.1187L58.6109 27.4696L70.0541 44.6722L69.482 48.3585Z" fill="#B0B0B0"/>
<path d="M53.3435 56.3296C53.4278 56.7266 53.6552 57.0716 53.976 57.2888C54.2967 57.5061 54.6846 57.5779 55.0546 57.4885L59.4259 56.4255L58.7941 53.4295L54.4228 54.4923C54.0528 54.5823 53.7312 54.8264 53.5288 55.171C53.3264 55.5156 53.2598 55.9323 53.3435 56.3296V56.3296Z" fill="#FFB9B9"/>
<path d="M51.3634 14.1581C48.0794 12.7081 44.836 12.6032 41.6366 13.9533L40.3015 8.83353H52.5077L51.3634 14.1581Z" fill="#2F2E41"/>
<path d="M57.2759 52.8638L59.7553 57.7788C63.9256 56.5299 67.5398 52.5926 71.0079 47.9488L70.0543 44.6721L64.1419 46.3105L57.2759 52.8638Z" fill="#B0B0B0"/>
<path d="M55.4639 42.7266H54.701C54.701 31.1407 52.4794 23.0666 50.3144 23.0666L50.1237 22.2474C52.0652 22.2474 53.3031 25.6078 53.9996 28.4269C54.9439 32.2486 55.4639 37.327 55.4639 42.7266Z" fill="#3F3D56"/>
<path d="M37.9175 39.8595H37.1546C37.1546 29.2486 39.3916 22.657 42.6855 22.657L42.4948 23.4761C40.2164 23.4761 37.9175 28.542 37.9175 39.8595Z" fill="#3F3D56"/>
<path d="M55.0825 44.9793C56.1358 44.9793 56.9897 44.0624 56.9897 42.9314C56.9897 41.8004 56.1358 40.8835 55.0825 40.8835C54.0292 40.8835 53.1753 41.8004 53.1753 42.9314C53.1753 44.0624 54.0292 44.9793 55.0825 44.9793Z" fill="#3F3D56"/>
<path d="M34.8659 44.7745H34.103C34.103 41.8386 35.6431 39.45 37.536 39.45V40.2691C36.0637 40.2691 34.8659 42.2902 34.8659 44.7745Z" fill="#3F3D56"/>
<path d="M40.9691 44.7745H40.2062C40.2062 42.2902 39.0084 40.2691 37.5361 40.2691V39.45C39.429 39.45 40.9691 41.8386 40.9691 44.7745Z" fill="#3F3D56"/>
<path d="M40.5877 45.7985C41.009 45.7985 41.3505 45.4317 41.3505 44.9793C41.3505 44.5269 41.009 44.1602 40.5877 44.1602C40.1663 44.1602 39.8248 44.5269 39.8248 44.9793C39.8248 45.4317 40.1663 45.7985 40.5877 45.7985Z" fill="#3F3D56"/>
<path d="M34.4846 45.7985C34.9059 45.7985 35.2475 45.4317 35.2475 44.9793C35.2475 44.5269 34.9059 44.1602 34.4846 44.1602C34.0632 44.1602 33.7217 44.5269 33.7217 44.9793C33.7217 45.4317 34.0632 45.7985 34.4846 45.7985Z" fill="#3F3D56"/>
<path d="M24.9484 37.4466L29.7083 38.3592L40.5876 54.9697L34.8078 53.5094L24.9484 37.4466Z" fill="#D74500"/>
<path d="M24.1041 37.2432C24.0315 37.2444 23.9606 37.2664 23.8988 37.3071C23.8369 37.3478 23.7864 37.4056 23.7524 37.4744C23.7185 37.5432 23.7023 37.6206 23.7058 37.6984C23.7092 37.7762 23.732 37.8516 23.7719 37.9167L33.9414 54.4845C33.9981 54.5771 34.0858 54.6429 34.1863 54.6682L38.9178 55.8636C38.9976 55.8837 39.0812 55.8774 39.1575 55.8453C39.2339 55.8133 39.2993 55.7571 39.3452 55.6842C39.3911 55.6113 39.4153 55.5251 39.4145 55.4371C39.4138 55.3491 39.3881 55.2635 39.341 55.1915L28.1755 38.1445C28.1453 38.098 28.1068 38.0584 28.0622 38.028C28.0177 37.9975 27.968 37.9768 27.916 37.967L24.1803 37.2506C24.1552 37.2457 24.1296 37.2433 24.1041 37.2432V37.2432Z" fill="#3F3D56"/>
<path d="M30.4478 49.0891L30.7305 52.1459L35.1904 51.6706C35.568 51.6303 35.9151 51.4307 36.1556 51.1156C36.396 50.8005 36.5101 50.3958 36.4726 49.9904C36.4351 49.5851 36.2492 49.2123 35.9558 48.9541C35.6624 48.6959 35.2854 48.5735 34.9079 48.6137L30.4478 49.0891Z" fill="#FFB9B9"/>
<path d="M26.5696 48.735C26.5761 49.7773 26.9659 50.7746 27.6542 51.5097C28.3425 52.2447 29.2735 52.6578 30.2442 52.659H30.9776L31.5115 47.8815L27.0909 46.1727L26.5696 48.735Z" fill="#B0B0B0"/>
<g filter="url(#filter0_d_122_149)">
<path d="M180.406 0H93.4282V49.1904H180.406V0Z" fill="#E6E6E6"/>
</g>
<path d="M95.9615 46.4702H177.872V2.72021H95.9615V46.4702Z" fill="white"/>
<path d="M131.428 9.06738H102.295V40.3498H131.428V9.06738Z" fill="#3F3D56"/>
<path d="M124.461 23.3484C124.928 23.3484 125.306 22.9425 125.306 22.4417C125.306 21.9409 124.928 21.5349 124.461 21.5349C123.995 21.5349 123.617 21.9409 123.617 22.4417C123.617 22.9425 123.995 23.3484 124.461 23.3484Z" fill="#D74500"/>
<path d="M121.295 20.1749C121.761 20.1749 122.139 19.7689 122.139 19.2681C122.139 18.7673 121.761 18.3614 121.295 18.3614C120.828 18.3614 120.45 18.7673 120.45 19.2681C120.45 19.7689 120.828 20.1749 121.295 20.1749Z" fill="#D74500"/>
<path d="M120.873 22.4417C120.562 22.4418 120.257 22.5344 119.993 22.7094C119.76 22.3331 119.486 21.988 119.177 21.6812C119.18 21.6328 119.184 21.5844 119.184 21.535C119.184 21.1792 119.087 20.8311 118.904 20.5343C118.721 20.2375 118.461 20.005 118.156 19.8659C117.851 19.7267 117.515 19.687 117.189 19.7518C116.863 19.8165 116.562 19.9828 116.324 20.23C115.872 20.1611 115.413 20.1568 114.959 20.2172C114.96 20.203 114.961 20.1892 114.961 20.1749C114.962 19.8713 114.891 19.5726 114.756 19.3059C114.621 19.0393 114.426 18.8133 114.188 18.6488C113.951 18.4842 113.678 18.3863 113.397 18.364C113.115 18.3417 112.832 18.3958 112.575 18.5213C112.317 18.6467 112.093 18.8395 111.923 19.0821C111.753 19.3246 111.643 19.6091 111.602 19.9094C111.561 20.2097 111.59 20.5163 111.688 20.801C111.786 21.0858 111.949 21.3395 112.162 21.5391C111.88 21.7991 111.623 22.0904 111.397 22.4081C111.189 22.2218 110.941 22.0922 110.676 22.0302C110.412 21.9682 110.137 21.9756 109.875 22.0519C109.613 22.1281 109.372 22.2709 109.173 22.4682C108.973 22.6655 108.821 22.9115 108.729 23.1853C108.637 23.4592 108.607 23.7528 108.643 24.0415C108.679 24.3301 108.779 24.6053 108.935 24.8436C109.09 25.082 109.297 25.2766 109.538 25.4109C109.779 25.5452 110.046 25.6153 110.317 25.6153L110.322 25.615C110.32 25.6904 110.317 25.7658 110.317 25.842C110.317 26.2983 110.368 26.7529 110.47 27.196C109.968 27.3988 109.522 27.7352 109.174 28.1736C108.827 28.6121 108.589 29.1382 108.482 29.7026C108.376 30.267 108.405 30.8512 108.566 31.4003C108.727 31.9494 109.016 32.4455 109.405 32.842C109.794 33.2385 110.27 33.5224 110.79 33.667C111.309 33.8116 111.853 33.8122 112.373 33.6688C112.892 33.5254 113.369 33.2426 113.759 32.8471C114.149 32.4515 114.438 31.9561 114.601 31.4073C115.776 31.6498 116.992 31.456 118.051 30.8578C118.159 31.1311 118.328 31.3716 118.543 31.5584C118.758 31.7452 119.012 31.8725 119.284 31.9292C119.555 31.9858 119.835 31.97 120.1 31.8832C120.364 31.7963 120.605 31.6412 120.8 31.4312C120.996 31.2213 121.14 30.963 121.221 30.6791C121.302 30.3952 121.316 30.0943 121.264 29.8029C121.211 29.5115 121.092 29.2384 120.918 29.0076C120.745 28.7769 120.52 28.5955 120.266 28.4794C120.632 27.7341 120.837 26.9102 120.867 26.0684L120.873 26.0687C121.32 26.0687 121.75 25.8776 122.067 25.5375C122.383 25.1974 122.561 24.7362 122.561 24.2552C122.561 23.7742 122.383 23.313 122.067 22.9729C121.75 22.6328 121.32 22.4417 120.873 22.4417V22.4417Z" fill="#D74500"/>
<path d="M120.45 8.38733H112.006V9.74743H120.45V8.38733Z" fill="#E6E6E6"/>
<path d="M168.583 9.06738H139.45V40.3498H168.583V9.06738Z" fill="#3F3D56"/>
<path d="M159.548 30.2849C159.758 30.2849 159.928 30.1023 159.928 29.8769C159.928 29.6516 159.758 29.4689 159.548 29.4689C159.338 29.4689 159.168 29.6516 159.168 29.8769C159.168 30.1023 159.338 30.2849 159.548 30.2849Z" fill="#D74500"/>
<path d="M158.123 28.8569C158.333 28.8569 158.503 28.6742 158.503 28.4489C158.503 28.2235 158.333 28.0408 158.123 28.0408C157.913 28.0408 157.743 28.2235 157.743 28.4489C157.743 28.6742 157.913 28.8569 158.123 28.8569Z" fill="#D74500"/>
<path d="M157.933 29.8769C157.793 29.877 157.656 29.9187 157.537 29.9974C157.432 29.8281 157.309 29.6728 157.17 29.5347C157.171 29.513 157.173 29.4911 157.173 29.4689C157.173 29.3088 157.129 29.1522 157.047 29.0186C156.965 28.8851 156.848 28.7804 156.71 28.7178C156.573 28.6552 156.422 28.6373 156.275 28.6665C156.129 28.6956 155.993 28.7705 155.886 28.8817C155.682 28.8507 155.476 28.8487 155.272 28.8759C155.272 28.8695 155.273 28.8633 155.273 28.8569C155.273 28.7203 155.241 28.5858 155.18 28.4658C155.12 28.3459 155.032 28.2442 154.925 28.1701C154.818 28.0961 154.696 28.052 154.569 28.042C154.442 28.032 154.315 28.0563 154.199 28.1128C154.083 28.1692 153.982 28.256 153.906 28.3651C153.829 28.4743 153.779 28.6023 153.761 28.7374C153.742 28.8726 153.756 29.0105 153.8 29.1386C153.844 29.2668 153.917 29.381 154.013 29.4708C153.886 29.5878 153.771 29.7189 153.669 29.8618C153.575 29.778 153.464 29.7197 153.345 29.6918C153.225 29.6639 153.102 29.6672 152.984 29.7015C152.866 29.7358 152.758 29.8001 152.668 29.8889C152.578 29.9777 152.51 30.0883 152.468 30.2116C152.427 30.3348 152.413 30.467 152.43 30.5969C152.446 30.7267 152.491 30.8506 152.561 30.9578C152.631 31.0651 152.724 31.1526 152.832 31.2131C152.941 31.2735 153.061 31.3051 153.183 31.3051L153.185 31.3049C153.184 31.3389 153.183 31.3728 153.183 31.4071C153.183 31.6124 153.206 31.817 153.252 32.0164C153.026 32.1076 152.825 32.259 152.669 32.4563C152.512 32.6536 152.405 32.8904 152.357 33.1443C152.309 33.3983 152.322 33.6612 152.395 33.9083C152.468 34.1554 152.598 34.3787 152.773 34.5571C152.948 34.7355 153.162 34.8632 153.396 34.9283C153.629 34.9934 153.874 34.9937 154.108 34.9291C154.342 34.8646 154.556 34.7374 154.732 34.5594C154.907 34.3814 155.038 34.1584 155.111 33.9115C155.639 34.0206 156.187 33.9334 156.663 33.6642C156.712 33.7872 156.788 33.8954 156.885 33.9795C156.981 34.0635 157.096 34.1208 157.218 34.1463C157.34 34.1718 157.466 34.1647 157.585 34.1256C157.704 34.0865 157.812 34.0167 157.9 33.9222C157.988 33.8278 158.053 33.7116 158.09 33.5838C158.126 33.456 158.133 33.3206 158.109 33.1895C158.085 33.0583 158.032 32.9354 157.954 32.8316C157.875 32.7278 157.774 32.6461 157.66 32.5939C157.824 32.2585 157.917 31.8878 157.93 31.5089L157.933 31.5091C158.134 31.5091 158.328 31.4231 158.47 31.2701C158.613 31.117 158.693 30.9095 158.693 30.693C158.693 30.4766 158.613 30.269 158.47 30.116C158.328 29.9629 158.134 29.877 157.933 29.877V29.8769Z" fill="#D74500"/>
<path d="M162.529 22.5418C162.739 22.5418 162.909 22.3591 162.909 22.1338C162.909 21.9084 162.739 21.7258 162.529 21.7258C162.319 21.7258 162.149 21.9084 162.149 22.1338C162.149 22.3591 162.319 22.5418 162.529 22.5418Z" fill="#D74500"/>
<path d="M163.423 20.6819C163.633 20.6819 163.803 20.4992 163.803 20.2738C163.803 20.0485 163.633 19.8658 163.423 19.8658C163.213 19.8658 163.043 20.0485 163.043 20.2738C163.043 20.4992 163.213 20.6819 163.423 20.6819Z" fill="#D74500"/>
<path d="M162.091 20.4646C162.053 20.3201 161.979 20.1897 161.876 20.088C161.999 19.9337 162.105 19.7642 162.191 19.5831C162.211 19.5789 162.231 19.5745 162.251 19.5685C162.395 19.5252 162.523 19.4375 162.621 19.3163C162.718 19.1951 162.78 19.0458 162.799 18.8869C162.818 18.7281 162.793 18.5668 162.727 18.4232C162.661 18.2795 162.557 18.1599 162.429 18.0791C162.401 17.8604 162.347 17.6465 162.267 17.443C162.273 17.4414 162.279 17.4405 162.285 17.4388C162.407 17.4019 162.519 17.3326 162.61 17.2373C162.701 17.1419 162.769 17.0235 162.806 16.893C162.843 16.7624 162.85 16.6239 162.824 16.49C162.799 16.3562 162.743 16.2313 162.661 16.1269C162.579 16.0225 162.474 15.9419 162.355 15.8924C162.236 15.8429 162.108 15.8262 161.982 15.8437C161.856 15.8613 161.736 15.9125 161.633 15.9928C161.53 16.0731 161.447 16.1799 161.393 16.3033C161.254 16.2035 161.105 16.1198 160.949 16.0534C160.999 15.9337 161.021 15.803 161.014 15.6722C161.006 15.5413 160.97 15.4144 160.907 15.3019C160.844 15.1895 160.757 15.0949 160.654 15.0262C160.55 14.9575 160.432 14.9167 160.31 14.9072C160.188 14.8977 160.066 14.9198 159.954 14.9717C159.842 15.0236 159.743 15.1036 159.666 15.2052C159.589 15.3067 159.536 15.4267 159.511 15.555C159.486 15.6833 159.49 15.8162 159.524 15.9423L159.524 15.9447C159.494 15.9526 159.463 15.9607 159.432 15.9699C159.248 16.0256 159.071 16.1049 158.905 16.2061C158.762 15.9974 158.571 15.8312 158.352 15.7229C158.133 15.6147 157.892 15.5681 157.651 15.5875C157.41 15.6068 157.178 15.6915 156.976 15.8336C156.775 15.9756 156.61 16.1705 156.497 16.3997C156.385 16.629 156.328 16.8852 156.333 17.1442C156.338 17.4033 156.404 17.6568 156.526 17.8809C156.647 18.1049 156.819 18.2923 157.026 18.4253C157.233 18.5583 157.468 18.6326 157.71 18.6413C157.755 19.2173 157.982 19.7595 158.352 20.1789C158.255 20.2625 158.179 20.3704 158.13 20.4932C158.08 20.6159 158.06 20.7497 158.07 20.8828C158.081 21.016 158.121 21.1444 158.188 21.2568C158.256 21.3692 158.348 21.4621 158.456 21.5274C158.565 21.5928 158.687 21.6285 158.811 21.6314C158.935 21.6344 159.059 21.6045 159.17 21.5445C159.281 21.4844 159.376 21.3959 159.448 21.2869C159.52 21.1778 159.566 21.0515 159.582 20.919C159.927 20.9982 160.284 20.9932 160.628 20.9045L160.628 20.907C160.655 21.0102 160.701 21.1067 160.763 21.191C160.824 21.2753 160.901 21.3456 160.988 21.3981C161.075 21.4505 161.171 21.4841 161.27 21.4967C161.369 21.5094 161.47 21.5009 161.566 21.4719C161.662 21.4428 161.752 21.3937 161.83 21.3273C161.909 21.261 161.974 21.1787 162.023 21.0851C162.072 20.9916 162.103 20.8886 162.115 20.7821C162.126 20.6757 162.119 20.5678 162.091 20.4646V20.4646Z" fill="#D74500"/>
<path d="M147.811 16.9971C148.021 16.9971 148.191 16.8144 148.191 16.5891C148.191 16.3637 148.021 16.181 147.811 16.181C147.601 16.181 147.431 16.3637 147.431 16.5891C147.431 16.8144 147.601 16.9971 147.811 16.9971Z" fill="#D74500"/>
<path d="M145.868 17.1643C146.078 17.1643 146.248 16.9816 146.248 16.7562C146.248 16.5309 146.078 16.3482 145.868 16.3482C145.658 16.3482 145.488 16.5309 145.488 16.7562C145.488 16.9816 145.658 17.1643 145.868 17.1643Z" fill="#D74500"/>
<path d="M146.722 17.8698C146.628 17.9807 146.564 18.1175 146.538 18.265C146.351 18.234 146.161 18.227 145.973 18.2442C145.959 18.2282 145.945 18.2123 145.929 18.1973C145.819 18.0893 145.682 18.0184 145.535 17.9936C145.387 17.9687 145.237 17.991 145.101 18.0576C144.965 18.1242 144.851 18.2322 144.772 18.3681C144.693 18.5041 144.654 18.6619 144.658 18.8219C144.499 18.9624 144.359 19.1248 144.24 19.3049C144.236 19.3005 144.232 19.2957 144.227 19.2914C144.134 19.1991 144.02 19.1337 143.896 19.101C143.773 19.0683 143.643 19.0694 143.52 19.1043C143.397 19.1391 143.285 19.2066 143.192 19.3004C143.1 19.3942 143.031 19.5115 142.991 19.6414C142.952 19.7713 142.944 19.9098 142.967 20.044C142.991 20.1783 143.045 20.304 143.126 20.4098C143.206 20.5156 143.31 20.5979 143.428 20.6494C143.546 20.7008 143.674 20.7196 143.8 20.7042C143.795 20.884 143.807 21.0639 143.837 21.2409C143.716 21.2588 143.601 21.3076 143.502 21.3834C143.402 21.4591 143.321 21.5595 143.265 21.676C143.209 21.7926 143.18 21.9218 143.181 22.0529C143.181 22.1839 143.211 22.3129 143.268 22.4289C143.325 22.5449 143.407 22.6445 143.507 22.7193C143.607 22.7941 143.723 22.8418 143.844 22.8586C143.965 22.8753 144.088 22.8605 144.202 22.8154C144.317 22.7702 144.42 22.6962 144.502 22.5994L144.504 22.5974C144.526 22.6212 144.549 22.6451 144.572 22.6682C144.713 22.8066 144.87 22.9262 145.038 23.0244C144.948 23.2651 144.917 23.5262 144.947 23.7833C144.977 24.0404 145.068 24.285 145.21 24.4942C145.353 24.7035 145.542 24.8704 145.761 24.9794C145.98 25.0884 146.221 25.1359 146.462 25.1174C146.703 25.0989 146.935 25.015 147.137 24.8737C147.34 24.7323 147.505 24.5381 147.618 24.3092C147.732 24.0804 147.789 23.8244 147.785 23.5653C147.78 23.3062 147.715 23.0525 147.594 22.828C148.026 22.4823 148.335 21.9894 148.471 21.4301C148.588 21.4744 148.714 21.4871 148.837 21.4671C148.96 21.4471 149.077 21.395 149.177 21.3153C149.277 21.2356 149.357 21.1308 149.41 21.0101C149.463 20.8894 149.488 20.7565 149.483 20.6231C149.477 20.4896 149.441 20.3597 149.378 20.2447C149.314 20.1297 149.226 20.0332 149.119 19.9636C149.013 19.8939 148.893 19.8534 148.768 19.8455C148.644 19.8375 148.52 19.8625 148.407 19.9181C148.287 19.5614 148.095 19.2381 147.843 18.972L147.845 18.9702C147.912 18.8911 147.965 18.7985 147.999 18.6976C148.033 18.5968 148.048 18.4898 148.044 18.3826C148.039 18.2754 148.015 18.1703 147.973 18.0731C147.93 17.976 147.871 17.8888 147.797 17.8164C147.723 17.7441 147.637 17.6881 147.543 17.6517C147.449 17.6152 147.349 17.599 147.249 17.6039C147.15 17.6089 147.052 17.6349 146.961 17.6805C146.871 17.7261 146.79 17.7904 146.722 17.8698V17.8698Z" fill="#D74500"/>
<path d="M157.606 8.38733H149.161V9.74743H157.606V8.38733Z" fill="#E6E6E6"/>
<path d="M5.31493 115.664C8.35907 120.041 14.6781 120.502 14.6781 120.502C14.6781 120.502 16.0616 113.866 13.0175 109.488C9.97334 105.111 3.65432 104.65 3.65432 104.65C3.65432 104.65 2.2708 111.286 5.31493 115.664Z" fill="#B0B0B0"/>
<path d="M20.8225 117.309C18.8137 120.198 14.644 120.502 14.644 120.502C14.644 120.502 13.7311 116.123 15.7398 113.234C17.7485 110.346 21.9183 110.042 21.9183 110.042C21.9183 110.042 22.8312 114.421 20.8225 117.309Z" fill="#B0B0B0"/>
<path d="M109.684 130.492H0V131H109.684V130.492Z" fill="#3F3D56"/>
<defs>
<filter id="filter0_d_122_149" x="91.4282" y="0" width="94.9774" height="57.1904" filterUnits="userSpaceOnUse" color-interpolation-filters="sRGB">
<feFlood flood-opacity="0" result="BackgroundImageFix"/>
<feColorMatrix in="SourceAlpha" type="matrix" values="0 0 0 0 0 0 0 0 0 0 0 0 0 0 0 0 0 0 127 0" result="hardAlpha"/>
<feOffset dx="2" dy="4"/>
<feGaussianBlur stdDeviation="2"/>
<feComposite in2="hardAlpha" operator="out"/>
<feColorMatrix type="matrix" values="0 0 0 0 0 0 0 0 0 0 0 0 0 0 0 0 0 0 0.05 0"/>
<feBlend mode="normal" in2="BackgroundImageFix" result="effect1_dropShadow_122_149"/>
<feBlend mode="normal" in="SourceGraphic" in2="effect1_dropShadow_122_149" result="shape"/>
</filter>
</defs>
</svg>
