<svg width="244" height="40" viewBox="0 0 244 40" fill="none" xmlns="http://www.w3.org/2000/svg">
<g filter="url(#filter0_d_75_20)">
<mask id="path-1-inside-1_75_20" fill="white">
<path d="M5 9C5 6.79086 6.79086 5 9 5H229C231.209 5 233 6.79086 233 9V25C233 27.2091 231.209 29 229 29H9C6.79086 29 5 27.2091 5 25V9Z"/>
</mask>
<path d="M5 9C5 6.79086 6.79086 5 9 5H229C231.209 5 233 6.79086 233 9V25C233 27.2091 231.209 29 229 29H9C6.79086 29 5 27.2091 5 25V9Z" fill="white"/>
<path d="M5 5H233H5ZM234.3 25C234.3 27.9271 231.927 30.3 229 30.3H10.3C7.37289 30.3 5 27.9271 5 25C5 26.4912 6.79086 27.7 9 27.7H229C230.491 27.7 231.7 26.4912 231.7 25H234.3ZM5 29V5V29ZM229 5C231.927 5 234.3 7.37289 234.3 10.3V25C234.3 27.9271 231.927 30.3 229 30.3V27.7C230.491 27.7 231.7 26.4912 231.7 25V9C231.7 6.79086 230.491 5 229 5Z" fill="url(#paint0_linear_75_20)" mask="url(#path-1-inside-1_75_20)"/>
</g>
<path d="M11.5504 21V13.7273H13.3082V16.6463H16.174V13.7273H17.9283V21H16.174V18.0774H13.3082V21H11.5504ZM26.1452 17.3636C26.1452 18.1638 25.9914 18.8421 25.6836 19.3984C25.3758 19.9548 24.9592 20.3774 24.4336 20.6662C23.9104 20.955 23.3233 21.0994 22.6722 21.0994C22.0188 21.0994 21.4305 20.9538 20.9073 20.6626C20.3841 20.3714 19.9686 19.9489 19.6609 19.3949C19.3555 18.8385 19.2028 18.1615 19.2028 17.3636C19.2028 16.5634 19.3555 15.8852 19.6609 15.3288C19.9686 14.7725 20.3841 14.3499 20.9073 14.0611C21.4305 13.7723 22.0188 13.6278 22.6722 13.6278C23.3233 13.6278 23.9104 13.7723 24.4336 14.0611C24.9592 14.3499 25.3758 14.7725 25.6836 15.3288C25.9914 15.8852 26.1452 16.5634 26.1452 17.3636ZM24.3484 17.3636C24.3484 16.8902 24.2809 16.4901 24.146 16.1634C24.0134 15.8366 23.8216 15.5893 23.5707 15.4212C23.3221 15.2531 23.0226 15.169 22.6722 15.169C22.3242 15.169 22.0247 15.2531 21.7738 15.4212C21.5228 15.5893 21.3299 15.8366 21.195 16.1634C21.0624 16.4901 20.9961 16.8902 20.9961 17.3636C20.9961 17.8371 21.0624 18.2372 21.195 18.5639C21.3299 18.8906 21.5228 19.138 21.7738 19.3061C22.0247 19.4742 22.3242 19.5582 22.6722 19.5582C23.0226 19.5582 23.3221 19.4742 23.5707 19.3061C23.8216 19.138 24.0134 18.8906 24.146 18.5639C24.2809 18.2372 24.3484 17.8371 24.3484 17.3636ZM31.3526 15.9077C31.329 15.6473 31.2236 15.4448 31.0366 15.3004C30.8519 15.1536 30.5879 15.0803 30.2447 15.0803C30.0174 15.0803 29.828 15.1098 29.6765 15.169C29.525 15.2282 29.4113 15.3099 29.3356 15.4141C29.2598 15.5159 29.2208 15.633 29.2184 15.7656C29.2137 15.8745 29.235 15.9704 29.2823 16.0533C29.332 16.1361 29.4031 16.2095 29.4954 16.2734C29.5901 16.335 29.7037 16.3894 29.8363 16.4368C29.9689 16.4841 30.118 16.5256 30.2837 16.5611L30.9087 16.7031C31.2686 16.7812 31.5858 16.8854 31.8604 17.0156C32.1374 17.1458 32.3694 17.3009 32.5565 17.4808C32.7459 17.6607 32.8891 17.8679 32.9862 18.1023C33.0832 18.3366 33.1329 18.5994 33.1353 18.8906C33.1329 19.3499 33.0169 19.7441 32.7873 20.0732C32.5576 20.4022 32.2274 20.6544 31.7965 20.8295C31.368 21.0047 30.8507 21.0923 30.2447 21.0923C29.6362 21.0923 29.1059 21.0012 28.6538 20.8189C28.2016 20.6366 27.85 20.3596 27.5991 19.9879C27.3481 19.6162 27.2191 19.1463 27.212 18.5781H28.8952C28.9094 18.8125 28.9722 19.0078 29.0835 19.1641C29.1947 19.3203 29.3474 19.4387 29.5415 19.5192C29.738 19.5997 29.9653 19.6399 30.2234 19.6399C30.4601 19.6399 30.6613 19.608 30.8271 19.544C30.9951 19.4801 31.1242 19.3913 31.2141 19.2777C31.3041 19.1641 31.3503 19.0339 31.3526 18.8871C31.3503 18.7498 31.3076 18.6326 31.2248 18.5355C31.1419 18.4361 31.0141 18.3509 30.8413 18.2798C30.6708 18.2064 30.453 18.139 30.1879 18.0774L29.4279 17.8999C28.7982 17.7554 28.3022 17.5223 27.94 17.2003C27.5778 16.8759 27.3978 16.438 27.4002 15.8864C27.3978 15.4366 27.5186 15.0424 27.7624 14.7038C28.0063 14.3653 28.3436 14.1013 28.7745 13.9119C29.2054 13.7225 29.6966 13.6278 30.2482 13.6278C30.8117 13.6278 31.3005 13.7237 31.7148 13.9155C32.1315 14.1049 32.4547 14.3712 32.6843 14.7145C32.9139 15.0578 33.0311 15.4555 33.0359 15.9077H31.3526ZM34.2731 21V13.7273H37.2773C37.8219 13.7273 38.2918 13.8338 38.6871 14.0469C39.0849 14.2576 39.3915 14.5523 39.6069 14.9311C39.8223 15.3075 39.93 15.7455 39.93 16.245C39.93 16.7469 39.82 17.1861 39.5998 17.5625C39.382 17.9366 39.0707 18.2266 38.6658 18.4325C38.261 18.6385 37.7804 18.7415 37.2241 18.7415H35.3704V17.3565H36.8974C37.1625 17.3565 37.3839 17.3104 37.5614 17.218C37.7414 17.1257 37.8775 16.9967 37.9698 16.831C38.0621 16.6629 38.1083 16.4676 38.1083 16.245C38.1083 16.0201 38.0621 15.826 37.9698 15.6626C37.8775 15.4969 37.7414 15.3691 37.5614 15.2791C37.3815 15.1892 37.1602 15.1442 36.8974 15.1442H36.0309V21H34.2731ZM42.8043 13.7273V21H41.0465V13.7273H42.8043ZM43.9199 15.1548V13.7273H50.0669V15.1548H47.8617V21H46.1287V15.1548H43.9199ZM51.8404 21H49.9512L52.405 13.7273H54.7452L57.199 21H55.3098L53.6017 15.5597H53.5449L51.8404 21ZM51.5882 18.1378H55.5371V19.473H51.5882V18.1378ZM58.2321 21V13.7273H59.9899V19.5724H63.0154V21H58.2321ZM66.5739 21V13.7273H69.5781C70.1226 13.7273 70.5926 13.8255 70.9879 14.022C71.3857 14.2161 71.6922 14.4955 71.9077 14.8601C72.1231 15.2223 72.2308 15.652 72.2308 16.1491C72.2308 16.6534 72.1207 17.0819 71.9006 17.4347C71.6804 17.785 71.3679 18.0526 70.9631 18.2372C70.5582 18.4195 70.0788 18.5107 69.5249 18.5107H67.625V17.1257H69.1982C69.4633 17.1257 69.6847 17.0914 69.8622 17.0227C70.0421 16.9517 70.1783 16.8452 70.2706 16.7031C70.3629 16.5587 70.4091 16.3741 70.4091 16.1491C70.4091 15.9242 70.3629 15.7384 70.2706 15.5916C70.1783 15.4425 70.0421 15.3312 69.8622 15.2578C69.6823 15.1821 69.4609 15.1442 69.1982 15.1442H68.3317V21H66.5739ZM70.6683 17.6761L72.4794 21H70.5618L68.7862 17.6761H70.6683ZM73.445 21V13.7273H78.516V15.1548H75.2028V16.6463H78.2567V18.0774H75.2028V19.5724H78.516V21H73.445ZM79.8668 21V13.7273H84.8313V15.1548H81.6246V16.6463H84.5153V18.0774H81.6246V21H79.8668ZM85.9664 21V13.7273H91.0375V15.1548H87.7243V16.6463H90.7782V18.0774H87.7243V19.5724H91.0375V21H85.9664ZM92.3883 21V13.7273H95.3926C95.9371 13.7273 96.407 13.8255 96.8024 14.022C97.2001 14.2161 97.5067 14.4955 97.7221 14.8601C97.9376 15.2223 98.0453 15.652 98.0453 16.1491C98.0453 16.6534 97.9352 17.0819 97.715 17.4347C97.4949 17.785 97.1824 18.0526 96.7775 18.2372C96.3727 18.4195 95.8933 18.5107 95.3393 18.5107H93.4395V17.1257H95.0126C95.2778 17.1257 95.4991 17.0914 95.6767 17.0227C95.8566 16.9517 95.9927 16.8452 96.085 16.7031C96.1774 16.5587 96.2235 16.3741 96.2235 16.1491C96.2235 15.9242 96.1774 15.7384 96.085 15.5916C95.9927 15.4425 95.8566 15.3312 95.6767 15.2578C95.4967 15.1821 95.2754 15.1442 95.0126 15.1442H94.1461V21H92.3883ZM96.4828 17.6761L98.2939 21H96.3762L94.6007 17.6761H96.4828ZM99.2594 21V13.7273H104.33V15.1548H101.017V16.6463H104.071V18.0774H101.017V19.5724H104.33V21H99.2594ZM102.516 13.0739L101.809 12.25L101.106 13.0739H99.65V13.0277L101.188 11.4368H102.434L103.968 13.0277V13.0739H102.516ZM111.871 13.7273V21H110.379L107.485 16.8026H107.439V21H105.681V13.7273H107.194L110.056 17.9176H110.117V13.7273H111.871ZM119.828 16.3622H118.052C118.029 16.1799 117.98 16.0154 117.907 15.8686C117.833 15.7218 117.736 15.5964 117.615 15.4922C117.495 15.388 117.351 15.3087 117.186 15.2543C117.022 15.1974 116.841 15.169 116.642 15.169C116.29 15.169 115.985 15.2554 115.73 15.4283C115.476 15.6011 115.281 15.8509 115.144 16.1776C115.009 16.5043 114.941 16.8996 114.941 17.3636C114.941 17.8466 115.01 18.2514 115.147 18.5781C115.287 18.9025 115.482 19.1475 115.733 19.3132C115.987 19.4766 116.286 19.5582 116.632 19.5582C116.826 19.5582 117.002 19.5334 117.161 19.4837C117.322 19.4339 117.463 19.3617 117.583 19.267C117.707 19.17 117.807 19.0528 117.885 18.9155C117.966 18.7758 118.021 18.6184 118.052 18.4432L119.828 18.4538C119.797 18.7758 119.703 19.093 119.547 19.4055C119.393 19.718 119.181 20.0033 118.912 20.2614C118.642 20.517 118.313 20.7206 117.924 20.8722C117.538 21.0237 117.096 21.0994 116.596 21.0994C115.938 21.0994 115.349 20.955 114.828 20.6662C114.309 20.375 113.9 19.9512 113.599 19.3949C113.298 18.8385 113.148 18.1615 113.148 17.3636C113.148 16.5634 113.301 15.8852 113.606 15.3288C113.912 14.7725 114.325 14.3499 114.846 14.0611C115.366 13.7723 115.95 13.6278 116.596 13.6278C117.037 13.6278 117.444 13.6894 117.818 13.8125C118.192 13.9332 118.521 14.1108 118.805 14.3452C119.089 14.5772 119.32 14.8625 119.498 15.201C119.675 15.5395 119.785 15.9266 119.828 16.3622ZM122.841 13.7273V21H121.084V13.7273H122.841ZM125.768 21H123.879L126.333 13.7273H128.673L131.127 21H129.238L127.529 15.5597H127.473L125.768 21ZM125.516 18.1378H129.465V19.473H125.516V18.1378ZM140.748 13.7273V21H139.256L136.362 16.8026H136.316V21H134.558V13.7273H136.071L138.933 17.9176H138.994V13.7273H140.748ZM143.676 21H141.787L144.241 13.7273H146.581L149.035 21H147.146L145.438 15.5597H145.381L143.676 21ZM143.424 18.1378H147.373V19.473H143.424V18.1378ZM152.466 21V13.7273H155.499C156.044 13.7273 156.499 13.8042 156.866 13.9581C157.236 14.112 157.513 14.3274 157.697 14.6044C157.884 14.8814 157.978 15.2022 157.978 15.5668C157.978 15.8438 157.92 16.0911 157.804 16.3089C157.688 16.5244 157.528 16.7031 157.324 16.8452C157.121 16.9872 156.885 17.0866 156.618 17.1435V17.2145C156.911 17.2287 157.182 17.308 157.431 17.4524C157.682 17.5968 157.883 17.7981 158.035 18.0561C158.186 18.3118 158.262 18.6148 158.262 18.9652C158.262 19.3558 158.162 19.705 157.964 20.0128C157.765 20.3182 157.477 20.5597 157.101 20.7372C156.724 20.9124 156.267 21 155.73 21H152.466ZM154.224 19.5831H155.311C155.692 19.5831 155.973 19.5109 156.153 19.3665C156.335 19.2221 156.426 19.0208 156.426 18.7628C156.426 18.5758 156.382 18.4148 156.295 18.2798C156.207 18.1425 156.083 18.0372 155.922 17.9638C155.761 17.888 155.568 17.8501 155.343 17.8501H154.224V19.5831ZM154.224 16.7173H155.197C155.389 16.7173 155.559 16.6854 155.709 16.6214C155.858 16.5575 155.974 16.4652 156.057 16.3445C156.142 16.2237 156.184 16.0781 156.184 15.9077C156.184 15.6638 156.098 15.4721 155.925 15.3324C155.752 15.1927 155.519 15.1229 155.226 15.1229H154.224V16.7173ZM160.93 21H159.041L161.495 13.7273H163.835L166.289 21H164.4L162.692 15.5597H162.635L160.93 21ZM160.678 18.1378H164.627V19.473H160.678V18.1378ZM169.08 13.7273V21H167.322V13.7273H169.08ZM172.212 13.7273L173.54 16.0249H173.597L174.94 13.7273H176.907L174.712 17.3636L176.978 21H174.961L173.597 18.6776H173.54L172.177 21H170.174L172.429 17.3636L170.231 13.7273H172.212ZM179.639 21H177.75L180.204 13.7273H182.544L184.998 21H183.109L181.401 15.5597H181.344L179.639 21ZM179.387 18.1378H183.336V19.473H179.387V18.1378ZM188.719 21H186.031V13.7273H188.716C189.457 13.7273 190.095 13.8729 190.63 14.1641C191.167 14.4529 191.581 14.8696 191.873 15.4141C192.164 15.9562 192.309 16.6049 192.309 17.3601C192.309 18.1177 192.164 18.7687 191.873 19.3132C191.584 19.8577 191.171 20.2756 190.633 20.5668C190.096 20.8556 189.458 21 188.719 21ZM187.789 19.5014H188.652C189.059 19.5014 189.403 19.4328 189.685 19.2955C189.969 19.1558 190.183 18.9297 190.328 18.6172C190.475 18.3023 190.548 17.8833 190.548 17.3601C190.548 16.8369 190.475 16.4202 190.328 16.1101C190.181 15.7976 189.964 15.5727 189.678 15.4354C189.394 15.2957 189.043 15.2259 188.627 15.2259H187.789V19.5014ZM194.729 21H192.84L195.294 13.7273H197.634L200.088 21H198.199L196.49 15.5597H196.434L194.729 21ZM194.477 18.1378H198.426V19.473H194.477V18.1378Z" fill="url(#paint1_linear_75_20)"/>
<path d="M11.5504 21V13.7273H13.3082V16.6463H16.174V13.7273H17.9283V21H16.174V18.0774H13.3082V21H11.5504ZM26.1452 17.3636C26.1452 18.1638 25.9914 18.8421 25.6836 19.3984C25.3758 19.9548 24.9592 20.3774 24.4336 20.6662C23.9104 20.955 23.3233 21.0994 22.6722 21.0994C22.0188 21.0994 21.4305 20.9538 20.9073 20.6626C20.3841 20.3714 19.9686 19.9489 19.6609 19.3949C19.3555 18.8385 19.2028 18.1615 19.2028 17.3636C19.2028 16.5634 19.3555 15.8852 19.6609 15.3288C19.9686 14.7725 20.3841 14.3499 20.9073 14.0611C21.4305 13.7723 22.0188 13.6278 22.6722 13.6278C23.3233 13.6278 23.9104 13.7723 24.4336 14.0611C24.9592 14.3499 25.3758 14.7725 25.6836 15.3288C25.9914 15.8852 26.1452 16.5634 26.1452 17.3636ZM24.3484 17.3636C24.3484 16.8902 24.2809 16.4901 24.146 16.1634C24.0134 15.8366 23.8216 15.5893 23.5707 15.4212C23.3221 15.2531 23.0226 15.169 22.6722 15.169C22.3242 15.169 22.0247 15.2531 21.7738 15.4212C21.5228 15.5893 21.3299 15.8366 21.195 16.1634C21.0624 16.4901 20.9961 16.8902 20.9961 17.3636C20.9961 17.8371 21.0624 18.2372 21.195 18.5639C21.3299 18.8906 21.5228 19.138 21.7738 19.3061C22.0247 19.4742 22.3242 19.5582 22.6722 19.5582C23.0226 19.5582 23.3221 19.4742 23.5707 19.3061C23.8216 19.138 24.0134 18.8906 24.146 18.5639C24.2809 18.2372 24.3484 17.8371 24.3484 17.3636ZM31.3526 15.9077C31.329 15.6473 31.2236 15.4448 31.0366 15.3004C30.8519 15.1536 30.5879 15.0803 30.2447 15.0803C30.0174 15.0803 29.828 15.1098 29.6765 15.169C29.525 15.2282 29.4113 15.3099 29.3356 15.4141C29.2598 15.5159 29.2208 15.633 29.2184 15.7656C29.2137 15.8745 29.235 15.9704 29.2823 16.0533C29.332 16.1361 29.4031 16.2095 29.4954 16.2734C29.5901 16.335 29.7037 16.3894 29.8363 16.4368C29.9689 16.4841 30.118 16.5256 30.2837 16.5611L30.9087 16.7031C31.2686 16.7812 31.5858 16.8854 31.8604 17.0156C32.1374 17.1458 32.3694 17.3009 32.5565 17.4808C32.7459 17.6607 32.8891 17.8679 32.9862 18.1023C33.0832 18.3366 33.1329 18.5994 33.1353 18.8906C33.1329 19.3499 33.0169 19.7441 32.7873 20.0732C32.5576 20.4022 32.2274 20.6544 31.7965 20.8295C31.368 21.0047 30.8507 21.0923 30.2447 21.0923C29.6362 21.0923 29.1059 21.0012 28.6538 20.8189C28.2016 20.6366 27.85 20.3596 27.5991 19.9879C27.3481 19.6162 27.2191 19.1463 27.212 18.5781H28.8952C28.9094 18.8125 28.9722 19.0078 29.0835 19.1641C29.1947 19.3203 29.3474 19.4387 29.5415 19.5192C29.738 19.5997 29.9653 19.6399 30.2234 19.6399C30.4601 19.6399 30.6613 19.608 30.8271 19.544C30.9951 19.4801 31.1242 19.3913 31.2141 19.2777C31.3041 19.1641 31.3503 19.0339 31.3526 18.8871C31.3503 18.7498 31.3076 18.6326 31.2248 18.5355C31.1419 18.4361 31.0141 18.3509 30.8413 18.2798C30.6708 18.2064 30.453 18.139 30.1879 18.0774L29.4279 17.8999C28.7982 17.7554 28.3022 17.5223 27.94 17.2003C27.5778 16.8759 27.3978 16.438 27.4002 15.8864C27.3978 15.4366 27.5186 15.0424 27.7624 14.7038C28.0063 14.3653 28.3436 14.1013 28.7745 13.9119C29.2054 13.7225 29.6966 13.6278 30.2482 13.6278C30.8117 13.6278 31.3005 13.7237 31.7148 13.9155C32.1315 14.1049 32.4547 14.3712 32.6843 14.7145C32.9139 15.0578 33.0311 15.4555 33.0359 15.9077H31.3526ZM34.2731 21V13.7273H37.2773C37.8219 13.7273 38.2918 13.8338 38.6871 14.0469C39.0849 14.2576 39.3915 14.5523 39.6069 14.9311C39.8223 15.3075 39.93 15.7455 39.93 16.245C39.93 16.7469 39.82 17.1861 39.5998 17.5625C39.382 17.9366 39.0707 18.2266 38.6658 18.4325C38.261 18.6385 37.7804 18.7415 37.2241 18.7415H35.3704V17.3565H36.8974C37.1625 17.3565 37.3839 17.3104 37.5614 17.218C37.7414 17.1257 37.8775 16.9967 37.9698 16.831C38.0621 16.6629 38.1083 16.4676 38.1083 16.245C38.1083 16.0201 38.0621 15.826 37.9698 15.6626C37.8775 15.4969 37.7414 15.3691 37.5614 15.2791C37.3815 15.1892 37.1602 15.1442 36.8974 15.1442H36.0309V21H34.2731ZM42.8043 13.7273V21H41.0465V13.7273H42.8043ZM43.9199 15.1548V13.7273H50.0669V15.1548H47.8617V21H46.1287V15.1548H43.9199ZM51.8404 21H49.9512L52.405 13.7273H54.7452L57.199 21H55.3098L53.6017 15.5597H53.5449L51.8404 21ZM51.5882 18.1378H55.5371V19.473H51.5882V18.1378ZM58.2321 21V13.7273H59.9899V19.5724H63.0154V21H58.2321ZM66.5739 21V13.7273H69.5781C70.1226 13.7273 70.5926 13.8255 70.9879 14.022C71.3857 14.2161 71.6922 14.4955 71.9077 14.8601C72.1231 15.2223 72.2308 15.652 72.2308 16.1491C72.2308 16.6534 72.1207 17.0819 71.9006 17.4347C71.6804 17.785 71.3679 18.0526 70.9631 18.2372C70.5582 18.4195 70.0788 18.5107 69.5249 18.5107H67.625V17.1257H69.1982C69.4633 17.1257 69.6847 17.0914 69.8622 17.0227C70.0421 16.9517 70.1783 16.8452 70.2706 16.7031C70.3629 16.5587 70.4091 16.3741 70.4091 16.1491C70.4091 15.9242 70.3629 15.7384 70.2706 15.5916C70.1783 15.4425 70.0421 15.3312 69.8622 15.2578C69.6823 15.1821 69.4609 15.1442 69.1982 15.1442H68.3317V21H66.5739ZM70.6683 17.6761L72.4794 21H70.5618L68.7862 17.6761H70.6683ZM73.445 21V13.7273H78.516V15.1548H75.2028V16.6463H78.2567V18.0774H75.2028V19.5724H78.516V21H73.445ZM79.8668 21V13.7273H84.8313V15.1548H81.6246V16.6463H84.5153V18.0774H81.6246V21H79.8668ZM85.9664 21V13.7273H91.0375V15.1548H87.7243V16.6463H90.7782V18.0774H87.7243V19.5724H91.0375V21H85.9664ZM92.3883 21V13.7273H95.3926C95.9371 13.7273 96.407 13.8255 96.8024 14.022C97.2001 14.2161 97.5067 14.4955 97.7221 14.8601C97.9376 15.2223 98.0453 15.652 98.0453 16.1491C98.0453 16.6534 97.9352 17.0819 97.715 17.4347C97.4949 17.785 97.1824 18.0526 96.7775 18.2372C96.3727 18.4195 95.8933 18.5107 95.3393 18.5107H93.4395V17.1257H95.0126C95.2778 17.1257 95.4991 17.0914 95.6767 17.0227C95.8566 16.9517 95.9927 16.8452 96.085 16.7031C96.1774 16.5587 96.2235 16.3741 96.2235 16.1491C96.2235 15.9242 96.1774 15.7384 96.085 15.5916C95.9927 15.4425 95.8566 15.3312 95.6767 15.2578C95.4967 15.1821 95.2754 15.1442 95.0126 15.1442H94.1461V21H92.3883ZM96.4828 17.6761L98.2939 21H96.3762L94.6007 17.6761H96.4828ZM99.2594 21V13.7273H104.33V15.1548H101.017V16.6463H104.071V18.0774H101.017V19.5724H104.33V21H99.2594ZM102.516 13.0739L101.809 12.25L101.106 13.0739H99.65V13.0277L101.188 11.4368H102.434L103.968 13.0277V13.0739H102.516ZM111.871 13.7273V21H110.379L107.485 16.8026H107.439V21H105.681V13.7273H107.194L110.056 17.9176H110.117V13.7273H111.871ZM119.828 16.3622H118.052C118.029 16.1799 117.98 16.0154 117.907 15.8686C117.833 15.7218 117.736 15.5964 117.615 15.4922C117.495 15.388 117.351 15.3087 117.186 15.2543C117.022 15.1974 116.841 15.169 116.642 15.169C116.29 15.169 115.985 15.2554 115.73 15.4283C115.476 15.6011 115.281 15.8509 115.144 16.1776C115.009 16.5043 114.941 16.8996 114.941 17.3636C114.941 17.8466 115.01 18.2514 115.147 18.5781C115.287 18.9025 115.482 19.1475 115.733 19.3132C115.987 19.4766 116.286 19.5582 116.632 19.5582C116.826 19.5582 117.002 19.5334 117.161 19.4837C117.322 19.4339 117.463 19.3617 117.583 19.267C117.707 19.17 117.807 19.0528 117.885 18.9155C117.966 18.7758 118.021 18.6184 118.052 18.4432L119.828 18.4538C119.797 18.7758 119.703 19.093 119.547 19.4055C119.393 19.718 119.181 20.0033 118.912 20.2614C118.642 20.517 118.313 20.7206 117.924 20.8722C117.538 21.0237 117.096 21.0994 116.596 21.0994C115.938 21.0994 115.349 20.955 114.828 20.6662C114.309 20.375 113.9 19.9512 113.599 19.3949C113.298 18.8385 113.148 18.1615 113.148 17.3636C113.148 16.5634 113.301 15.8852 113.606 15.3288C113.912 14.7725 114.325 14.3499 114.846 14.0611C115.366 13.7723 115.95 13.6278 116.596 13.6278C117.037 13.6278 117.444 13.6894 117.818 13.8125C118.192 13.9332 118.521 14.1108 118.805 14.3452C119.089 14.5772 119.32 14.8625 119.498 15.201C119.675 15.5395 119.785 15.9266 119.828 16.3622ZM122.841 13.7273V21H121.084V13.7273H122.841ZM125.768 21H123.879L126.333 13.7273H128.673L131.127 21H129.238L127.529 15.5597H127.473L125.768 21ZM125.516 18.1378H129.465V19.473H125.516V18.1378ZM140.748 13.7273V21H139.256L136.362 16.8026H136.316V21H134.558V13.7273H136.071L138.933 17.9176H138.994V13.7273H140.748ZM143.676 21H141.787L144.241 13.7273H146.581L149.035 21H147.146L145.438 15.5597H145.381L143.676 21ZM143.424 18.1378H147.373V19.473H143.424V18.1378ZM152.466 21V13.7273H155.499C156.044 13.7273 156.499 13.8042 156.866 13.9581C157.236 14.112 157.513 14.3274 157.697 14.6044C157.884 14.8814 157.978 15.2022 157.978 15.5668C157.978 15.8438 157.92 16.0911 157.804 16.3089C157.688 16.5244 157.528 16.7031 157.324 16.8452C157.121 16.9872 156.885 17.0866 156.618 17.1435V17.2145C156.911 17.2287 157.182 17.308 157.431 17.4524C157.682 17.5968 157.883 17.7981 158.035 18.0561C158.186 18.3118 158.262 18.6148 158.262 18.9652C158.262 19.3558 158.162 19.705 157.964 20.0128C157.765 20.3182 157.477 20.5597 157.101 20.7372C156.724 20.9124 156.267 21 155.73 21H152.466ZM154.224 19.5831H155.311C155.692 19.5831 155.973 19.5109 156.153 19.3665C156.335 19.2221 156.426 19.0208 156.426 18.7628C156.426 18.5758 156.382 18.4148 156.295 18.2798C156.207 18.1425 156.083 18.0372 155.922 17.9638C155.761 17.888 155.568 17.8501 155.343 17.8501H154.224V19.5831ZM154.224 16.7173H155.197C155.389 16.7173 155.559 16.6854 155.709 16.6214C155.858 16.5575 155.974 16.4652 156.057 16.3445C156.142 16.2237 156.184 16.0781 156.184 15.9077C156.184 15.6638 156.098 15.4721 155.925 15.3324C155.752 15.1927 155.519 15.1229 155.226 15.1229H154.224V16.7173ZM160.93 21H159.041L161.495 13.7273H163.835L166.289 21H164.4L162.692 15.5597H162.635L160.93 21ZM160.678 18.1378H164.627V19.473H160.678V18.1378ZM169.08 13.7273V21H167.322V13.7273H169.08ZM172.212 13.7273L173.54 16.0249H173.597L174.94 13.7273H176.907L174.712 17.3636L176.978 21H174.961L173.597 18.6776H173.54L172.177 21H170.174L172.429 17.3636L170.231 13.7273H172.212ZM179.639 21H177.75L180.204 13.7273H182.544L184.998 21H183.109L181.401 15.5597H181.344L179.639 21ZM179.387 18.1378H183.336V19.473H179.387V18.1378ZM188.719 21H186.031V13.7273H188.716C189.457 13.7273 190.095 13.8729 190.63 14.1641C191.167 14.4529 191.581 14.8696 191.873 15.4141C192.164 15.9562 192.309 16.6049 192.309 17.3601C192.309 18.1177 192.164 18.7687 191.873 19.3132C191.584 19.8577 191.171 20.2756 190.633 20.5668C190.096 20.8556 189.458 21 188.719 21ZM187.789 19.5014H188.652C189.059 19.5014 189.403 19.4328 189.685 19.2955C189.969 19.1558 190.183 18.9297 190.328 18.6172C190.475 18.3023 190.548 17.8833 190.548 17.3601C190.548 16.8369 190.475 16.4202 190.328 16.1101C190.181 15.7976 189.964 15.5727 189.678 15.4354C189.394 15.2957 189.043 15.2259 188.627 15.2259H187.789V19.5014ZM194.729 21H192.84L195.294 13.7273H197.634L200.088 21H198.199L196.49 15.5597H196.434L194.729 21ZM194.477 18.1378H198.426V19.473H194.477V18.1378Z" fill="url(#paint2_linear_75_20)" fill-opacity="0.15"/>
<path fill-rule="evenodd" clip-rule="evenodd" d="M208 12.0851L215.635 8L223 12.0851V19.9149L215.635 24L208 19.9149V12.0851ZM213.569 14.383V11.4894H216.713C217.251 11.4894 217.251 11.8298 217.251 12.0851V14.1277H220.395V17.1064C220.395 17.5319 220.305 17.7872 219.856 17.7872H217.251V20.6809H214.108C213.964 20.6809 213.569 20.6809 213.569 20.1702V17.7872H210.695C210.725 16.9078 210.695 15.4043 210.695 14.9787C210.695 14.5532 210.695 14.383 211.054 14.383H213.569Z" fill="url(#paint3_linear_75_20)"/>
<defs>
<filter id="filter0_d_75_20" x="0" y="0" width="244" height="40" filterUnits="userSpaceOnUse" color-interpolation-filters="sRGB">
<feFlood flood-opacity="0" result="BackgroundImageFix"/>
<feColorMatrix in="SourceAlpha" type="matrix" values="0 0 0 0 0 0 0 0 0 0 0 0 0 0 0 0 0 0 127 0" result="hardAlpha"/>
<feOffset dx="3" dy="3"/>
<feGaussianBlur stdDeviation="4"/>
<feComposite in2="hardAlpha" operator="out"/>
<feColorMatrix type="matrix" values="0 0 0 0 0.316667 0 0 0 0 0.316667 0 0 0 0 0.316667 0 0 0 0.2 0"/>
<feBlend mode="normal" in2="BackgroundImageFix" result="effect1_dropShadow_75_20"/>
<feBlend mode="normal" in="SourceGraphic" in2="effect1_dropShadow_75_20" result="shape"/>
</filter>
<linearGradient id="paint0_linear_75_20" x1="119" y1="5" x2="119" y2="29" gradientUnits="userSpaceOnUse">
<stop stop-color="#F39101"/>
<stop offset="1" stop-color="#F0DD14"/>
</linearGradient>
<linearGradient id="paint1_linear_75_20" x1="106" y1="11" x2="106" y2="23" gradientUnits="userSpaceOnUse">
<stop stop-color="#F29100"/>
<stop offset="1" stop-color="#D74500"/>
</linearGradient>
<linearGradient id="paint2_linear_75_20" x1="165.273" y1="6.10526" x2="133.89" y2="59.3873" gradientUnits="userSpaceOnUse">
<stop stop-color="white"/>
<stop offset="1" stop-color="#D74500"/>
</linearGradient>
<linearGradient id="paint3_linear_75_20" x1="211.125" y1="22.5672" x2="222.967" y2="10.9211" gradientUnits="userSpaceOnUse">
<stop stop-color="#D54501"/>
<stop offset="1" stop-color="#ED6F34"/>
</linearGradient>
</defs>
</svg>
