<svg width="273" height="205" viewBox="0 0 273 205" fill="none" xmlns="http://www.w3.org/2000/svg">
<path fill-rule="evenodd" clip-rule="evenodd" d="M0 51.5128V103.026H34.125H68.25V105.698C68.25 110.952 64.9666 124.152 62.0518 130.615C58.1395 139.293 50.5165 149.259 43.1949 155.27C32.7001 163.886 16.2508 170.308 4.67355 170.308H0V187.654V205H4.06245C11.0775 205 25.7439 201.99 34.9125 198.668C59.3659 189.809 79.6068 171.53 91.3458 147.705C101.829 126.43 102.86 117.575 102.883 48.6218L102.9 0H51.45H0V51.5128ZM170.352 51.25L170.625 102.5L204.487 102.778L238.35 103.055V107.883C238.35 114.753 235.672 124.373 231.216 133.513C226.633 142.911 213.793 156.555 204.75 161.633C196.683 166.164 186.615 169.37 177.975 170.161L170.625 170.833V187.654V204.474L173.994 204.8C178.178 205.206 194.47 202.449 201.262 200.186C238.498 187.783 264.746 157.499 271.407 119.253C272.694 111.864 273 99.5427 273 55.0546V0H221.539H170.08L170.352 51.25Z" fill="#666666" fill-opacity="0.3"/>
</svg>
