<svg width="139" height="142" viewBox="0 0 139 142" fill="none" xmlns="http://www.w3.org/2000/svg">
<g filter="url(#filter0_d_116_255)">
<path d="M133.45 119.911C131.782 123.364 128.709 125.932 125.488 128.02C121.967 130.301 118.173 132.132 114.196 133.472C113.651 133.659 113.1 133.834 112.547 134H90.1778C90.0216 133.831 89.8734 133.654 89.7332 133.472C88.235 131.558 87.425 129.106 87.7188 126.703C88.0973 123.617 90.4478 120.782 93.4917 120.127C96.5384 119.47 100.011 121.283 100.937 124.253C101.446 118.53 102.033 112.569 105.083 107.695C107.846 103.284 112.629 100.127 117.812 99.5617C120.86 99.2451 123.935 99.8067 126.673 101.18C126.925 101.307 127.174 101.439 127.417 101.576C129.06 102.505 130.511 103.739 131.689 105.211C134.921 109.293 135.713 115.225 133.45 119.911Z" fill="white"/>
</g>
<path d="M127.253 101.938C116.851 110.387 108.631 121.201 103.283 133.472C103.206 133.646 103.129 133.823 103.055 134H102.002C102.076 133.823 102.15 133.646 102.227 133.472C103.246 131.096 104.371 128.762 105.607 126.489C108.237 121.656 111.332 117.088 114.847 112.851C118.36 108.609 122.284 104.723 126.562 101.249C126.596 101.221 126.634 101.198 126.673 101.18C126.748 101.148 126.828 101.133 126.91 101.136C126.991 101.139 127.07 101.161 127.141 101.199C127.213 101.237 127.275 101.29 127.323 101.356C127.37 101.421 127.403 101.496 127.417 101.576C127.425 101.645 127.414 101.716 127.385 101.779C127.356 101.843 127.311 101.898 127.253 101.938V101.938Z" fill="white"/>
<path d="M44.2602 77.5059C44.5215 77.2481 44.723 76.9364 44.8505 76.5925C44.9779 76.2487 45.0282 75.8813 44.9978 75.516C44.9675 75.1507 44.8572 74.7965 44.6747 74.4783C44.4922 74.1601 44.242 73.8857 43.9417 73.6744L42.6722 65.327L37.4575 66.964L40.3143 74.4112C39.9918 74.9379 39.8742 75.5642 39.9839 76.1716C40.0935 76.779 40.4227 77.3251 40.9091 77.7066C41.3955 78.088 42.0053 78.2783 42.6229 78.2413C43.2405 78.2043 43.8231 77.9426 44.2602 77.5059H44.2602Z" fill="#FFB8B8"/>
<path d="M38.8881 73.5788L35.6713 58.5952C35.3579 57.1599 35.4192 55.6684 35.8494 54.2636C36.2796 52.8587 37.0641 51.5875 38.128 50.5717C42.2456 46.6142 47.5376 41.6261 49.3655 40.3359C51.0812 39.1161 53.1572 38.505 55.2619 38.6L55.306 38.6048L58.0731 41.213L52.0453 51.1098L42.8945 56.8283L43.9128 71.5141L38.8881 73.5788Z" fill="#D74500"/>
<path d="M50.1538 53.2171H36.6545C36.0698 53.2171 35.5957 53.6899 35.5957 54.2731C35.5957 54.8563 36.0698 55.3291 36.6545 55.3291H50.1538C50.7385 55.3291 51.2125 54.8563 51.2125 54.2731C51.2125 53.6899 50.7385 53.2171 50.1538 53.2171Z" fill="#CCCCCC"/>
<path d="M50.1538 76.1848H36.6545C36.0698 76.1848 35.5957 76.6576 35.5957 77.2408C35.5957 77.824 36.0698 78.2968 36.6545 78.2968H50.1538C50.7385 78.2968 51.2125 77.824 51.2125 77.2408C51.2125 76.6576 50.7385 76.1848 50.1538 76.1848Z" fill="#CCCCCC"/>
<path d="M43.5365 133.736C43.4042 133.736 43.2767 133.687 43.1791 133.597C43.0815 133.508 43.0209 133.386 43.0092 133.255L36.2606 54.3198C36.2481 54.1803 36.2918 54.0416 36.3819 53.9342C36.472 53.8269 36.6012 53.7596 36.7411 53.7472C36.8809 53.7348 37.02 53.7784 37.1277 53.8682C37.2353 53.9581 37.3028 54.087 37.3152 54.2265L43.5289 127.156L49.5659 54.2278C49.5719 54.1587 49.5914 54.0914 49.6235 54.0299C49.6555 53.9684 49.6994 53.9137 49.7526 53.8691C49.8058 53.8244 49.8673 53.7907 49.9335 53.7697C49.9998 53.7488 50.0696 53.7411 50.1389 53.7471C50.2081 53.753 50.2755 53.7725 50.3372 53.8045C50.3989 53.8364 50.4537 53.8802 50.4985 53.9332C50.5432 53.9863 50.5771 54.0476 50.5981 54.1137C50.6191 54.1798 50.6268 54.2494 50.6208 54.3185L44.0639 133.253C44.0525 133.385 43.9921 133.507 43.8946 133.597C43.7971 133.686 43.6696 133.736 43.5371 133.736H43.5365Z" fill="#CCCCCC"/>
<path d="M58.686 35.4403C62.5218 35.4403 65.6312 32.339 65.6312 28.5134C65.6312 24.6878 62.5218 21.5865 58.686 21.5865C54.8503 21.5865 51.7408 24.6878 51.7408 28.5134C51.7408 32.339 54.8503 35.4403 58.686 35.4403Z" fill="#FFB8B8"/>
<path d="M37.9875 130.57L34.6847 129.52L37.1733 116.314L42.0484 117.863L37.9875 130.57Z" fill="#FFB8B8"/>
<path d="M37.8037 133.492L27.1707 130.112L27.2585 129.837C27.5967 128.783 28.3402 127.906 29.3259 127.398C30.3115 126.89 31.4589 126.793 32.5163 127.127L39.1624 129.24L37.8037 133.492Z" fill="#2F2E41"/>
<path d="M62.0186 130.502H58.552L56.9022 117.165H62.0186V130.502Z" fill="#FFB8B8"/>
<path d="M51.9985 133.581H62.6292V129.646H55.9183C54.8791 129.647 53.8827 130.059 53.1479 130.792C52.413 131.525 51.9997 132.519 51.9985 133.556V133.581Z" fill="#2F2E41"/>
<path d="M61.9172 126.174L60.7471 126C57.1984 125.472 56.9859 125.441 56.4226 125.194C56.1349 125.068 56.1146 123.163 56.2874 112.455C56.4141 104.594 56.5719 94.812 56.2655 89.5603C56.2529 89.3531 56.1707 89.1561 56.0321 89.0012C55.8935 88.8464 55.7066 88.7425 55.5017 88.7065C55.2967 88.6705 55.0855 88.7044 54.9022 88.8028C54.7189 88.9011 54.5741 89.0582 54.4913 89.2486C51.8508 95.3303 47.4208 108.94 44.4893 117.946C43.4697 121.079 42.6643 123.553 42.1547 125.036C42.0563 125.317 41.8566 125.551 41.5946 125.692C41.3325 125.834 41.027 125.873 40.7377 125.801C38.3253 125.2 38.4866 124.944 35.0507 124.058C34.7534 123.982 34.497 123.795 34.335 123.535C34.1731 123.275 34.1183 122.963 34.182 122.663C34.8035 119.74 46.1764 72.3459 47.0469 67.8406C47.0763 67.6863 47.1361 67.5395 47.2228 67.4084C47.3095 67.2774 47.4214 67.1648 47.5519 67.0771C47.6825 66.9895 47.8292 66.9285 47.9835 66.8976C48.1379 66.8668 48.2968 66.8668 48.4511 66.8976C51.0117 67.4122 52.5695 67.9581 55.0999 68.486C57.8303 69.0556 60.6537 69.6447 63.4076 70.1945C63.6817 70.2495 63.9274 70.3997 64.1009 70.6183C64.7823 71.4767 65.7928 71.9585 66.8626 72.4686C67.5838 72.8125 65.9495 72.7815 66.5776 73.2775C69.1212 75.2858 65.4634 116.068 63.2532 125.279C63.1823 125.567 63.006 125.819 62.7589 125.984C62.5118 126.15 62.2116 126.217 61.9172 126.174V126.174Z" fill="#2F2E41"/>
<path d="M61.6462 34.5747C61.2408 32.8587 63.2906 29.1663 62.8851 27.4503C62.6105 26.2882 59.8706 27.0782 59.2312 26.0688C58.5918 25.0595 57.5208 24.2417 56.3238 24.2283C54.948 24.2129 53.5941 25.2309 52.2908 24.7909C50.9729 24.3461 50.5517 22.5462 51.1343 21.2861C51.717 20.0261 52.972 19.2231 54.2121 18.594C56.3236 17.5225 58.7823 16.7401 61.0423 17.449C62.4085 17.8775 63.5508 18.806 64.6562 19.7142C65.6639 20.542 66.6885 21.3886 67.3929 22.4848C68.7728 24.6324 68.6896 27.5259 67.5103 29.7893C66.331 32.0527 64.1822 33.7137 61.8145 34.6778" fill="#2F2E41"/>
<path d="M44.5927 74.5085C45.3423 73.2595 46.4803 67.4077 47.8838 57.5854C48.8393 50.8802 49.6718 44.0672 50.0849 40.587C50.1169 40.3054 50.2202 40.0365 50.385 39.8055C50.5498 39.5746 50.7707 39.3891 51.0271 39.2667C51.2951 39.1376 51.5616 39.0155 51.8264 38.9003C55.2471 37.4164 58.7136 36.9247 62.1293 37.4388C65.5399 37.9613 68.7389 39.4151 71.3721 41.6393L71.4031 41.6685L71.4112 41.7103C71.426 41.7877 72.8606 49.4977 69.9223 54.7067C67.0244 59.8464 66.9906 73.4574 66.9906 73.5943V73.7692L66.8218 73.7213C62.3136 72.4365 44.8987 74.6842 44.7233 74.7071L44.4521 74.7425L44.5927 74.5085Z" fill="#D74500"/>
<path d="M70.7997 56.6491H57.3005C56.7157 56.6491 56.2417 57.1219 56.2417 57.7051C56.2417 58.2883 56.7157 58.7611 57.3005 58.7611H70.7997C71.3845 58.7611 71.8585 58.2883 71.8585 57.7051C71.8585 57.1219 71.3845 56.6491 70.7997 56.6491Z" fill="#CCCCCC"/>
<path d="M70.7997 79.6168H57.3005C56.7157 79.6168 56.2417 80.0895 56.2417 80.6728C56.2417 81.256 56.7157 81.7287 57.3005 81.7287H70.7997C71.3845 81.7287 71.8585 81.256 71.8585 80.6728C71.8585 80.0895 71.3845 79.6168 70.7997 79.6168Z" fill="#CCCCCC"/>
<path d="M64.1825 134C64.0502 134 63.9227 133.951 63.8251 133.861C63.7275 133.772 63.6669 133.65 63.6552 133.519L56.9066 57.7517C56.9004 57.6827 56.908 57.6131 56.9288 57.5469C56.9496 57.4808 56.9833 57.4194 57.0279 57.3662C57.0725 57.313 57.1272 57.2691 57.1888 57.237C57.2505 57.2049 57.3178 57.1853 57.3871 57.1791C57.4563 57.173 57.5261 57.1806 57.5924 57.2013C57.6588 57.2221 57.7203 57.2557 57.7737 57.3002C57.827 57.3447 57.871 57.3992 57.9031 57.4607C57.9353 57.5222 57.955 57.5893 57.9612 57.6584L64.1748 127.42L70.2119 57.6597C70.224 57.5202 70.2911 57.3912 70.3986 57.301C70.506 57.2109 70.645 57.167 70.7849 57.179C70.9247 57.1911 71.0541 57.258 71.1445 57.3652C71.2349 57.4724 71.2789 57.6109 71.2668 57.7505L64.7099 133.517C64.6985 133.649 64.6381 133.771 64.5406 133.861C64.4431 133.95 64.3155 134 64.1831 134H64.1825Z" fill="#CCCCCC"/>
<path d="M59.8238 79.9513C59.7448 79.5933 59.7455 79.2224 59.8258 78.8647C59.9062 78.507 60.0641 78.1712 60.2887 77.881C60.5132 77.5908 60.7987 77.3532 61.1253 77.185C61.4518 77.0168 61.8113 76.922 62.1785 76.9074L67.792 70.5879L71.2779 74.7882L64.8223 79.4918C64.8061 80.1087 64.5636 80.6983 64.1406 81.1487C63.7177 81.5992 63.1438 81.8793 62.5277 81.9359C61.9115 81.9925 61.2959 81.8218 60.7976 81.456C60.2993 81.0902 59.9528 80.5548 59.8238 79.9512V79.9513Z" fill="#FFB8B8"/>
<path d="M63.0921 75.5528L71.9479 63.7761L67.3813 54.0162L67.7129 42.4411L71.4568 41.7512L71.4964 41.771C73.3151 42.832 74.7249 44.4701 75.5007 46.4238C76.3323 48.4977 78.0573 55.5531 79.3579 61.1068C79.6976 62.5361 79.6637 64.0285 79.2594 65.441C78.8552 66.8535 78.0941 68.1389 77.049 69.1739L66.1854 80.0091L63.0921 75.5528Z" fill="#D74500"/>
<path d="M25.969 130.725L38.0847 133.635C38.3198 133.697 38.5692 133.674 38.7895 133.572C39.0098 133.469 39.1871 133.293 39.2903 133.073L49.698 105.475C49.7439 105.369 49.7677 105.254 49.7678 105.139C49.768 105.023 49.7445 104.909 49.6989 104.803C49.6464 104.683 49.5702 104.576 49.4749 104.487C49.3796 104.398 49.2672 104.329 49.1444 104.285L40.0352 100.815C39.8912 100.76 39.7372 100.736 39.5833 100.745C39.4294 100.753 39.279 100.794 39.142 100.864C39.0229 100.923 38.9178 101.007 38.8338 101.109C38.7498 101.212 38.6887 101.331 38.6548 101.459L38.6546 101.46L32.2252 125.785L32.1297 125.79C32.0927 125.793 28.407 126.043 26.7495 128.027C26.4402 128.399 26.2112 128.831 26.0769 129.295C25.9426 129.759 25.9059 130.246 25.969 130.725Z" fill="#AFAFAF"/>
<path d="M131.287 133.736C131.287 133.771 131.28 133.805 131.267 133.837C131.254 133.869 131.234 133.898 131.21 133.923C131.185 133.947 131.156 133.967 131.124 133.98C131.092 133.993 131.057 134 131.022 134H0.264692C0.194491 134 0.12717 133.972 0.0775303 133.923C0.0278909 133.873 0 133.806 0 133.736C0 133.666 0.0278909 133.599 0.0775303 133.549C0.12717 133.5 0.194491 133.472 0.264692 133.472H131.022C131.057 133.472 131.092 133.479 131.124 133.492C131.156 133.505 131.185 133.525 131.21 133.549C131.234 133.574 131.254 133.603 131.267 133.635C131.28 133.667 131.287 133.701 131.287 133.736V133.736Z" fill="#3F3D56"/>
<path d="M34.7435 115.254L34.6878 115.779L45.7338 116.946L45.7896 116.421L34.7435 115.254Z" fill="#9B9B9B"/>
<path d="M33.7805 119.604L33.5633 120.085L42.4523 124.074L42.6696 123.593L33.7805 119.604Z" fill="#9B9B9B"/>
<path d="M46.9521 112.722L36.4748 109.261L36.6921 108.78L47.1694 112.241L46.9521 112.722Z" fill="#9B9B9B"/>
<path d="M48.0108 110.346L37.5335 105.301L37.7509 104.82L48.2281 109.865L48.0108 110.346Z" fill="#9B9B9B"/>
<path d="M32.8565 123.738L32.5127 124.139L40.0668 130.575L40.4106 130.174L32.8565 123.738Z" fill="#9B9B9B"/>
<path d="M30.7117 125.872L30.2296 126.09L33.2628 132.761L33.7449 132.543L30.7117 125.872Z" fill="#9B9B9B"/>
<g filter="url(#filter1_d_116_255)">
<path d="M101.732 126.187V5.85627C101.732 4.23137 101.763 2.60301 101.732 0.978309C101.73 0.907275 101.732 0.836096 101.732 0.765044C101.732 -0.254171 100.143 -0.255858 100.143 0.765044V121.096C100.143 122.72 100.112 124.349 100.143 125.974C100.145 126.045 100.143 126.116 100.143 126.187C100.143 127.206 101.732 127.208 101.732 126.187V126.187Z" fill="white"/>
</g>
<g filter="url(#filter2_d_116_255)">
<path d="M110.515 34.3965H91.4571C91.001 34.3959 90.5637 34.215 90.2411 33.8933C89.9186 33.5716 89.7372 33.1354 89.7366 32.6805V9.58082C89.7372 9.12587 89.9186 8.68971 90.2411 8.36802C90.5637 8.04633 91.001 7.86537 91.4571 7.86484H110.515C110.971 7.86537 111.408 8.04633 111.731 8.36802C112.053 8.68971 112.235 9.12587 112.235 9.58082V32.6805C112.235 33.1354 112.053 33.5716 111.731 33.8933C111.408 34.215 110.971 34.3959 110.515 34.3965V34.3965Z" fill="white"/>
</g>
<defs>
<filter id="filter0_d_116_255" x="83.6591" y="99.4757" width="55.0812" height="42.5243" filterUnits="userSpaceOnUse" color-interpolation-filters="sRGB">
<feFlood flood-opacity="0" result="BackgroundImageFix"/>
<feColorMatrix in="SourceAlpha" type="matrix" values="0 0 0 0 0 0 0 0 0 0 0 0 0 0 0 0 0 0 127 0" result="hardAlpha"/>
<feOffset dy="4"/>
<feGaussianBlur stdDeviation="2"/>
<feComposite in2="hardAlpha" operator="out"/>
<feColorMatrix type="matrix" values="0 0 0 0 0 0 0 0 0 0 0 0 0 0 0 0 0 0 0.05 0"/>
<feBlend mode="normal" in2="BackgroundImageFix" result="effect1_dropShadow_116_255"/>
<feBlend mode="normal" in="SourceGraphic" in2="effect1_dropShadow_116_255" result="shape"/>
</filter>
<filter id="filter1_d_116_255" x="96.1296" y="0" width="9.61572" height="134.952" filterUnits="userSpaceOnUse" color-interpolation-filters="sRGB">
<feFlood flood-opacity="0" result="BackgroundImageFix"/>
<feColorMatrix in="SourceAlpha" type="matrix" values="0 0 0 0 0 0 0 0 0 0 0 0 0 0 0 0 0 0 127 0" result="hardAlpha"/>
<feOffset dy="4"/>
<feGaussianBlur stdDeviation="2"/>
<feComposite in2="hardAlpha" operator="out"/>
<feColorMatrix type="matrix" values="0 0 0 0 0 0 0 0 0 0 0 0 0 0 0 0 0 0 0.05 0"/>
<feBlend mode="normal" in2="BackgroundImageFix" result="effect1_dropShadow_116_255"/>
<feBlend mode="normal" in="SourceGraphic" in2="effect1_dropShadow_116_255" result="shape"/>
</filter>
<filter id="filter2_d_116_255" x="85.7366" y="7.86484" width="30.4988" height="34.5316" filterUnits="userSpaceOnUse" color-interpolation-filters="sRGB">
<feFlood flood-opacity="0" result="BackgroundImageFix"/>
<feColorMatrix in="SourceAlpha" type="matrix" values="0 0 0 0 0 0 0 0 0 0 0 0 0 0 0 0 0 0 127 0" result="hardAlpha"/>
<feOffset dy="4"/>
<feGaussianBlur stdDeviation="2"/>
<feComposite in2="hardAlpha" operator="out"/>
<feColorMatrix type="matrix" values="0 0 0 0 0 0 0 0 0 0 0 0 0 0 0 0 0 0 0.05 0"/>
<feBlend mode="normal" in2="BackgroundImageFix" result="effect1_dropShadow_116_255"/>
<feBlend mode="normal" in="SourceGraphic" in2="effect1_dropShadow_116_255" result="shape"/>
</filter>
</defs>
</svg>
