<svg width="153" height="144" viewBox="0 0 173 164" fill="none" xmlns="http://www.w3.org/2000/svg">
<path d="M158.28 117.871C152.706 122.129 145.915 126.443 139.238 128.477C137.313 129.08 135.327 129.466 133.317 129.626C131.437 129.777 129.546 129.63 127.712 129.189C122.893 127.987 118.424 125.881 114.099 123.422C112.686 122.617 111.29 121.775 109.901 120.914C107.635 119.509 105.391 118.055 103.141 116.636C102.804 116.42 102.469 116.21 102.132 116.001H102.13C101.587 115.659 101.042 115.321 100.497 114.989C100.401 114.929 100.305 114.872 100.207 114.813C99.1755 114.186 98.1267 113.573 97.0602 112.975C96.9295 112.904 96.7988 112.83 96.6682 112.758C94.6047 111.61 92.4839 110.569 90.314 109.639C88.8888 109.036 87.4453 108.494 85.9874 108.031H85.9854C85.428 107.855 84.8685 107.689 84.307 107.537C82.6233 107.074 80.9075 106.737 79.1739 106.529C76.7849 106.239 74.3687 106.259 71.9847 106.587C71.8233 106.609 71.6641 106.632 71.5028 106.658C65.0506 107.695 59.162 111.189 52.6813 112.013C52.471 112.039 52.2627 112.064 52.0524 112.082C51.9626 112.09 51.8727 112.101 51.7829 112.107C49.8996 112.268 48.0043 112.222 46.1312 111.968C40.898 111.275 35.8016 109.127 31.2136 106.419C20.488 100.088 11.7898 90.3561 6.50151 79.0865C5.5934 77.1551 4.78713 75.1772 4.08605 73.1608C2.12589 67.5696 1.04642 61.706 0.886517 55.7812C0.390355 35.2247 12.0348 14.6006 30.3173 5.30344C48.6017 -3.99369 72.6544 -0.919226 87.4004 13.3634C96.3456 22.0276 101.522 33.7684 108.253 44.2576C114.985 54.7448 124.553 64.7629 136.894 66.2909C143.181 67.0693 149.76 65.5638 155.785 67.5219C159.121 68.6075 161.968 70.6845 164.261 73.3309C165.802 75.1267 167.092 77.1251 168.095 79.2709C168.83 80.8221 169.427 82.4356 169.878 84.0925C169.961 84.3977 170.039 84.7029 170.114 85.0081C173.116 97.3059 168.32 110.198 158.28 117.871Z" fill="#C7C7C7"/>
<path d="M57.8714 95.6078H38.6783C35.8027 95.6078 33.4716 97.9463 33.4716 100.831V100.831C33.4716 103.716 35.8027 106.054 38.6783 106.054H57.8714C60.7469 106.054 63.078 103.716 63.078 100.831C63.078 97.9463 60.7469 95.6078 57.8714 95.6078Z" fill="#3F3D56"/>
<path d="M52.0522 103.391V112.082C50.0806 112.273 48.0936 112.235 46.1309 111.967V103.391H52.0522Z" fill="#3F3D56"/>
<path d="M71.9844 106.587C71.8231 106.609 71.6639 106.632 71.5026 106.658C65.0504 107.695 59.1618 111.189 52.6811 112.012C52.4708 112.039 52.2625 112.064 52.0522 112.082C51.9624 112.09 51.8725 112.101 51.7827 112.107C50.2003 110.552 48.6179 108.897 47.1314 107.183C46.3249 106.255 45.5449 105.308 44.8119 104.35C42.9089 101.876 41.2959 99.3316 40.2301 96.8327C40.3383 95.6345 39.5951 92.8631 39.2398 90.7411L39.2378 90.7391C39.0867 89.8481 39.005 89.0738 39.0805 88.5761C39.5134 85.7044 41.8513 86.0342 42.57 83.2198C43.2183 82.68 43.9086 82.193 44.6343 81.7635C44.7547 81.6918 44.8772 81.6201 45.0038 81.5484L52.8036 76.141L55.7846 79.0741L60.3216 83.5394L65.2383 88.3754L61.0648 92.6051C61.0648 92.6051 64.5522 96.6381 68.6297 102.015C69.7241 103.459 70.8614 105.001 71.9844 106.587Z" fill="#2F2E41"/>
<path d="M139.238 103.391V128.477C137.313 129.08 135.327 129.466 133.316 129.626V103.391H139.238Z" fill="#3F3D56"/>
<path d="M146.895 101.343H127.701C124.826 101.343 122.495 103.681 122.495 106.566V106.566C122.495 109.451 124.826 111.789 127.701 111.789H146.895C149.77 111.789 152.101 109.451 152.101 106.566C152.101 103.681 149.77 101.343 146.895 101.343Z" fill="#3F3D56"/>
<path d="M100.206 114.812C99.1753 114.186 98.1264 113.573 97.0599 112.975C96.9293 112.903 96.7986 112.83 96.6679 112.758L97.3703 112.457L99.2651 111.64L99.2835 111.631L99.3039 111.701L100.206 114.812Z" fill="#FFB6B6"/>
<path d="M103.141 116.635C102.804 116.42 102.469 116.209 102.132 116H102.13C101.587 115.658 101.042 115.321 100.496 114.989C100.4 114.929 100.304 114.872 100.206 114.812C99.1753 114.186 98.1265 113.573 97.06 112.975C96.9293 112.903 96.7986 112.83 96.668 112.758C94.6045 111.61 92.4837 110.569 90.3138 109.639C88.8886 109.036 87.4451 108.494 85.9872 108.031H85.9852L84.8397 106.107L79.6841 97.4451L78.5509 95.5423C78.5509 95.5423 74.6858 96.6893 69.2157 97.7892C67.225 98.1907 65.0239 98.584 62.7146 98.9158C60.246 99.2681 57.657 99.5487 55.0843 99.6839C53.8572 99.7494 52.6341 99.7822 51.4295 99.772C48.3157 99.7515 45.3244 99.4586 42.7048 98.7622C41.8309 97.9387 39.1969 96.8183 37.3103 95.7921H37.3082C36.516 95.362 35.8586 94.9503 35.5135 94.5837C33.5248 92.4739 35.2235 90.8292 33.4553 88.5269C33.4315 87.6823 33.4745 86.8371 33.584 85.9993C33.6023 85.8601 33.6207 85.7187 33.6432 85.5753L34.2006 76.0795L38.3414 75.5306L44.6425 74.6949L51.4683 73.7896L52.2196 79.6927C52.2196 79.6927 57.5345 79.4223 64.2684 79.5124C75.0839 79.6599 89.5563 80.7414 91.5165 85.3828C91.7002 85.8191 91.884 86.2595 92.0678 86.6999C92.5047 87.7527 92.9376 88.8109 93.3664 89.8747C94.9202 93.7254 96.4025 97.6131 97.7563 101.288C98.5975 103.574 99.3897 105.778 100.119 107.84C100.705 109.499 101.248 111.068 101.744 112.512C102.197 113.831 102.608 115.046 102.973 116.136C103.03 116.306 103.085 116.474 103.141 116.635Z" fill="#2F2E41"/>
<path d="M65.0492 59.1019L51.9703 47.959L60.4796 39.32L66.4161 49.0745L88.4216 53.4511C89.0833 52.9515 89.8756 52.6559 90.7018 52.6003C91.5281 52.5446 92.3527 52.7313 93.075 53.1376C93.7973 53.544 94.3861 54.1523 94.7697 54.8886C95.1533 55.6248 95.3151 56.4571 95.2353 57.284C95.1555 58.1109 94.8376 58.8966 94.3204 59.5454C93.8031 60.1942 93.1089 60.678 92.3223 60.9378C91.5357 61.1976 90.6908 61.2222 89.8905 61.0086C89.0902 60.795 88.3692 60.3524 87.8153 59.7348L65.0492 59.1019Z" fill="#A0616A"/>
<path d="M40.4115 33.3145C38.9 38.2473 53.2953 50.0121 53.2953 50.0121C53.4552 48.8278 61.6169 59.0395 62.1722 58.1147C63.7503 55.4863 65.4868 48.9892 67.3087 48.1589C68.3506 47.684 62.3735 41.0834 62.3735 41.0834C62.3735 41.0834 59.3245 37.0368 55.2989 31.9083C54.1876 30.4372 52.7233 29.2721 51.0424 28.5214C49.3615 27.7707 47.5186 27.4588 45.6852 27.6148C45.6852 27.6148 41.923 28.3817 40.4115 33.3145Z" fill="#3F3D56"/>
<path d="M46.7763 22.3944C51.6618 22.3944 55.6223 18.4214 55.6223 13.5204C55.6223 8.61946 51.6618 4.64645 46.7763 4.64645C41.8908 4.64645 37.9303 8.61946 37.9303 13.5204C37.9303 18.4214 41.8908 22.3944 46.7763 22.3944Z" fill="#A0616A"/>
<path d="M51.1993 28.2594C53.105 29.396 54.245 31.4843 54.8995 33.6093C56.111 37.5435 56.8403 41.6111 57.0712 45.7222L57.7624 58.0302L66.323 84.2373C58.9038 90.535 31.0161 85.6686 31.0161 85.6686C31.0161 85.6686 30.1601 85.3824 31.0161 84.5236C31.8722 83.6648 32.7056 84.4256 31.8495 83.5669C30.9935 82.7081 31.5836 83.6648 31.869 82.806C32.1543 81.9472 31.869 82.5198 31.5836 82.2335C31.2982 81.9472 33.7927 79.3709 33.7927 79.3709L31.5098 64.3278L28.6563 33.9846C32.0806 29.6907 38.9672 27.1595 38.9672 27.1595L40.7466 23.9464L49.6437 24.6605L51.1993 28.2594Z" fill="#3F3D56"/>
<path d="M54.0684 8.8058C54.7559 9.32022 55.2652 10.038 55.5247 10.8581C55.6244 9.51789 55.6307 8.17235 55.5437 6.83128C55.4394 5.8889 54.778 5.67693 54.0122 5.43131C53.3206 5.2094 52.5385 4.95873 52.328 4.0439C49.5474 1.33025 44.7068 1.46708 41.394 2.41365C39.5712 2.93452 38.5223 3.60374 38.4285 3.99578L38.409 4.07648L38.335 4.11361C36.9299 4.81839 36.6564 7.04394 36.6744 8.7868C36.7087 12.0705 37.8389 15.7999 38.4756 16.1029C38.5093 16.1189 38.5178 16.1126 38.5324 16.1004C39.4911 15.3318 40.6607 16.1588 41.1747 16.6084C41.4779 14.5675 42.4541 12.6875 43.9473 11.2684C45.4406 9.84941 47.3648 8.97329 49.4127 8.78002C50.0815 8.71517 50.7449 8.60358 51.3982 8.44603C51.7296 8.36003 52.0702 8.31519 52.4125 8.3125C53.0017 8.30353 53.5795 8.47567 54.0684 8.8058V8.8058Z" fill="#2F2E41"/>
<path d="M42.9221 72.4715L40.2161 71.0813C40.0711 70.9777 39.9681 70.8252 39.9259 70.6517C39.8838 70.4782 39.9052 70.2952 39.9864 70.1363C40.0675 69.9773 40.2029 69.8529 40.3679 69.7859C40.5329 69.7188 40.7165 69.7135 40.885 69.771L43.591 71.1612C43.736 71.2648 43.839 71.4173 43.8812 71.5909C43.9233 71.7644 43.9019 71.9473 43.8207 72.1062C43.7396 72.2652 43.6041 72.3896 43.4391 72.4566C43.2741 72.5237 43.0906 72.529 42.922 72.4715L42.9221 72.4715Z" fill="#D74500"/>
<path d="M33.815 68.7469L29.3636 52.1226L41.259 49.8637L40.6193 61.2745L56.2488 77.4187C57.0762 77.3847 57.8956 77.5931 58.6071 78.0182C59.3185 78.4434 59.8913 79.067 60.2555 79.8131C60.6198 80.5591 60.7598 81.3954 60.6584 82.2199C60.5571 83.0444 60.2188 83.8215 59.6848 84.4565C59.1508 85.0915 58.4442 85.5568 57.6511 85.7959C56.858 86.035 56.0127 86.0374 55.2182 85.8028C54.4238 85.5683 53.7146 85.1069 53.177 84.475C52.6394 83.8431 52.2967 83.0679 52.1907 82.244L33.815 68.7469Z" fill="#A0616A"/>
<path d="M28.1463 33.4833C24.1086 36.6809 29.291 54.5673 29.291 54.5673C30.0934 53.6839 31.0258 66.7391 32.0065 66.2946C34.7939 65.0312 39.9028 60.6745 41.8723 61.0296C42.9987 61.2327 41.8186 52.3942 41.8186 52.3942C41.8186 52.3942 41.6016 47.3265 41.1936 40.8116C41.1124 38.9676 40.5673 37.1743 39.6093 35.5984C38.6512 34.0226 37.3113 32.7155 35.7143 31.7989C35.7143 31.7989 32.184 30.2856 28.1463 33.4833Z" fill="#3F3D56"/>
<path d="M168.095 79.2708L6.50141 79.0864C5.5933 77.155 4.78703 75.1771 4.08595 73.1608L164.26 73.3308C165.802 75.1266 167.092 77.125 168.095 79.2708V79.2708Z" fill="#3F3D56"/>
<path d="M116.627 122.248C115.792 122.653 114.949 123.044 114.099 123.421C112.686 122.616 111.289 121.775 109.901 120.914L115.05 118.645L116.627 122.248Z" fill="#FFB6B6"/>
<path d="M154.172 94.0225C153.335 95.149 152.471 96.253 151.581 97.3345C150.76 98.332 149.917 99.3104 149.053 100.27C148.696 100.667 148.334 101.062 147.965 101.454C147.285 102.185 146.59 102.904 145.88 103.61C144.602 104.014 142.013 104.725 139.238 105.388C137.218 105.87 135.101 106.326 133.317 106.617C132.318 106.797 131.307 106.905 130.293 106.941C129.088 106.951 127.865 106.918 126.638 106.853C125.253 106.779 123.867 106.664 122.497 106.517C118.934 106.142 115.483 105.558 112.506 104.958C111.416 104.741 110.391 104.52 109.448 104.305C107.661 103.901 106.166 103.524 105.084 103.238C103.865 102.918 103.171 102.711 103.171 102.711L100.119 107.84L98.5342 110.501L97.3704 112.457L97.06 112.975C96.9293 112.903 96.7986 112.83 96.668 112.758C94.6045 111.61 92.4837 110.569 90.3138 109.639C88.8886 109.036 87.4451 108.494 85.9872 108.031H85.9852C85.4278 107.854 84.8683 107.689 84.3068 107.537C84.4824 107.064 84.66 106.587 84.8397 106.107C85.1746 105.212 85.5162 104.309 85.8647 103.397C86.6181 101.423 87.3981 99.4197 88.2006 97.4267C88.858 95.7901 89.5277 94.1597 90.2056 92.5518C90.518 91.8103 91.153 91.159 92.0412 90.5875C92.4657 90.319 92.9085 90.0808 93.3664 89.8747C95.9084 88.7133 99.6531 87.9575 103.78 87.4721C104.121 87.4332 104.464 87.3942 104.809 87.3574C108.225 86.9969 111.849 86.8105 115.238 86.7244C116.935 86.6814 118.573 86.665 120.096 86.663C120.588 86.663 121.066 86.6644 121.531 86.6671H121.533C122.789 86.6732 123.945 86.6917 124.961 86.7122C125.16 86.7162 125.351 86.7224 125.539 86.7265H125.541C125.668 86.7285 125.792 86.7326 125.915 86.7347C128.139 86.792 129.502 86.8617 129.502 86.8617L130.031 82.6996L130.139 81.8598L130.242 81.061V81.0589L130.254 80.9585L130.338 80.9565L131.808 80.9278L144.165 80.6861L150.915 80.553L149.845 85.1534L148.079 92.7443C148.259 93.9446 154.233 93.0045 154.172 94.0225Z" fill="#2F2E41"/>
<path d="M118.15 121.49C117.645 121.748 117.137 122.002 116.627 122.248C115.792 122.653 114.949 123.044 114.099 123.421C112.686 122.616 111.289 121.775 109.901 120.914C107.634 119.509 105.39 118.055 103.14 116.635C102.804 116.42 102.469 116.209 102.132 116H102.13C101.203 114.62 100.257 113.182 99.3038 111.701C99.2895 111.681 99.2773 111.66 99.265 111.64C99.02 111.263 98.7764 110.883 98.5341 110.501C97.0088 108.104 95.4754 105.605 93.9869 103.053L97.7561 101.288L104.764 98.0063L105.972 97.441L109.448 104.305L112.547 110.427L113.237 111.789L118.15 121.49Z" fill="#2F2E41"/>
<path d="M119.206 88.5366L137.072 71.2525L142.024 57.1871L134.72 54.0009C130.968 57.6061 126.912 68.8354 126.912 68.8354L114.618 84.5261C114.522 84.559 114.427 84.594 114.332 84.6358C113.779 84.8807 113.297 85.2648 112.935 85.751C112.572 86.2371 112.341 86.8088 112.263 87.4109C112.185 88.0129 112.263 88.625 112.49 89.1878C112.717 89.7507 113.085 90.2454 113.558 90.624C114.031 91.0027 114.593 91.2525 115.191 91.3494C115.788 91.4462 116.4 91.3869 116.968 91.177C117.536 90.9671 118.04 90.6139 118.432 90.1513C118.824 89.6888 119.091 89.1327 119.206 88.5366V88.5366Z" fill="#FFB8B8"/>
<path d="M132.664 55.5714L141.929 58.522L141.964 58.5161C145.413 57.9367 148.274 52.2868 150.067 47.6492C150.657 46.1195 150.646 44.4222 150.036 42.9003C149.426 41.3785 148.263 40.1456 146.782 39.4511V39.4511C145.686 38.9461 144.471 38.7588 143.275 38.9102C142.078 39.0617 140.947 39.5459 140.011 40.3082L135.253 44.2079L132.664 55.5714Z" fill="#D74500"/>
<path d="M154.134 94.2299L154.189 94.1577C157.079 90.3118 153.126 80.7879 152.528 79.4067L155.216 78.608L154.747 73.4742L154.522 71.1851L156.611 69.1942L156.618 69.1434L158.056 58.8831L159.936 52.0922C160.645 49.525 160.66 46.8148 159.979 44.2399C159.299 41.6649 157.948 39.3179 156.065 37.4399L152.22 33.6111L147.615 26.3794L139.893 26.1794L137.116 31.1278C134.534 31.6565 132.218 33.0772 130.573 35.1424C128.927 37.2077 128.056 39.7866 128.111 42.4299L128.372 55.6035L125.602 71.9257L125.524 74.8905L122.804 77.7694L123.307 80.68L121.273 81.4928L120.277 85.6286C119.897 86.1057 117.387 89.2889 117.364 90.1763C117.361 90.3095 117.455 90.4408 117.662 90.5891C119.287 91.7553 128.369 94.2824 132.456 92.7631C136.81 91.1462 153.874 94.183 154.046 94.2138L154.134 94.2299Z" fill="#D74500"/>
<path d="M143.079 23.9624C148.729 23.9624 153.31 19.3677 153.31 13.6998C153.31 8.03195 148.729 3.43723 143.079 3.43723C137.429 3.43723 132.849 8.03195 132.849 13.6998C132.849 19.3677 137.429 23.9624 143.079 23.9624Z" fill="#FFB8B8"/>
<path d="M141.831 24.0998C143.416 24.1246 144.999 24.0136 146.564 23.768C148.116 23.4515 151.587 20.8997 152.555 19.3642C153.274 18.2234 153.733 16.4418 153.993 15.1483C154.342 13.4365 154.328 11.6703 153.954 9.96398C153.579 8.25769 152.851 6.64938 151.817 5.24318C151.42 4.655 150.872 4.18548 150.23 3.88428C150.173 3.86198 150.115 3.84221 150.056 3.82532C149.121 3.57861 148.281 3.05728 147.644 2.32826C147.52 2.1808 147.386 2.04247 147.243 1.91432C146.523 1.30463 145.669 0.874569 144.751 0.659288C143.27 0.261633 141.127 0.656358 138.381 1.83363C137.001 2.42512 135.492 2.21106 134.331 1.95847C134.266 1.94585 134.199 1.95056 134.136 1.97212C134.073 1.99368 134.017 2.03135 133.974 2.08137C133.48 2.54647 132.829 2.80682 132.151 2.81007C131.736 2.82835 131.301 3.40464 130.775 4.15615C130.656 4.32674 130.516 4.52584 130.416 4.64693L130.402 4.41428L130.168 4.67382C129.799 5.08173 129.539 5.57667 129.412 6.11253C129.285 6.64839 129.295 7.20775 129.442 7.73852C129.589 8.26929 129.867 8.75421 130.25 9.14812C130.634 9.54203 131.111 9.83212 131.637 9.99137C132.054 10.1028 132.482 10.1711 132.913 10.1954C133.174 10.219 133.444 10.2433 133.703 10.2884C134.534 10.4591 135.307 10.843 135.945 11.4027C136.584 11.9624 137.068 12.6787 137.348 13.4817C137.415 13.6673 137.522 13.8351 137.664 13.9722C137.805 14.1094 137.976 14.2121 138.163 14.2724C138.35 14.3328 138.548 14.3493 138.743 14.3205C138.937 14.2917 139.123 14.2185 139.284 14.1065C139.554 13.8958 139.871 13.7537 140.207 13.6923C140.543 13.6308 140.889 13.6519 141.216 13.7537C141.498 13.911 141.717 14.1609 141.838 14.4614C141.984 14.7961 142.226 15.0796 142.534 15.2757C143.585 15.8195 143.657 18.2287 143.28 20.2371C142.916 22.1729 142.196 23.5734 141.53 23.6426C141.017 23.6958 140.958 23.7324 140.921 23.8234L140.888 23.9048L140.946 23.981C141.229 24.0841 141.531 24.1246 141.831 24.0998V24.0998Z" fill="#2F2E41"/>
<path d="M135.205 52.4686L131.26 44.5795C125.535 44.9719 114.171 51.6128 114.171 51.6128L92.6714 56.1857C92.0344 55.9401 91.3443 55.8671 90.6703 55.9741C89.9963 56.0812 89.3624 56.3644 88.8322 56.7954C88.3021 57.2263 87.8945 57.7898 87.6504 58.429C87.4063 59.0682 87.3344 59.7607 87.4419 60.4366C87.5494 61.1126 87.8326 61.7482 88.2628 62.2795C88.693 62.8108 89.2552 63.2191 89.8927 63.4632C90.5302 63.7072 91.2205 63.7785 91.8942 63.6699C92.5679 63.5612 93.2012 63.2765 93.7303 62.8442L121.08 60.8776L135.205 52.4686Z" fill="#FFB8B8"/>
<path d="M133.614 53.7639L143.916 46.084L145.73 39.5239C146.082 38.2348 146.067 36.8727 145.687 35.5916C145.308 34.3105 144.579 33.1614 143.582 32.2742V32.2742C142.223 31.0807 140.463 30.4494 138.658 30.5078C136.853 30.5662 135.137 31.3101 133.858 32.5889C129.981 36.4707 125.56 41.8861 126.51 45.6412L126.519 45.6793L133.614 53.7639Z" fill="#D74500"/>
<path d="M120.861 74.3057H93.2968V77.9926H120.861V74.3057Z" fill="white"/>
<path d="M50.4188 74.3057H22.8543V77.9926H50.4188V74.3057Z" fill="white"/>
<path d="M53.6375 56.5755V74.13C53.6376 74.3537 53.7263 74.5682 53.884 74.7264C54.0417 74.8846 54.2555 74.9735 54.4785 74.9737H80.4105C80.6335 74.9735 80.8473 74.8846 81.005 74.7264C81.1627 74.5682 81.2513 74.3537 81.2515 74.13V56.5755C81.251 56.3519 81.1622 56.1378 81.0046 55.9798C80.8469 55.8218 80.6333 55.733 80.4105 55.7327H54.4785C54.2557 55.733 54.0421 55.8218 53.8844 55.9798C53.7268 56.1378 53.638 56.3519 53.6375 56.5755Z" fill="#3F3D56"/>
<path d="M54.2458 56.7939V73.9135C54.246 74.033 54.2934 74.1476 54.3777 74.2321C54.4619 74.3166 54.5761 74.3642 54.6953 74.3644H80.1946C80.3138 74.3642 80.428 74.3166 80.5122 74.2321C80.5965 74.1476 80.6439 74.033 80.6441 73.9135V56.7939C80.6441 56.6742 80.5968 56.5594 80.5125 56.4747C80.4282 56.39 80.3139 56.3423 80.1946 56.342H54.6953C54.576 56.3423 54.4617 56.39 54.3774 56.4747C54.2931 56.5594 54.2458 56.6742 54.2458 56.7939Z" fill="#D74500"/>
<path d="M53.0951 77.5536C53.1426 77.6134 53.203 77.6616 53.2717 77.6945C53.3404 77.7275 53.4157 77.7445 53.4919 77.7441H81.259C81.3349 77.744 81.4099 77.7269 81.4784 77.6941C81.547 77.6613 81.6073 77.6136 81.6552 77.5544C81.703 77.4952 81.7371 77.4261 81.755 77.3521C81.7728 77.278 81.774 77.2009 81.7584 77.1264L81.3274 75.0725C81.3095 74.9888 81.2711 74.9108 81.2155 74.8458C81.1599 74.7807 81.0891 74.7307 81.0093 74.7002C80.9515 74.6774 80.89 74.6658 80.828 74.6659H53.9212C53.8592 74.6658 53.7977 74.6774 53.7399 74.7002C53.6601 74.7307 53.5892 74.7807 53.5337 74.8458C53.4781 74.9108 53.4396 74.9888 53.4218 75.0725L52.9908 77.1264C52.9754 77.2009 52.9768 77.2779 52.9949 77.3518C53.0129 77.4257 53.0472 77.4947 53.0951 77.5536V77.5536Z" fill="#2F2E41"/>
<path d="M79.8752 75.5506H80.531C80.5861 75.5506 80.6307 75.5058 80.6307 75.4506V75.1358C80.6307 75.0806 80.5861 75.0358 80.531 75.0358H79.8752C79.8201 75.0358 79.7755 75.0806 79.7755 75.1358V75.4506C79.7755 75.5058 79.8201 75.5506 79.8752 75.5506Z" fill="#3F3D56"/>
<path d="M78.1648 75.5506H78.8206C78.8757 75.5506 78.9203 75.5058 78.9203 75.4506V75.1358C78.9203 75.0806 78.8757 75.0358 78.8206 75.0358H78.1648C78.1097 75.0358 78.0651 75.0806 78.0651 75.1358V75.4506C78.0651 75.5058 78.1097 75.5506 78.1648 75.5506Z" fill="#3F3D56"/>
<path d="M76.4543 75.5506H77.1102C77.1652 75.5506 77.2098 75.5058 77.2098 75.4506V75.1358C77.2098 75.0806 77.1652 75.0358 77.1102 75.0358H76.4543C76.3993 75.0358 76.3546 75.0806 76.3546 75.1358V75.4506C76.3546 75.5058 76.3993 75.5506 76.4543 75.5506Z" fill="#3F3D56"/>
<path d="M74.7439 75.5506H75.3998C75.4548 75.5506 75.4995 75.5058 75.4995 75.4506V75.1358C75.4995 75.0806 75.4548 75.0358 75.3998 75.0358H74.7439C74.6889 75.0358 74.6442 75.0806 74.6442 75.1358V75.4506C74.6442 75.5058 74.6889 75.5506 74.7439 75.5506Z" fill="#3F3D56"/>
<path d="M73.0335 75.5506H73.6893C73.7444 75.5506 73.789 75.5058 73.789 75.4506V75.1358C73.789 75.0806 73.7444 75.0358 73.6893 75.0358H73.0335C72.9784 75.0358 72.9338 75.0806 72.9338 75.1358V75.4506C72.9338 75.5058 72.9784 75.5506 73.0335 75.5506Z" fill="#3F3D56"/>
<path d="M71.3231 75.5506H71.979C72.034 75.5506 72.0786 75.5058 72.0786 75.4506V75.1358C72.0786 75.0806 72.034 75.0358 71.979 75.0358H71.3231C71.2681 75.0358 71.2234 75.0806 71.2234 75.1358V75.4506C71.2234 75.5058 71.2681 75.5506 71.3231 75.5506Z" fill="#3F3D56"/>
<path d="M69.6126 75.5506H70.2685C70.3235 75.5506 70.3682 75.5058 70.3682 75.4506V75.1358C70.3682 75.0806 70.3235 75.0358 70.2685 75.0358H69.6126C69.5576 75.0358 69.513 75.0806 69.513 75.1358V75.4506C69.513 75.5058 69.5576 75.5506 69.6126 75.5506Z" fill="#3F3D56"/>
<path d="M67.9022 75.5506H68.5581C68.6131 75.5506 68.6578 75.5058 68.6578 75.4506V75.1358C68.6578 75.0806 68.6131 75.0358 68.5581 75.0358H67.9022C67.8472 75.0358 67.8026 75.0806 67.8026 75.1358V75.4506C67.8026 75.5058 67.8472 75.5506 67.9022 75.5506Z" fill="#3F3D56"/>
<path d="M66.1918 75.5506H66.8477C66.9027 75.5506 66.9474 75.5058 66.9474 75.4506V75.1358C66.9474 75.0806 66.9027 75.0358 66.8477 75.0358H66.1918C66.1368 75.0358 66.0921 75.0806 66.0921 75.1358V75.4506C66.0921 75.5058 66.1368 75.5506 66.1918 75.5506Z" fill="#3F3D56"/>
<path d="M64.4814 75.5506H65.1372C65.1923 75.5506 65.2369 75.5058 65.2369 75.4506V75.1358C65.2369 75.0806 65.1923 75.0358 65.1372 75.0358H64.4814C64.4263 75.0358 64.3817 75.0806 64.3817 75.1358V75.4506C64.3817 75.5058 64.4263 75.5506 64.4814 75.5506Z" fill="#3F3D56"/>
<path d="M62.771 75.5506H63.4268C63.4819 75.5506 63.5265 75.5058 63.5265 75.4506V75.1358C63.5265 75.0806 63.4819 75.0358 63.4268 75.0358H62.771C62.7159 75.0358 62.6713 75.0806 62.6713 75.1358V75.4506C62.6713 75.5058 62.7159 75.5506 62.771 75.5506Z" fill="#3F3D56"/>
<path d="M61.0605 75.5506H61.7164C61.7714 75.5506 61.816 75.5058 61.816 75.4506V75.1358C61.816 75.0806 61.7714 75.0358 61.7164 75.0358H61.0605C61.0055 75.0358 60.9608 75.0806 60.9608 75.1358V75.4506C60.9608 75.5058 61.0055 75.5506 61.0605 75.5506Z" fill="#3F3D56"/>
<path d="M59.3501 75.5506H60.006C60.061 75.5506 60.1057 75.5058 60.1057 75.4506V75.1358C60.1057 75.0806 60.061 75.0358 60.006 75.0358H59.3501C59.2951 75.0358 59.2504 75.0806 59.2504 75.1358V75.4506C59.2504 75.5058 59.2951 75.5506 59.3501 75.5506Z" fill="#3F3D56"/>
<path d="M57.6397 75.5506H58.2955C58.3506 75.5506 58.3952 75.5058 58.3952 75.4506V75.1358C58.3952 75.0806 58.3506 75.0358 58.2955 75.0358H57.6397C57.5846 75.0358 57.54 75.0806 57.54 75.1358V75.4506C57.54 75.5058 57.5846 75.5506 57.6397 75.5506Z" fill="#3F3D56"/>
<path d="M55.9293 75.5506H56.5851C56.6402 75.5506 56.6848 75.5058 56.6848 75.4506V75.1358C56.6848 75.0806 56.6402 75.0358 56.5851 75.0358H55.9293C55.8742 75.0358 55.8296 75.0806 55.8296 75.1358V75.4506C55.8296 75.5058 55.8742 75.5506 55.9293 75.5506Z" fill="#3F3D56"/>
<path d="M54.2188 75.5506H54.8747C54.9297 75.5506 54.9743 75.5058 54.9743 75.4506V75.1358C54.9743 75.0806 54.9297 75.0358 54.8747 75.0358H54.2188C54.1638 75.0358 54.1191 75.0806 54.1191 75.1358V75.4506C54.1191 75.5058 54.1638 75.5506 54.2188 75.5506Z" fill="#3F3D56"/>
<path d="M79.8953 76.4084H80.5512C80.6062 76.4084 80.6509 76.3637 80.6509 76.3085V75.9937C80.6509 75.9385 80.6062 75.8937 80.5512 75.8937H79.8953C79.8403 75.8937 79.7957 75.9385 79.7957 75.9937V76.3085C79.7957 76.3637 79.8403 76.4084 79.8953 76.4084Z" fill="#3F3D56"/>
<path d="M78.185 76.4084H78.8408C78.8959 76.4084 78.9405 76.3637 78.9405 76.3085V75.9937C78.9405 75.9385 78.8959 75.8937 78.8408 75.8937H78.185C78.1299 75.8937 78.0853 75.9385 78.0853 75.9937V76.3085C78.0853 76.3637 78.1299 76.4084 78.185 76.4084Z" fill="#3F3D56"/>
<path d="M76.4745 76.4084H77.1304C77.1854 76.4084 77.23 76.3637 77.23 76.3085V75.9937C77.23 75.9385 77.1854 75.8937 77.1304 75.8937H76.4745C76.4195 75.8937 76.3748 75.9385 76.3748 75.9937V76.3085C76.3748 76.3637 76.4195 76.4084 76.4745 76.4084Z" fill="#3F3D56"/>
<path d="M74.7641 76.4084H75.4199C75.475 76.4084 75.5196 76.3637 75.5196 76.3085V75.9937C75.5196 75.9385 75.475 75.8937 75.4199 75.8937H74.7641C74.709 75.8937 74.6644 75.9385 74.6644 75.9937V76.3085C74.6644 76.3637 74.709 76.4084 74.7641 76.4084Z" fill="#3F3D56"/>
<path d="M73.0537 76.4084H73.7095C73.7646 76.4084 73.8092 76.3637 73.8092 76.3085V75.9937C73.8092 75.9385 73.7646 75.8937 73.7095 75.8937H73.0537C72.9986 75.8937 72.954 75.9385 72.954 75.9937V76.3085C72.954 76.3637 72.9986 76.4084 73.0537 76.4084Z" fill="#3F3D56"/>
<path d="M71.3432 76.4084H71.9991C72.0541 76.4084 72.0988 76.3637 72.0988 76.3085V75.9937C72.0988 75.9385 72.0541 75.8937 71.9991 75.8937H71.3432C71.2882 75.8937 71.2435 75.9385 71.2435 75.9937V76.3085C71.2435 76.3637 71.2882 76.4084 71.3432 76.4084Z" fill="#3F3D56"/>
<path d="M69.6328 76.4084H70.2887C70.3437 76.4084 70.3884 76.3637 70.3884 76.3085V75.9937C70.3884 75.9385 70.3437 75.8937 70.2887 75.8937H69.6328C69.5778 75.8937 69.5332 75.9385 69.5332 75.9937V76.3085C69.5332 76.3637 69.5778 76.4084 69.6328 76.4084Z" fill="#3F3D56"/>
<path d="M67.9224 76.4084H68.5783C68.6334 76.4084 68.678 76.3637 68.678 76.3085V75.9937C68.678 75.9385 68.6334 75.8937 68.5783 75.8937H67.9224C67.8674 75.8937 67.8228 75.9385 67.8228 75.9937V76.3085C67.8228 76.3637 67.8674 76.4084 67.9224 76.4084Z" fill="#3F3D56"/>
<path d="M66.2119 76.4084H66.8678C66.9228 76.4084 66.9675 76.3637 66.9675 76.3085V75.9937C66.9675 75.9385 66.9228 75.8937 66.8678 75.8937H66.2119C66.1569 75.8937 66.1123 75.9385 66.1123 75.9937V76.3085C66.1123 76.3637 66.1569 76.4084 66.2119 76.4084Z" fill="#3F3D56"/>
<path d="M64.5016 76.4084H65.1575C65.2125 76.4084 65.2571 76.3637 65.2571 76.3085V75.9937C65.2571 75.9385 65.2125 75.8937 65.1575 75.8937H64.5016C64.4466 75.8937 64.4019 75.9385 64.4019 75.9937V76.3085C64.4019 76.3637 64.4466 76.4084 64.5016 76.4084Z" fill="#3F3D56"/>
<path d="M62.7912 76.4084H63.447C63.5021 76.4084 63.5467 76.3637 63.5467 76.3085V75.9937C63.5467 75.9385 63.5021 75.8937 63.447 75.8937H62.7912C62.7361 75.8937 62.6915 75.9385 62.6915 75.9937V76.3085C62.6915 76.3637 62.7361 76.4084 62.7912 76.4084Z" fill="#3F3D56"/>
<path d="M61.0807 76.4084H61.7365C61.7916 76.4084 61.8362 76.3637 61.8362 76.3085V75.9937C61.8362 75.9385 61.7916 75.8937 61.7365 75.8937H61.0807C61.0256 75.8937 60.981 75.9385 60.981 75.9937V76.3085C60.981 76.3637 61.0256 76.4084 61.0807 76.4084Z" fill="#3F3D56"/>
<path d="M59.3703 76.4084H60.0261C60.0812 76.4084 60.1258 76.3637 60.1258 76.3085V75.9937C60.1258 75.9385 60.0812 75.8937 60.0261 75.8937H59.3703C59.3152 75.8937 59.2706 75.9385 59.2706 75.9937V76.3085C59.2706 76.3637 59.3152 76.4084 59.3703 76.4084Z" fill="#3F3D56"/>
<path d="M57.6599 76.4084H58.3157C58.3708 76.4084 58.4154 76.3637 58.4154 76.3085V75.9937C58.4154 75.9385 58.3708 75.8937 58.3157 75.8937H57.6599C57.6048 75.8937 57.5602 75.9385 57.5602 75.9937V76.3085C57.5602 76.3637 57.6048 76.4084 57.6599 76.4084Z" fill="#3F3D56"/>
<path d="M55.9494 76.4084H56.6053C56.6603 76.4084 56.705 76.3637 56.705 76.3085V75.9937C56.705 75.9385 56.6603 75.8937 56.6053 75.8937H55.9494C55.8944 75.8937 55.8497 75.9385 55.8497 75.9937V76.3085C55.8497 76.3637 55.8944 76.4084 55.9494 76.4084Z" fill="#3F3D56"/>
<path d="M54.239 76.4084H54.8949C54.9499 76.4084 54.9945 76.3637 54.9945 76.3085V75.9937C54.9945 75.9385 54.9499 75.8937 54.8949 75.8937H54.239C54.1839 75.8937 54.1393 75.9385 54.1393 75.9937V76.3085C54.1393 76.3637 54.1839 76.4084 54.239 76.4084Z" fill="#3F3D56"/>
<path d="M65.6988 77.438H72.3412C72.3962 77.438 72.4409 77.3932 72.4409 77.338V77.0232C72.4409 76.968 72.3962 76.9232 72.3412 76.9232H65.6988C65.6438 76.9232 65.5991 76.968 65.5991 77.0232V77.338C65.5991 77.3932 65.6438 77.438 65.6988 77.438Z" fill="#3F3D56"/>
<g filter="url(#filter0_f_34_281)">
<ellipse cx="94.5" cy="144" rx="63.5" ry="5" fill="#7C7C7C" fill-opacity="0.5"/>
</g>
<defs>
<filter id="filter0_f_34_281" x="16" y="124" width="157" height="40" filterUnits="userSpaceOnUse" color-interpolation-filters="sRGB">
<feFlood flood-opacity="0" result="BackgroundImageFix"/>
<feBlend mode="normal" in="SourceGraphic" in2="BackgroundImageFix" result="shape"/>
<feGaussianBlur stdDeviation="7.5" result="effect1_foregroundBlur_34_281"/>
</filter>
</defs>
</svg>
