<svg width="169" height="110" viewBox="0 0 169 110" fill="none" xmlns="http://www.w3.org/2000/svg">
<path d="M49.7861 51.0125H28.8481V74.425H49.7861V51.0125Z" fill="#CCCCCC"/>
<path d="M18.1889 109.639H7.52952L6.38745 100.502H19.3309L18.1889 109.639Z" fill="#B0B0B0"/>
<path d="M39.5932 103.021L39.2335 107.939C39.2172 108.161 39.2487 108.385 39.3259 108.594C39.403 108.803 39.5241 108.994 39.6809 109.153C39.8378 109.312 40.0267 109.435 40.2352 109.515C40.4436 109.595 40.6667 109.629 40.8895 109.615L43.4153 109.462C43.5324 109.455 43.6464 109.422 43.7493 109.366C43.8523 109.31 43.9416 109.232 44.0109 109.137C44.0802 109.043 44.1279 108.934 44.1504 108.819C44.173 108.704 44.17 108.585 44.1416 108.472L42.7395 102.864L39.5932 103.021Z" fill="#E6E6E6"/>
<path d="M60.7207 105.929C63.6934 106.624 65.817 107.613 67.212 108.951C67.7088 109.423 68.3589 109.702 69.0439 109.736C69.9188 109.782 70.6342 109.684 71.1718 109.444H71.1719C71.3096 109.383 71.4286 109.286 71.5164 109.164C71.6043 109.042 71.6578 108.899 71.6715 108.749C71.6878 108.596 71.663 108.443 71.5998 108.303C71.5366 108.164 71.4373 108.044 71.312 107.956L64.2617 102.939L61.267 104.137L60.5684 104.836C60.4928 104.911 60.4357 105.003 60.4017 105.105C60.3677 105.206 60.3577 105.314 60.3725 105.42C60.3872 105.526 60.4264 105.627 60.4868 105.715C60.5472 105.804 60.6273 105.877 60.7207 105.929H60.7207Z" fill="#E6E6E6"/>
<path d="M51.5721 25.6385L31.4197 25.4519C31.4704 22.5166 32.1533 19.6343 33.6461 17.055C34.6265 15.361 34.6053 13.5175 34.3691 11.9643C34.0044 9.56752 34.8523 7.11521 36.7364 5.58946C38.1762 4.42143 39.9934 3.82018 41.8458 3.89894L42.2371 3.91524C43.5117 3.96821 44.7526 4.34055 45.8458 4.99807C46.9391 5.65559 47.8496 6.57722 48.4938 7.67833C49.1486 8.85382 49.4127 10.2071 49.2478 11.5425C49.1201 12.799 49.4258 14.0683 50.1407 15.3497C51.3741 18.1635 51.6412 21.7641 51.5721 25.6385Z" fill="#2F2E41"/>
<path d="M65.0552 103.201L61.1001 104.232L41.8403 62.2736L43.044 103.201H39.0889C34.8625 83.9456 27.2322 61.7232 30.6627 54.7072L51.1262 53.5035L65.0552 103.201Z" fill="#D74500"/>
<path d="M41.6682 18.5951C44.6124 18.5951 46.9991 16.2084 46.9991 13.2642C46.9991 10.3201 44.6124 7.93338 41.6682 7.93338C38.7241 7.93338 36.3374 10.3201 36.3374 13.2642C36.3374 16.2084 38.7241 18.5951 41.6682 18.5951Z" fill="#FFB9B9"/>
<path d="M46.3112 23.0661L37.5411 22.5502C38.4006 20.5775 38.744 18.6779 38.4009 16.8754H44.9355C44.9207 18.2594 45.6094 20.6533 46.3112 23.0661Z" fill="#FFB9B9"/>
<path d="M51.8141 55.0511L32.5544 56.4269L34.5319 22.2923L37.8852 21.3465L41.6683 22.2062L45.4514 20.3146L47.8589 21.1746L51.8141 55.0511Z" fill="#D74500"/>
<path d="M35.8216 79.6418L22.6664 76.6324C26.5782 63.6608 33.6253 33.9854 31.3506 23.41L38.2291 20.3147L35.8216 79.6418Z" fill="#B0B0B0"/>
<path d="M29.459 42.1539L24.472 39.0586L28.725 26.6025C29.1993 25.3172 30.1079 24.238 31.2936 23.5516L32.7262 22.7222L31.8664 35.2754L29.459 42.1539Z" fill="#B0B0B0"/>
<path d="M63.2496 76.8044C59.0976 79.2066 48.7189 80.5457 44.1618 78.868C43.8264 67.1479 43.1688 33.9962 45.2795 19.9707L52.8459 23.0661L52.158 32.3521C48.5407 40.2957 59.0447 67.9635 63.2496 76.8044Z" fill="#B0B0B0"/>
<path d="M62.6477 40.6064L58.0046 39.0587L51.814 32.0081L52.8459 23.066L63.1636 37.511L62.6477 40.6064Z" fill="#B0B0B0"/>
<path d="M48.0966 47.2996C48.1726 47.633 48.3777 47.9227 48.6669 48.1051C48.9561 48.2875 49.3058 48.3478 49.6394 48.2727L53.5807 47.3802L53.0111 44.8645L49.0697 45.7569C48.7361 45.8324 48.4462 46.0374 48.2637 46.3268C48.0812 46.6161 48.0211 46.966 48.0966 47.2996V47.2996Z" fill="#FFB9B9"/>
<path d="M46.3112 11.8885C43.3503 10.671 40.4259 10.5829 37.5411 11.7165L36.3374 7.41748H47.343L46.3112 11.8885Z" fill="#2F2E41"/>
<path d="M51.6422 44.3894L53.8777 48.5165C57.6378 47.4678 60.8965 44.1617 64.0235 40.2623L63.1637 37.5109L57.8329 38.8866L51.6422 44.3894Z" fill="#B0B0B0"/>
<path d="M50.0084 35.8773H49.3206C49.3206 26.1487 47.3175 19.3689 45.3654 19.3689L45.1935 18.6811C46.9441 18.6811 48.0602 21.5027 48.6882 23.8699C49.5396 27.079 50.0084 31.3433 50.0084 35.8773Z" fill="#3F3D56"/>
<path d="M34.1879 33.4698H33.5001C33.5001 24.5599 35.517 19.025 38.487 19.025L38.315 19.7128C36.2607 19.7128 34.1879 23.9666 34.1879 33.4698Z" fill="#3F3D56"/>
<path d="M49.6646 37.7689C50.6143 37.7689 51.3842 36.999 51.3842 36.0493C51.3842 35.0996 50.6143 34.3297 49.6646 34.3297C48.7149 34.3297 47.9449 35.0996 47.9449 36.0493C47.9449 36.999 48.7149 37.7689 49.6646 37.7689Z" fill="#3F3D56"/>
<path d="M31.4365 37.5969H30.7487C30.7487 35.1316 32.1372 33.1259 33.844 33.1259V33.8138C32.5165 33.8138 31.4365 35.5109 31.4365 37.5969Z" fill="#3F3D56"/>
<path d="M36.9393 37.5969H36.2515C36.2515 35.5109 35.1715 33.8138 33.844 33.8138V33.1259C35.5508 33.1259 36.9393 35.1316 36.9393 37.5969Z" fill="#3F3D56"/>
<path d="M36.5954 38.4568C36.9753 38.4568 37.2833 38.1488 37.2833 37.7689C37.2833 37.389 36.9753 37.0811 36.5954 37.0811C36.2156 37.0811 35.9076 37.389 35.9076 37.7689C35.9076 38.1488 36.2156 38.4568 36.5954 38.4568Z" fill="#3F3D56"/>
<path d="M31.0926 38.4568C31.4725 38.4568 31.7805 38.1488 31.7805 37.7689C31.7805 37.389 31.4725 37.0811 31.0926 37.0811C30.7127 37.0811 30.4048 37.389 30.4048 37.7689C30.4048 38.1488 30.7127 38.4568 31.0926 38.4568Z" fill="#3F3D56"/>
<path d="M22.4944 31.4437L26.7862 32.21L36.5954 46.1578L31.3841 44.9316L22.4944 31.4437Z" fill="#D74500"/>
<path d="M21.7332 31.2729C21.6678 31.2739 21.6039 31.2924 21.5481 31.3266C21.4923 31.3607 21.4467 31.4093 21.4161 31.4671C21.3855 31.5249 21.371 31.5898 21.3741 31.6552C21.3772 31.7205 21.3977 31.7838 21.4337 31.8384L30.6029 45.7504C30.654 45.8281 30.7331 45.8833 30.8237 45.9046L35.0899 46.9083C35.1618 46.9253 35.2372 46.9199 35.306 46.893C35.3748 46.8661 35.4338 46.819 35.4752 46.7577C35.5166 46.6965 35.5384 46.6242 35.5377 46.5503C35.537 46.4764 35.5139 46.4044 35.4714 46.344L25.4042 32.0297C25.3769 31.9907 25.3422 31.9575 25.302 31.9319C25.2619 31.9063 25.2171 31.8889 25.1702 31.8807L21.802 31.2791C21.7793 31.2751 21.7562 31.273 21.7332 31.2729V31.2729Z" fill="#3F3D56"/>
<path d="M27.4529 41.2198L27.7078 43.7867L31.7291 43.3875C32.0695 43.3537 32.3825 43.1861 32.5993 42.9215C32.8161 42.6569 32.9189 42.3171 32.8851 41.9767C32.8513 41.6363 32.6837 41.3233 32.4192 41.1065C32.1546 40.8897 31.8147 40.7869 31.4743 40.8206L27.4529 41.2198Z" fill="#FFB9B9"/>
<path d="M23.9562 40.9225C23.962 41.7977 24.3135 42.6352 24.9341 43.2524C25.5547 43.8696 26.3941 44.2165 27.2694 44.2175H27.9306L28.412 40.2058L24.4262 38.7709L23.9562 40.9225Z" fill="#B0B0B0"/>
<g filter="url(#filter0_d_117_368)">
<path d="M162.661 0H84.2385V41.3049H162.661V0Z" fill="#E6E6E6"/>
</g>
<path d="M86.5227 39.0208H160.377V2.28415H86.5227V39.0208Z" fill="white"/>
<path d="M118.501 7.61382H92.2332V33.8815H118.501V7.61382Z" fill="#3F3D56"/>
<path d="M112.219 19.6056C112.64 19.6056 112.981 19.2647 112.981 18.8442C112.981 18.4237 112.64 18.0828 112.219 18.0828C111.799 18.0828 111.458 18.4237 111.458 18.8442C111.458 19.2647 111.799 19.6056 112.219 19.6056Z" fill="#D74500"/>
<path d="M109.364 16.9407C109.785 16.9407 110.126 16.5998 110.126 16.1793C110.126 15.7589 109.785 15.418 109.364 15.418C108.944 15.418 108.603 15.7589 108.603 16.1793C108.603 16.5998 108.944 16.9407 109.364 16.9407Z" fill="#D74500"/>
<path d="M108.983 18.8442C108.703 18.8442 108.429 18.922 108.19 19.069C107.98 18.753 107.733 18.4632 107.454 18.2056C107.458 18.165 107.461 18.1243 107.461 18.0828C107.461 17.784 107.373 17.4918 107.208 17.2425C107.044 16.9933 106.809 16.7981 106.534 16.6812C106.259 16.5644 105.956 16.5311 105.662 16.5854C105.368 16.6398 105.097 16.7795 104.882 16.987C104.474 16.9291 104.061 16.9255 103.652 16.9763C103.652 16.9643 103.654 16.9527 103.654 16.9407C103.654 16.6858 103.59 16.435 103.469 16.2111C103.347 15.9872 103.171 15.7974 102.957 15.6593C102.742 15.5211 102.497 15.4389 102.243 15.4202C101.989 15.4014 101.734 15.4468 101.502 15.5522C101.27 15.6575 101.068 15.8194 100.914 16.0231C100.761 16.2267 100.661 16.4656 100.624 16.7178C100.587 16.97 100.614 17.2274 100.703 17.4665C100.791 17.7056 100.938 17.9187 101.13 18.0862C100.875 18.3046 100.644 18.5492 100.44 18.8159C100.252 18.6595 100.029 18.5507 99.7903 18.4986C99.5514 18.4466 99.3034 18.4528 99.0674 18.5168C98.8314 18.5808 98.6143 18.7007 98.4345 18.8664C98.2546 19.0321 98.1173 19.2386 98.0341 19.4686C97.951 19.6985 97.9244 19.9451 97.9567 20.1875C97.989 20.4299 98.0792 20.6609 98.2197 20.8611C98.3602 21.0612 98.5468 21.2246 98.7637 21.3374C98.9807 21.4502 99.2216 21.509 99.4662 21.509L99.471 21.5088C99.4685 21.5721 99.4662 21.6354 99.4662 21.6993C99.4662 22.0825 99.5125 22.4642 99.6039 22.8363C99.1513 23.0066 98.7495 23.2891 98.436 23.6572C98.1225 24.0254 97.9077 24.4672 97.8118 24.9411C97.7158 25.415 97.7418 25.9055 97.8874 26.3666C98.033 26.8277 98.2933 27.2443 98.644 27.5772C98.9947 27.9102 99.4242 28.1485 99.8922 28.27C100.36 28.3914 100.851 28.3919 101.32 28.2715C101.788 28.1511 102.218 27.9137 102.57 27.5815C102.921 27.2493 103.182 26.8333 103.329 26.3725C104.388 26.5761 105.485 26.4134 106.439 25.9111C106.537 26.1406 106.689 26.3426 106.883 26.4994C107.077 26.6563 107.306 26.7632 107.551 26.8107C107.795 26.8583 108.048 26.845 108.287 26.7721C108.525 26.6992 108.742 26.5689 108.918 26.3926C109.094 26.2163 109.225 25.9995 109.298 25.7611C109.37 25.5227 109.384 25.27 109.336 25.0253C109.289 24.7806 109.182 24.5513 109.025 24.3575C108.868 24.1638 108.666 24.0115 108.437 23.914C108.766 23.2882 108.952 22.5963 108.979 21.8895L108.983 21.8897C109.387 21.8897 109.775 21.7293 110.06 21.4437C110.346 21.1581 110.506 20.7708 110.506 20.3669C110.506 19.9631 110.346 19.5758 110.06 19.2902C109.775 19.0046 109.387 18.8442 108.983 18.8442V18.8442Z" fill="#D74500"/>
<path d="M108.603 7.04277H100.989V8.18484H108.603V7.04277Z" fill="#E6E6E6"/>
<path d="M152.001 7.61382H125.734V33.8815H152.001V7.61382Z" fill="#3F3D56"/>
<path d="M143.855 25.4301C144.044 25.4301 144.197 25.2767 144.197 25.0875C144.197 24.8983 144.044 24.7449 143.855 24.7449C143.665 24.7449 143.512 24.8983 143.512 25.0875C143.512 25.2767 143.665 25.4301 143.855 25.4301Z" fill="#D74500"/>
<path d="M142.57 24.2309C142.759 24.2309 142.912 24.0775 142.912 23.8883C142.912 23.6991 142.759 23.5457 142.57 23.5457C142.381 23.5457 142.227 23.6991 142.227 23.8883C142.227 24.0775 142.381 24.2309 142.57 24.2309Z" fill="#D74500"/>
<path d="M142.398 25.0875C142.272 25.0875 142.149 25.1226 142.041 25.1887C141.947 25.0465 141.836 24.9161 141.71 24.8001C141.712 24.7819 141.713 24.7635 141.713 24.7449C141.713 24.6104 141.674 24.4789 141.6 24.3668C141.526 24.2546 141.42 24.1668 141.296 24.1142C141.173 24.0616 141.036 24.0466 140.904 24.0711C140.772 24.0955 140.65 24.1584 140.553 24.2518C140.369 24.2257 140.183 24.2241 139.999 24.247C139.999 24.2416 140 24.2364 140 24.231C140 24.1163 139.972 24.0034 139.917 23.9026C139.862 23.8019 139.783 23.7165 139.686 23.6543C139.59 23.5921 139.48 23.5551 139.365 23.5467C139.251 23.5383 139.136 23.5587 139.032 23.6061C138.927 23.6535 138.836 23.7264 138.767 23.818C138.698 23.9097 138.654 24.0172 138.637 24.1306C138.62 24.2441 138.632 24.36 138.672 24.4676C138.712 24.5751 138.778 24.671 138.864 24.7464C138.75 24.8447 138.646 24.9548 138.554 25.0748C138.469 25.0044 138.369 24.9555 138.262 24.932C138.154 24.9086 138.042 24.9114 137.936 24.9402C137.83 24.969 137.732 25.023 137.651 25.0975C137.571 25.1721 137.509 25.265 137.471 25.3685C137.434 25.472 137.422 25.5829 137.436 25.692C137.451 25.8011 137.492 25.905 137.555 25.9951C137.618 26.0852 137.702 26.1587 137.8 26.2095C137.897 26.2602 138.006 26.2867 138.116 26.2867L138.118 26.2866C138.117 26.3151 138.116 26.3436 138.116 26.3723C138.116 26.5448 138.137 26.7165 138.178 26.884C137.974 26.9606 137.793 27.0877 137.652 27.2534C137.511 27.4191 137.414 27.6179 137.371 27.8311C137.328 28.0444 137.34 28.2651 137.405 28.4726C137.471 28.6801 137.588 28.8676 137.746 29.0174C137.904 29.1672 138.097 29.2745 138.307 29.3291C138.518 29.3838 138.739 29.384 138.95 29.3298C139.161 29.2756 139.354 29.1688 139.512 29.0193C139.67 28.8698 139.788 28.6826 139.854 28.4753C140.331 28.5669 140.824 28.4937 141.254 28.2676C141.298 28.3709 141.366 28.4618 141.453 28.5324C141.54 28.603 141.644 28.6511 141.754 28.6725C141.864 28.6939 141.978 28.6879 142.085 28.6551C142.192 28.6223 142.29 28.5636 142.369 28.4843C142.448 28.405 142.507 28.3074 142.54 28.2001C142.573 28.0928 142.579 27.9791 142.557 27.869C142.536 27.7589 142.488 27.6557 142.417 27.5685C142.347 27.4813 142.256 27.4128 142.152 27.3689C142.301 27.0873 142.384 26.776 142.396 26.4579L142.398 26.458C142.58 26.458 142.755 26.3858 142.883 26.2573C143.012 26.1288 143.084 25.9545 143.084 25.7728C143.084 25.591 143.012 25.4167 142.883 25.2882C142.755 25.1597 142.58 25.0875 142.398 25.0875V25.0875Z" fill="#D74500"/>
<path d="M146.543 18.9283C146.732 18.9283 146.885 18.7749 146.885 18.5856C146.885 18.3964 146.732 18.243 146.543 18.243C146.353 18.243 146.2 18.3964 146.2 18.5856C146.2 18.7749 146.353 18.9283 146.543 18.9283Z" fill="#D74500"/>
<path d="M147.349 17.3665C147.538 17.3665 147.691 17.2131 147.691 17.0238C147.691 16.8346 147.538 16.6812 147.349 16.6812C147.159 16.6812 147.006 16.8346 147.006 17.0238C147.006 17.2131 147.159 17.3665 147.349 17.3665Z" fill="#D74500"/>
<path d="M146.148 17.184C146.114 17.0627 146.047 16.9532 145.954 16.8678C146.065 16.7382 146.16 16.5959 146.238 16.4438C146.256 16.4403 146.274 16.4366 146.292 16.4315C146.421 16.3952 146.537 16.3215 146.625 16.2198C146.713 16.118 146.769 15.9926 146.786 15.8593C146.803 15.7259 146.781 15.5905 146.721 15.4698C146.662 15.3492 146.568 15.2487 146.452 15.181C146.427 14.9973 146.379 14.8177 146.307 14.6468C146.312 14.6455 146.317 14.6447 146.322 14.6433C146.433 14.6123 146.534 14.5541 146.616 14.4741C146.698 14.394 146.759 14.2946 146.792 14.1849C146.826 14.0753 146.832 13.959 146.809 13.8466C146.786 13.7342 146.735 13.6294 146.661 13.5417C146.587 13.454 146.493 13.3863 146.386 13.3447C146.279 13.3032 146.163 13.2891 146.049 13.3039C145.936 13.3186 145.827 13.3617 145.735 13.4291C145.642 13.4965 145.567 13.5861 145.518 13.6898C145.393 13.606 145.258 13.5357 145.118 13.48C145.163 13.3795 145.183 13.2697 145.176 13.1598C145.17 13.05 145.137 12.9434 145.08 12.8489C145.024 12.7545 144.945 12.6751 144.852 12.6174C144.758 12.5597 144.652 12.5254 144.542 12.5175C144.432 12.5095 144.322 12.5281 144.221 12.5716C144.12 12.6152 144.031 12.6825 143.961 12.7677C143.892 12.853 143.844 12.9537 143.821 13.0615C143.799 13.1692 143.803 13.2807 143.833 13.3867L143.833 13.3887C143.806 13.3954 143.778 13.4021 143.75 13.4099C143.584 13.4566 143.425 13.5232 143.275 13.6082C143.146 13.433 142.974 13.2933 142.777 13.2025C142.579 13.1116 142.361 13.0725 142.144 13.0887C141.927 13.1049 141.718 13.1761 141.536 13.2954C141.354 13.4147 141.205 13.5782 141.104 13.7707C141.003 13.9633 140.952 14.1784 140.956 14.3959C140.961 14.6135 141.02 14.8263 141.13 15.0145C141.239 15.2026 141.394 15.3599 141.581 15.4716C141.768 15.5833 141.98 15.6457 142.197 15.653C142.238 16.1366 142.443 16.5919 142.777 16.9441C142.689 17.0143 142.62 17.1049 142.576 17.208C142.532 17.3111 142.513 17.4234 142.522 17.5352C142.532 17.647 142.568 17.7548 142.629 17.8492C142.69 17.9436 142.773 18.0216 142.87 18.0765C142.968 18.1313 143.078 18.1613 143.19 18.1638C143.302 18.1663 143.413 18.1412 143.514 18.0908C143.614 18.0403 143.7 17.9661 143.765 17.8745C143.83 17.7829 143.871 17.6768 143.885 17.5655C144.197 17.632 144.519 17.6279 144.828 17.5534L144.829 17.5555C144.853 17.6422 144.894 17.7232 144.95 17.794C145.006 17.8647 145.075 17.9238 145.153 17.9679C145.232 18.0119 145.318 18.04 145.408 18.0507C145.497 18.0613 145.588 18.0542 145.674 18.0298C145.761 18.0054 145.842 17.9642 145.913 17.9084C145.983 17.8527 146.042 17.7836 146.086 17.7051C146.13 17.6265 146.158 17.5401 146.169 17.4507C146.18 17.3612 146.172 17.2706 146.148 17.184V17.184Z" fill="#D74500"/>
<path d="M133.272 14.2724C133.462 14.2724 133.615 14.119 133.615 13.9297C133.615 13.7405 133.462 13.5871 133.272 13.5871C133.083 13.5871 132.93 13.7405 132.93 13.9297C132.93 14.119 133.083 14.2724 133.272 14.2724Z" fill="#D74500"/>
<path d="M131.521 14.4127C131.71 14.4127 131.863 14.2593 131.863 14.0701C131.863 13.8809 131.71 13.7275 131.521 13.7275C131.331 13.7275 131.178 13.8809 131.178 14.0701C131.178 14.2593 131.331 14.4127 131.521 14.4127Z" fill="#D74500"/>
<path d="M132.291 15.0052C132.206 15.0983 132.148 15.2132 132.125 15.337C131.956 15.311 131.785 15.3051 131.615 15.3195C131.602 15.3061 131.589 15.2928 131.576 15.2802C131.476 15.1895 131.353 15.13 131.22 15.1091C131.087 15.0883 130.951 15.107 130.829 15.1629C130.707 15.2188 130.603 15.3095 130.532 15.4236C130.461 15.5378 130.425 15.6703 130.429 15.8047C130.286 15.9227 130.159 16.059 130.052 16.2103C130.048 16.2065 130.045 16.2025 130.041 16.1989C129.956 16.1214 129.854 16.0665 129.742 16.039C129.631 16.0116 129.515 16.0125 129.404 16.0418C129.293 16.071 129.191 16.1276 129.108 16.2065C129.024 16.2853 128.962 16.3837 128.927 16.4928C128.891 16.6019 128.884 16.7181 128.905 16.8309C128.926 16.9436 128.975 17.0492 129.048 17.138C129.12 17.2268 129.214 17.296 129.32 17.3392C129.427 17.3824 129.542 17.3982 129.656 17.3852C129.651 17.5362 129.662 17.6872 129.689 17.8359C129.58 17.8509 129.476 17.8919 129.387 17.9555C129.297 18.0191 129.224 18.1034 129.173 18.2013C129.123 18.2991 129.097 18.4077 129.098 18.5177C129.098 18.6277 129.125 18.736 129.176 18.8334C129.227 18.9308 129.301 19.0145 129.392 19.0773C129.482 19.1401 129.586 19.1802 129.695 19.1942C129.804 19.2083 129.915 19.1958 130.019 19.1579C130.122 19.1201 130.215 19.0579 130.289 18.9766L130.29 18.9749C130.31 18.9949 130.331 19.0149 130.352 19.0343C130.479 19.1506 130.62 19.251 130.772 19.3335C130.691 19.5356 130.663 19.7548 130.69 19.9707C130.717 20.1866 130.799 20.392 130.927 20.5677C131.056 20.7434 131.227 20.8836 131.424 20.9751C131.622 21.0666 131.839 21.1065 132.056 21.0909C132.273 21.0754 132.483 21.005 132.665 20.8863C132.847 20.7676 132.996 20.6045 133.099 20.4123C133.201 20.2202 133.252 20.0052 133.248 19.7876C133.245 19.5701 133.186 19.357 133.077 19.1685C133.466 18.8783 133.745 18.4644 133.867 17.9947C133.973 18.032 134.087 18.0426 134.198 18.0258C134.308 18.009 134.414 17.9653 134.504 17.8984C134.594 17.8315 134.666 17.7435 134.714 17.6421C134.762 17.5408 134.785 17.4292 134.779 17.3171C134.774 17.205 134.742 17.0959 134.685 16.9994C134.628 16.9028 134.548 16.8218 134.452 16.7633C134.356 16.7049 134.248 16.6708 134.136 16.6641C134.024 16.6575 133.912 16.6784 133.81 16.7251C133.702 16.4256 133.528 16.1542 133.301 15.9307L133.303 15.9292C133.364 15.8627 133.411 15.785 133.442 15.7003C133.472 15.6157 133.486 15.5258 133.482 15.4358C133.478 15.3458 133.456 15.2575 133.418 15.1759C133.38 15.0944 133.326 15.0211 133.259 14.9604C133.193 14.8997 133.115 14.8526 133.03 14.822C132.946 14.7914 132.856 14.7778 132.766 14.7819C132.676 14.7861 132.588 14.8079 132.506 14.8463C132.425 14.8846 132.351 14.9385 132.291 15.0052V15.0052Z" fill="#D74500"/>
<path d="M142.103 7.04277H134.49V8.18484H142.103V7.04277Z" fill="#E6E6E6"/>
<path d="M4.79213 97.1223C7.53684 100.798 13.2343 101.185 13.2343 101.185C13.2343 101.185 14.4818 95.6123 11.737 91.9365C8.99233 88.2607 3.29485 87.8739 3.29485 87.8739C3.29485 87.8739 2.04742 93.4466 4.79213 97.1223Z" fill="#B0B0B0"/>
<path d="M18.7743 98.5042C16.9632 100.93 13.2036 101.185 13.2036 101.185C13.2036 101.185 12.3805 97.5077 14.1916 95.0822C16.0028 92.6567 19.7624 92.4014 19.7624 92.4014C19.7624 92.4014 20.5855 96.0786 18.7743 98.5042Z" fill="#B0B0B0"/>
<path d="M98.8951 109.573H0V110H98.8951V109.573Z" fill="#3F3D56"/>
<defs>
<filter id="filter0_d_117_368" x="82.2385" y="0" width="86.4222" height="49.3049" filterUnits="userSpaceOnUse" color-interpolation-filters="sRGB">
<feFlood flood-opacity="0" result="BackgroundImageFix"/>
<feColorMatrix in="SourceAlpha" type="matrix" values="0 0 0 0 0 0 0 0 0 0 0 0 0 0 0 0 0 0 127 0" result="hardAlpha"/>
<feOffset dx="2" dy="4"/>
<feGaussianBlur stdDeviation="2"/>
<feComposite in2="hardAlpha" operator="out"/>
<feColorMatrix type="matrix" values="0 0 0 0 0 0 0 0 0 0 0 0 0 0 0 0 0 0 0.05 0"/>
<feBlend mode="normal" in2="BackgroundImageFix" result="effect1_dropShadow_117_368"/>
<feBlend mode="normal" in="SourceGraphic" in2="effect1_dropShadow_117_368" result="shape"/>
</filter>
</defs>
</svg>
