<svg width="141" height="158" viewBox="0 0 141 158" fill="none" xmlns="http://www.w3.org/2000/svg">
<path d="M112.218 41.7447C112.011 41.6718 111.83 41.5343 111.701 41.3507C111.571 41.1672 111.498 40.9464 111.493 40.7185C111.488 40.4905 111.549 40.2663 111.67 40.0762C111.791 39.8861 111.965 39.7394 112.168 39.6559L112.342 39.4011C112.341 39.3749 112.341 39.3486 112.34 39.3224C112.274 36.6756 104.071 40.6487 103.021 42.6847C102.557 43.5848 102.246 44.562 102.103 45.5729C101.817 40.5029 102.58 35.4282 104.34 30.6927C104.782 29.5049 105.288 28.3438 105.855 27.2149C106.321 26.2898 106.824 25.388 107.366 24.5096C110.31 19.7457 114.296 15.7782 118.995 12.9331C120.763 13.7719 122.453 14.1277 123.969 10.5367C124.239 9.89798 124.911 9.52293 125.251 8.92411C125.07 8.87768 124.889 8.82126 124.712 8.76298C124.657 8.7441 124.6 8.7241 124.545 8.70525L124.524 8.69797C124.331 8.62987 124.161 8.50506 124.035 8.33857C123.908 8.17208 123.831 7.97101 123.811 7.75955C123.792 7.54809 123.831 7.33527 123.925 7.1467C124.019 6.95814 124.163 6.80187 124.34 6.69671C124.45 6.63134 124.56 6.56603 124.67 6.50077C124.839 6.39918 125.009 6.30172 125.177 6.20015C125.195 6.19144 125.213 6.18164 125.23 6.17081C125.423 6.05548 125.614 5.94308 125.807 5.82775C125.713 5.34689 125.514 4.89519 125.225 4.50787C124.219 3.18209 122.214 3.00353 120.814 3.85135C119.41 4.698 118.588 6.35143 118.343 8.02154C118.178 9.46029 118.248 10.9179 118.552 12.3319C118.446 12.3976 118.338 12.4592 118.232 12.5249C116.293 13.7338 114.472 15.138 112.796 16.7174C113.875 14.649 113.541 5.46112 112.899 3.28299C112.128 0.666752 108.69 0.27627 107.477 2.70321C107.465 2.72672 107.454 2.75023 107.442 2.77374C107.589 2.96035 107.729 3.15214 107.862 3.34911C108.029 3.59815 108.12 3.89402 108.123 4.19796C108.126 4.5019 108.041 4.79974 107.88 5.05245C107.718 5.30516 107.486 5.50095 107.216 5.61418C106.946 5.72741 106.649 5.75279 106.364 5.68699L106.335 5.68026C102.427 8.40172 106.847 21.4086 109.678 20.0405C107.683 22.4599 105.998 25.1397 104.665 28.0124C103.885 29.7094 103.237 31.4695 102.728 33.2755L102.743 33.2101C103.715 29.2215 98.1437 20.4425 95.7243 20.003C94.3306 19.7499 93.0807 19.1713 92.7695 20.611C92.7646 20.634 92.7597 20.657 92.7548 20.68C93.0478 20.9693 93.3233 21.2774 93.5796 21.6025C93.726 21.7891 93.866 21.9809 93.9995 22.1778C94.1665 22.4269 94.2576 22.7227 94.2607 23.0267C94.2638 23.3306 94.1788 23.6285 94.0169 23.8812C93.855 24.1339 93.6237 24.3297 93.3533 24.4429C93.0829 24.5562 92.786 24.5815 92.5015 24.5157L92.4724 24.509C92.4515 24.5039 92.4334 24.5 92.4126 24.4949C89.7381 28.1347 95.7462 38.2005 101.687 38.1859L101.69 38.187C101.337 40.7102 101.236 43.2648 101.389 45.8097L109.279 49.0129C109.341 48.9329 109.402 48.8488 109.462 48.7677C108.713 48.5191 107.997 48.1759 107.329 47.7457C108.194 47.2341 109.061 46.7165 109.926 46.2049C109.944 46.1962 109.962 46.1864 109.979 46.1756C110.419 45.9127 110.861 45.6538 111.301 45.3909L111.301 45.3905C111.756 44.2214 112.064 42.9961 112.218 41.7449L112.218 41.7447ZM110.101 19.5362L110.107 19.532L110.098 19.5421L110.101 19.5362ZM102.222 35.2609L102.213 35.0741C102.259 34.9602 102.302 34.8451 102.343 34.726C102.355 34.6935 102.362 34.6588 102.374 34.6263C102.323 34.8402 102.27 35.053 102.222 35.268L102.222 35.2609Z" fill="#B9B9B9"/>
<path d="M99.7914 43.2256C99.6034 19.9271 81.4479 1.09731 59.0718 1.08448C36.5024 1.07165 18.2959 20.3851 18.2959 43.9182V121.088C18.2959 123.08 19.0546 124.991 20.4051 126.4C21.7556 127.809 23.5872 128.6 25.497 128.6H99.7914C122.296 128.6 140.539 109.202 140.539 85.7259C140.539 62.2496 122.296 43.2256 99.7914 43.2256Z" fill="#D74500"/>
<path opacity="0.1" d="M99.7903 42.8597C99.6024 19.5611 81.4468 0.731322 59.0707 0.718506C46.8359 0.718506 35.8867 6.38741 28.4186 15.3342C35.4893 9.64591 44.1701 6.56738 53.0991 6.58161C75.4752 6.59444 93.6308 25.4242 93.8187 48.7228C116.323 48.7228 134.566 67.7541 134.566 91.2304C134.58 101.47 131.036 111.369 124.592 119.093C129.555 115.128 133.576 110.022 136.342 104.173C139.107 98.3243 140.543 91.889 140.538 85.3672C140.538 61.891 122.295 42.8597 99.7903 42.8597Z" fill="black"/>
<path d="M61.7781 68.9353C60.1175 63.4143 56.3411 58.3507 51.1185 56.4843C45.8956 54.6179 38.2479 57.461 34.3214 61.5432C27.1391 69.0104 26.7735 96.3757 31.708 104.482C32.6895 104.428 36.0763 104.388 37.0696 104.349L38.4749 99.4631V104.301C46.2286 104.051 54.8587 110.704 62.3775 104.369C63.1014 98.6298 63.4388 74.4563 61.7781 68.9353Z" fill="#2F2E41"/>
<path d="M50.4578 86.2575C56.644 86.2575 61.6589 81.026 61.6589 74.5726C61.6589 68.1192 56.644 62.8878 50.4578 62.8878C44.2716 62.8878 39.2567 68.1192 39.2567 74.5726C39.2567 81.026 44.2716 86.2575 50.4578 86.2575Z" fill="#FFB7B7"/>
<path d="M58.1544 59.3576C53.8757 56.6364 48.1733 56.558 43.827 59.1605C39.481 61.7631 36.6702 66.9395 36.7647 72.1663C43.0257 72.4667 49.5202 78.6008 56.2721 72.5584L57.8483 68.5343L58.7775 72.5614C60.8096 72.5612 62.8456 72.5584 64.8855 72.553C65.1124 67.3307 62.4334 62.0787 58.1544 59.3576Z" fill="#2F2E41"/>
<path d="M60.6554 67.2829C63.2258 62.1553 67.8011 57.8682 73.2579 56.9948C74.694 56.7912 76.1539 56.8681 77.563 57.2217C85.5977 59.1027 90.6242 67.4579 89.0538 75.8904C88.7422 77.5631 88.3784 79.2936 88.1185 81.2151C88.0282 81.8718 87.809 82.502 87.4747 83.0664C87.1405 83.6307 86.6982 84.1171 86.1757 84.4952C85.6531 84.8733 85.0614 85.1349 84.4376 85.2637C83.8137 85.3925 83.1711 85.3858 82.5499 85.2439L82.52 85.2372L81.1451 84.9305C77.0589 84.0278 72.3834 85.0479 67.9502 84.9921C61.343 84.9091 56.6993 78.1809 58.8059 71.6475C59.3111 70.144 59.9295 68.6846 60.6554 67.2829V67.2829Z" fill="#E6E7E8"/>
<path d="M70.8404 86.6031C77.0266 86.6031 82.0415 81.3716 82.0415 74.9183C82.0415 68.4649 77.0266 63.2334 70.8404 63.2334C64.6543 63.2334 59.6394 68.4649 59.6394 74.9183C59.6394 81.3716 64.6543 86.6031 70.8404 86.6031Z" fill="#FFB7B7"/>
<path d="M65.8447 58.5214C70.5173 56.6326 76.1431 57.6074 79.9797 60.9708C83.8159 64.3342 85.7049 69.9476 84.7257 75.0745C78.5124 74.215 71.0804 79.0543 65.4593 71.8614L64.5902 67.6099L62.9929 71.4021C60.9928 71.027 58.9894 70.6486 56.9826 70.267C57.6446 65.0851 61.1718 60.4102 65.8447 58.5214Z" fill="#E6E7E8"/>
<path d="M97.6948 87.2967C97.1719 86.8653 96.5648 86.5587 95.9161 86.3985C95.2674 86.2383 94.5929 86.2285 93.9402 86.3696C93.2874 86.5108 92.6723 86.7995 92.1381 87.2155C91.6039 87.6315 91.1636 88.1647 90.8483 88.7774L59.2313 100.365L62.3686 107.321L92.9771 95.4209C93.9989 95.9053 95.1555 95.9819 96.2278 95.6361C97.3001 95.2903 98.2135 94.5462 98.795 93.5448C99.3766 92.5434 99.5857 91.3542 99.383 90.2026C99.1802 89.0511 98.5795 88.0171 97.6948 87.2967V87.2967Z" fill="#FFB6B6"/>
<path d="M63.9094 94.9386L59.2386 97.0468L56.7423 98.1747L55.1134 98.9086C54.4234 99.0992 53.7778 99.4345 53.216 99.894C52.2549 100.678 51.582 101.783 51.3109 103.024C51.0398 104.265 51.1871 105.565 51.7278 106.706C52.2685 107.847 53.1696 108.759 54.2794 109.287C55.3892 109.816 56.6397 109.929 57.8203 109.609L67.3798 108.469C67.6516 108.436 67.9133 108.342 68.1472 108.194C68.3811 108.046 68.5818 107.847 68.7357 107.611C69.0513 107.129 72.0024 105.679 71.8598 105.116L73.1226 104.512L74.9553 103.913L81.8358 100.611L80.7954 96.5971L81.7579 91.6699C81.6139 91.1142 66.0018 95.2208 65.5027 94.9752C65.2555 94.8491 64.985 94.7806 64.7099 94.7743C64.4348 94.7679 64.1617 94.824 63.9094 94.9386V94.9386Z" fill="#3F3D56"/>
<path d="M77.2972 128.009H33.6278C31.816 128.009 30.0785 127.259 28.7974 125.922C27.5163 124.586 26.7966 122.773 26.7966 120.883V104.112C26.7966 102.222 27.5163 100.409 28.7974 99.0728C30.0785 97.7363 31.816 96.9855 33.6278 96.9855L39.2141 88.7744H58.7138L77.2972 96.9855C78.1943 96.9855 79.0826 97.1699 79.9114 97.528C80.7402 97.8861 81.4932 98.411 82.1276 99.0728C82.7619 99.7345 83.2651 100.52 83.6084 101.385C83.9517 102.249 84.1284 103.176 84.1284 104.112V120.883C84.1284 121.819 83.9517 122.746 83.6084 123.61C83.2651 124.475 82.7619 125.26 82.1276 125.922C81.4932 126.584 80.7402 127.109 79.9114 127.467C79.0826 127.825 78.1943 128.009 77.2972 128.009V128.009Z" fill="#3F3D56"/>
<path d="M92.931 128.009H53.873C52.9759 128.009 52.0876 127.825 51.2588 127.467C50.43 127.109 49.677 126.584 49.0426 125.922C48.4083 125.26 47.9051 124.475 47.5618 123.61C47.2185 122.746 47.0418 121.819 47.0418 120.883V104.112C47.0418 102.222 47.7616 100.409 49.0426 99.0728C50.3237 97.7363 52.0613 96.9855 53.873 96.9855L64.1577 88.7744H83.6573L92.931 96.9855C94.7428 96.9855 96.4803 97.7363 97.7614 99.0728C99.0425 100.409 99.7622 102.222 99.7622 104.112V120.883C99.7622 122.773 99.0425 124.586 97.7614 125.922C96.4803 127.259 94.7428 128.009 92.931 128.009Z" fill="#2F2E41"/>
<path d="M57.8352 125.931C57.4666 126.478 56.9874 126.935 56.4315 127.268C55.8755 127.601 55.2563 127.803 54.6175 127.859C53.9786 127.916 53.3357 127.826 52.7339 127.595C52.1321 127.364 51.5862 126.998 51.1345 126.524L23.8518 127.444L20.3634 127.562C16.7752 127.683 14.7084 123.352 16.9636 120.438L19.3868 117.307L28.0537 118.725L31.1876 118.869L51.3516 119.79C52.1663 119.052 53.2125 118.65 54.2919 118.663C55.3713 118.675 56.4089 119.1 57.2081 119.857C58.0073 120.614 58.5126 121.65 58.6281 122.77C58.7437 123.889 58.4616 125.014 57.8352 125.931L57.8352 125.931Z" fill="#FFB6B6"/>
<path d="M33.7691 90.4581C33.7691 90.4581 28.5685 89.0816 26.1035 93.5097C24.1301 97.0548 17.4172 110.463 16.0237 115.965C9.22427 133.059 25.0331 126.252 24.5908 127.865L29.8796 118.808C32.1777 117.609 27.7542 119.156 27.1715 118.297L31.2257 113.7L35.8217 111.303L37.5082 92.5343L33.7691 90.4581Z" fill="#3F3D56"/>
<path d="M52.8343 126.646C53.2029 127.193 53.6821 127.649 54.238 127.982C54.794 128.316 55.4132 128.517 56.052 128.574C56.6909 128.63 57.3338 128.54 57.9356 128.309C58.5374 128.079 59.0833 127.713 59.535 127.238L86.8177 128.159L90.3061 128.276C93.8943 128.397 95.9611 124.067 93.7059 121.153L91.2827 118.022L82.6158 119.44L79.4819 119.583L59.3179 120.505C58.5032 119.766 57.457 119.365 56.3776 119.377C55.2982 119.389 54.2606 119.814 53.4614 120.571C52.6622 121.328 52.157 122.365 52.0414 123.484C51.9258 124.604 52.2079 125.729 52.8343 126.646L52.8343 126.646Z" fill="#FFB6B6"/>
<path d="M76.8998 91.1756C76.8998 91.1756 82.1004 89.7991 84.5654 94.2272C86.5388 97.7722 93.2517 111.18 94.6452 116.683C101.445 133.777 85.6358 126.969 86.0781 128.582L80.7893 119.526C78.4912 118.327 82.9147 119.874 83.4974 119.014L79.4432 114.418L74.8471 112.021L73.1607 93.2517L76.8998 91.1756Z" fill="#2F2E41"/>
<g filter="url(#filter0_f_34_208)">
<ellipse cx="70.5" cy="142.5" rx="60.5" ry="5.5" fill="#B0B0B0" fill-opacity="0.6"/>
</g>
<defs>
<filter id="filter0_f_34_208" x="0" y="127" width="141" height="31" filterUnits="userSpaceOnUse" color-interpolation-filters="sRGB">
<feFlood flood-opacity="0" result="BackgroundImageFix"/>
<feBlend mode="normal" in="SourceGraphic" in2="BackgroundImageFix" result="shape"/>
<feGaussianBlur stdDeviation="5" result="effect1_foregroundBlur_34_208"/>
</filter>
</defs>
</svg>
