<svg width="135" height="186" viewBox="0 0 135 186" fill="none" xmlns="http://www.w3.org/2000/svg">
<path d="M54.2915 19.2157C56.8945 11.0776 62.8136 3.61373 70.9995 0.862631C79.186 -1.88847 91.1731 2.30235 97.3275 8.31959C108.585 19.3263 108.931 32.8005 101.197 44.7495C99.6587 44.6696 94.3502 44.6105 92.7932 44.5533L90.5906 37.3513V44.4824C78.4374 44.1139 64.9105 53.9205 53.1255 44.5832C51.9908 36.1231 51.6886 27.3537 54.2915 19.2157Z" fill="#2F2E41"/>
<path d="M87.2938 103.661L89.8003 110.183L89.2991 116.706L41.173 110.685L42.6768 105.166L48.1912 98.644L87.2938 103.661Z" fill="#FFB6B6"/>
<path d="M72.4334 45.8486C82.0248 45.8486 89.8003 38.0732 89.8003 28.4817C89.8003 18.8902 82.0248 11.1148 72.4334 11.1148C62.8419 11.1148 55.0665 18.8902 55.0665 28.4817C55.0665 38.0732 62.8419 45.8486 72.4334 45.8486Z" fill="#FFB7B7"/>
<path d="M53.5066 57.88L63.4503 51.9825L83.3375 50.0167L100.915 53.9484L100.739 85.8933L89.5879 113.927L42.8528 108.029L41.0771 98.1411C41.0771 98.1411 28.1504 80.9787 42.0715 71.1495L53.5066 57.88Z" fill="#D74500"/>
<path d="M98.1364 141.105C95.2179 141.234 92.3039 141.414 89.3944 141.645C88.0253 141.754 86.6563 141.873 85.2872 142.004C80.0614 142.507 74.8489 143.172 69.6498 143.998C68.6714 144.153 67.6953 144.315 66.7214 144.485C65.8098 144.64 64.9015 144.801 63.9899 144.969C59.0379 145.874 54.1081 146.93 49.2007 148.136C49.194 148.139 49.184 148.139 49.1773 148.142L24.5007 154.218C25.9266 141.546 29.2858 121.992 36.6754 117.358L41.5039 108.893L41.5072 108.886L41.8044 108.369L50.7467 109.288L58.2666 110.061L63.4556 110.594L66.698 110.924L66.7481 110.93L90.109 113.329L90.4095 113.362H90.4195V124.461C90.4195 124.461 90.5731 124.655 90.8336 125.02C90.9404 125.165 91.0607 125.336 91.1942 125.531C92.2288 127.02 93.1786 128.565 94.0392 130.158C94.1795 130.415 94.3197 130.678 94.4566 130.951C95.3752 132.708 96.1707 134.525 96.8375 136.389C97.3901 137.927 97.8242 139.503 98.1364 141.105Z" fill="#2F2E41"/>
<path d="M61.2226 4.63469C67.7722 0.421892 76.5011 0.300452 83.1542 4.32964C89.8068 8.35883 94.1095 16.3728 93.9648 24.4647C84.3806 24.9298 74.4392 34.4264 64.1038 25.0717L61.6911 18.8417L60.2687 25.0763C57.158 25.076 54.0414 25.0717 50.9189 25.0634C50.5715 16.9783 54.6725 8.8475 61.2226 4.63469Z" fill="#2F2E41"/>
<path d="M102.003 116.507L118.955 126.431C122.944 124.446 122.173 111.574 119.737 110.82L117.901 67.8726C116.904 48.0244 101.125 53.4826 101.125 53.4826L93.9683 54.9712L98.9543 75.8119L104.37 111.771C103.635 112.324 103.038 113.04 102.627 113.862C102.217 114.684 102.003 115.589 102.003 116.507Z" fill="#D74500"/>
<path d="M95.3577 126.226L93.9498 129.276L93.5759 130.092L89.6254 138.657L88.6467 140.783C87.3136 140.891 85.9805 141.011 84.6474 141.141C79.5589 141.645 74.4834 142.309 69.4209 143.135L70.8906 136.995L66.5694 143.622C65.6817 143.777 64.7974 143.938 63.9097 144.106C59.0878 145.011 54.2876 146.066 49.5091 147.271L62.6026 116.569V116.566L63.7276 113.927L90.0481 124.163L90.7439 124.433L95.3577 126.226Z" fill="#3F3D56"/>
<path d="M61.7347 116.765C70.4228 127.741 82.6032 131.439 97.0362 130.444L117.587 68.1238L107.896 66.4407L103.757 61.1382L92.9384 59.7421L87.5786 62.3097L78.617 62.114L71.7987 84.186L59.2345 106.117L61.7347 116.765Z" fill="#E6E7E8"/>
<path d="M128.702 65.5228L124.419 69.4676L115.581 58.6841L112.913 57.5157C112.378 57.2813 111.902 56.9161 111.525 56.4499C111.148 55.9836 110.881 55.4296 110.744 54.833C110.608 54.2363 110.606 53.6139 110.739 53.0164C110.873 52.4189 111.137 51.8633 111.512 51.3948V51.3948C111.854 50.9661 112.28 50.621 112.761 50.3831C113.241 50.1452 113.764 50.0202 114.294 50.0167C114.824 50.0132 115.349 50.1313 115.832 50.3628C116.315 50.5942 116.745 50.9337 117.092 51.3579L119.864 54.7393L128.702 65.5228Z" fill="#FFB8B8"/>
<path d="M106.472 88.9185L122.221 75.9199L128.621 70.2037C129.078 69.7952 129.445 69.2978 129.698 68.743C129.951 68.1881 130.085 67.5876 130.091 66.9793C130.097 66.3711 129.976 65.7681 129.735 65.2082C129.493 64.6484 129.137 64.1439 128.688 63.7262V63.7262L128.578 61.7799C128.549 61.2638 128.409 60.7597 128.166 60.3015C127.923 59.8433 127.584 59.4415 127.17 59.123C126.757 58.8046 126.28 58.5768 125.77 58.455C125.26 58.3331 124.73 58.3201 124.214 58.4166V58.4166L118.736 63.7262L121.779 65.4394L118.279 67.5163L109.304 68.0171L106.472 88.9185Z" fill="#E6E7E8"/>
<path d="M102.304 59.7421C109.978 59.7421 116.198 53.8328 116.198 46.5433C116.198 39.2538 109.978 33.3444 102.304 33.3444C94.6313 33.3444 88.4109 39.2538 88.4109 46.5433C88.4109 53.8328 94.6313 59.7421 102.304 59.7421Z" fill="#FFB8B8"/>
<path d="M111.126 31.9186C119.055 34.7891 123.827 38.8939 120.874 46.6012C117.921 54.3085 109.856 61.9978 101.927 59.1273C93.9984 56.2567 99.1455 53.5055 90.4153 37.8496C86.3833 30.619 103.197 29.048 111.126 31.9186Z" fill="#2F2E41"/>
<path d="M119.034 126.319C118.968 126.363 118.899 126.406 118.829 126.446C118.694 126.53 118.555 126.607 118.413 126.677L97.3622 137.173L90.9918 140.35L85.9332 142.872C80.7622 143.383 75.6044 144.058 70.4599 144.896C69.4917 145.053 68.5258 145.218 67.5621 145.391C66.6601 145.548 65.7614 145.712 64.8594 145.882C64.7794 145.284 64.7705 144.678 64.8329 144.078C64.9439 142.963 65.2866 141.884 65.8387 140.911C66.3908 139.939 67.1398 139.096 68.0366 138.437C68.9334 137.778 69.9579 137.318 71.0428 137.087C72.1277 136.856 73.2487 136.859 74.3323 137.096C74.7369 137.187 75.1336 137.311 75.5185 137.467L85.7845 130.321L91.7782 126.152L92.1284 125.909L101.169 119.615L101.172 119.612L104.013 117.637L104.205 117.504L106.131 116.164L105.431 107.064L118.875 104.201L121.664 120.189C121.868 121.359 121.728 122.564 121.26 123.654C120.793 124.744 120.019 125.671 119.034 126.319Z" fill="#FFB6B6"/>
<path d="M119.768 111.098L118.937 98.644L104.986 107.279L104.636 112.031C103.911 112.575 103.324 113.278 102.919 114.085C102.515 114.893 102.304 115.782 102.304 116.683L118.998 126.431C122.926 124.481 122.166 111.838 119.768 111.098Z" fill="#D74500"/>
<path d="M35.6758 52.4405C35.7793 53.0839 36.0259 53.6973 36.3985 54.2375C36.771 54.7777 37.2602 55.2316 37.8318 55.5672C38.4034 55.9028 39.0434 56.112 39.7067 56.1799C40.3701 56.2479 41.0406 56.173 41.671 55.9605L78.3511 75.025L81.4642 65.8263L44.43 49.9791C43.9943 48.9685 43.1941 48.149 42.181 47.6761C41.1679 47.2031 40.0123 47.1094 38.9332 47.4128C37.8541 47.7162 36.9265 48.3956 36.3262 49.3223C35.7258 50.2489 35.4944 51.3584 35.6758 52.4405V52.4405Z" fill="#FFB6B6"/>
<path d="M92.1244 79.3096C92.1244 79.3096 85.374 83.4539 80.8569 81.4008C77.2407 79.7572 66.3588 70.95 62.1595 67.5003C61.5245 67.9287 60.7559 68.1464 59.9748 68.119C59.1937 68.0916 58.4444 67.8206 57.8452 67.3489L64.4496 58.3945C67.0534 58.0729 67.4248 59.6839 67.4028 60.6533L74.1172 63.2365L79.8078 63.1458L92.579 77.758L92.1244 79.3096Z" fill="#E6E7E8"/>
<path d="M91.1656 117.806C90.5288 118.669 89.7011 119.389 88.7408 119.915C87.7805 120.44 86.7109 120.759 85.6074 120.848C84.5039 120.937 83.3933 120.794 82.3539 120.43C81.3144 120.066 80.3714 119.49 79.5912 118.741L32.465 120.192L26.4395 120.378C20.2415 120.569 16.6714 113.737 20.567 109.14L24.7526 104.201L39.7232 106.438L45.1364 106.664L79.9662 108.119C81.3735 106.953 83.1806 106.32 85.0451 106.34C86.9096 106.359 88.7018 107.029 90.0823 108.223C91.4628 109.417 92.3355 111.052 92.5352 112.818C92.7348 114.585 92.2475 116.359 91.1656 117.806L91.1656 117.806Z" fill="#FFB6B6"/>
<path d="M49.9583 60.0706C49.9583 60.0706 40.9208 57.8354 36.6372 65.0258C33.2079 70.7823 21.5424 92.5539 19.1208 101.489C7.30495 129.247 34.777 118.193 34.0084 120.811L43.1992 106.105C47.1927 104.159 39.5057 106.671 38.493 105.276L45.5383 97.8115L53.5252 93.9188L56.4558 63.4419L49.9583 60.0706Z" fill="#D74500"/>
<g filter="url(#filter0_f_24_99)">
<ellipse cx="67.3262" cy="168.78" rx="54.3262" ry="4.21951" fill="#B0B0B0" fill-opacity="0.7"/>
</g>
<defs>
<filter id="filter0_f_24_99" x="0" y="151.561" width="134.652" height="34.439" filterUnits="userSpaceOnUse" color-interpolation-filters="sRGB">
<feFlood flood-opacity="0" result="BackgroundImageFix"/>
<feBlend mode="normal" in="SourceGraphic" in2="BackgroundImageFix" result="shape"/>
<feGaussianBlur stdDeviation="6.5" result="effect1_foregroundBlur_24_99"/>
</filter>
</defs>
</svg>
