<svg width="142" height="122" viewBox="0 0 142 122" fill="none" xmlns="http://www.w3.org/2000/svg">
<path d="M0 120.764C0 120.942 0.143011 121.085 0.321097 121.085H141.243C141.421 121.085 141.564 120.942 141.564 120.764C141.564 120.586 141.421 120.443 141.243 120.443H0.321097C0.143009 120.443 0 120.586 0 120.764Z" fill="#3F3C57"/>
<path d="M45.9788 12.9655L47.5113 19.9585L44.2517 29.6922L39.0001 19.2342L39.7287 13.1671L45.9788 12.9655Z" fill="#FDB4B4"/>
<path d="M47.7961 19.5964H38.7285V30.5524H47.7961V19.5964Z" fill="#D74500"/>
<path d="M44.0673 16.488C47.4873 16.488 50.2598 13.7155 50.2598 10.2955C50.2598 6.87546 47.4873 4.10297 44.0673 4.10297C40.6472 4.10297 37.8748 6.87546 37.8748 10.2955C37.8748 13.7155 40.6472 16.488 44.0673 16.488Z" fill="#FDB4B4"/>
<path d="M38.6769 14.9003C38.6769 14.9003 34.061 6.37542 38.2228 2.27304C42.3846 -1.82934 45.7255 0.873874 45.7255 0.873874L47.6333 0.796772C47.6333 0.796772 48.0312 2.29816 48.6728 1.4854C49.3144 0.67263 50.4737 3.63262 50.4737 3.63262C52.6256 7.50794 45.166 8.37608 45.166 8.37608C45.166 8.37608 45.7047 10.0919 45.1571 10.4513C44.6096 10.8106 43.1468 12.1624 43.1468 12.1624L41.8375 13.1513L41.0594 11.9658C41.0594 11.9658 40.2466 11.3242 39.836 11.5937C39.4253 11.8632 39.9902 15.4092 39.9902 15.4092L38.6769 14.9003L38.6769 14.9003H38.6769Z" fill="#2E2E41"/>
<path d="M31.2481 77.6163L28.8806 112.932L34.7008 113.13L42.3954 77.9122L31.2481 77.6163Z" fill="#2E2E41"/>
<path d="M45.3549 77.4189L42.9873 112.735L48.8076 112.932L56.5022 77.7149L45.3549 77.4189Z" fill="#2E2E41"/>
<path d="M29.8225 85.685L32.9209 47.2206L28.1694 27.1914C27.7597 24.214 29.6357 21.3968 32.531 20.6286L37.1805 19.3951L39.2384 17.3371L43.9192 27.6738L46.8426 17.345L49.1225 19.0031L55.8844 21.9864L55.8813 22.0562L54.7967 46.2514L57.2178 85.3425L57.1105 85.3439L29.8225 85.685V85.685Z" fill="#E8E9EA"/>
<path d="M48.4339 112.531L50.1191 117.562C50.1191 117.562 56.7124 118.459 56.8149 120.5C56.9175 122.541 47.8544 121.359 42.5475 121.626C37.2405 121.893 41.6581 116.146 41.6581 116.146L42.2237 112.843L48.4339 112.531V112.531V112.531Z" fill="#2E2E41"/>
<path d="M34.671 112.169L36.3563 117.2C36.3563 117.2 42.9495 118.096 43.0521 120.138C43.1547 122.179 34.0916 120.997 28.7846 121.264C23.4776 121.531 27.8952 115.784 27.8952 115.784L28.4608 112.481L34.671 112.169V112.169H34.671Z" fill="#2E2E41"/>
<path d="M26.4488 65.257C26.3773 64.265 26.5445 63.2704 26.9364 62.3563L25.6786 52.0384L30.6056 51.5835L31.3509 62.0988C31.846 62.9609 32.1275 63.9291 32.1718 64.9223C32.3167 67.4068 31.153 69.4947 29.5725 69.5869C27.9919 69.6791 26.5933 67.7406 26.4488 65.257H26.4488L26.4488 65.257L26.4488 65.257Z" fill="#FDB4B4"/>
<path d="M57.6555 66.7715C57.5949 65.7788 57.7729 64.786 58.1747 63.8763L57.0295 53.5453L61.9612 53.1441L62.5918 63.6669C63.0775 64.5344 63.3484 65.5056 63.3818 66.4992C63.4997 68.9851 62.3133 71.0602 60.7318 71.1352C59.1504 71.2102 57.773 69.2565 57.6555 66.7715H57.6555L57.6555 66.7715H57.6555Z" fill="#FDB4B4"/>
<path d="M25.6583 61.1191L25.6416 61.0301L23.0738 47.2524L26.1079 24.817C26.3787 22.814 28.1672 21.3711 30.1841 21.5324C31.2374 21.6167 32.1824 22.1163 32.8453 22.9393C33.5081 23.7622 33.7949 24.7921 33.6528 25.8392L31.3692 42.6655L32.807 60.6628L25.6583 61.1191V61.1191Z" fill="#E8E9EA"/>
<path d="M56.1337 60.7958L50.9711 26.3344C50.7027 25.3239 50.8598 24.2664 51.4156 23.3678C51.9715 22.4692 52.8474 21.8564 53.8823 21.6424C55.862 21.233 57.8169 22.4431 58.3336 24.397L63.2934 60.363L56.1337 60.7958V60.7958Z" fill="#E8E9EA"/>
<path d="M44.0706 30.824C44.4206 30.824 44.7044 30.5402 44.7044 30.1902C44.7044 29.8401 44.4206 29.5564 44.0706 29.5564C43.7205 29.5564 43.4368 29.8401 43.4368 30.1902C43.4368 30.5402 43.7205 30.824 44.0706 30.824Z" fill="#D6D7D8"/>
<path d="M44.0706 35.6229C44.4206 35.6229 44.7044 35.3392 44.7044 34.9891C44.7044 34.6391 44.4206 34.3553 44.0706 34.3553C43.7205 34.3553 43.4368 34.6391 43.4368 34.9891C43.4368 35.3392 43.7205 35.6229 44.0706 35.6229Z" fill="#D6D7D8"/>
<path d="M44.0706 40.4218C44.4206 40.4218 44.7044 40.1381 44.7044 39.788C44.7044 39.438 44.4206 39.1542 44.0706 39.1542C43.7205 39.1542 43.4368 39.438 43.4368 39.788C43.4368 40.1381 43.7205 40.4218 44.0706 40.4218Z" fill="#D6D7D8"/>
<path d="M44.0706 45.2207C44.4206 45.2207 44.7044 44.937 44.7044 44.5869C44.7044 44.2369 44.4206 43.9531 44.0706 43.9531C43.7205 43.9531 43.4368 44.2369 43.4368 44.5869C43.4368 44.937 43.7205 45.2207 44.0706 45.2207Z" fill="#D6D7D8"/>
<path d="M44.0706 50.0196C44.4206 50.0196 44.7044 49.7359 44.7044 49.3858C44.7044 49.0358 44.4206 48.752 44.0706 48.752C43.7205 48.752 43.4368 49.0358 43.4368 49.3858C43.4368 49.7359 43.7205 50.0196 44.0706 50.0196Z" fill="#D6D7D8"/>
<path d="M44.0706 54.8185C44.4206 54.8185 44.7044 54.5348 44.7044 54.1847C44.7044 53.8347 44.4206 53.5509 44.0706 53.5509C43.7205 53.5509 43.4368 53.8347 43.4368 54.1847C43.4368 54.5348 43.7205 54.8185 44.0706 54.8185Z" fill="#D6D7D8"/>
<path d="M44.0706 59.6175C44.4206 59.6175 44.7044 59.3337 44.7044 58.9836C44.7044 58.6336 44.4206 58.3498 44.0706 58.3498C43.7205 58.3498 43.4368 58.6336 43.4368 58.9836C43.4368 59.3337 43.7205 59.6175 44.0706 59.6175Z" fill="#D6D7D8"/>
<path d="M44.0706 64.4163C44.4206 64.4163 44.7044 64.1326 44.7044 63.7825C44.7044 63.4325 44.4206 63.1487 44.0706 63.1487C43.7205 63.1487 43.4368 63.4325 43.4368 63.7825C43.4368 64.1326 43.7205 64.4163 44.0706 64.4163Z" fill="#D6D7D8"/>
<path d="M44.0714 68.1286L32.0788 66.5304L31.8479 66.4998L25.7188 52.3674L22.0687 43.9534H31.5761L44.0714 68.1286Z" fill="#969696"/>
<path d="M92.1551 14.503L99.7797 10.3261V22.2602H90.9617L92.1551 14.503Z" fill="#2E2E41"/>
<path d="M101.414 17.1637L102.118 23.0227L97.0466 33.1218L93.8989 23.7222L95.3788 16.9691L101.414 17.1637Z" fill="#FDB4B4"/>
<path d="M93.624 33.9525H102.38V23.3724H93.624V33.9525Z" fill="#D74500"/>
<path d="M109.604 79.4014L111.89 113.506L106.27 113.696L98.8392 79.6872L109.604 79.4014Z" fill="#2E2E41"/>
<path d="M95.9813 79.2109L98.2676 113.315L92.6471 113.506L85.2165 79.4967L95.9813 79.2109Z" fill="#2E2E41"/>
<path d="M115.542 86.6348L115.408 86.6344L79.6026 86.5174L79.6347 86.3907L88.8403 49.9182L86.5343 31.5118C86.0974 28.024 87.9645 24.7273 91.1804 23.3086L92.3413 22.7965L94.5469 21.1925L97.3684 31.1626L101.887 21.1848L103.877 23.1749L108.366 24.3659C111.164 25.1081 112.977 27.8303 112.582 30.6979L112.578 30.7179L105.723 50.2782L115.542 86.6348H115.542Z" fill="#E8E9EA"/>
<path d="M93.008 113.118L99.0051 113.42L99.5512 116.609C99.5512 116.609 103.817 122.159 98.6924 121.901C93.5675 121.644 84.8154 122.785 84.9145 120.813C85.0135 118.842 91.3805 117.977 91.3805 117.977L93.008 113.118V113.118V113.118Z" fill="#2E2E41"/>
<path d="M106.299 112.768L112.296 113.07L112.842 116.259C112.842 116.259 117.108 121.809 111.983 121.551C106.858 121.294 98.106 122.435 98.2051 120.464C98.3042 118.493 104.671 117.627 104.671 117.627L106.299 112.768V112.768V112.768Z" fill="#2E2E41"/>
<path d="M111.79 67.1165V67.1165C111.651 69.5149 110.3 71.3869 108.774 71.2979C107.248 71.2088 106.124 69.1925 106.264 66.7933C106.307 65.8342 106.578 64.8992 107.057 64.0667L107.776 53.9122L112.534 54.3515L111.32 64.3154C111.698 65.1981 111.859 66.1586 111.79 67.1165V67.1165V67.1165Z" fill="#FDB4B4"/>
<path d="M87.3396 66.2045H87.3396C87.1491 68.5994 85.7589 70.4423 84.2348 70.3207C82.7108 70.1992 81.6302 68.1595 81.8211 65.7638C81.8843 64.8058 82.176 63.8768 82.6717 63.0546L83.6074 52.9178L88.355 53.4582L86.9285 63.394C87.2881 64.2846 87.429 65.2483 87.3396 66.2045L87.3396 66.2045V66.2045Z" fill="#FDB4B4"/>
<path d="M112.557 63.1243L105.646 62.6832L105.655 62.5796L107.035 45.3002L104.83 29.0518C104.693 28.0397 104.97 27.0442 105.611 26.2487C106.251 25.4532 107.165 24.9703 108.183 24.8888C110.133 24.7351 111.861 26.1277 112.123 28.0637L115.053 49.7299L115.05 49.746L112.557 63.1243V63.1243Z" fill="#E8E9EA"/>
<path d="M88.49 62.4624L81.5689 62.044L81.5841 61.9347L86.3567 27.3202C86.8586 25.4191 88.7491 24.2497 90.6619 24.6453C91.6622 24.8521 92.5088 25.4444 93.0461 26.3131C93.5834 27.1818 93.7352 28.2038 93.4736 29.1912L88.49 62.4624V62.4624Z" fill="#E8E9EA"/>
<path d="M97.2215 34.2148C97.5595 34.2148 97.8336 33.9408 97.8336 33.6027C97.8336 33.2647 97.5595 32.9907 97.2215 32.9907C96.8835 32.9907 96.6094 33.2647 96.6094 33.6027C96.6094 33.9408 96.8835 34.2148 97.2215 34.2148Z" fill="#D6D7D8"/>
<path d="M97.2215 38.849C97.5595 38.849 97.8336 38.575 97.8336 38.237C97.8336 37.8989 97.5595 37.6249 97.2215 37.6249C96.8835 37.6249 96.6094 37.8989 96.6094 38.237C96.6094 38.575 96.8835 38.849 97.2215 38.849Z" fill="#D6D7D8"/>
<path d="M97.2215 43.4833C97.5595 43.4833 97.8336 43.2093 97.8336 42.8712C97.8336 42.5332 97.5595 42.2592 97.2215 42.2592C96.8835 42.2592 96.6094 42.5332 96.6094 42.8712C96.6094 43.2093 96.8835 43.4833 97.2215 43.4833Z" fill="#D6D7D8"/>
<path d="M97.2215 48.1175C97.5595 48.1175 97.8336 47.8435 97.8336 47.5054C97.8336 47.1674 97.5595 46.8934 97.2215 46.8934C96.8835 46.8934 96.6094 47.1674 96.6094 47.5054C96.6094 47.8435 96.8835 48.1175 97.2215 48.1175Z" fill="#D6D7D8"/>
<path d="M97.2215 52.7518C97.5595 52.7518 97.8336 52.4777 97.8336 52.1397C97.8336 51.8017 97.5595 51.5276 97.2215 51.5276C96.8835 51.5276 96.6094 51.8017 96.6094 52.1397C96.6094 52.4777 96.8835 52.7518 97.2215 52.7518Z" fill="#D6D7D8"/>
<path d="M97.2215 57.386C97.5595 57.386 97.8336 57.1119 97.8336 56.7739C97.8336 56.4359 97.5595 56.1618 97.2215 56.1618C96.8835 56.1618 96.6094 56.4359 96.6094 56.7739C96.6094 57.1119 96.8835 57.386 97.2215 57.386Z" fill="#D6D7D8"/>
<path d="M97.2215 62.0202C97.5595 62.0202 97.8336 61.7462 97.8336 61.4082C97.8336 61.0701 97.5595 60.7961 97.2215 60.7961C96.8835 60.7961 96.6094 61.0701 96.6094 61.4082C96.6094 61.7462 96.8835 62.0202 97.2215 62.0202Z" fill="#D6D7D8"/>
<path d="M97.2215 66.6544C97.5595 66.6544 97.8336 66.3804 97.8336 66.0424C97.8336 65.7043 97.5595 65.4303 97.2215 65.4303C96.8835 65.4303 96.6094 65.7043 96.6094 66.0424C96.6094 66.3804 96.8835 66.6544 97.2215 66.6544Z" fill="#D6D7D8"/>
<path d="M98.1507 20.1539C101.312 20.1539 103.876 17.5907 103.876 14.4289C103.876 11.2671 101.312 8.70392 98.1507 8.70392C94.9888 8.70392 92.4257 11.2671 92.4257 14.4289C92.4257 17.5907 94.9888 20.1539 98.1507 20.1539Z" fill="#FDB4B4"/>
<path d="M101.151 7.7457C101.425 8.30364 100.99 9.00057 100.414 9.23515C99.8386 9.46972 99.1882 9.37468 98.5742 9.27704C97.9601 9.17939 97.3088 9.0868 96.7347 9.32553C95.9919 9.63442 95.5732 10.4093 95.2124 11.1283C94.5388 12.4706 93.8652 13.8129 93.1917 15.1552C92.8626 15.811 92.526 16.4963 92.5197 17.2301C92.508 18.5769 93.5765 19.6532 94.1513 20.8713C94.8512 22.3543 94.7935 24.1718 94.0009 25.6074C93.2083 27.043 91.7011 28.0602 90.0732 28.2581C89.6448 28.3101 89.1915 28.3045 88.8064 28.1099C88.4213 27.9153 88.1274 27.4904 88.1987 27.0648C88.3382 26.2325 89.61 26.038 89.8435 25.2271C89.9655 24.8038 89.7495 24.3517 89.4584 24.0211C89.1673 23.6904 88.7992 23.4325 88.5215 23.0905C87.8813 22.3018 87.8386 21.0844 88.4221 20.2529C88.765 19.7642 89.2954 19.4012 89.517 18.8468C89.7059 18.3744 89.6373 17.8432 89.5658 17.3395C89.4738 16.6921 89.3819 16.0447 89.29 15.3974C89.1827 14.6421 89.0771 13.8597 89.2891 13.1269C89.7749 11.4475 91.6711 10.6588 92.7831 9.30992C93.2998 8.68308 93.6474 7.92922 94.1775 7.31367C95.0672 6.2807 96.4678 5.71085 97.8259 5.82931C99.184 5.94777 100.465 6.75148 101.162 7.92288" fill="#2E2E41"/>
<path d="M100.247 7.85159C99.9674 7.95162 99.8636 8.31592 99.9441 8.60185C100.025 8.88777 100.235 9.11496 100.428 9.34079C102.611 11.8949 103.118 15.7584 101.669 18.7894C101.284 19.5956 100.77 20.3543 100.562 21.2234C100.411 21.8558 100.419 22.5495 100.068 23.0969C99.7111 23.6543 99.0033 24.0278 98.9333 24.686C98.8884 25.1085 99.1459 25.5188 99.491 25.7665C99.8362 26.0141 100.258 26.1274 100.672 26.2198C101.75 26.46 102.852 26.5911 103.956 26.6105C104.316 26.6168 104.688 26.6091 105.018 26.4656C105.348 26.3222 105.63 26.0112 105.633 25.6513C105.636 25.3683 105.473 25.1074 105.452 24.8252C105.39 23.9798 106.528 23.53 106.749 22.7117C106.895 22.1737 106.608 21.6202 106.302 21.1542C105.996 20.6883 105.647 20.199 105.655 19.6417C105.662 19.1082 105.997 18.6384 106.127 18.1209C106.307 17.4052 106.086 16.6565 105.867 15.9518C105.68 15.3527 105.494 14.7536 105.307 14.1545C105.109 13.5176 104.911 12.8808 104.713 12.2439C104.367 11.132 104.003 9.98798 103.254 9.09622C102.506 8.20446 101.265 7.61998 100.159 7.98407" fill="#2E2E41"/>
<path d="M104.148 30.036L103.756 29.9217C104.573 27.1186 102.811 21.8878 102.793 21.8353L103.18 21.7034C103.254 21.9228 105.002 27.1102 104.148 30.036V30.036Z" fill="#3F3C57"/>
<path d="M103.952 33.2556C104.895 33.2556 105.659 32.4912 105.659 31.5483C105.659 30.6053 104.895 29.8409 103.952 29.8409C103.009 29.8409 102.245 30.6053 102.245 31.5483C102.245 32.4912 103.009 33.2556 103.952 33.2556Z" fill="#3F3C57"/>
<path d="M92.7337 37.5928H91.6983C91.5854 37.5928 91.4939 37.5013 91.4939 37.3884C91.4939 37.2755 91.5854 37.184 91.6983 37.184H92.7337C93.0192 37.184 93.2872 37.0729 93.4888 36.8709C93.6901 36.669 93.8009 36.4007 93.8003 36.1155L93.7877 29.7377C93.7877 28.3522 92.6609 27.2254 91.2758 27.2254C89.8907 27.2254 88.7637 28.3522 88.7637 29.7373L88.7762 35.7069C88.7774 36.2893 89.2522 36.7667 89.8346 36.7712L90.5453 36.7766C90.6581 36.7775 90.7489 36.8696 90.7481 36.9826C90.7473 37.0948 90.6559 37.1853 90.5437 37.1853H90.5421L89.8314 37.1799C89.0259 37.1738 88.3691 36.5132 88.3675 35.7077L88.3549 29.7377C88.3549 28.1269 89.6652 26.8167 91.2758 26.8167C92.8862 26.8167 94.1965 28.1269 94.1965 29.7373L94.2091 36.1147C94.2099 36.5093 94.0568 36.8804 93.778 37.1596C93.4993 37.4389 93.1283 37.5928 92.7337 37.5928V37.5928Z" fill="#3F3C57"/>
<path d="M90.5438 37.7054C90.9439 37.7054 91.2682 37.381 91.2682 36.981C91.2682 36.5809 90.9439 36.2566 90.5438 36.2566C90.1438 36.2566 89.8195 36.5809 89.8195 36.981C89.8195 37.381 90.1438 37.7054 90.5438 37.7054Z" fill="#3F3C57"/>
<path d="M91.6982 38.1128C92.0983 38.1128 92.4226 37.7885 92.4226 37.3885C92.4226 36.9884 92.0983 36.6641 91.6982 36.6641C91.2982 36.6641 90.9739 36.9884 90.9739 37.3885C90.9739 37.7885 91.2982 38.1128 91.6982 38.1128Z" fill="#3F3C57"/>
<path d="M49.8813 26.9725L49.4889 26.8582C50.3064 24.0552 48.5635 18.7433 48.5458 18.6908L49.0362 19.0605C49.1111 19.28 50.7347 24.0468 49.8813 26.9725V26.9725Z" fill="#3F3C57"/>
<path d="M36.0882 27.4706L36.4806 27.3562C35.6631 24.5532 37.4258 19.3223 37.4436 19.2698L37.0239 19.551C36.949 19.7704 35.2348 24.5448 36.0882 27.4706V27.4706Z" fill="#3F3C57"/>
<path d="M49.6852 30.1921C50.6281 30.1921 51.3925 29.4277 51.3925 28.4848C51.3925 27.5419 50.6281 26.7775 49.6852 26.7775C48.7422 26.7775 47.9778 27.5419 47.9778 28.4848C47.9778 29.4277 48.7422 30.1921 49.6852 30.1921Z" fill="#3F3C57"/>
<path d="M37.9085 37.97H36.8731C36.7601 37.97 36.6687 37.8785 36.6687 37.7657C36.6687 37.6528 36.7601 37.5613 36.8731 37.5613H37.9085C38.1939 37.5613 38.4619 37.4501 38.6635 37.2482C38.8649 37.0463 38.9757 36.7779 38.9751 36.4927L38.9625 30.115C38.9625 28.7295 37.8356 27.6027 36.4505 27.6027C35.0654 27.6027 33.9384 28.7295 33.9384 30.1146L33.951 36.0842C33.9522 36.6666 34.427 37.144 35.0094 37.1485L35.7201 37.1539C35.8328 37.1547 35.9236 37.2469 35.9229 37.3598C35.9221 37.4721 35.8306 37.5626 35.7185 37.5626H35.7169L35.0062 37.5572C34.2007 37.551 33.5438 36.8905 33.5422 36.085L33.5297 30.115C33.5297 28.5042 34.8399 27.1939 36.4505 27.1939C38.061 27.1939 39.3712 28.5042 39.3712 30.1146L39.3838 36.4919C39.3846 36.8865 39.2315 37.2576 38.9527 37.5368C38.6741 37.8162 38.3031 37.97 37.9085 37.97H37.9085Z" fill="#3F3C57"/>
<path d="M35.7186 38.0826C36.1186 38.0826 36.4429 37.7583 36.4429 37.3582C36.4429 36.9582 36.1186 36.6339 35.7186 36.6339C35.3185 36.6339 34.9942 36.9582 34.9942 37.3582C34.9942 37.7583 35.3185 38.0826 35.7186 38.0826Z" fill="#3F3C57"/>
<path d="M36.873 38.49C37.2731 38.49 37.5974 38.1657 37.5974 37.7657C37.5974 37.3656 37.2731 37.0413 36.873 37.0413C36.473 37.0413 36.1487 37.3656 36.1487 37.7657C36.1487 38.1657 36.473 38.49 36.873 38.49Z" fill="#3F3C57"/>
</svg>
