<svg width="154" height="77" viewBox="0 0 154 77" fill="none" xmlns="http://www.w3.org/2000/svg">
<path d="M36.2284 67.0029C35.8333 70.1216 34.4542 72.997 32.9166 75.7632C32.8405 75.9013 32.7643 76.0374 32.6861 76.1755H12.7657C12.4117 76.0497 12.0638 75.9116 11.718 75.7632C10.4434 75.2267 9.23307 74.5484 8.10974 73.7411C1.63017 69.0662 -0.864428 60.2317 0.263524 52.3165C0.961221 47.3963 3.11833 42.3751 7.31526 39.7264C9.5942 38.3377 12.3123 37.8608 14.9269 38.3907C14.9949 38.4031 15.0628 38.4175 15.1307 38.434C17.3248 38.9287 19.2802 40.1572 20.3938 42.1381C22.3945 45.6978 21.2028 50.1068 20.2188 54.0686C19.237 58.0323 18.706 62.7732 21.5526 65.6961C21.135 64.4741 21.05 63.1628 21.3062 61.8971C21.5624 60.6313 22.1507 59.4567 23.0105 58.4941C23.8703 57.5314 24.9706 56.8155 26.1983 56.4199C27.426 56.0243 28.7368 55.9633 29.9958 56.2432C30.2017 56.2865 30.4055 56.3359 30.6072 56.3978C31.0906 56.5396 31.5567 56.7352 31.9965 56.9811C35.3537 58.8589 36.7121 63.1834 36.2284 67.0029Z" fill="#7B7B7B"/>
<path d="M23.2405 75.7632C23.6851 75.9137 24.1337 76.0497 24.5845 76.1754H22.6353C22.273 76.0476 21.9135 75.9102 21.5567 75.7632C21.4785 75.7323 21.3982 75.6993 21.32 75.6663C18.3787 74.4316 15.67 72.5765 13.622 70.1071C12.6184 68.9123 11.7997 67.5734 11.1932 66.1351C10.5336 64.5105 10.1148 62.798 9.94998 61.052C9.57942 57.4696 9.95611 53.7882 10.6642 50.2697C11.3945 46.6226 12.574 43.0804 14.1757 39.7243C14.3691 39.3224 14.5681 38.9225 14.7725 38.5247C14.787 38.4924 14.8083 38.4637 14.8349 38.4406C14.8616 38.4174 14.893 38.4004 14.9269 38.3907C14.9621 38.384 14.9982 38.3844 15.0332 38.3919C15.0681 38.3993 15.1013 38.4136 15.1307 38.434C15.2015 38.4746 15.254 38.5408 15.2774 38.6191C15.3007 38.6974 15.2932 38.7816 15.2563 38.8545C13.6055 42.0778 12.3544 45.4911 11.5307 49.0185C10.7239 52.4608 10.2649 56.0618 10.4234 59.5989C10.5715 62.9051 11.434 66.1557 13.3914 68.8601C15.2144 71.3173 17.6128 73.288 20.3753 74.5986C21.3037 75.0495 22.2609 75.4385 23.2405 75.7632Z" fill="white"/>
<path d="M31.097 76.1755H30.3416C30.2346 76.0395 30.1317 75.9014 30.0308 75.7633C28.5448 73.7409 27.5318 71.4099 27.0668 68.9426C26.4333 65.487 26.927 61.9191 28.4748 58.7662C28.9071 57.8822 29.416 57.038 29.9958 56.2432C30.2016 56.2865 30.4055 56.336 30.6072 56.3978C29.0801 58.4232 28.0532 60.7816 27.6102 63.2803C27.2414 65.4662 27.3313 67.7051 27.8742 69.8543C28.4171 72.0035 29.4011 74.0159 30.7635 75.7633C30.8727 75.9034 30.9839 76.0415 31.097 76.1755Z" fill="white"/>
<path d="M69.7133 38.3925C69.7937 38.079 69.8044 37.7516 69.7448 37.4334C69.6851 37.1152 69.5565 36.814 69.3681 36.551C69.1796 36.288 68.9359 36.0696 68.654 35.9111C68.3721 35.7526 68.059 35.658 67.7366 35.6338L55.1571 19.8839L52.0445 22.7891L65.3333 37.834C65.3287 38.379 65.5238 38.9068 65.8818 39.3173C66.2398 39.7278 66.7357 39.9926 67.2756 40.0615C67.8155 40.1303 68.3618 39.9984 68.8111 39.6908C69.2604 39.3832 69.5814 38.9213 69.7133 38.3925Z" fill="#FFB8B8"/>
<path d="M57.5703 22.3857L53.5948 25.4347C53.4816 25.5214 53.3512 25.5827 53.2123 25.6144C53.0734 25.6461 52.9293 25.6475 52.7898 25.6184C52.6503 25.5893 52.5187 25.5304 52.404 25.4458C52.2893 25.3612 52.1941 25.2528 52.125 25.1281L49.7033 20.7563C49.2634 20.1742 49.0719 19.4412 49.1709 18.718C49.2698 17.9948 49.6511 17.3404 50.2311 16.8982C50.8111 16.4561 51.5426 16.2623 52.265 16.3594C52.9875 16.4565 53.642 16.8365 54.0852 17.4161L57.6578 20.8848C57.7601 20.9842 57.8398 21.1044 57.8914 21.2374C57.9431 21.3704 57.9656 21.5129 57.9572 21.6554C57.9489 21.7978 57.9101 21.9368 57.8433 22.0628C57.7765 22.1888 57.6834 22.299 57.5703 22.3857H57.5703Z" fill="#7B7B7B"/>
<path d="M50.8938 12.8777C53.6858 12.8777 55.9492 10.6111 55.9492 7.81508C55.9492 5.01906 53.6858 2.75244 50.8938 2.75244C48.1017 2.75244 45.8383 5.01906 45.8383 7.81508C45.8383 10.6111 48.1017 12.8777 50.8938 12.8777Z" fill="#FFB8B8"/>
<path d="M61.6852 73.4848H64.2087L63.9683 68.7551L60.244 68.7553L61.6852 73.4848Z" fill="#FFB8B8"/>
<path d="M61.0415 72.6597L66.0111 72.6595H66.0113C66.4272 72.6595 66.839 72.7416 67.2233 72.9009C67.6075 73.0603 67.9566 73.2939 68.2507 73.5884C68.5448 73.8829 68.7781 74.2325 68.9373 74.6173C69.0964 75.0021 69.1783 75.4145 69.1783 75.831V75.9341L61.0417 75.9344L61.0415 72.6597Z" fill="#2F2E41"/>
<path d="M34.7804 69.9069L36.9272 71.2349L39.2051 67.0846L36.6071 65.457L34.7804 69.9069Z" fill="#FFB8B8"/>
<path d="M34.6658 68.8662L38.8938 71.4816L38.8939 71.4817C39.2478 71.7006 39.5551 71.9871 39.7983 72.3249C40.0416 72.6628 40.216 73.0453 40.3116 73.4506C40.4073 73.8559 40.4222 74.2762 40.3557 74.6873C40.2892 75.0984 40.1424 75.4924 39.9238 75.8467L39.8697 75.9344L32.9473 71.6522L34.6658 68.8662Z" fill="#2F2E41"/>
<path d="M61.5028 72.0981C61.3152 72.098 61.1321 72.0408 60.9777 71.9339C60.8234 71.8271 60.7052 71.6758 60.6388 71.5001L51.5109 49.6454C51.4913 49.592 51.4573 49.5451 51.4128 49.5098C51.3682 49.4745 51.3148 49.4522 51.2584 49.4453C51.202 49.4385 51.1448 49.4473 51.0931 49.4709C51.0414 49.4945 50.9972 49.5319 50.9654 49.579L38.4255 69.3611C38.3028 69.5453 38.1182 69.6793 37.9052 69.7387C37.6922 69.7981 37.465 69.7789 37.2649 69.6846L35.5491 68.8827C35.3293 68.7789 35.1588 68.5931 35.0741 68.3651C34.9894 68.137 34.9971 67.8848 35.0957 67.6624L45.3692 44.7292C45.1449 44.1827 42.9569 38.571 46.3187 35.7986L46.3422 35.7839L55.4584 31.7117L55.6882 38.7147L64.7745 70.2859C64.8087 70.4047 64.8189 70.5291 64.8044 70.6519C64.7898 70.7747 64.751 70.8933 64.69 71.0009C64.629 71.1084 64.5472 71.2026 64.4494 71.278C64.3515 71.3534 64.2396 71.4084 64.1202 71.4399L61.7401 72.0671C61.6627 72.0877 61.5829 72.0981 61.5028 72.0981Z" fill="#2F2E41"/>
<path d="M55.5963 21.4678C55.2492 20.0726 54.7571 18.6664 54.0977 18.0171C53.8552 17.7804 53.6274 17.5291 53.4154 17.2647C52.9719 16.7052 52.4139 16.2473 51.7789 15.9218C52.0112 15.7923 52.1474 15.6379 52.1474 15.4717C52.1474 15.0163 51.1337 14.6472 49.8833 14.6472C48.6328 14.6472 47.6191 15.0163 47.6191 15.4717C47.6222 15.5245 47.6357 15.5763 47.6587 15.624C47.6818 15.6716 47.7141 15.7143 47.7537 15.7494C46.9371 16.0827 46.2276 16.6341 45.7024 17.3434C45.1771 18.0526 44.8563 18.8927 44.7749 19.7719C44.4825 22.9083 44.3971 26.9174 45.422 29.4533C46.2816 31.5502 46.3499 33.8888 45.6143 36.0325C45.5644 36.1818 45.5583 36.3423 45.5967 36.4949C45.6351 36.6476 45.7164 36.786 45.831 36.8938C45.9455 37.0016 46.0885 37.0742 46.2431 37.1031C46.3976 37.132 46.5571 37.1159 46.7028 37.0568L55.7485 33.4065C55.9007 33.345 56.0312 33.2394 56.1231 33.1031C56.215 32.9668 56.264 32.8061 56.264 32.6417V27.0975C56.2713 25.2007 56.047 23.3101 55.5963 21.4678Z" fill="#7B7B7B"/>
<path d="M38.2889 44.3024C38.6038 44.2292 38.8988 44.0877 39.1532 43.888C39.4076 43.6882 39.6151 43.435 39.7612 43.1462C39.9073 42.8575 39.9884 42.5401 39.9988 42.2166C40.0092 41.893 39.9486 41.5711 39.8213 41.2736L46.8987 22.5829L43.3096 21.655L36.7633 40.1531C36.2783 40.4004 35.9008 40.8172 35.7022 41.3247C35.5036 41.8321 35.4977 42.3949 35.6858 42.9064C35.8738 43.4178 36.2427 43.8424 36.7225 44.0997C37.2022 44.357 37.7596 44.4292 38.2889 44.3024V44.3024Z" fill="#FFB8B8"/>
<path d="M46.8692 26.1295L42.334 24.0036C42.205 23.9431 42.0905 23.8555 41.9983 23.7467C41.9062 23.6379 41.8385 23.5104 41.7999 23.3731C41.7614 23.2357 41.7528 23.0917 41.7748 22.9507C41.7969 22.8098 41.849 22.6752 41.9277 22.5563L44.6839 18.3879C44.9969 17.7289 45.558 17.2211 46.2442 16.9757C46.9305 16.7303 47.6858 16.7673 48.3449 17.0786C49.0039 17.3899 49.5129 17.9501 49.7602 18.6365C50.0076 19.3228 49.9732 20.0794 49.6646 20.7404L48.2394 25.5149C48.1985 25.6516 48.1287 25.7778 48.0347 25.8851C47.9408 25.9923 47.8248 26.078 47.6948 26.1364C47.5648 26.1947 47.4237 26.2243 47.2813 26.2231C47.1388 26.2219 46.9982 26.19 46.8692 26.1295Z" fill="#7B7B7B"/>
<path d="M55.5374 6.56901C55.7655 6.59606 55.9964 6.55426 56.2006 6.44897C56.5735 6.20458 56.5368 5.64906 56.4106 5.22101C56.0962 4.19493 55.5287 3.26469 54.7606 2.51615C53.9925 1.76761 53.0484 1.22488 52.0156 0.938052C51.2959 0.746502 50.3852 0.753906 49.9735 1.37533C48.9388 0.685092 47.6914 0.389017 46.4575 0.540798C45.2235 0.692579 44.0847 1.28217 43.2476 2.20264C42.4033 3.13106 41.9193 4.34133 41.6685 5.57171C41.2365 7.69114 39.3865 12.0631 40.4113 13.9673C41.0933 15.2344 44.2316 14.2471 45.5592 14.799C46.8867 15.351 48.5002 15.2891 49.6794 14.466C50.8586 13.6429 51.478 12.0176 50.9725 10.6701C50.777 10.149 50.438 9.69646 50.1706 9.20843C49.9032 8.7204 49.7031 8.15625 49.8225 7.61256C50.0083 6.76591 53.9985 6.53728 55.5374 6.56901Z" fill="#2F2E41"/>
<path d="M98.1816 75.9693C98.1817 75.9964 98.1764 76.0233 98.1661 76.0483C98.1558 76.0734 98.1407 76.0961 98.1215 76.1153C98.1024 76.1344 98.0797 76.1496 98.0546 76.1599C98.0296 76.1703 98.0028 76.1755 97.9758 76.1754H0.205831C0.151242 76.1754 0.0988874 76.1537 0.0602865 76.1151C0.0216856 76.0764 0 76.024 0 75.9693C0 75.9146 0.0216856 75.8622 0.0602865 75.8236C0.0988874 75.7849 0.151242 75.7632 0.205831 75.7632H97.9758C98.0028 75.7631 98.0296 75.7684 98.0546 75.7787C98.0797 75.789 98.1024 75.8042 98.1215 75.8233C98.1407 75.8425 98.1558 75.8653 98.1661 75.8903C98.1764 75.9154 98.1817 75.9422 98.1816 75.9693Z" fill="#3F3D56"/>
<path d="M112.971 77C116.949 77 120.175 76.4463 120.175 75.7633C120.175 75.0803 116.949 74.5266 112.971 74.5266C108.992 74.5266 105.766 75.0803 105.766 75.7633C105.766 76.4463 108.992 77 112.971 77Z" fill="#D74500"/>
<path d="M153.794 76.2663H126.213C126.158 76.2663 126.106 76.2445 126.067 76.2059C126.029 76.1672 126.007 76.1148 126.007 76.0601C126.007 76.0055 126.029 75.953 126.067 75.9144C126.106 75.8757 126.158 75.854 126.213 75.854H153.794C153.849 75.854 153.901 75.8757 153.94 75.9144C153.978 75.953 154 76.0055 154 76.0601C154 76.1148 153.978 76.1672 153.94 76.2059C153.901 76.2445 153.849 76.2663 153.794 76.2663Z" fill="#3F3D56"/>
<path d="M107.616 22.1101C107.616 19.8645 108.385 17.6868 109.795 15.9401C111.204 14.1935 113.168 12.9833 115.361 12.5114C113.931 12.2042 112.451 12.221 111.029 12.5607C109.607 12.9004 108.279 13.5543 107.142 14.4746C106.005 15.3949 105.088 16.5582 104.458 17.8793C103.828 19.2005 103.501 20.646 103.501 22.1101C103.501 23.5742 103.828 25.0197 104.458 26.3409C105.088 27.662 106.005 28.8253 107.142 29.7456C108.279 30.6658 109.607 31.3197 111.029 31.6594C112.451 31.9991 113.931 32.016 115.361 31.7088C113.168 31.2369 111.204 30.0267 109.795 28.28C108.385 26.5334 107.616 24.3557 107.616 22.1101Z" fill="#D74500"/>
<path d="M96.9468 22.1101C96.9472 16.7542 98.9033 11.5832 102.447 7.57129C105.99 3.55939 110.876 0.983494 116.184 0.328837C113.104 -0.0493065 109.979 0.231764 107.015 1.15346C104.051 2.07515 101.317 3.61646 98.9927 5.67544C96.6683 7.73442 94.8069 10.2641 93.5317 13.0973C92.2564 15.9304 91.5964 19.0024 91.5952 22.1101C91.5952 31.9537 106.051 59.7124 111.48 69.7909C111.677 70.1577 111.97 70.4641 112.327 70.6777C112.684 70.8913 113.092 71.0041 113.508 71.0041C113.924 71.0041 114.332 70.8913 114.69 70.6777C115.047 70.4641 115.339 70.1577 115.536 69.7909C115.74 69.4137 115.957 69.0089 116.184 68.584C110.339 57.6568 96.9468 31.5853 96.9468 22.1101Z" fill="#D74500"/>
<path d="M113.527 71.2506C113.073 71.2543 112.627 71.1329 112.238 70.8999C111.848 70.6668 111.53 70.331 111.318 69.9291C105.332 58.8167 91.4082 31.9159 91.4082 22.1506C91.4082 16.2759 93.7386 10.6418 97.8867 6.48775C102.035 2.33371 107.661 0 113.527 0C119.394 0 125.02 2.33371 129.168 6.48775C133.316 10.6418 135.646 16.2759 135.646 22.1506C135.646 31.9168 121.723 58.8169 115.736 69.9291C115.524 70.331 115.206 70.6669 114.817 70.8999C114.427 71.133 113.981 71.2543 113.527 71.2506ZM113.527 0.41225C107.772 0.41875 102.255 2.71112 98.185 6.78644C94.1155 10.8618 91.8264 16.3872 91.8199 22.1506C91.8199 31.822 105.709 58.6484 111.68 69.7334C111.86 70.0675 112.126 70.3465 112.451 70.5411C112.777 70.7356 113.148 70.8383 113.527 70.8383C113.906 70.8383 114.278 70.7356 114.603 70.5411C114.928 70.3465 115.195 70.0675 115.374 69.7334C121.346 58.6488 135.235 31.8229 135.235 22.1506C135.228 16.3872 132.939 10.8618 128.869 6.78644C124.8 2.71112 119.282 0.418752 113.527 0.41225Z" fill="#3F3D56"/>
<path d="M113.527 32.1739C111.548 32.1739 109.612 31.5861 107.966 30.4847C106.32 29.3834 105.038 27.8179 104.28 25.9864C103.522 24.1549 103.324 22.1395 103.71 20.1951C104.096 18.2508 105.05 16.4648 106.45 15.063C107.849 13.6611 109.633 12.7065 111.574 12.3197C113.516 11.933 115.528 12.1315 117.357 12.8901C119.186 13.6488 120.75 14.9335 121.849 16.5819C122.949 18.2302 123.536 20.1681 123.536 22.1506C123.533 24.808 122.478 27.3557 120.601 29.2348C118.725 31.1139 116.181 32.1709 113.527 32.1739ZM113.527 12.5394C111.629 12.5394 109.773 13.103 108.195 14.1591C106.617 15.2151 105.387 16.7162 104.66 18.4724C103.934 20.2286 103.744 22.1611 104.114 24.0255C104.484 25.8898 105.398 27.6024 106.741 28.9466C108.083 30.2907 109.793 31.2061 111.655 31.577C113.516 31.9478 115.446 31.7575 117.2 31.0301C118.954 30.3026 120.452 29.0708 121.507 27.4902C122.562 25.9097 123.125 24.0515 123.125 22.1506C123.122 19.6024 122.11 17.1595 120.31 15.3577C118.511 13.5559 116.072 12.5423 113.527 12.5394V12.5394Z" fill="#3F3D56"/>
</svg>
