<svg width="161" height="42" viewBox="0 0 161 42" fill="none" xmlns="http://www.w3.org/2000/svg">
<mask id="path-1-inside-1_0_16" fill="white">
<path d="M37.5024 34.1C37.5024 33.5478 37.9501 33.1 38.5024 33.1H160C160.552 33.1 161 33.5478 161 34.1V37.306C161 37.8583 160.552 38.306 160 38.306H38.5024C37.9501 38.306 37.5024 37.8583 37.5024 37.306V34.1Z"/>
</mask>
<path d="M37.5024 34.1C37.5024 33.5478 37.9501 33.1 38.5024 33.1H160C160.552 33.1 161 33.5478 161 34.1V37.306C161 37.8583 160.552 38.306 160 38.306H38.5024C37.9501 38.306 37.5024 37.8583 37.5024 37.306V34.1Z" fill="white"/>
<path d="M37.5024 33.1H161H37.5024ZM161.8 37.306C161.8 38.3001 160.994 39.106 160 39.106H39.3024C38.3083 39.106 37.5024 38.3001 37.5024 37.306C37.5024 37.4165 37.9501 37.506 38.5024 37.506H160C160.11 37.506 160.2 37.4165 160.2 37.306H161.8ZM37.5024 38.306V33.1V38.306ZM160 33.1C160.994 33.1 161.8 33.9059 161.8 34.9V37.306C161.8 38.3001 160.994 39.106 160 39.106V37.506C160.11 37.506 160.2 37.4165 160.2 37.306V34.1C160.2 33.5478 160.11 33.1 160 33.1Z" fill="url(#paint0_linear_0_16)" mask="url(#path-1-inside-1_0_16)"/>
<path d="M52.735 30.7177V5.39911H61.5279V14.6285H69.1984V5.71091H77.3677V30.7177H69.1984V22.1119H61.5279V30.7177H52.735Z" fill="#D74500"/>
<path d="M52.735 30.7177V5.39911H61.5279V14.6285H69.1984V5.71091H77.3677V30.7177H69.1984V22.1119H61.5279V30.7177H52.735Z" fill="url(#paint1_linear_0_16)" fill-opacity="0.2"/>
<path d="M80.1736 5.39886V30.5927H88.1558L88.3429 18.3076L93.9554 27.1005L99.942 18.3076L99.7549 30.7798H108.298L108.673 5.46123H100.004L94.3295 14.5659L88.9665 5.39886H80.1736Z" fill="#D74500"/>
<path d="M80.1736 5.39886V30.5927H88.1558L88.3429 18.3076L93.9554 27.1005L99.942 18.3076L99.7549 30.7798H108.298L108.673 5.46123H100.004L94.3295 14.5659L88.9665 5.39886H80.1736Z" fill="url(#paint2_linear_0_16)" fill-opacity="0.2"/>
<path fill-rule="evenodd" clip-rule="evenodd" d="M111.479 30.5921V5.64771H128.503L130 5.95951C135.987 7.5809 135.301 17.0598 130 17.8705C139.23 20.3649 134.677 30.5921 127.942 30.5921H111.479ZM120.334 11.9462V15.5631H124.949C126.196 15.5631 128.067 12.8816 124.949 11.9462H120.334ZM119.96 24.5431V20.9262H124.949C127.88 20.9262 127.256 24.5431 124.949 24.5431H119.96Z" fill="#D74500"/>
<path fill-rule="evenodd" clip-rule="evenodd" d="M111.479 30.5921V5.64771H128.503L130 5.95951C135.987 7.5809 135.301 17.0598 130 17.8705C139.23 20.3649 134.677 30.5921 127.942 30.5921H111.479ZM120.334 11.9462V15.5631H124.949C126.196 15.5631 128.067 12.8816 124.949 11.9462H120.334ZM119.96 24.5431V20.9262H124.949C127.88 20.9262 127.256 24.5431 124.949 24.5431H119.96Z" fill="url(#paint3_linear_0_16)" fill-opacity="0.2"/>
<path fill-rule="evenodd" clip-rule="evenodd" d="M137.234 5.71185V30.5939H145.715V23.6718H147.648L151.764 30.5939H160.993L156.067 22.2999C161.804 19.1195 163.363 10.3266 156.254 6.21074L155.319 5.9613C155.368 5.9613 154.445 5.71185 155.319 5.9613C155.269 5.9613 154.549 5.795 154.196 5.71185H137.234ZM145.715 17.6228V12.6339H150.143C154.196 13.4446 152.699 17.6228 150.143 17.6228H145.715Z" fill="#D74500"/>
<path fill-rule="evenodd" clip-rule="evenodd" d="M137.234 5.71185V30.5939H145.715V23.6718H147.648L151.764 30.5939H160.993L156.067 22.2999C161.804 19.1195 163.363 10.3266 156.254 6.21074L155.319 5.9613C155.368 5.9613 154.445 5.71185 155.319 5.9613C155.269 5.9613 154.549 5.795 154.196 5.71185H137.234ZM145.715 17.6228V12.6339H150.143C154.196 13.4446 152.699 17.6228 150.143 17.6228H145.715Z" fill="url(#paint4_linear_0_16)" fill-opacity="0.2"/>
<path d="M21.5437 3.90776L21.4344 0.289978L25.7201 0.377682C26.0699 0.377682 26.4635 0.860053 26.4635 1.18894V3.86391C26.4635 4.23665 26.6821 4.3682 26.9008 4.3682L30.4649 4.43398V8.53413C30.4649 8.90687 30.1588 9.12613 29.8308 9.12613H27.0101C26.8789 9.12613 26.6603 9.21384 26.6603 9.47695L26.704 12.9193L22.5933 12.8974C22.4402 12.8974 21.8499 12.8803 21.8061 12.2445V9.49887C21.8061 9.38925 21.8061 9.14806 21.5 9.14806L17.8485 9.10421L17.7391 4.91635V4.91634C17.7391 4.71901 17.7391 4.21472 18.2639 4.21472H21.2595C21.5437 4.21472 21.5437 4.06124 21.5437 3.90776Z" fill="url(#paint5_linear_0_16)"/>
<path d="M14.1319 16.962L14.0416 13.9794L17.5805 14.0517C17.8694 14.0517 18.1944 14.4494 18.1944 14.7206V16.9259C18.1944 17.2332 18.375 17.3416 18.5555 17.3416L21.4986 17.3959V20.7761C21.4986 21.0834 21.2458 21.2642 20.975 21.2642H18.6458C18.5375 21.2642 18.3569 21.3365 18.3569 21.5534L18.393 24.3914L14.9986 24.3733C14.8722 24.3733 14.3847 24.3854 14.3486 23.8612V21.5715C14.3486 21.4811 14.3486 21.2823 14.0958 21.2823L11.0805 21.2461L10.9902 17.7935C10.9902 17.6309 10.9902 17.2151 11.4236 17.2151H13.8972C14.1319 17.2151 14.1319 17.0886 14.1319 16.962Z" fill="url(#paint6_linear_0_16)"/>
<path d="M2.04642 24.3952L1.98761 22.462L4.29277 22.5089C4.48095 22.5089 4.69265 22.7667 4.69265 22.9424V24.3718C4.69265 24.5709 4.81026 24.6412 4.92787 24.6412L6.84491 24.6764V26.8673C6.84491 27.0665 6.68026 27.1836 6.50384 27.1836H4.98667C4.91611 27.1836 4.7985 27.2305 4.7985 27.3711L4.82202 29.2105L2.61095 29.1988C2.52862 29.1988 2.21107 29.2129 2.18755 28.8731V27.3828C2.18755 27.3242 2.18755 27.1954 2.0229 27.1954L0.0588051 27.1719L0 24.9341C0 24.8287 0 24.5592 0.282264 24.5592H1.89352C2.04642 24.5592 2.04642 24.4772 2.04642 24.3952Z" fill="url(#paint7_linear_0_16)"/>
<path d="M12.6512 30.3729L12.5924 28.4397L14.8976 28.4866C15.0857 28.4866 15.2974 28.7443 15.2974 28.9201V30.3494C15.2974 30.5486 15.415 30.6189 15.5326 30.6189L17.4497 30.6541V32.845C17.4497 33.0441 17.285 33.1613 17.1086 33.1613H15.5915C15.5209 33.1613 15.4033 33.2082 15.4033 33.3488L15.4268 35.1882L13.2157 35.1765C13.1334 35.1765 12.8159 35.1423 12.7923 34.8026V33.3605C12.7923 33.3019 12.7923 33.173 12.6277 33.173L10.6636 33.1496L10.6048 30.9118C10.6048 30.8064 10.6048 30.5369 10.887 30.5369H12.4983C12.6512 30.5369 12.6512 30.4549 12.6512 30.3729Z" fill="url(#paint8_linear_0_16)"/>
<path d="M24.743 31.4794L24.6221 27.475L29.3623 27.5721C29.7492 27.5721 30.1845 28.106 30.1845 28.47V31.4309C30.1845 31.8434 30.4264 31.989 30.6682 31.989L34.6103 32.0619V36.6002C34.6103 37.0128 34.2717 37.2555 33.909 37.2555H30.7891C30.644 37.2555 30.4022 37.3525 30.4022 37.6438L30.4506 41.454L25.9039 41.4298H25.9003C25.7256 41.4298 25.0812 41.4299 25.0332 40.731V37.668C25.0332 37.5467 25.0332 37.2797 24.6946 37.2797L20.6558 37.2312L20.5349 32.5958V32.5958C20.5349 32.3773 20.5349 31.8192 21.1153 31.8192H24.4286C24.743 31.8192 24.743 31.6493 24.743 31.4794Z" fill="url(#paint9_linear_0_16)"/>
<path d="M35.8834 10.4283L35.567 0L47.9694 0.252808C48.9819 0.252808 50.1208 1.64325 50.1208 2.59128V10.3019C50.1208 11.3764 50.7536 11.7556 51.3864 11.7556L61.7006 11.9452V23.764C61.7006 24.8384 60.8148 25.4704 59.8656 25.4704H51.7028C51.3231 25.4704 50.6903 25.7232 50.6903 26.4817V37.9844H38.7309C36.6427 37.9844 36.6427 36.3948 36.6427 34.562V26.5449C36.6427 26.2289 36.6427 25.5336 35.7568 25.5336L25.1895 25.4072L24.8731 13.3356V13.3356C24.8731 12.7668 24.8731 11.3132 26.3918 11.3132H35.0608C35.8834 11.3132 35.8834 10.8708 35.8834 10.4283Z" fill="url(#paint10_linear_0_16)"/>
<path d="M36.4246 18.6999H39.8167L41.0241 20.3672L42.4614 15.4227L44.7037 22.207L46.141 17.205L47.0609 18.8723H51.2004" stroke="#E9E9E9" stroke-linecap="round"/>
<circle cx="35.6198" cy="18.699" r="0.977389" fill="#E9E9E9"/>
<circle cx="51.4879" cy="18.815" r="0.977389" fill="#E9E9E9"/>
<path d="M67.2704 36.5062V33.7426H68.0207V34.8221H69.0138V33.7426H69.7641V36.5062H69.0138V35.4267H68.0207V36.5062H67.2704ZM72.8927 35.1244C72.8927 35.4321 72.8328 35.6916 72.7132 35.903C72.5935 36.1135 72.432 36.2732 72.2287 36.3821C72.0254 36.49 71.7987 36.544 71.5486 36.544C71.2967 36.544 71.0691 36.4896 70.8658 36.3807C70.6634 36.271 70.5024 36.1108 70.3827 35.9003C70.264 35.6889 70.2046 35.4303 70.2046 35.1244C70.2046 34.8167 70.264 34.5576 70.3827 34.3471C70.5024 34.1357 70.6634 33.976 70.8658 33.8681C71.0691 33.7592 71.2967 33.7048 71.5486 33.7048C71.7987 33.7048 72.0254 33.7592 72.2287 33.8681C72.432 33.976 72.5935 34.1357 72.7132 34.3471C72.8328 34.5576 72.8927 34.8167 72.8927 35.1244ZM72.1208 35.1244C72.1208 34.9589 72.0987 34.8194 72.0547 34.7061C72.0115 34.5918 71.9472 34.5055 71.8617 34.447C71.7771 34.3876 71.6728 34.3579 71.5486 34.3579C71.4245 34.3579 71.3197 34.3876 71.2342 34.447C71.1496 34.5055 71.0853 34.5918 71.0412 34.7061C70.9981 34.8194 70.9765 34.9589 70.9765 35.1244C70.9765 35.2899 70.9981 35.4298 71.0412 35.5441C71.0853 35.6574 71.1496 35.7438 71.2342 35.8032C71.3197 35.8616 71.4245 35.8909 71.5486 35.8909C71.6728 35.8909 71.7771 35.8616 71.8617 35.8032C71.9472 35.7438 72.0115 35.6574 72.0547 35.5441C72.0987 35.4298 72.1208 35.2899 72.1208 35.1244ZM74.8246 34.6062C74.8174 34.5163 74.7836 34.4461 74.7234 34.3957C74.664 34.3453 74.5736 34.3201 74.4521 34.3201C74.3748 34.3201 74.3113 34.3296 74.2619 34.3485C74.2133 34.3665 74.1773 34.3912 74.1539 34.4227C74.1305 34.4542 74.1184 34.4902 74.1175 34.5307C74.1157 34.5639 74.1215 34.5941 74.135 34.6211C74.1494 34.6472 74.1719 34.671 74.2025 34.6926C74.2331 34.7133 74.2722 34.7322 74.3199 34.7493C74.3676 34.7664 74.4242 34.7817 74.4899 34.7951L74.7166 34.8437C74.8695 34.8761 75.0004 34.9188 75.1093 34.9719C75.2182 35.025 75.3072 35.0875 75.3765 35.1595C75.4458 35.2306 75.4966 35.3106 75.529 35.3997C75.5623 35.4888 75.5793 35.5859 75.5802 35.6912C75.5793 35.8729 75.5339 36.0267 75.444 36.1527C75.354 36.2786 75.2253 36.3744 75.058 36.4401C74.8916 36.5058 74.6914 36.5386 74.4575 36.5386C74.2173 36.5386 74.0077 36.5031 73.8287 36.432C73.6506 36.3609 73.512 36.2516 73.4131 36.1041C73.315 35.9557 73.2655 35.7658 73.2646 35.5346H73.9771C73.9816 35.6192 74.0028 35.6903 74.0405 35.7478C74.0783 35.8054 74.1314 35.8491 74.1998 35.8787C74.2691 35.9084 74.3514 35.9233 74.4467 35.9233C74.5268 35.9233 74.5938 35.9134 74.6478 35.8936C74.7018 35.8738 74.7427 35.8464 74.7706 35.8113C74.7985 35.7762 74.8129 35.7361 74.8138 35.6912C74.8129 35.6489 74.7989 35.612 74.7719 35.5805C74.7458 35.5481 74.7027 35.5193 74.6424 35.4942C74.5821 35.4681 74.5007 35.4438 74.3981 35.4213L74.1229 35.3619C73.8782 35.3088 73.6852 35.2202 73.544 35.0961C73.4036 34.971 73.3339 34.8005 73.3348 34.5846C73.3339 34.4092 73.3807 34.2558 73.4751 34.1245C73.5705 33.9922 73.7023 33.8892 73.8705 33.8155C74.0396 33.7417 74.2335 33.7048 74.4521 33.7048C74.6752 33.7048 74.8682 33.7421 75.031 33.8168C75.1939 33.8915 75.3194 33.9967 75.4075 34.1326C75.4966 34.2675 75.5416 34.4254 75.5425 34.6062H74.8246ZM75.9607 36.5062V33.7426H77.1536C77.3587 33.7426 77.5381 33.7831 77.692 33.864C77.8458 33.945 77.9655 34.0588 78.0509 34.2054C78.1364 34.3521 78.1791 34.5235 78.1791 34.7196C78.1791 34.9175 78.135 35.0889 78.0469 35.2337C77.9596 35.3786 77.8368 35.4901 77.6785 35.5684C77.521 35.6466 77.3371 35.6858 77.1266 35.6858H76.4141V35.1028H76.9754C77.0636 35.1028 77.1387 35.0875 77.2008 35.0569C77.2638 35.0254 77.3119 34.9809 77.3452 34.9233C77.3794 34.8658 77.3964 34.7978 77.3964 34.7196C77.3964 34.6404 77.3794 34.5729 77.3452 34.5172C77.3119 34.4605 77.2638 34.4173 77.2008 34.3876C77.1387 34.357 77.0636 34.3417 76.9754 34.3417H76.7109V36.5062H75.9607ZM79.2997 33.7426V36.5062H78.5494V33.7426H79.2997ZM79.6747 34.3471V33.7426H82.0767V34.3471H81.2454V36.5062H80.5059V34.3471H79.6747ZM82.8231 36.5062H82.0135L82.9257 33.7426H83.9512L84.8635 36.5062H84.0538L83.4493 34.5037H83.4277L82.8231 36.5062ZM82.672 35.4159H84.1941V35.9772H82.672V35.4159ZM85.2246 36.5062V33.7426H85.9749V35.9017H87.0923V36.5062H85.2246ZM88.3426 33.7426H89.2764L89.9187 35.3079H89.9511L90.5934 33.7426H91.5272V36.5062H90.7931V34.9085H90.7715L90.1562 36.4846H89.7136L89.0982 34.8977H89.0767V36.5062H88.3426V33.7426ZM93.6133 33.7426H94.3636V35.513C94.3636 35.7236 94.3132 35.9057 94.2125 36.0596C94.1126 36.2125 93.9732 36.3308 93.7941 36.4145C93.6151 36.4972 93.4073 36.5386 93.1707 36.5386C92.9323 36.5386 92.7236 36.4972 92.5446 36.4145C92.3655 36.3308 92.2261 36.2125 92.1262 36.0596C92.0273 35.9057 91.9778 35.7236 91.9778 35.513V33.7426H92.7281V35.4483C92.7281 35.5337 92.747 35.6102 92.7848 35.6777C92.8225 35.7442 92.8747 35.7964 92.9413 35.8342C93.0088 35.872 93.0852 35.8909 93.1707 35.8909C93.2571 35.8909 93.3335 35.872 93.4001 35.8342C93.4667 35.7964 93.5189 35.7442 93.5566 35.6777C93.5944 35.6102 93.6133 35.5337 93.6133 35.4483V33.7426ZM97.2064 33.7426V36.5062H96.5802L95.5817 35.0542H95.5655V36.5062H94.8152V33.7426H95.4521L96.4345 35.1892H96.4561V33.7426H97.2064ZM98.4066 33.7426V36.5062H97.6563V33.7426H98.4066ZM101.437 34.779H100.676C100.671 34.716 100.656 34.6589 100.633 34.6076C100.61 34.5563 100.579 34.5122 100.539 34.4753C100.499 34.4375 100.451 34.4088 100.394 34.389C100.337 34.3683 100.273 34.3579 100.201 34.3579C100.075 34.3579 99.9686 34.3885 99.8814 34.4497C99.795 34.5109 99.7293 34.5986 99.6843 34.7128C99.6403 34.8271 99.6182 34.9643 99.6182 35.1244C99.6182 35.2935 99.6407 35.4352 99.6857 35.5495C99.7316 35.6628 99.7977 35.7483 99.8841 35.8059C99.9704 35.8625 100.074 35.8909 100.196 35.8909C100.265 35.8909 100.327 35.8823 100.382 35.8652C100.437 35.8473 100.485 35.8216 100.525 35.7883C100.566 35.755 100.598 35.715 100.624 35.6682C100.65 35.6205 100.667 35.567 100.676 35.5076L101.437 35.513C101.428 35.63 101.395 35.7492 101.339 35.8706C101.282 35.9912 101.202 36.1027 101.097 36.2053C100.994 36.307 100.866 36.3888 100.713 36.4509C100.56 36.513 100.382 36.544 100.18 36.544C99.9259 36.544 99.6983 36.4896 99.4968 36.3807C99.2962 36.2719 99.1374 36.1117 99.0204 35.9003C98.9044 35.6889 98.8463 35.4303 98.8463 35.1244C98.8463 34.8167 98.9057 34.5576 99.0245 34.3471C99.1432 34.1357 99.3033 33.976 99.5049 33.8681C99.7064 33.7592 99.9313 33.7048 100.18 33.7048C100.354 33.7048 100.515 33.7286 100.661 33.7763C100.808 33.824 100.937 33.8937 101.047 33.9855C101.158 34.0763 101.247 34.1884 101.314 34.3215C101.382 34.4546 101.423 34.6071 101.437 34.779ZM102.623 33.7426V36.5062H101.873V33.7426H102.623ZM103.074 36.5062V33.7426H104.266C104.472 33.7426 104.651 33.7831 104.805 33.864C104.959 33.945 105.078 34.0588 105.164 34.2054C105.249 34.3521 105.292 34.5235 105.292 34.7196C105.292 34.9175 105.248 35.0889 105.16 35.2337C105.072 35.3786 104.95 35.4901 104.791 35.5684C104.634 35.6466 104.45 35.6858 104.239 35.6858H103.527V35.1028H104.088C104.176 35.1028 104.252 35.0875 104.314 35.0569C104.377 35.0254 104.425 34.9809 104.458 34.9233C104.492 34.8658 104.509 34.7978 104.509 34.7196C104.509 34.6404 104.492 34.5729 104.458 34.5172C104.425 34.4605 104.377 34.4173 104.314 34.3876C104.252 34.357 104.176 34.3417 104.088 34.3417H103.824V36.5062H103.074ZM106.035 36.5062H105.225L106.138 33.7426H107.163L108.075 36.5062H107.266L106.661 34.5037H106.64L106.035 36.5062ZM105.884 35.4159H107.406V35.9772H105.884V35.4159ZM108.437 36.5062V33.7426H109.187V35.9017H110.304V36.5062H108.437ZM112.618 36.5062H111.554V33.7426H112.607C112.891 33.7426 113.137 33.7979 113.344 33.9086C113.552 34.0183 113.712 34.1767 113.824 34.3836C113.938 34.5896 113.994 34.8365 113.994 35.1244C113.994 35.4123 113.938 35.6597 113.826 35.8666C113.713 36.0726 113.554 36.2309 113.348 36.3416C113.142 36.4513 112.899 36.5062 112.618 36.5062ZM112.305 35.8693H112.591C112.728 35.8693 112.844 35.8473 112.94 35.8032C113.038 35.7591 113.111 35.6831 113.162 35.5751C113.213 35.4672 113.239 35.3169 113.239 35.1244C113.239 34.9319 113.212 34.7817 113.16 34.6737C113.109 34.5657 113.033 34.4897 112.934 34.4456C112.835 34.4016 112.713 34.3795 112.569 34.3795H112.305V35.8693ZM114.436 36.5062V33.7426H116.428V34.3471H115.187V34.8221H116.326V35.4267H115.187V35.9017H116.423V36.5062H114.436ZM117.747 36.5062V33.7426H118.946C119.156 33.7426 119.333 33.7709 119.476 33.8276C119.62 33.8843 119.728 33.9643 119.801 34.0678C119.875 34.1713 119.912 34.2932 119.912 34.4335C119.912 34.5352 119.889 34.6278 119.844 34.7115C119.8 34.7951 119.738 34.8653 119.658 34.922C119.578 34.9778 119.484 35.0165 119.377 35.038V35.065C119.496 35.0695 119.604 35.0997 119.701 35.1554C119.798 35.2103 119.876 35.2863 119.933 35.3835C119.991 35.4798 120.02 35.5931 120.02 35.7236C120.02 35.8747 119.98 36.0092 119.901 36.127C119.823 36.2449 119.711 36.3375 119.566 36.405C119.421 36.4725 119.249 36.5062 119.048 36.5062H117.747ZM118.498 35.9071H118.848C118.974 35.9071 119.069 35.8837 119.132 35.8369C119.195 35.7892 119.226 35.7191 119.226 35.6264C119.226 35.5616 119.211 35.5067 119.182 35.4618C119.152 35.4168 119.11 35.3826 119.055 35.3592C119.001 35.3358 118.936 35.3241 118.859 35.3241H118.498V35.9071ZM118.498 34.8599H118.805C118.871 34.8599 118.929 34.8496 118.979 34.8289C119.03 34.8082 119.069 34.7785 119.097 34.7398C119.126 34.7002 119.14 34.6521 119.14 34.5954C119.14 34.51 119.109 34.4447 119.048 34.3998C118.987 34.3539 118.91 34.3309 118.816 34.3309H118.498V34.8599ZM120.381 36.5062V33.7426H122.372V34.3471H121.131V34.8221H122.27V35.4267H121.131V35.9017H122.367V36.5062H120.381ZM122.839 36.5062V33.7426H123.59V35.9017H124.707V36.5062H122.839ZM125.105 36.5062V33.7426H127.049V34.3471H125.856V34.8221H126.93V35.4267H125.856V36.5062H125.105ZM130.097 35.1244C130.097 35.4321 130.037 35.6916 129.917 35.903C129.798 36.1135 129.636 36.2732 129.433 36.3821C129.23 36.49 129.003 36.544 128.753 36.544C128.501 36.544 128.273 36.4896 128.07 36.3807C127.867 36.271 127.706 36.1108 127.587 35.9003C127.468 35.6889 127.409 35.4303 127.409 35.1244C127.409 34.8167 127.468 34.5576 127.587 34.3471C127.706 34.1357 127.867 33.976 128.07 33.8681C128.273 33.7592 128.501 33.7048 128.753 33.7048C129.003 33.7048 129.23 33.7592 129.433 33.8681C129.636 33.976 129.798 34.1357 129.917 34.3471C130.037 34.5576 130.097 34.8167 130.097 35.1244ZM129.325 35.1244C129.325 34.9589 129.303 34.8194 129.259 34.7061C129.216 34.5918 129.151 34.5055 129.066 34.447C128.981 34.3876 128.877 34.3579 128.753 34.3579C128.629 34.3579 128.524 34.3876 128.438 34.447C128.354 34.5055 128.289 34.5918 128.245 34.7061C128.202 34.8194 128.181 34.9589 128.181 35.1244C128.181 35.2899 128.202 35.4298 128.245 35.5441C128.289 35.6574 128.354 35.7438 128.438 35.8032C128.524 35.8616 128.629 35.8909 128.753 35.8909C128.877 35.8909 128.981 35.8616 129.066 35.8032C129.151 35.7438 129.216 35.6574 129.259 35.5441C129.303 35.4298 129.325 35.2899 129.325 35.1244ZM130.539 36.5062V33.7426H131.732C131.937 33.7426 132.116 33.7799 132.27 33.8546C132.424 33.9293 132.544 34.0368 132.629 34.1771C132.715 34.3174 132.757 34.4857 132.757 34.6818C132.757 34.8797 132.713 35.0466 132.625 35.1824C132.538 35.3183 132.415 35.4208 132.257 35.4901C132.099 35.5594 131.915 35.594 131.705 35.594H130.992V35.0111H131.554C131.642 35.0111 131.717 35.0003 131.779 34.9787C131.842 34.9562 131.89 34.9206 131.923 34.8721C131.958 34.8235 131.975 34.7601 131.975 34.6818C131.975 34.6026 131.958 34.5383 131.923 34.4888C131.89 34.4384 131.842 34.4016 131.779 34.3782C131.717 34.3539 131.642 34.3417 131.554 34.3417H131.289V36.5062H130.539ZM132.158 35.2378L132.849 36.5062H132.034L131.359 35.2378H132.158ZM134.236 36.5062H133.172V33.7426H134.225C134.509 33.7426 134.755 33.7979 134.962 33.9086C135.169 34.0183 135.329 34.1767 135.442 34.3836C135.555 34.5896 135.612 34.8365 135.612 35.1244C135.612 35.4123 135.556 35.6597 135.443 35.8666C135.331 36.0726 135.172 36.2309 134.966 36.3416C134.76 36.4513 134.516 36.5062 134.236 36.5062ZM133.922 35.8693H134.209C134.345 35.8693 134.462 35.8473 134.558 35.8032C134.655 35.7591 134.729 35.6831 134.779 35.5751C134.831 35.4672 134.856 35.3169 134.856 35.1244C134.856 34.9319 134.83 34.7817 134.778 34.6737C134.727 34.5657 134.651 34.4897 134.551 34.4456C134.452 34.4016 134.331 34.3795 134.187 34.3795H133.922V35.8693ZM136.906 36.5062V33.7426H138.099C138.304 33.7426 138.484 33.7799 138.637 33.8546C138.791 33.9293 138.911 34.0368 138.996 34.1771C139.082 34.3174 139.125 34.4857 139.125 34.6818C139.125 34.8797 139.081 35.0466 138.992 35.1824C138.905 35.3183 138.782 35.4208 138.624 35.4901C138.467 35.5594 138.283 35.594 138.072 35.594H137.36V35.0111H137.921C138.009 35.0111 138.084 35.0003 138.146 34.9787C138.209 34.9562 138.257 34.9206 138.291 34.8721C138.325 34.8235 138.342 34.7601 138.342 34.6818C138.342 34.6026 138.325 34.5383 138.291 34.4888C138.257 34.4384 138.209 34.4016 138.146 34.3782C138.084 34.3539 138.009 34.3417 137.921 34.3417H137.656V36.5062H136.906ZM138.525 35.2378L139.216 36.5062H138.401L137.727 35.2378H138.525ZM142.217 35.1244C142.217 35.4321 142.157 35.6916 142.037 35.903C141.918 36.1135 141.756 36.2732 141.553 36.3821C141.349 36.49 141.123 36.544 140.873 36.544C140.621 36.544 140.393 36.4896 140.19 36.3807C139.987 36.271 139.826 36.1108 139.707 35.9003C139.588 35.6889 139.529 35.4303 139.529 35.1244C139.529 34.8167 139.588 34.5576 139.707 34.3471C139.826 34.1357 139.987 33.976 140.19 33.8681C140.393 33.7592 140.621 33.7048 140.873 33.7048C141.123 33.7048 141.349 33.7592 141.553 33.8681C141.756 33.976 141.918 34.1357 142.037 34.3471C142.157 34.5576 142.217 34.8167 142.217 35.1244ZM141.445 35.1244C141.445 34.9589 141.423 34.8194 141.379 34.7061C141.335 34.5918 141.271 34.5055 141.186 34.447C141.101 34.3876 140.997 34.3579 140.873 34.3579C140.748 34.3579 140.644 34.3876 140.558 34.447C140.474 34.5055 140.409 34.5918 140.365 34.7061C140.322 34.8194 140.3 34.9589 140.3 35.1244C140.3 35.2899 140.322 35.4298 140.365 35.5441C140.409 35.6574 140.474 35.7438 140.558 35.8032C140.644 35.8616 140.748 35.8909 140.873 35.8909C140.997 35.8909 141.101 35.8616 141.186 35.8032C141.271 35.7438 141.335 35.6574 141.379 35.5441C141.423 35.4298 141.445 35.2899 141.445 35.1244ZM143.278 33.7426L143.731 34.5469H143.753L144.211 33.7426H145.048L144.222 35.1244L145.08 36.5062H144.222L143.753 35.6858H143.731L143.261 36.5062H142.408L143.256 35.1244L142.435 33.7426H143.278ZM147.958 35.1244C147.958 35.4321 147.898 35.6916 147.779 35.903C147.659 36.1135 147.498 36.2732 147.294 36.3821C147.091 36.49 146.864 36.544 146.614 36.544C146.362 36.544 146.135 36.4896 145.931 36.3807C145.729 36.271 145.568 36.1108 145.448 35.9003C145.33 35.6889 145.27 35.4303 145.27 35.1244C145.27 34.8167 145.33 34.5576 145.448 34.3471C145.568 34.1357 145.729 33.976 145.931 33.8681C146.135 33.7592 146.362 33.7048 146.614 33.7048C146.864 33.7048 147.091 33.7592 147.294 33.8681C147.498 33.976 147.659 34.1357 147.779 34.3471C147.898 34.5576 147.958 34.8167 147.958 35.1244ZM147.186 35.1244C147.186 34.9589 147.164 34.8194 147.12 34.7061C147.077 34.5918 147.013 34.5055 146.927 34.447C146.843 34.3876 146.738 34.3579 146.614 34.3579C146.49 34.3579 146.385 34.3876 146.3 34.447C146.215 34.5055 146.151 34.5918 146.107 34.7061C146.064 34.8194 146.042 34.9589 146.042 35.1244C146.042 35.2899 146.064 35.4298 146.107 35.5441C146.151 35.6574 146.215 35.7438 146.3 35.8032C146.385 35.8616 146.49 35.8909 146.614 35.8909C146.738 35.8909 146.843 35.8616 146.927 35.8032C147.013 35.7438 147.077 35.6574 147.12 35.5441C147.164 35.4298 147.186 35.2899 147.186 35.1244Z" fill="#D74500"/>
<defs>
<linearGradient id="paint0_linear_0_16" x1="99.2512" y1="33.1" x2="99.2512" y2="38.306" gradientUnits="userSpaceOnUse">
<stop stop-color="#F39101"/>
<stop offset="1" stop-color="#F0DD14"/>
</linearGradient>
<linearGradient id="paint1_linear_0_16" x1="80.0841" y1="-3.41567" x2="51.9504" y2="-0.829481" gradientUnits="userSpaceOnUse">
<stop stop-color="#F8F8F8"/>
<stop offset="1" stop-color="#CD4100"/>
</linearGradient>
<linearGradient id="paint2_linear_0_16" x1="111.815" y1="-3.43763" x2="79.356" y2="0.00606152" gradientUnits="userSpaceOnUse">
<stop stop-color="#F8F8F8"/>
<stop offset="1" stop-color="#CD4100"/>
</linearGradient>
<linearGradient id="paint3_linear_0_16" x1="137.819" y1="-3.03681" x2="110.713" y2="-0.601015" gradientUnits="userSpaceOnUse">
<stop stop-color="#F8F8F8"/>
<stop offset="1" stop-color="#CD4100"/>
</linearGradient>
<linearGradient id="paint4_linear_0_16" x1="163.621" y1="-2.95095" x2="136.469" y2="-0.500546" gradientUnits="userSpaceOnUse">
<stop stop-color="#F8F8F8"/>
<stop offset="1" stop-color="#CD4100"/>
</linearGradient>
<linearGradient id="paint5_linear_0_16" x1="17.7391" y1="6.60465" x2="31.1865" y2="6.60465" gradientUnits="userSpaceOnUse">
<stop offset="0.114583" stop-color="#F29100"/>
<stop offset="1" stop-color="#EFE818"/>
</linearGradient>
<linearGradient id="paint6_linear_0_16" x1="10.9902" y1="19.1854" x2="22.0944" y2="19.1854" gradientUnits="userSpaceOnUse">
<stop offset="0.114583" stop-color="#F29100"/>
<stop offset="1" stop-color="#EFE818"/>
</linearGradient>
<linearGradient id="paint7_linear_0_16" x1="5.09986e-08" y1="25.8363" x2="7.23303" y2="25.8363" gradientUnits="userSpaceOnUse">
<stop offset="0.114583" stop-color="#F29100"/>
<stop offset="1" stop-color="#EFE818"/>
</linearGradient>
<linearGradient id="paint8_linear_0_16" x1="10.6048" y1="31.8139" x2="17.8378" y2="31.814" gradientUnits="userSpaceOnUse">
<stop offset="0.114583" stop-color="#F29100"/>
<stop offset="1" stop-color="#EFE818"/>
</linearGradient>
<linearGradient id="paint9_linear_0_16" x1="20.5349" y1="34.4645" x2="35.4084" y2="34.4645" gradientUnits="userSpaceOnUse">
<stop offset="0.114583" stop-color="#F29100"/>
<stop offset="1" stop-color="#EFE818"/>
</linearGradient>
<linearGradient id="paint10_linear_0_16" x1="24.8731" y1="18.9922" x2="63.7888" y2="18.9922" gradientUnits="userSpaceOnUse">
<stop offset="0.114583" stop-color="#F29100"/>
<stop offset="1" stop-color="#EFE818"/>
</linearGradient>
</defs>
</svg>
