<svg width="82" height="23" viewBox="0 0 82 23" fill="none" xmlns="http://www.w3.org/2000/svg">
<mask id="path-1-inside-1_19_15" fill="white">
<path d="M19.1006 19.8355C19.1006 19.0553 19.7331 18.4229 20.5133 18.4229H80.5873C81.3675 18.4229 82 19.0553 82 19.8355V19.8355C82 20.6157 81.3675 21.2482 80.5873 21.2482H20.5133C19.7331 21.2482 19.1006 20.6157 19.1006 19.8355V19.8355Z"/>
</mask>
<path d="M19.1006 19.8355C19.1006 19.0553 19.7331 18.4229 20.5133 18.4229H80.5873C81.3675 18.4229 82 19.0553 82 19.8355V19.8355C82 20.6157 81.3675 21.2482 80.5873 21.2482H20.5133C19.7331 21.2482 19.1006 20.6157 19.1006 19.8355V19.8355Z" fill="white"/>
<path d="M19.1006 18.4229H82H19.1006ZM82.5 20.0855C82.5 21.0038 81.7556 21.7482 80.8373 21.7482H21.0133C19.9569 21.7482 19.1006 20.8919 19.1006 19.8355C19.1006 20.3396 19.7331 20.7482 20.5133 20.7482H80.5873C81.0914 20.7482 81.5 20.3396 81.5 19.8355L82.5 20.0855ZM19.1006 21.2482V18.4229V21.2482ZM80.8373 18.4229C81.7556 18.4229 82.5 19.1673 82.5 20.0855C82.5 21.0038 81.7556 21.7482 80.8373 21.7482L80.5873 20.7482C81.0914 20.7482 81.5 20.3396 81.5 19.8355C81.5 19.0553 81.0914 18.4229 80.5873 18.4229H80.8373Z" fill="url(#paint0_linear_19_15)" mask="url(#path-1-inside-1_19_15)"/>
<path d="M26.8589 17.1299V3.38916H31.3372V8.39811H35.2439V3.55838H39.4047V17.1299H35.2439V12.4594H31.3372V17.1299H26.8589Z" fill="#D74500"/>
<path d="M26.8589 17.1299V3.38916H31.3372V8.39811H35.2439V3.55838H39.4047V17.1299H35.2439V12.4594H31.3372V17.1299H26.8589Z" fill="url(#paint1_linear_19_15)" fill-opacity="0.2"/>
<path d="M40.8337 3.38904V17.0621H44.8992L44.9945 10.3948L47.853 15.1668L50.9022 10.3948L50.8069 17.1637H55.1582L55.3488 3.42288H50.9339L48.0436 8.36414L45.3121 3.38904H40.8337Z" fill="#D74500"/>
<path d="M40.8337 3.38904V17.0621H44.8992L44.9945 10.3948L47.853 15.1668L50.9022 10.3948L50.8069 17.1637H55.1582L55.3488 3.42288H50.9339L48.0436 8.36414L45.3121 3.38904H40.8337Z" fill="url(#paint2_linear_19_15)" fill-opacity="0.2"/>
<path fill-rule="evenodd" clip-rule="evenodd" d="M56.778 17.0619V3.52417H65.4489L66.2112 3.69339C69.2603 4.57334 68.911 9.71767 66.2112 10.1576C70.9119 11.5114 68.5933 17.0619 65.1631 17.0619H56.778ZM61.2882 6.94244V8.90541H63.6385C64.2738 8.90541 65.2266 7.4501 63.6385 6.94244H61.2882ZM61.0976 13.779V11.816H63.6385C65.1313 11.816 64.8137 13.779 63.6385 13.779H61.0976Z" fill="#D74500"/>
<path fill-rule="evenodd" clip-rule="evenodd" d="M56.778 17.0619V3.52417H65.4489L66.2112 3.69339C69.2603 4.57334 68.911 9.71767 66.2112 10.1576C70.9119 11.5114 68.5933 17.0619 65.1631 17.0619H56.778ZM61.2882 6.94244V8.90541H63.6385C64.2738 8.90541 65.2266 7.4501 63.6385 6.94244H61.2882ZM61.0976 13.779V11.816H63.6385C65.1313 11.816 64.8137 13.779 63.6385 13.779H61.0976Z" fill="url(#paint3_linear_19_15)" fill-opacity="0.2"/>
<path fill-rule="evenodd" clip-rule="evenodd" d="M69.8955 3.55896V17.0628H74.2151V13.3061H75.1997L77.2959 17.0628H81.9967L79.4875 12.5615C82.4096 10.8355 83.2036 6.06344 79.5828 3.82971L79.1064 3.69434C79.1318 3.69434 78.6617 3.55896 79.1064 3.69434C79.0809 3.69434 78.7146 3.60409 78.5346 3.55896H69.8955ZM74.2151 10.0232V7.31567H76.4701C78.5346 7.75565 77.7724 10.0232 76.4701 10.0232H74.2151Z" fill="#D74500"/>
<path fill-rule="evenodd" clip-rule="evenodd" d="M69.8955 3.55896V17.0628H74.2151V13.3061H75.1997L77.2959 17.0628H81.9967L79.4875 12.5615C82.4096 10.8355 83.2036 6.06344 79.5828 3.82971L79.1064 3.69434C79.1318 3.69434 78.6617 3.55896 79.1064 3.69434C79.0809 3.69434 78.7146 3.60409 78.5346 3.55896H69.8955ZM74.2151 10.0232V7.31567H76.4701C78.5346 7.75565 77.7724 10.0232 76.4701 10.0232H74.2151Z" fill="url(#paint4_linear_19_15)" fill-opacity="0.2"/>
<path d="M10.9726 2.57976L10.9169 0.616333L13.0997 0.663931C13.2779 0.663931 13.4783 0.925721 13.4783 1.10421V2.55596C13.4783 2.75825 13.5897 2.82965 13.701 2.82965L15.5163 2.86534V5.09056C15.5163 5.29285 15.3604 5.41184 15.1933 5.41184H13.7567C13.6899 5.41184 13.5785 5.45944 13.5785 5.60224L13.6008 7.47046L11.5072 7.45856C11.4292 7.45856 11.1285 7.4493 11.1062 7.10421V5.61414C11.1062 5.55464 11.1062 5.42374 10.9503 5.42374L9.09053 5.39994L9.03485 3.12713C9.03485 3.02004 9.03485 2.74635 9.30213 2.74635H10.8278C10.9726 2.74635 10.9726 2.66305 10.9726 2.57976Z" fill="url(#paint5_linear_19_15)"/>
<path d="M7.19762 9.6646L7.15163 8.0459L8.95406 8.08514C9.1012 8.08514 9.26673 8.30097 9.26673 8.44812V9.64498C9.26673 9.81175 9.35869 9.87061 9.45065 9.87061L10.9496 9.90005V11.7346C10.9496 11.9013 10.8209 11.9994 10.6829 11.9994H9.49663C9.44145 11.9994 9.34949 12.0387 9.34949 12.1564L9.36788 13.6966L7.63903 13.6868C7.57465 13.6868 7.32636 13.6934 7.30797 13.4089V12.1662C7.30797 12.1172 7.30797 12.0093 7.17922 12.0093L5.64348 11.9896L5.5975 10.1159C5.5975 10.0276 5.5975 9.80194 5.81821 9.80194H7.07807C7.19762 9.80194 7.19762 9.73327 7.19762 9.6646Z" fill="url(#paint6_linear_19_15)"/>
<path d="M1.04227 13.6986L1.01232 12.6494L2.18638 12.6748C2.28222 12.6748 2.39004 12.8147 2.39004 12.9101V13.6859C2.39004 13.7939 2.44994 13.8321 2.50985 13.8321L3.48623 13.8512V15.0402C3.48623 15.1483 3.40237 15.2119 3.31252 15.2119H2.5398C2.50385 15.2119 2.44395 15.2373 2.44395 15.3136L2.45593 16.3119L1.3298 16.3056C1.28787 16.3056 1.12614 16.3132 1.11416 16.1288V15.32C1.11416 15.2882 1.11416 15.2183 1.03029 15.2183L0.0299504 15.2055L0 13.9911C0 13.9338 0 13.7876 0.143762 13.7876H0.964403C1.04227 13.7876 1.04227 13.7431 1.04227 13.6986Z" fill="url(#paint7_linear_19_15)"/>
<path d="M6.44349 16.9428L6.41354 15.8937L7.58759 15.9191C7.68344 15.9191 7.79126 16.059 7.79126 16.1544V16.9301C7.79126 17.0382 7.85116 17.0764 7.91106 17.0764L8.88744 17.0954V18.2845C8.88744 18.3926 8.80358 18.4562 8.71373 18.4562H7.94101C7.90507 18.4562 7.84517 18.4816 7.84517 18.5579L7.85715 19.5562L6.73101 19.5498C6.68908 19.5498 6.52735 19.5313 6.51537 19.3469V18.5643C6.51537 18.5325 6.51537 18.4625 6.43151 18.4625L5.43117 18.4498L5.40121 17.2353C5.40121 17.1781 5.40121 17.0319 5.54498 17.0319H6.36562C6.44349 17.0319 6.44349 16.9873 6.44349 16.9428Z" fill="url(#paint8_linear_19_15)"/>
<path d="M12.602 17.5434L12.5404 15.3701L14.9547 15.4228C15.1518 15.4228 15.3735 15.7126 15.3735 15.9101V17.517C15.3735 17.7409 15.4967 17.82 15.6198 17.82L17.6276 17.8595V20.3225C17.6276 20.5464 17.4552 20.6781 17.2704 20.6781H15.6814C15.6075 20.6781 15.4843 20.7308 15.4843 20.8889L15.509 22.9567L13.1933 22.9436H13.1914C13.1025 22.9436 12.7743 22.9437 12.7498 22.5643V20.902C12.7498 20.8362 12.7498 20.6913 12.5774 20.6913L10.5203 20.665L10.4587 18.1492C10.4587 18.0307 10.4587 17.7278 10.7544 17.7278H12.4419C12.602 17.7278 12.602 17.6356 12.602 17.5434Z" fill="url(#paint9_linear_19_15)"/>
<path d="M18.276 6.1186L18.1149 0.458984L24.4316 0.596187C24.9473 0.596187 25.5274 1.3508 25.5274 1.86531V6.05C25.5274 6.63311 25.8497 6.83891 26.172 6.83891L31.4252 6.94181V13.356C31.4252 13.9392 30.974 14.2822 30.4906 14.2822H26.3331C26.1397 14.2822 25.8175 14.4194 25.8175 14.831V21.0737H19.7263C18.6628 21.0737 18.6628 20.211 18.6628 19.2163V14.8653C18.6628 14.6938 18.6628 14.3165 18.2116 14.3165L12.8294 14.2479L12.6683 7.69643V7.69642C12.6683 7.3877 12.6683 6.59881 13.4418 6.59881H17.8571C18.276 6.59881 18.276 6.3587 18.276 6.1186Z" fill="url(#paint10_linear_19_15)"/>
<path d="M18.5516 10.6076H20.2793L20.8942 11.5125L21.6263 8.8291L22.7683 12.511L23.5004 9.79638L23.9689 10.7013H26.0772" stroke="#E9E9E9" stroke-width="0.5" stroke-linecap="round"/>
<ellipse cx="18.1418" cy="10.6072" rx="0.497801" ry="0.530443" fill="#E9E9E9"/>
<ellipse cx="26.2236" cy="10.6702" rx="0.497801" ry="0.530443" fill="#E9E9E9"/>
<path d="M34.2556 20.1005V18.7914H34.611V19.3027H35.0814V18.7914H35.4368V20.1005H35.0814V19.5891H34.611V20.1005H34.2556ZM36.9188 19.4459C36.9188 19.5917 36.8904 19.7146 36.8337 19.8147C36.7771 19.9145 36.7006 19.9901 36.6043 20.0417C36.508 20.0928 36.4006 20.1184 36.2821 20.1184C36.1628 20.1184 36.055 20.0926 35.9587 20.041C35.8628 19.989 35.7865 19.9132 35.7298 19.8135C35.6736 19.7133 35.6455 19.5908 35.6455 19.4459C35.6455 19.3002 35.6736 19.1775 35.7298 19.0777C35.7865 18.9776 35.8628 18.902 35.9587 18.8508C36.055 18.7993 36.1628 18.7735 36.2821 18.7735C36.4006 18.7735 36.508 18.7993 36.6043 18.8508C36.7006 18.902 36.7771 18.9776 36.8337 19.0777C36.8904 19.1775 36.9188 19.3002 36.9188 19.4459ZM36.5531 19.4459C36.5531 19.3675 36.5427 19.3015 36.5218 19.2478C36.5014 19.1936 36.4709 19.1527 36.4304 19.125C36.3904 19.0969 36.3409 19.0829 36.2821 19.0829C36.2233 19.0829 36.1737 19.0969 36.1332 19.125C36.0931 19.1527 36.0627 19.1936 36.0418 19.2478C36.0213 19.3015 36.0111 19.3675 36.0111 19.4459C36.0111 19.5243 36.0213 19.5906 36.0418 19.6447C36.0627 19.6984 36.0931 19.7393 36.1332 19.7674C36.1737 19.7951 36.2233 19.809 36.2821 19.809C36.3409 19.809 36.3904 19.7951 36.4304 19.7674C36.4709 19.7393 36.5014 19.6984 36.5218 19.6447C36.5427 19.5906 36.5531 19.5243 36.5531 19.4459ZM37.8339 19.2005C37.8305 19.1579 37.8145 19.1246 37.7859 19.1007C37.7578 19.0769 37.715 19.065 37.6575 19.065C37.6208 19.065 37.5908 19.0694 37.5673 19.0784C37.5443 19.0869 37.5273 19.0986 37.5162 19.1135C37.5051 19.1284 37.4994 19.1455 37.4989 19.1647C37.4981 19.1804 37.5009 19.1947 37.5072 19.2075C37.5141 19.2199 37.5247 19.2311 37.5392 19.2414C37.5537 19.2512 37.5722 19.2601 37.5948 19.2682C37.6174 19.2763 37.6442 19.2836 37.6754 19.29L37.7827 19.313C37.8552 19.3283 37.9172 19.3485 37.9687 19.3737C38.0203 19.3988 38.0625 19.4284 38.0953 19.4625C38.1281 19.4962 38.1522 19.5341 38.1675 19.5763C38.1833 19.6185 38.1914 19.6645 38.1918 19.7144C38.1914 19.8005 38.1699 19.8733 38.1273 19.933C38.0847 19.9927 38.0237 20.038 37.9445 20.0691C37.8656 20.1003 37.7708 20.1158 37.66 20.1158C37.5462 20.1158 37.4469 20.099 37.3621 20.0653C37.2778 20.0316 37.2121 19.9799 37.1653 19.91C37.1188 19.8397 37.0954 19.7498 37.095 19.6402H37.4325C37.4346 19.6803 37.4446 19.714 37.4625 19.7412C37.4804 19.7685 37.5055 19.7892 37.5379 19.8032C37.5707 19.8173 37.6097 19.8243 37.6549 19.8243C37.6928 19.8243 37.7246 19.8196 37.7501 19.8103C37.7757 19.8009 37.7951 19.7879 37.8083 19.7713C37.8215 19.7547 37.8283 19.7357 37.8288 19.7144C37.8283 19.6944 37.8217 19.6769 37.8089 19.662C37.7966 19.6466 37.7761 19.633 37.7476 19.6211C37.719 19.6087 37.6805 19.5972 37.6319 19.5865L37.5015 19.5584C37.3856 19.5333 37.2942 19.4913 37.2273 19.4325C37.1608 19.3733 37.1278 19.2925 37.1282 19.1902C37.1278 19.1071 37.1499 19.0345 37.1947 18.9723C37.2398 18.9096 37.3023 18.8608 37.382 18.8259C37.4621 18.7909 37.5539 18.7735 37.6575 18.7735C37.7631 18.7735 37.8545 18.7912 37.9317 18.8265C38.0088 18.8619 38.0683 18.9118 38.11 18.9761C38.1522 19.04 38.1735 19.1148 38.1739 19.2005H37.8339ZM38.372 20.1005V18.7914H38.9371C39.0342 18.7914 39.1193 18.8105 39.1921 18.8489C39.265 18.8873 39.3217 18.9412 39.3622 19.0106C39.4026 19.0801 39.4229 19.1613 39.4229 19.2542C39.4229 19.3479 39.402 19.4291 39.3602 19.4977C39.3189 19.5663 39.2607 19.6191 39.1857 19.6562C39.1112 19.6933 39.024 19.7118 38.9243 19.7118H38.5868V19.4357H38.8527C38.8945 19.4357 38.93 19.4284 38.9595 19.414C38.9893 19.399 39.0121 19.3779 39.0278 19.3507C39.044 19.3234 39.0521 19.2912 39.0521 19.2542C39.0521 19.2167 39.044 19.1847 39.0278 19.1583C39.0121 19.1314 38.9893 19.111 38.9595 19.0969C38.93 19.0824 38.8945 19.0752 38.8527 19.0752H38.7274V20.1005H38.372ZM39.9537 18.7914V20.1005H39.5983V18.7914H39.9537ZM40.1313 19.0777V18.7914H41.2691V19.0777H40.8753V20.1005H40.5251V19.0777H40.1313ZM41.6227 20.1005H41.2391L41.6712 18.7914H42.157L42.5891 20.1005H42.2056L41.9193 19.1519H41.909L41.6227 20.1005ZM41.5511 19.584H42.2721V19.8499H41.5511V19.584ZM42.7602 20.1005V18.7914H43.1156V19.8141H43.6449V20.1005H42.7602ZM44.2371 18.7914H44.6795L44.9837 19.5329H44.9991L45.3033 18.7914H45.7457V20.1005H45.3979V19.3436H45.3877L45.0962 20.0902H44.8866L44.5951 19.3385H44.5849V20.1005H44.2371V18.7914ZM46.7338 18.7914H47.0892V19.63C47.0892 19.7297 47.0653 19.816 47.0176 19.8889C46.9703 19.9613 46.9043 20.0174 46.8195 20.057C46.7347 20.0962 46.6362 20.1158 46.5242 20.1158C46.4112 20.1158 46.3124 20.0962 46.2276 20.057C46.1428 20.0174 46.0767 19.9613 46.0294 19.8889C45.9825 19.816 45.9591 19.7297 45.9591 19.63V18.7914H46.3145V19.5993C46.3145 19.6398 46.3234 19.676 46.3413 19.708C46.3592 19.7395 46.384 19.7642 46.4155 19.7821C46.4474 19.8 46.4837 19.809 46.5242 19.809C46.5651 19.809 46.6013 19.8 46.6328 19.7821C46.6643 19.7642 46.6891 19.7395 46.707 19.708C46.7249 19.676 46.7338 19.6398 46.7338 19.5993V18.7914ZM48.4358 18.7914V20.1005H48.1392L47.6662 19.4127H47.6585V20.1005H47.3031V18.7914H47.6048L48.0702 19.4766H48.0804V18.7914H48.4358ZM49.0043 18.7914V20.1005H48.6489V18.7914H49.0043ZM50.4399 19.2823H50.0794C50.0768 19.2525 50.07 19.2254 50.0589 19.2011C50.0483 19.1768 50.0334 19.1559 50.0142 19.1385C49.9954 19.1206 49.9726 19.1069 49.9458 19.0976C49.9189 19.0878 49.8885 19.0829 49.8544 19.0829C49.7947 19.0829 49.7442 19.0973 49.7029 19.1263C49.662 19.1553 49.6309 19.1968 49.6096 19.251C49.5887 19.3051 49.5782 19.3701 49.5782 19.4459C49.5782 19.526 49.5889 19.5931 49.6102 19.6473C49.6319 19.701 49.6633 19.7414 49.7042 19.7687C49.7451 19.7956 49.7943 19.809 49.8518 19.809C49.8846 19.809 49.914 19.8049 49.94 19.7968C49.966 19.7883 49.9886 19.7762 50.0078 19.7604C50.027 19.7446 50.0425 19.7257 50.0544 19.7035C50.0668 19.6809 50.0751 19.6556 50.0794 19.6275L50.4399 19.63C50.4356 19.6854 50.4201 19.7419 50.3932 19.7994C50.3664 19.8565 50.3282 19.9093 50.2788 19.9579C50.2298 20.0061 50.1691 20.0449 50.0966 20.0743C50.0242 20.1037 49.94 20.1184 49.8441 20.1184C49.724 20.1184 49.6162 20.0926 49.5207 20.041C49.4257 19.9895 49.3505 19.9136 49.2951 19.8135C49.2401 19.7133 49.2126 19.5908 49.2126 19.4459C49.2126 19.3002 49.2407 19.1775 49.297 19.0777C49.3532 18.9776 49.4291 18.902 49.5245 18.8508C49.62 18.7993 49.7265 18.7735 49.8441 18.7735C49.9268 18.7735 50.0029 18.7848 50.0723 18.8074C50.1418 18.8299 50.2027 18.863 50.2552 18.9064C50.3076 18.9495 50.3498 19.0025 50.3817 19.0656C50.4137 19.1287 50.4331 19.2009 50.4399 19.2823ZM51.0015 18.7914V20.1005H50.6461V18.7914H51.0015ZM51.215 20.1005V18.7914H51.78C51.8772 18.7914 51.9622 18.8105 52.0351 18.8489C52.1079 18.8873 52.1646 18.9412 52.2051 19.0106C52.2456 19.0801 52.2658 19.1613 52.2658 19.2542C52.2658 19.3479 52.2449 19.4291 52.2032 19.4977C52.1618 19.5663 52.1037 19.6191 52.0287 19.6562C51.9541 19.6933 51.8669 19.7118 51.7672 19.7118H51.4297V19.4357H51.6956C51.7374 19.4357 51.773 19.4284 51.8024 19.414C51.8322 19.399 51.855 19.3779 51.8708 19.3507C51.887 19.3234 51.8951 19.2912 51.8951 19.2542C51.8951 19.2167 51.887 19.1847 51.8708 19.1583C51.855 19.1314 51.8322 19.111 51.8024 19.0969C51.773 19.0824 51.7374 19.0752 51.6956 19.0752H51.5704V20.1005H51.215ZM52.6178 20.1005H52.2343L52.6664 18.7914H53.1522L53.5843 20.1005H53.2007L52.9144 19.1519H52.9041L52.6178 20.1005ZM52.5462 19.584H53.2672V19.8499H52.5462V19.584ZM53.7553 20.1005V18.7914H54.1107V19.8141H54.64V20.1005H53.7553ZM55.736 20.1005H55.2323V18.7914H55.7308C55.8655 18.7914 55.9818 18.8176 56.0798 18.87C56.1783 18.922 56.2541 18.997 56.3074 19.095C56.3611 19.1926 56.3879 19.3096 56.3879 19.4459C56.3879 19.5823 56.3613 19.6995 56.308 19.7975C56.2548 19.8951 56.1793 19.9701 56.0818 20.0225C55.9842 20.0745 55.8689 20.1005 55.736 20.1005ZM55.5877 19.7988H55.7232C55.7879 19.7988 55.8431 19.7883 55.8887 19.7674C55.9347 19.7466 55.9697 19.7105 55.9936 19.6594C56.0178 19.6083 56.03 19.5371 56.03 19.4459C56.03 19.3547 56.0176 19.2836 55.9929 19.2324C55.9686 19.1813 55.9328 19.1453 55.8855 19.1244C55.8386 19.1035 55.7811 19.0931 55.7129 19.0931H55.5877V19.7988ZM56.5974 20.1005V18.7914H57.5408V19.0777H56.9528V19.3027H57.4923V19.5891H56.9528V19.8141H57.5383V20.1005H56.5974ZM58.1657 20.1005V18.7914H58.7333C58.833 18.7914 58.9168 18.8048 58.9845 18.8316C59.0527 18.8585 59.104 18.8964 59.1386 18.9454C59.1735 18.9944 59.191 19.0522 59.191 19.1186C59.191 19.1668 59.1803 19.2107 59.159 19.2503C59.1381 19.29 59.1087 19.3232 59.0708 19.35C59.0329 19.3765 58.9886 19.3948 58.9379 19.405V19.4178C58.9941 19.4199 59.0452 19.4342 59.0913 19.4606C59.1373 19.4866 59.1739 19.5226 59.2012 19.5686C59.2285 19.6142 59.2421 19.6679 59.2421 19.7297C59.2421 19.8013 59.2234 19.865 59.1859 19.9208C59.1488 19.9767 59.096 20.0206 59.0273 20.0525C58.9587 20.0845 58.8769 20.1005 58.7819 20.1005H58.1657ZM58.5211 19.8167H58.6873C58.7469 19.8167 58.7917 19.8056 58.8215 19.7834C58.8513 19.7608 58.8663 19.7276 58.8663 19.6837C58.8663 19.653 58.8592 19.627 58.8452 19.6057C58.8311 19.5844 58.8111 19.5682 58.7851 19.5571C58.7595 19.5461 58.7286 19.5405 58.6924 19.5405H58.5211V19.8167ZM58.5211 19.3206H58.6668C58.6979 19.3206 58.7254 19.3157 58.7493 19.3059C58.7732 19.2961 58.7917 19.2821 58.8049 19.2637C58.8185 19.245 58.8254 19.2222 58.8254 19.1954C58.8254 19.1549 58.8109 19.124 58.7819 19.1027C58.7529 19.0809 58.7163 19.0701 58.6719 19.0701H58.5211V19.3206ZM59.413 20.1005V18.7914H60.3565V19.0777H59.7684V19.3027H60.3079V19.5891H59.7684V19.8141H60.3539V20.1005H59.413ZM60.5778 20.1005V18.7914H60.9332V19.8141H61.4624V20.1005H60.5778ZM61.6511 20.1005V18.7914H62.5715V19.0777H62.0065V19.3027H62.5153V19.5891H62.0065V20.1005H61.6511ZM64.0154 19.4459C64.0154 19.5917 63.9871 19.7146 63.9304 19.8147C63.8737 19.9145 63.7973 19.9901 63.701 20.0417C63.6046 20.0928 63.4973 20.1184 63.3788 20.1184C63.2595 20.1184 63.1517 20.0926 63.0554 20.041C62.9595 19.989 62.8832 19.9132 62.8265 19.8135C62.7703 19.7133 62.7421 19.5908 62.7421 19.4459C62.7421 19.3002 62.7703 19.1775 62.8265 19.0777C62.8832 18.9776 62.9595 18.902 63.0554 18.8508C63.1517 18.7993 63.2595 18.7735 63.3788 18.7735C63.4973 18.7735 63.6046 18.7993 63.701 18.8508C63.7973 18.902 63.8737 18.9776 63.9304 19.0777C63.9871 19.1775 64.0154 19.3002 64.0154 19.4459ZM63.6498 19.4459C63.6498 19.3675 63.6394 19.3015 63.6185 19.2478C63.598 19.1936 63.5676 19.1527 63.5271 19.125C63.487 19.0969 63.4376 19.0829 63.3788 19.0829C63.32 19.0829 63.2703 19.0969 63.2299 19.125C63.1898 19.1527 63.1593 19.1936 63.1385 19.2478C63.118 19.3015 63.1078 19.3675 63.1078 19.4459C63.1078 19.5243 63.118 19.5906 63.1385 19.6447C63.1593 19.6984 63.1898 19.7393 63.2299 19.7674C63.2703 19.7951 63.32 19.809 63.3788 19.809C63.4376 19.809 63.487 19.7951 63.5271 19.7674C63.5676 19.7393 63.598 19.6984 63.6185 19.6447C63.6394 19.5906 63.6498 19.5243 63.6498 19.4459ZM64.2249 20.1005V18.7914H64.7899C64.8871 18.7914 64.9721 18.8091 65.045 18.8444C65.1178 18.8798 65.1745 18.9307 65.215 18.9972C65.2555 19.0637 65.2757 19.1434 65.2757 19.2363C65.2757 19.33 65.2548 19.4091 65.2131 19.4734C65.1717 19.5378 65.1136 19.5863 65.0386 19.6191C64.964 19.652 64.8769 19.6684 64.7771 19.6684H64.4396V19.3922H64.7056C64.7473 19.3922 64.7829 19.3871 64.8123 19.3769C64.8421 19.3662 64.8649 19.3494 64.8807 19.3264C64.8969 19.3034 64.905 19.2733 64.905 19.2363C64.905 19.1988 64.8969 19.1683 64.8807 19.1449C64.8649 19.121 64.8421 19.1035 64.8123 19.0924C64.7829 19.0809 64.7473 19.0752 64.7056 19.0752H64.5803V20.1005H64.2249ZM64.9919 19.4996L65.3192 20.1005H64.9331L64.6135 19.4996H64.9919ZM65.9759 20.1005H65.4722V18.7914H65.9708C66.1055 18.7914 66.2218 18.8176 66.3198 18.87C66.4182 18.922 66.4941 18.997 66.5474 19.095C66.6011 19.1926 66.6279 19.3096 66.6279 19.4459C66.6279 19.5823 66.6013 19.6995 66.548 19.7975C66.4947 19.8951 66.4193 19.9701 66.3217 20.0225C66.2241 20.0745 66.1089 20.1005 65.9759 20.1005ZM65.8276 19.7988H65.9631C66.0279 19.7988 66.0831 19.7883 66.1287 19.7674C66.1747 19.7466 66.2096 19.7105 66.2335 19.6594C66.2578 19.6083 66.2699 19.5371 66.2699 19.4459C66.2699 19.3547 66.2576 19.2836 66.2329 19.2324C66.2086 19.1813 66.1728 19.1453 66.1255 19.1244C66.0786 19.1035 66.0211 19.0931 65.9529 19.0931H65.8276V19.7988ZM67.2409 20.1005V18.7914H67.806C67.9031 18.7914 67.9882 18.8091 68.061 18.8444C68.1339 18.8798 68.1906 18.9307 68.2311 18.9972C68.2715 19.0637 68.2918 19.1434 68.2918 19.2363C68.2918 19.33 68.2709 19.4091 68.2291 19.4734C68.1878 19.5378 68.1296 19.5863 68.0546 19.6191C67.9801 19.652 67.8929 19.6684 67.7932 19.6684H67.4557V19.3922H67.7216C67.7634 19.3922 67.799 19.3871 67.8284 19.3769C67.8582 19.3662 67.881 19.3494 67.8968 19.3264C67.9129 19.3034 67.921 19.2733 67.921 19.2363C67.921 19.1988 67.9129 19.1683 67.8968 19.1449C67.881 19.121 67.8582 19.1035 67.8284 19.0924C67.799 19.0809 67.7634 19.0752 67.7216 19.0752H67.5963V20.1005H67.2409ZM68.008 19.4996L68.3352 20.1005H67.9492L67.6296 19.4996H68.008ZM69.7565 19.4459C69.7565 19.5917 69.7281 19.7146 69.6714 19.8147C69.6148 19.9145 69.5383 19.9901 69.442 20.0417C69.3457 20.0928 69.2383 20.1184 69.1198 20.1184C69.0005 20.1184 68.8927 20.0926 68.7964 20.041C68.7005 19.989 68.6242 19.9132 68.5675 19.8135C68.5113 19.7133 68.4832 19.5908 68.4832 19.4459C68.4832 19.3002 68.5113 19.1775 68.5675 19.0777C68.6242 18.9776 68.7005 18.902 68.7964 18.8508C68.8927 18.7993 69.0005 18.7735 69.1198 18.7735C69.2383 18.7735 69.3457 18.7993 69.442 18.8508C69.5383 18.902 69.6148 18.9776 69.6714 19.0777C69.7281 19.1775 69.7565 19.3002 69.7565 19.4459ZM69.3908 19.4459C69.3908 19.3675 69.3804 19.3015 69.3595 19.2478C69.3391 19.1936 69.3086 19.1527 69.2681 19.125C69.228 19.0969 69.1786 19.0829 69.1198 19.0829C69.061 19.0829 69.0114 19.0969 68.9709 19.125C68.9308 19.1527 68.9003 19.1936 68.8795 19.2478C68.859 19.3015 68.8488 19.3675 68.8488 19.4459C68.8488 19.5243 68.859 19.5906 68.8795 19.6447C68.9003 19.6984 68.9308 19.7393 68.9709 19.7674C69.0114 19.7951 69.061 19.809 69.1198 19.809C69.1786 19.809 69.228 19.7951 69.2681 19.7674C69.3086 19.7393 69.3391 19.6984 69.3595 19.6447C69.3804 19.5906 69.3908 19.5243 69.3908 19.4459ZM70.259 18.7914L70.4737 19.1723H70.484L70.7013 18.7914H71.0976L70.7064 19.4459L71.1129 20.1005H70.7064L70.484 19.7118H70.4737L70.2513 20.1005H69.8473L70.2487 19.4459L69.8601 18.7914H70.259ZM72.4761 19.4459C72.4761 19.5917 72.4478 19.7146 72.3911 19.8147C72.3345 19.9145 72.258 19.9901 72.1617 20.0417C72.0653 20.0928 71.958 20.1184 71.8395 20.1184C71.7202 20.1184 71.6124 20.0926 71.5161 20.041C71.4202 19.989 71.3439 19.9132 71.2872 19.8135C71.231 19.7133 71.2028 19.5908 71.2028 19.4459C71.2028 19.3002 71.231 19.1775 71.2872 19.0777C71.3439 18.9776 71.4202 18.902 71.5161 18.8508C71.6124 18.7993 71.7202 18.7735 71.8395 18.7735C71.958 18.7735 72.0653 18.7993 72.1617 18.8508C72.258 18.902 72.3345 18.9776 72.3911 19.0777C72.4478 19.1775 72.4761 19.3002 72.4761 19.4459ZM72.1105 19.4459C72.1105 19.3675 72.1001 19.3015 72.0792 19.2478C72.0587 19.1936 72.0283 19.1527 71.9878 19.125C71.9477 19.0969 71.8983 19.0829 71.8395 19.0829C71.7807 19.0829 71.731 19.0969 71.6906 19.125C71.6505 19.1527 71.62 19.1936 71.5992 19.2478C71.5787 19.3015 71.5685 19.3675 71.5685 19.4459C71.5685 19.5243 71.5787 19.5906 71.5992 19.6447C71.62 19.6984 71.6505 19.7393 71.6906 19.7674C71.731 19.7951 71.7807 19.809 71.8395 19.809C71.8983 19.809 71.9477 19.7951 71.9878 19.7674C72.0283 19.7393 72.0587 19.6984 72.0792 19.6447C72.1001 19.5906 72.1105 19.5243 72.1105 19.4459Z" fill="#D74500"/>
<defs>
<linearGradient id="paint0_linear_19_15" x1="50.5503" y1="18.4229" x2="50.5503" y2="21.2482" gradientUnits="userSpaceOnUse">
<stop stop-color="#F39101"/>
<stop offset="1" stop-color="#F0DD14"/>
</linearGradient>
<linearGradient id="paint1_linear_19_15" x1="40.7882" y1="-1.39475" x2="26.4449" y2="-0.15738" gradientUnits="userSpaceOnUse">
<stop stop-color="#F8F8F8"/>
<stop offset="1" stop-color="#CD4100"/>
</linearGradient>
<linearGradient id="paint2_linear_19_15" x1="56.9495" y1="-1.40665" x2="40.3954" y2="0.241528" gradientUnits="userSpaceOnUse">
<stop stop-color="#F8F8F8"/>
<stop offset="1" stop-color="#CD4100"/>
</linearGradient>
<linearGradient id="paint3_linear_19_15" x1="70.1935" y1="-1.18904" x2="56.3748" y2="-0.023682" gradientUnits="userSpaceOnUse">
<stop stop-color="#F8F8F8"/>
<stop offset="1" stop-color="#CD4100"/>
</linearGradient>
<linearGradient id="paint4_linear_19_15" x1="83.3348" y1="-1.14247" x2="69.4924" y2="0.0298905" gradientUnits="userSpaceOnUse">
<stop stop-color="#F8F8F8"/>
<stop offset="1" stop-color="#CD4100"/>
</linearGradient>
<linearGradient id="paint5_linear_19_15" x1="9.03485" y1="4.0434" x2="15.8838" y2="4.0434" gradientUnits="userSpaceOnUse">
<stop offset="0.114583" stop-color="#F29100"/>
<stop offset="1" stop-color="#EFE818"/>
</linearGradient>
<linearGradient id="paint6_linear_19_15" x1="5.5975" y1="10.8713" x2="11.2531" y2="10.8713" gradientUnits="userSpaceOnUse">
<stop offset="0.114583" stop-color="#F29100"/>
<stop offset="1" stop-color="#EFE818"/>
</linearGradient>
<linearGradient id="paint7_linear_19_15" x1="2.59744e-08" y1="14.4807" x2="3.6839" y2="14.4807" gradientUnits="userSpaceOnUse">
<stop offset="0.114583" stop-color="#F29100"/>
<stop offset="1" stop-color="#EFE818"/>
</linearGradient>
<linearGradient id="paint8_linear_19_15" x1="5.40121" y1="17.7249" x2="9.08512" y2="17.7249" gradientUnits="userSpaceOnUse">
<stop offset="0.114583" stop-color="#F29100"/>
<stop offset="1" stop-color="#EFE818"/>
</linearGradient>
<linearGradient id="paint9_linear_19_15" x1="10.4587" y1="19.1634" x2="18.0341" y2="19.1634" gradientUnits="userSpaceOnUse">
<stop offset="0.114583" stop-color="#F29100"/>
<stop offset="1" stop-color="#EFE818"/>
</linearGradient>
<linearGradient id="paint10_linear_19_15" x1="12.6683" y1="10.7663" x2="32.4887" y2="10.7663" gradientUnits="userSpaceOnUse">
<stop offset="0.114583" stop-color="#F29100"/>
<stop offset="1" stop-color="#EFE818"/>
</linearGradient>
</defs>
</svg>
