<svg width="173" height="169" viewBox="0 0 173 169" fill="none" xmlns="http://www.w3.org/2000/svg">
<path d="M0.426136 158.794V157.273H7.59375V158.794H4.92188V166H3.09801V158.794H0.426136ZM9.07415 166V157.273H12.5173C13.1764 157.273 13.7389 157.391 14.2048 157.626C14.6736 157.859 15.0301 158.19 15.2744 158.619C15.5216 159.045 15.6452 159.547 15.6452 160.124C15.6452 160.703 15.5202 161.202 15.2702 161.619C15.0202 162.034 14.658 162.352 14.1835 162.574C13.7119 162.795 13.1409 162.906 12.4705 162.906H10.1651V161.423H12.1722C12.5244 161.423 12.817 161.375 13.05 161.278C13.283 161.182 13.4563 161.037 13.5699 160.844C13.6864 160.651 13.7446 160.411 13.7446 160.124C13.7446 159.834 13.6864 159.589 13.5699 159.391C13.4563 159.192 13.2815 159.041 13.0457 158.939C12.8128 158.834 12.5188 158.781 12.1636 158.781H10.9193V166H9.07415ZM13.7872 162.028L15.9563 166H13.9193L11.7972 162.028H13.7872ZM18.7534 166H16.7761L19.7889 157.273H22.1668L25.1753 166H23.198L21.0119 159.267H20.9438L18.7534 166ZM18.6298 162.57H23.3003V164.01H18.6298V162.57ZM25.1269 158.794V157.273H32.2945V158.794H29.6227V166H27.7988V158.794H25.1269ZM34.2128 166H32.2355L35.2483 157.273H37.6261L40.6347 166H38.6574L36.4713 159.267H36.4031L34.2128 166ZM34.0892 162.57H38.7597V164.01H34.0892V162.57ZM41.9851 157.273H44.2607L46.6641 163.136H46.7663L49.1697 157.273H51.4453V166H49.6555V160.32H49.5831L47.3246 165.957H46.1058L43.8473 160.298H43.7749V166H41.9851V157.273ZM53.2656 166V157.273H59.1462V158.794H55.1107V160.874H58.8437V162.395H55.1107V164.479H59.1633V166H53.2656ZM68.2129 157.273V166H66.6192L62.8223 160.507H62.7584V166H60.9132V157.273H62.5325L66.2996 162.761H66.3763V157.273H68.2129ZM69.705 158.794V157.273H76.8727V158.794H74.2008V166H72.3769V158.794H69.705ZM85.9745 161.636C85.9745 162.588 85.7941 163.398 85.4333 164.065C85.0754 164.733 84.5867 165.243 83.9674 165.595C83.3509 165.945 82.6577 166.119 81.8879 166.119C81.1123 166.119 80.4163 165.943 79.7998 165.591C79.1833 165.239 78.6961 164.729 78.3381 164.061C77.9802 163.393 77.8012 162.585 77.8012 161.636C77.8012 160.685 77.9802 159.875 78.3381 159.207C78.6961 158.54 79.1833 158.031 79.7998 157.682C80.4163 157.33 81.1123 157.153 81.8879 157.153C82.6577 157.153 83.3509 157.33 83.9674 157.682C84.5867 158.031 85.0754 158.54 85.4333 159.207C85.7941 159.875 85.9745 160.685 85.9745 161.636ZM84.1038 161.636C84.1038 161.02 84.0114 160.5 83.8268 160.077C83.645 159.653 83.3879 159.332 83.0555 159.114C82.7231 158.895 82.3339 158.786 81.8879 158.786C81.4418 158.786 81.0526 158.895 80.7202 159.114C80.3879 159.332 80.1293 159.653 79.9447 160.077C79.7629 160.5 79.6719 161.02 79.6719 161.636C79.6719 162.253 79.7629 162.773 79.9447 163.196C80.1293 163.619 80.3879 163.94 80.7202 164.159C81.0526 164.378 81.4418 164.487 81.8879 164.487C82.3339 164.487 82.7231 164.378 83.0555 164.159C83.3879 163.94 83.645 163.619 83.8268 163.196C84.0114 162.773 84.1038 162.253 84.1038 161.636ZM98.7386 161.636C98.7386 162.588 98.5582 163.398 98.1974 164.065C97.8394 164.733 97.3508 165.243 96.7315 165.595C96.115 165.945 95.4218 166.119 94.6519 166.119C93.8764 166.119 93.1803 165.943 92.5639 165.591C91.9474 165.239 91.4602 164.729 91.1022 164.061C90.7443 163.393 90.5653 162.585 90.5653 161.636C90.5653 160.685 90.7443 159.875 91.1022 159.207C91.4602 158.54 91.9474 158.031 92.5639 157.682C93.1803 157.33 93.8764 157.153 94.6519 157.153C95.4218 157.153 96.115 157.33 96.7315 157.682C97.3508 158.031 97.8394 158.54 98.1974 159.207C98.5582 159.875 98.7386 160.685 98.7386 161.636ZM96.8678 161.636C96.8678 161.02 96.7755 160.5 96.5908 160.077C96.409 159.653 96.1519 159.332 95.8195 159.114C95.4871 158.895 95.0979 158.786 94.6519 158.786C94.2059 158.786 93.8167 158.895 93.4843 159.114C93.1519 159.332 92.8934 159.653 92.7087 160.077C92.5269 160.5 92.436 161.02 92.436 161.636C92.436 162.253 92.5269 162.773 92.7087 163.196C92.8934 163.619 93.1519 163.94 93.4843 164.159C93.8167 164.378 94.2059 164.487 94.6519 164.487C95.0979 164.487 95.4871 164.378 95.8195 164.159C96.1519 163.94 96.409 163.619 96.5908 163.196C96.7755 162.773 96.8678 162.253 96.8678 161.636ZM100.405 166V157.273H103.849C104.508 157.273 105.07 157.391 105.536 157.626C106.005 157.859 106.361 158.19 106.606 158.619C106.853 159.045 106.976 159.547 106.976 160.124C106.976 160.703 106.851 161.202 106.601 161.619C106.351 162.034 105.989 162.352 105.515 162.574C105.043 162.795 104.472 162.906 103.802 162.906H101.496V161.423H103.503C103.856 161.423 104.148 161.375 104.381 161.278C104.614 161.182 104.787 161.037 104.901 160.844C105.018 160.651 105.076 160.411 105.076 160.124C105.076 159.834 105.018 159.589 104.901 159.391C104.787 159.192 104.613 159.041 104.377 158.939C104.144 158.834 103.85 158.781 103.495 158.781H102.251V166H100.405ZM105.118 162.028L107.287 166H105.251L103.128 162.028H105.118ZM108.248 158.794V157.273H115.416V158.794H112.744V166H110.92V158.794H108.248ZM124.517 161.636C124.517 162.588 124.337 163.398 123.976 164.065C123.618 164.733 123.13 165.243 122.51 165.595C121.894 165.945 121.201 166.119 120.431 166.119C119.655 166.119 118.959 165.943 118.343 165.591C117.726 165.239 117.239 164.729 116.881 164.061C116.523 163.393 116.344 162.585 116.344 161.636C116.344 160.685 116.523 159.875 116.881 159.207C117.239 158.54 117.726 158.031 118.343 157.682C118.959 157.33 119.655 157.153 120.431 157.153C121.201 157.153 121.894 157.33 122.51 157.682C123.13 158.031 123.618 158.54 123.976 159.207C124.337 159.875 124.517 160.685 124.517 161.636ZM122.647 161.636C122.647 161.02 122.554 160.5 122.37 160.077C122.188 159.653 121.931 159.332 121.598 159.114C121.266 158.895 120.877 158.786 120.431 158.786C119.985 158.786 119.596 158.895 119.263 159.114C118.931 159.332 118.672 159.653 118.488 160.077C118.306 160.5 118.215 161.02 118.215 161.636C118.215 162.253 118.306 162.773 118.488 163.196C118.672 163.619 118.931 163.94 119.263 164.159C119.596 164.378 119.985 164.487 120.431 164.487C120.877 164.487 121.266 164.378 121.598 164.159C121.931 163.94 122.188 163.619 122.37 163.196C122.554 162.773 122.647 162.253 122.647 161.636ZM126.184 166V157.273H129.627C130.289 157.273 130.853 157.399 131.319 157.652C131.785 157.902 132.14 158.25 132.385 158.696C132.632 159.139 132.755 159.651 132.755 160.23C132.755 160.81 132.63 161.321 132.38 161.764C132.13 162.207 131.768 162.553 131.294 162.8C130.822 163.047 130.251 163.17 129.581 163.17H127.386V161.692H129.282C129.637 161.692 129.93 161.631 130.16 161.509C130.393 161.384 130.566 161.212 130.68 160.993C130.797 160.771 130.855 160.517 130.855 160.23C130.855 159.94 130.797 159.687 130.68 159.472C130.566 159.253 130.393 159.084 130.16 158.964C129.927 158.842 129.632 158.781 129.274 158.781H128.029V166H126.184ZM134.254 166V157.273H140.135V158.794H136.099V160.874H139.832V162.395H136.099V164.479H140.152V166H134.254ZM136.555 156.429L137.458 154.49H139.137L137.838 156.429H136.555ZM144.995 166H141.901V157.273H145.021C145.899 157.273 146.654 157.447 147.288 157.797C147.921 158.143 148.409 158.642 148.75 159.293C149.093 159.943 149.265 160.722 149.265 161.628C149.265 162.537 149.093 163.318 148.75 163.972C148.409 164.625 147.919 165.126 147.279 165.476C146.643 165.825 145.882 166 144.995 166ZM143.747 164.419H144.919C145.464 164.419 145.923 164.322 146.295 164.129C146.67 163.933 146.951 163.631 147.139 163.222C147.329 162.81 147.424 162.278 147.424 161.628C147.424 160.983 147.329 160.456 147.139 160.047C146.951 159.638 146.671 159.337 146.299 159.143C145.927 158.95 145.468 158.854 144.923 158.854H143.747V164.419ZM152.777 157.273V166H150.932V157.273H152.777ZM162.296 160.328H160.429C160.395 160.087 160.325 159.872 160.22 159.685C160.115 159.494 159.98 159.332 159.815 159.199C159.651 159.065 159.46 158.963 159.244 158.892C159.031 158.821 158.8 158.786 158.55 158.786C158.098 158.786 157.705 158.898 157.369 159.122C157.034 159.344 156.774 159.668 156.59 160.094C156.405 160.517 156.313 161.031 156.313 161.636C156.313 162.259 156.405 162.781 156.59 163.205C156.777 163.628 157.038 163.947 157.374 164.163C157.709 164.379 158.097 164.487 158.537 164.487C158.784 164.487 159.013 164.455 159.223 164.389C159.436 164.324 159.625 164.229 159.79 164.104C159.955 163.976 160.091 163.821 160.199 163.639C160.31 163.457 160.386 163.25 160.429 163.017L162.296 163.026C162.247 163.426 162.126 163.812 161.933 164.185C161.743 164.554 161.486 164.885 161.162 165.178C160.841 165.467 160.457 165.697 160.011 165.868C159.568 166.036 159.067 166.119 158.507 166.119C157.729 166.119 157.033 165.943 156.419 165.591C155.808 165.239 155.325 164.729 154.97 164.061C154.618 163.393 154.442 162.585 154.442 161.636C154.442 160.685 154.621 159.875 154.979 159.207C155.337 158.54 155.823 158.031 156.436 157.682C157.05 157.33 157.74 157.153 158.507 157.153C159.013 157.153 159.482 157.224 159.913 157.366C160.348 157.509 160.733 157.716 161.068 157.989C161.403 158.259 161.676 158.589 161.886 158.982C162.099 159.374 162.236 159.822 162.296 160.328ZM171.939 161.636C171.939 162.588 171.758 163.398 171.397 164.065C171.039 164.733 170.551 165.243 169.931 165.595C169.315 165.945 168.622 166.119 167.852 166.119C167.076 166.119 166.38 165.943 165.764 165.591C165.147 165.239 164.66 164.729 164.302 164.061C163.944 163.393 163.765 162.585 163.765 161.636C163.765 160.685 163.944 159.875 164.302 159.207C164.66 158.54 165.147 158.031 165.764 157.682C166.38 157.33 167.076 157.153 167.852 157.153C168.622 157.153 169.315 157.33 169.931 157.682C170.551 158.031 171.039 158.54 171.397 159.207C171.758 159.875 171.939 160.685 171.939 161.636ZM170.068 161.636C170.068 161.02 169.975 160.5 169.791 160.077C169.609 159.653 169.352 159.332 169.02 159.114C168.687 158.895 168.298 158.786 167.852 158.786C167.406 158.786 167.017 158.895 166.684 159.114C166.352 159.332 166.093 159.653 165.909 160.077C165.727 160.5 165.636 161.02 165.636 161.636C165.636 162.253 165.727 162.773 165.909 163.196C166.093 163.619 166.352 163.94 166.684 164.159C167.017 164.378 167.406 164.487 167.852 164.487C168.298 164.487 168.687 164.378 169.02 164.159C169.352 163.94 169.609 163.619 169.791 163.196C169.975 162.773 170.068 162.253 170.068 161.636Z" fill="#393939"/>
<g filter="url(#filter0_d_122_150)">
<path d="M149.45 119.911C147.782 123.364 144.709 125.932 141.488 128.02C137.967 130.301 134.173 132.132 130.196 133.472C129.651 133.659 129.1 133.834 128.547 134H106.178C106.022 133.831 105.873 133.654 105.733 133.472C104.235 131.558 103.425 129.106 103.719 126.703C104.097 123.617 106.448 120.782 109.492 120.127C112.538 119.47 116.011 121.283 116.938 124.253C117.446 118.53 118.033 112.569 121.083 107.695C123.846 103.284 128.629 100.127 133.812 99.5617C136.86 99.2451 139.935 99.8067 142.673 101.18C142.925 101.307 143.174 101.439 143.417 101.576C145.061 102.505 146.511 103.739 147.689 105.211C150.921 109.293 151.713 115.225 149.45 119.911Z" fill="white"/>
</g>
<path d="M143.253 101.938C132.851 110.387 124.631 121.201 119.283 133.472C119.206 133.646 119.129 133.823 119.055 134H118.002C118.076 133.823 118.15 133.646 118.227 133.472C119.246 131.096 120.371 128.762 121.607 126.489C124.237 121.656 127.332 117.088 130.847 112.851C134.36 108.609 138.284 104.723 142.562 101.249C142.596 101.221 142.634 101.198 142.673 101.18C142.748 101.148 142.828 101.133 142.91 101.136C142.991 101.139 143.07 101.161 143.141 101.199C143.213 101.237 143.275 101.29 143.323 101.356C143.37 101.421 143.403 101.496 143.417 101.576C143.425 101.645 143.414 101.716 143.385 101.779C143.356 101.843 143.311 101.898 143.253 101.938V101.938Z" fill="white"/>
<path d="M60.2602 77.5059C60.5215 77.2481 60.723 76.9364 60.8505 76.5926C60.9779 76.2488 61.0282 75.8813 60.9978 75.516C60.9675 75.1507 60.8572 74.7965 60.6747 74.4783C60.4922 74.1601 60.242 73.8857 59.9417 73.6744L58.6722 65.327L53.4575 66.964L56.3143 74.4112C55.9918 74.9379 55.8742 75.5643 55.9839 76.1716C56.0935 76.779 56.4227 77.3251 56.9091 77.7066C57.3955 78.0881 58.0053 78.2783 58.6229 78.2413C59.2405 78.2043 59.8231 77.9426 60.2602 77.5059H60.2602Z" fill="#FFB8B8"/>
<path d="M54.8881 73.5788L51.6713 58.5952C51.3579 57.1599 51.4192 55.6684 51.8494 54.2636C52.2796 52.8587 53.0641 51.5875 54.128 50.5717C58.2456 46.6142 63.5376 41.6261 65.3655 40.3359C67.0812 39.1162 69.1572 38.505 71.2619 38.6L71.306 38.6048L74.0731 41.213L68.0453 51.1098L58.8945 56.8283L59.9128 71.5141L54.8881 73.5788Z" fill="#D74500"/>
<path d="M66.1538 53.2171H52.6545C52.0698 53.2171 51.5957 53.6899 51.5957 54.2731C51.5957 54.8563 52.0698 55.3291 52.6545 55.3291H66.1538C66.7385 55.3291 67.2125 54.8563 67.2125 54.2731C67.2125 53.6899 66.7385 53.2171 66.1538 53.2171Z" fill="#CCCCCC"/>
<path d="M66.1538 76.1848H52.6545C52.0698 76.1848 51.5957 76.6576 51.5957 77.2408C51.5957 77.824 52.0698 78.2968 52.6545 78.2968H66.1538C66.7385 78.2968 67.2125 77.824 67.2125 77.2408C67.2125 76.6576 66.7385 76.1848 66.1538 76.1848Z" fill="#CCCCCC"/>
<path d="M59.5365 133.736C59.4042 133.736 59.2767 133.687 59.1791 133.597C59.0815 133.508 59.0209 133.386 59.0092 133.255L52.2606 54.3198C52.2481 54.1803 52.2918 54.0416 52.3819 53.9342C52.472 53.8269 52.6012 53.7596 52.7411 53.7472C52.8809 53.7348 53.02 53.7784 53.1277 53.8682C53.2353 53.9581 53.3028 54.087 53.3152 54.2265L59.5289 127.156L65.5659 54.2278C65.5719 54.1587 65.5914 54.0914 65.6235 54.0299C65.6555 53.9684 65.6994 53.9137 65.7526 53.8691C65.8058 53.8244 65.8673 53.7907 65.9335 53.7697C65.9998 53.7488 66.0696 53.7411 66.1389 53.7471C66.2081 53.753 66.2755 53.7725 66.3372 53.8045C66.3989 53.8364 66.4537 53.8802 66.4985 53.9332C66.5432 53.9863 66.5771 54.0476 66.5981 54.1137C66.6191 54.1798 66.6268 54.2494 66.6208 54.3185L60.0639 133.253C60.0525 133.385 59.9921 133.507 59.8946 133.597C59.7971 133.686 59.6696 133.736 59.5371 133.736H59.5365Z" fill="#CCCCCC"/>
<path d="M74.686 35.4403C78.5217 35.4403 81.6312 32.339 81.6312 28.5134C81.6312 24.6878 78.5217 21.5865 74.686 21.5865C70.8503 21.5865 67.7408 24.6878 67.7408 28.5134C67.7408 32.339 70.8503 35.4403 74.686 35.4403Z" fill="#FFB8B8"/>
<path d="M53.9875 130.57L50.6847 129.52L53.1733 116.314L58.0484 117.863L53.9875 130.57Z" fill="#FFB8B8"/>
<path d="M53.8037 133.492L43.1707 130.112L43.2585 129.837C43.5967 128.783 44.3402 127.906 45.3259 127.398C46.3115 126.89 47.4589 126.793 48.5163 127.127L55.1624 129.24L53.8037 133.492Z" fill="#2F2E41"/>
<path d="M78.0186 130.502H74.552L72.9021 117.165H78.0186V130.502Z" fill="#FFB8B8"/>
<path d="M67.9985 133.581H78.6292V129.646H71.9183C70.8791 129.647 69.8827 130.059 69.1479 130.792C68.413 131.525 67.9997 132.519 67.9985 133.556V133.581Z" fill="#2F2E41"/>
<path d="M77.9172 126.174L76.7471 126C73.1984 125.472 72.9859 125.441 72.4226 125.194C72.1349 125.068 72.1146 123.163 72.2874 112.455C72.4141 104.594 72.5719 94.812 72.2655 89.5603C72.2529 89.3531 72.1707 89.1561 72.0321 89.0012C71.8935 88.8463 71.7066 88.7425 71.5017 88.7065C71.2967 88.6705 71.0855 88.7044 70.9022 88.8027C70.7189 88.9011 70.5741 89.0581 70.4913 89.2486C67.8508 95.3303 63.4208 108.94 60.4893 117.946C59.4697 121.079 58.6643 123.553 58.1547 125.036C58.0563 125.317 57.8566 125.551 57.5946 125.692C57.3325 125.834 57.027 125.873 56.7377 125.801C54.3253 125.2 54.4866 124.944 51.0507 124.058C50.7534 123.982 50.497 123.795 50.335 123.535C50.1731 123.275 50.1183 122.963 50.182 122.663C50.8035 119.74 62.1764 72.3459 63.0469 67.8405C63.0763 67.6863 63.1361 67.5395 63.2228 67.4084C63.3095 67.2774 63.4214 67.1648 63.5519 67.0771C63.6825 66.9894 63.8292 66.9284 63.9835 66.8976C64.1379 66.8668 64.2968 66.8668 64.4511 66.8976C67.0117 67.4122 68.5695 67.9581 71.0999 68.486C73.8303 69.0556 76.6537 69.6447 79.4076 70.1945C79.6817 70.2495 79.9274 70.3996 80.1009 70.6183C80.7823 71.4767 81.7928 71.9585 82.8626 72.4686C83.5838 72.8125 81.9495 72.7815 82.5776 73.2775C85.1212 75.2858 81.4634 116.068 79.2532 125.279C79.1823 125.567 79.006 125.819 78.7589 125.984C78.5118 126.15 78.2116 126.217 77.9172 126.174V126.174Z" fill="#2F2E41"/>
<path d="M77.6462 34.5747C77.2408 32.8587 79.2906 29.1663 78.8851 27.4503C78.6105 26.2882 75.8706 27.0782 75.2312 26.0688C74.5918 25.0595 73.5208 24.2417 72.3238 24.2283C70.948 24.2129 69.5941 25.2309 68.2908 24.7909C66.9729 24.3461 66.5517 22.5462 67.1343 21.2861C67.717 20.0261 68.972 19.2231 70.2121 18.594C72.3236 17.5225 74.7823 16.7401 77.0423 17.449C78.4085 17.8775 79.5508 18.806 80.6562 19.7142C81.6639 20.542 82.6885 21.3886 83.3929 22.4848C84.7728 24.6324 84.6896 27.526 83.5103 29.7893C82.331 32.0527 80.1822 33.7137 77.8145 34.6778" fill="#2F2E41"/>
<path d="M60.5927 74.5085C61.3423 73.2595 62.4803 67.4077 63.8838 57.5854C64.8393 50.8802 65.6718 44.0672 66.0849 40.587C66.1169 40.3054 66.2202 40.0365 66.385 39.8055C66.5498 39.5746 66.7707 39.3892 67.0271 39.2667C67.2951 39.1376 67.5616 39.0155 67.8264 38.9003C71.2471 37.4164 74.7136 36.9247 78.1293 37.4388C81.5399 37.9613 84.7389 39.4151 87.3721 41.6393L87.4031 41.6686L87.4112 41.7103C87.426 41.7877 88.8606 49.4977 85.9223 54.7067C83.0244 59.8464 82.9906 73.4574 82.9906 73.5943V73.7692L82.8218 73.7213C78.3136 72.4365 60.8987 74.6842 60.7233 74.7071L60.4521 74.7425L60.5927 74.5085Z" fill="#D74500"/>
<path d="M86.7997 56.6491H73.3005C72.7157 56.6491 72.2417 57.1219 72.2417 57.7051C72.2417 58.2883 72.7157 58.7611 73.3005 58.7611H86.7997C87.3845 58.7611 87.8585 58.2883 87.8585 57.7051C87.8585 57.1219 87.3845 56.6491 86.7997 56.6491Z" fill="#CCCCCC"/>
<path d="M86.7997 79.6168H73.3005C72.7157 79.6168 72.2417 80.0895 72.2417 80.6727C72.2417 81.2559 72.7157 81.7287 73.3005 81.7287H86.7997C87.3845 81.7287 87.8585 81.2559 87.8585 80.6727C87.8585 80.0895 87.3845 79.6168 86.7997 79.6168Z" fill="#CCCCCC"/>
<path d="M80.1825 134C80.0502 134 79.9227 133.951 79.8251 133.861C79.7275 133.772 79.6669 133.65 79.6552 133.519L72.9066 57.7517C72.9004 57.6827 72.908 57.6131 72.9288 57.5469C72.9496 57.4808 72.9833 57.4194 73.0279 57.3662C73.0725 57.313 73.1272 57.2691 73.1888 57.237C73.2505 57.2049 73.3178 57.1853 73.3871 57.1791C73.4563 57.173 73.5261 57.1806 73.5924 57.2013C73.6588 57.2221 73.7203 57.2557 73.7737 57.3002C73.827 57.3447 73.871 57.3992 73.9031 57.4607C73.9353 57.5222 73.955 57.5893 73.9612 57.6584L80.1748 127.42L86.2119 57.6597C86.224 57.5202 86.2911 57.3912 86.3986 57.301C86.506 57.2109 86.645 57.167 86.7849 57.179C86.9247 57.1911 87.0541 57.258 87.1445 57.3652C87.2349 57.4724 87.2789 57.6109 87.2668 57.7505L80.7099 133.517C80.6985 133.649 80.6381 133.771 80.5406 133.861C80.4431 133.95 80.3155 134 80.1831 134H80.1825Z" fill="#CCCCCC"/>
<path d="M75.8238 79.9513C75.7448 79.5933 75.7455 79.2224 75.8258 78.8647C75.9062 78.507 76.0641 78.1712 76.2887 77.881C76.5132 77.5908 76.7987 77.3532 77.1253 77.185C77.4518 77.0168 77.8113 76.922 78.1785 76.9074L83.792 70.5879L87.2779 74.7882L80.8223 79.4918C80.8061 80.1087 80.5636 80.6983 80.1406 81.1487C79.7177 81.5992 79.1438 81.8793 78.5277 81.9359C77.9115 81.9926 77.2959 81.8218 76.7976 81.456C76.2993 81.0902 75.9528 80.5548 75.8238 79.9513V79.9513Z" fill="#FFB8B8"/>
<path d="M79.0921 75.5528L87.9479 63.7761L83.3813 54.0162L83.7129 42.4411L87.4568 41.7512L87.4964 41.771C89.3151 42.832 90.7249 44.4701 91.5007 46.4238C92.3323 48.4977 94.0573 55.5531 95.3579 61.1068C95.6976 62.5362 95.6637 64.0285 95.2594 65.441C94.8552 66.8535 94.0941 68.1389 93.049 69.1739L82.1854 80.0091L79.0921 75.5528Z" fill="#D74500"/>
<path d="M41.969 130.725L54.0847 133.635C54.3198 133.697 54.5692 133.674 54.7895 133.572C55.0098 133.469 55.1871 133.293 55.2903 133.073L65.698 105.475C65.7439 105.369 65.7677 105.254 65.7678 105.139C65.768 105.023 65.7445 104.909 65.6989 104.803C65.6464 104.683 65.5702 104.576 65.4749 104.487C65.3796 104.398 65.2672 104.329 65.1444 104.285L56.0352 100.815C55.8912 100.76 55.7372 100.736 55.5833 100.745C55.4294 100.753 55.279 100.794 55.142 100.864C55.0229 100.923 54.9178 101.007 54.8338 101.109C54.7498 101.212 54.6887 101.331 54.6548 101.459L54.6546 101.46L48.2252 125.785L48.1297 125.79C48.0927 125.793 44.407 126.043 42.7495 128.027C42.4402 128.399 42.2112 128.831 42.0769 129.295C41.9426 129.759 41.9059 130.246 41.969 130.725Z" fill="#AFAFAF"/>
<path d="M147.287 133.736C147.287 133.771 147.28 133.805 147.267 133.837C147.254 133.869 147.234 133.898 147.21 133.923C147.185 133.947 147.156 133.967 147.124 133.98C147.092 133.993 147.057 134 147.022 134H16.2647C16.1945 134 16.1272 133.972 16.0775 133.923C16.0279 133.873 16 133.806 16 133.736C16 133.666 16.0279 133.599 16.0775 133.549C16.1272 133.5 16.1945 133.472 16.2647 133.472H147.022C147.057 133.472 147.092 133.479 147.124 133.492C147.156 133.505 147.185 133.525 147.21 133.549C147.234 133.574 147.254 133.603 147.267 133.635C147.28 133.667 147.287 133.701 147.287 133.736V133.736Z" fill="#3F3D56"/>
<path d="M50.7435 115.254L50.6878 115.779L61.7338 116.946L61.7896 116.421L50.7435 115.254Z" fill="#9B9B9B"/>
<path d="M49.7805 119.604L49.5633 120.085L58.4523 124.074L58.6696 123.593L49.7805 119.604Z" fill="#9B9B9B"/>
<path d="M62.9521 112.722L52.4748 109.261L52.6921 108.78L63.1694 112.241L62.9521 112.722Z" fill="#9B9B9B"/>
<path d="M64.0108 110.346L53.5335 105.302L53.7509 104.82L64.2281 109.865L64.0108 110.346Z" fill="#9B9B9B"/>
<path d="M48.8565 123.738L48.5127 124.139L56.0668 130.575L56.4106 130.174L48.8565 123.738Z" fill="#9B9B9B"/>
<path d="M46.7117 125.872L46.2296 126.09L49.2628 132.761L49.7449 132.543L46.7117 125.872Z" fill="#9B9B9B"/>
<g filter="url(#filter1_d_122_150)">
<path d="M117.732 126.187V5.85627C117.732 4.23137 117.763 2.60301 117.732 0.978309C117.73 0.907275 117.732 0.836096 117.732 0.765044C117.732 -0.254171 116.143 -0.255858 116.143 0.765044V121.096C116.143 122.72 116.112 124.349 116.143 125.974C116.145 126.045 116.143 126.116 116.143 126.187C116.143 127.206 117.732 127.208 117.732 126.187V126.187Z" fill="white"/>
</g>
<g filter="url(#filter2_d_122_150)">
<path d="M126.515 34.3965H107.457C107.001 34.3959 106.564 34.215 106.241 33.8933C105.919 33.5716 105.737 33.1354 105.737 32.6805V9.58081C105.737 9.12587 105.919 8.68971 106.241 8.36802C106.564 8.04632 107.001 7.86536 107.457 7.86484H126.515C126.971 7.86536 127.408 8.04632 127.731 8.36802C128.053 8.68971 128.235 9.12587 128.235 9.58081V32.6805C128.235 33.1354 128.053 33.5716 127.731 33.8933C127.408 34.215 126.971 34.3959 126.515 34.3965V34.3965Z" fill="white"/>
</g>
<defs>
<filter id="filter0_d_122_150" x="99.6591" y="99.4757" width="55.0812" height="42.5243" filterUnits="userSpaceOnUse" color-interpolation-filters="sRGB">
<feFlood flood-opacity="0" result="BackgroundImageFix"/>
<feColorMatrix in="SourceAlpha" type="matrix" values="0 0 0 0 0 0 0 0 0 0 0 0 0 0 0 0 0 0 127 0" result="hardAlpha"/>
<feOffset dy="4"/>
<feGaussianBlur stdDeviation="2"/>
<feComposite in2="hardAlpha" operator="out"/>
<feColorMatrix type="matrix" values="0 0 0 0 0 0 0 0 0 0 0 0 0 0 0 0 0 0 0.05 0"/>
<feBlend mode="normal" in2="BackgroundImageFix" result="effect1_dropShadow_122_150"/>
<feBlend mode="normal" in="SourceGraphic" in2="effect1_dropShadow_122_150" result="shape"/>
</filter>
<filter id="filter1_d_122_150" x="112.13" y="0" width="9.61572" height="134.952" filterUnits="userSpaceOnUse" color-interpolation-filters="sRGB">
<feFlood flood-opacity="0" result="BackgroundImageFix"/>
<feColorMatrix in="SourceAlpha" type="matrix" values="0 0 0 0 0 0 0 0 0 0 0 0 0 0 0 0 0 0 127 0" result="hardAlpha"/>
<feOffset dy="4"/>
<feGaussianBlur stdDeviation="2"/>
<feComposite in2="hardAlpha" operator="out"/>
<feColorMatrix type="matrix" values="0 0 0 0 0 0 0 0 0 0 0 0 0 0 0 0 0 0 0.05 0"/>
<feBlend mode="normal" in2="BackgroundImageFix" result="effect1_dropShadow_122_150"/>
<feBlend mode="normal" in="SourceGraphic" in2="effect1_dropShadow_122_150" result="shape"/>
</filter>
<filter id="filter2_d_122_150" x="101.737" y="7.86484" width="30.4988" height="34.5316" filterUnits="userSpaceOnUse" color-interpolation-filters="sRGB">
<feFlood flood-opacity="0" result="BackgroundImageFix"/>
<feColorMatrix in="SourceAlpha" type="matrix" values="0 0 0 0 0 0 0 0 0 0 0 0 0 0 0 0 0 0 127 0" result="hardAlpha"/>
<feOffset dy="4"/>
<feGaussianBlur stdDeviation="2"/>
<feComposite in2="hardAlpha" operator="out"/>
<feColorMatrix type="matrix" values="0 0 0 0 0 0 0 0 0 0 0 0 0 0 0 0 0 0 0.05 0"/>
<feBlend mode="normal" in2="BackgroundImageFix" result="effect1_dropShadow_122_150"/>
<feBlend mode="normal" in="SourceGraphic" in2="effect1_dropShadow_122_150" result="shape"/>
</filter>
</defs>
</svg>
