<svg width="49" height="17" viewBox="0 0 49 17" fill="none" xmlns="http://www.w3.org/2000/svg">
<path fill-rule="evenodd" clip-rule="evenodd" d="M0 4.73656L7.12575 0.65564L14 4.73656V12.5583L7.12575 16.6392L0 12.5583V4.73656ZM5.1976 7.03208V4.14143H8.13174C8.63473 4.14143 8.63473 4.4815 8.63473 4.73656V6.77702H11.5689V9.75269C11.5689 10.1778 11.485 10.4328 11.0659 10.4328H8.63473V13.3235H5.7006C5.56647 13.3235 5.1976 13.3235 5.1976 12.8134V10.4328H2.51497C2.54291 9.55431 2.51497 8.05231 2.51497 7.62721C2.51497 7.20212 2.51497 7.03208 2.8503 7.03208H5.1976Z" fill="url(#paint0_linear_19_37)"/>
<path d="M19.898 11.7843C19.16 11.7843 18.554 11.6103 18.08 11.2623C17.606 10.9083 17.351 10.4043 17.315 9.75031H19.196C19.214 9.97231 19.28 10.1343 19.394 10.2363C19.508 10.3383 19.655 10.3893 19.835 10.3893C19.997 10.3893 20.129 10.3503 20.231 10.2723C20.339 10.1883 20.393 10.0743 20.393 9.93031C20.393 9.74431 20.306 9.60031 20.132 9.49831C19.958 9.39631 19.676 9.28231 19.286 9.15631C18.872 9.01831 18.536 8.88631 18.278 8.76031C18.026 8.62831 17.804 8.43931 17.612 8.19331C17.426 7.94131 17.333 7.61431 17.333 7.21231C17.333 6.80431 17.435 6.45631 17.639 6.16831C17.843 5.87431 18.125 5.65231 18.485 5.50231C18.845 5.35231 19.253 5.27731 19.709 5.27731C20.447 5.27731 21.035 5.45131 21.473 5.79931C21.917 6.14131 22.154 6.62431 22.184 7.24831H20.267C20.261 7.05631 20.201 6.91231 20.087 6.81631C19.979 6.72031 19.838 6.67231 19.664 6.67231C19.532 6.67231 19.424 6.71131 19.34 6.78931C19.256 6.86731 19.214 6.97831 19.214 7.12231C19.214 7.24231 19.259 7.34731 19.349 7.43731C19.445 7.52131 19.562 7.59631 19.7 7.66231C19.838 7.72231 20.042 7.80031 20.312 7.89631C20.714 8.03431 21.044 8.17231 21.302 8.31031C21.566 8.44231 21.791 8.63131 21.977 8.87731C22.169 9.11731 22.265 9.42331 22.265 9.79531C22.265 10.1733 22.169 10.5123 21.977 10.8123C21.791 11.1123 21.518 11.3493 21.158 11.5233C20.804 11.6973 20.384 11.7843 19.898 11.7843ZM24.8491 6.78931V7.82431H26.8741V9.16531H24.8491V10.3083H27.1441V11.7213H23.0851V5.37631H27.1441V6.78931H24.8491ZM35.4227 5.37631V11.7213H33.6587V8.22031L32.4617 11.7213H30.9857L29.7797 8.19331V11.7213H28.0157V5.37631H30.1487L31.7417 9.49831L33.2987 5.37631H35.4227ZM38.1549 5.37631V9.05731C38.1549 9.39931 38.2329 9.66331 38.3889 9.84931C38.5509 10.0353 38.7939 10.1283 39.1179 10.1283C39.4419 10.1283 39.6849 10.0353 39.8469 9.84931C40.0149 9.65731 40.0989 9.39331 40.0989 9.05731V5.37631H41.8629V9.05731C41.8629 9.63931 41.7399 10.1373 41.4939 10.5513C41.2479 10.9593 40.9119 11.2683 40.4859 11.4783C40.0659 11.6823 39.5979 11.7843 39.0819 11.7843C38.5659 11.7843 38.1039 11.6823 37.6959 11.4783C37.2939 11.2683 36.9759 10.9593 36.7419 10.5513C36.5139 10.1433 36.3999 9.64531 36.3999 9.05731V5.37631H38.1549ZM45.2281 11.7843C44.4901 11.7843 43.8841 11.6103 43.4101 11.2623C42.9361 10.9083 42.6811 10.4043 42.6451 9.75031H44.5261C44.5441 9.97231 44.6101 10.1343 44.7241 10.2363C44.8381 10.3383 44.9851 10.3893 45.1651 10.3893C45.3271 10.3893 45.4591 10.3503 45.5611 10.2723C45.6691 10.1883 45.7231 10.0743 45.7231 9.93031C45.7231 9.74431 45.6361 9.60031 45.4621 9.49831C45.2881 9.39631 45.0061 9.28231 44.6161 9.15631C44.2021 9.01831 43.8661 8.88631 43.6081 8.76031C43.3561 8.62831 43.1341 8.43931 42.9421 8.19331C42.7561 7.94131 42.6631 7.61431 42.6631 7.21231C42.6631 6.80431 42.7651 6.45631 42.9691 6.16831C43.1731 5.87431 43.4551 5.65231 43.8151 5.50231C44.1751 5.35231 44.5831 5.27731 45.0391 5.27731C45.7771 5.27731 46.3651 5.45131 46.8031 5.79931C47.2471 6.14131 47.4841 6.62431 47.5141 7.24831H45.5971C45.5911 7.05631 45.5311 6.91231 45.4171 6.81631C45.3091 6.72031 45.1681 6.67231 44.9941 6.67231C44.8621 6.67231 44.7541 6.71131 44.6701 6.78931C44.5861 6.86731 44.5441 6.97831 44.5441 7.12231C44.5441 7.24231 44.5891 7.34731 44.6791 7.43731C44.7751 7.52131 44.8921 7.59631 45.0301 7.66231C45.1681 7.72231 45.3721 7.80031 45.6421 7.89631C46.0441 8.03431 46.3741 8.17231 46.6321 8.31031C46.8961 8.44231 47.1211 8.63131 47.3071 8.87731C47.4991 9.11731 47.5951 9.42331 47.5951 9.79531C47.5951 10.1733 47.4991 10.5123 47.3071 10.8123C47.1211 11.1123 46.8481 11.3493 46.4881 11.5233C46.1341 11.6973 45.7141 11.7843 45.2281 11.7843Z" fill="url(#paint1_linear_19_37)"/>
<defs>
<linearGradient id="paint0_linear_19_37" x1="2.91667" y1="15.2079" x2="14.7062" y2="4.37553" gradientUnits="userSpaceOnUse">
<stop stop-color="#D54501"/>
<stop offset="1" stop-color="#ED6F34"/>
</linearGradient>
<linearGradient id="paint1_linear_19_37" x1="30.3084" y1="20.7684" x2="45.7299" y2="-1.3376" gradientUnits="userSpaceOnUse">
<stop stop-color="#D84906"/>
<stop offset="0.947518" stop-color="#EAB810"/>
</linearGradient>
</defs>
</svg>
