<svg viewBox="0 0 450 28" fill="none" xmlns="http://www.w3.org/2000/svg">
<rect width="450" height="28" fill="url(#paint0_linear_178_1383)"/>
<path d="M84.4659 5.81818V16H82.1591L78.4801 10.6506H78.4205V16H75.6562V5.81818H78.0028L81.6222 11.1477H81.7017V5.81818H84.4659ZM96.4071 10.9091C96.4071 12.0426 96.1867 12.9988 95.7459 13.7777C95.305 14.5533 94.7101 15.1416 93.9611 15.5426C93.212 15.9403 92.3768 16.1392 91.4554 16.1392C90.5273 16.1392 89.6888 15.9387 88.9397 15.5376C88.194 15.1333 87.6007 14.5433 87.1599 13.7678C86.7224 12.9889 86.5037 12.036 86.5037 10.9091C86.5037 9.77557 86.7224 8.82102 87.1599 8.04545C87.6007 7.26657 88.194 6.67827 88.9397 6.28054C89.6888 5.8795 90.5273 5.67898 91.4554 5.67898C92.3768 5.67898 93.212 5.8795 93.9611 6.28054C94.7101 6.67827 95.305 7.26657 95.7459 8.04545C96.1867 8.82102 96.4071 9.77557 96.4071 10.9091ZM93.5633 10.9091C93.5633 10.2992 93.4821 9.78551 93.3197 9.3679C93.1606 8.94697 92.9236 8.62879 92.6088 8.41335C92.2972 8.1946 91.9128 8.08523 91.4554 8.08523C90.998 8.08523 90.6119 8.1946 90.297 8.41335C89.9854 8.62879 89.7485 8.94697 89.5861 9.3679C89.427 9.78551 89.3474 10.2992 89.3474 10.9091C89.3474 11.5189 89.427 12.0343 89.5861 12.4553C89.7485 12.8729 89.9854 13.1911 90.297 13.4098C90.6119 13.6252 90.998 13.733 91.4554 13.733C91.9128 13.733 92.2972 13.6252 92.6088 13.4098C92.9236 13.1911 93.1606 12.8729 93.3197 12.4553C93.4821 12.0343 93.5633 11.5189 93.5633 10.9091ZM100.598 5.81818L102.686 12.9972H102.765L104.853 5.81818H107.975L104.615 16H100.836L97.4754 5.81818H100.598ZM109.726 16V5.81818H117.064V8.04545H112.49V9.79545H116.686V12.0227H112.49V13.7727H117.044V16H109.726ZM119.205 5.81818H122.645L125.012 11.5852H125.131L127.498 5.81818H130.938V16H128.233V10.1136H128.154L125.887 15.9205H124.256L121.989 10.0739H121.91V16H119.205V5.81818ZM133.018 16V5.81818H137.433C138.208 5.81818 138.86 5.92259 139.387 6.13139C139.917 6.3402 140.316 6.63518 140.585 7.01633C140.857 7.39749 140.992 7.84659 140.992 8.36364C140.992 8.73816 140.91 9.07954 140.744 9.38778C140.581 9.69602 140.353 9.95455 140.058 10.1634C139.763 10.3688 139.418 10.5114 139.024 10.5909V10.6903C139.461 10.7069 139.859 10.8179 140.217 11.0234C140.575 11.2256 140.86 11.5057 141.072 11.8636C141.284 12.2183 141.39 12.6359 141.39 13.1165C141.39 13.6733 141.244 14.1688 140.953 14.603C140.664 15.0372 140.253 15.3786 139.72 15.6271C139.186 15.8757 138.55 16 137.811 16H133.018ZM135.782 13.7926H137.075C137.539 13.7926 137.887 13.7064 138.119 13.5341C138.351 13.3584 138.467 13.0999 138.467 12.7585C138.467 12.5199 138.412 12.3177 138.303 12.152C138.193 11.9863 138.038 11.8603 137.835 11.7741C137.637 11.688 137.396 11.6449 137.115 11.6449H135.782V13.7926ZM135.782 9.93466H136.916C137.158 9.93466 137.371 9.89654 137.557 9.82031C137.743 9.74408 137.887 9.63471 137.99 9.49219C138.096 9.34635 138.149 9.16903 138.149 8.96023C138.149 8.64536 138.036 8.40507 137.811 8.23935C137.585 8.07031 137.3 7.9858 136.955 7.9858H135.782V9.93466ZM143.14 16V5.81818H147.534C148.29 5.81818 148.951 5.95573 149.518 6.23082C150.085 6.50592 150.526 6.90199 150.841 7.41903C151.155 7.93608 151.313 8.55587 151.313 9.27841C151.313 10.0076 151.15 10.6224 150.826 11.1229C150.504 11.6233 150.052 12.0012 149.468 12.2564C148.888 12.5116 148.211 12.6392 147.435 12.6392H144.81V10.4915H146.878C147.203 10.4915 147.48 10.4517 147.708 10.3722C147.94 10.2893 148.118 10.1584 148.24 9.9794C148.366 9.80043 148.429 9.56676 148.429 9.27841C148.429 8.98674 148.366 8.74976 148.24 8.56747C148.118 8.38187 147.94 8.24598 147.708 8.1598C147.48 8.07031 147.203 8.02557 146.878 8.02557H145.904V16H143.14ZM149.105 11.3267L151.651 16H148.648L146.162 11.3267H149.105ZM163.125 10.9091C163.125 12.0426 162.904 12.9988 162.464 13.7777C162.023 14.5533 161.428 15.1416 160.679 15.5426C159.93 15.9403 159.094 16.1392 158.173 16.1392C157.245 16.1392 156.406 15.9387 155.657 15.5376C154.912 15.1333 154.318 14.5433 153.878 13.7678C153.44 12.9889 153.221 12.036 153.221 10.9091C153.221 9.77557 153.44 8.82102 153.878 8.04545C154.318 7.26657 154.912 6.67827 155.657 6.28054C156.406 5.8795 157.245 5.67898 158.173 5.67898C159.094 5.67898 159.93 5.8795 160.679 6.28054C161.428 6.67827 162.023 7.26657 162.464 8.04545C162.904 8.82102 163.125 9.77557 163.125 10.9091ZM160.281 10.9091C160.281 10.2992 160.2 9.78551 160.037 9.3679C159.878 8.94697 159.641 8.62879 159.326 8.41335C159.015 8.1946 158.63 8.08523 158.173 8.08523C157.716 8.08523 157.33 8.1946 157.015 8.41335C156.703 8.62879 156.466 8.94697 156.304 9.3679C156.145 9.78551 156.065 10.2992 156.065 10.9091C156.065 11.5189 156.145 12.0343 156.304 12.4553C156.466 12.8729 156.703 13.1911 157.015 13.4098C157.33 13.6252 157.716 13.733 158.173 13.733C158.63 13.733 159.015 13.6252 159.326 13.4098C159.641 13.1911 159.878 12.8729 160.037 12.4553C160.2 12.0343 160.281 11.5189 160.281 10.9091ZM171.378 16H168.395L171.755 5.81818H175.534L178.895 16H175.912L173.684 8.62216H173.605L171.378 16ZM170.821 11.983H176.429V14.0511H170.821V11.983ZM180.685 16V14.4688L185.498 8.04545H180.705V5.81818H189.017V7.34943L184.205 13.7727H188.998V16H180.685ZM197.162 5.81818H199.926V12.3409C199.926 13.1165 199.74 13.7876 199.369 14.3544C199.001 14.9179 198.487 15.3537 197.828 15.6619C197.168 15.9669 196.403 16.1193 195.531 16.1193C194.653 16.1193 193.884 15.9669 193.224 15.6619C192.565 15.3537 192.051 14.9179 191.683 14.3544C191.318 13.7876 191.136 13.1165 191.136 12.3409V5.81818H193.9V12.1023C193.9 12.4171 193.97 12.6989 194.109 12.9474C194.248 13.1927 194.44 13.3849 194.686 13.5241C194.934 13.6634 195.216 13.733 195.531 13.733C195.849 13.733 196.131 13.6634 196.376 13.5241C196.621 13.3849 196.814 13.1927 196.953 12.9474C197.092 12.6989 197.162 12.4171 197.162 12.1023V5.81818ZM202.01 16V5.81818H204.774V13.7727H208.89V16H202.01Z" fill="white"/>
<path d="M75.5284 24V19.6364H77.0028C77.3452 19.6364 77.625 19.6982 77.8423 19.8217C78.0611 19.9439 78.223 20.1094 78.3281 20.3182C78.4332 20.527 78.4858 20.7599 78.4858 21.017C78.4858 21.2741 78.4332 21.5078 78.3281 21.718C78.2244 21.9283 78.0639 22.0959 77.8466 22.2209C77.6293 22.3445 77.3509 22.4062 77.0114 22.4062H75.9545V21.9375H76.9943C77.2287 21.9375 77.4169 21.897 77.5589 21.8161C77.701 21.7351 77.804 21.6257 77.8679 21.4879C77.9332 21.3487 77.9659 21.1918 77.9659 21.017C77.9659 20.8423 77.9332 20.6861 77.8679 20.5483C77.804 20.4105 77.7003 20.3026 77.5568 20.2244C77.4134 20.1449 77.223 20.1051 76.9858 20.1051H76.0568V24H75.5284ZM88.817 24V19.6364H90.2914C90.6323 19.6364 90.9122 19.6946 91.1309 19.8111C91.3497 19.9261 91.5116 20.0845 91.6167 20.2862C91.7218 20.4879 91.7744 20.7173 91.7744 20.9744C91.7744 21.2315 91.7218 21.4595 91.6167 21.6584C91.5116 21.8572 91.3504 22.0135 91.1331 22.1271C90.9157 22.2393 90.638 22.2955 90.3 22.2955H89.1068V21.8182H90.2829C90.5159 21.8182 90.7034 21.7841 90.8454 21.7159C90.9889 21.6477 91.0926 21.5511 91.1565 21.4261C91.2218 21.2997 91.2545 21.1491 91.2545 20.9744C91.2545 20.7997 91.2218 20.647 91.1565 20.5163C91.0912 20.3857 90.9867 20.2848 90.8433 20.2138C90.6998 20.1413 90.5102 20.1051 90.2744 20.1051H89.3454V24H88.817ZM90.871 22.0398L91.9448 24H91.3312L90.2744 22.0398H90.871ZM102.135 24V19.6364H104.768V20.1051H102.663V21.5795H104.632V22.0483H102.663V23.5312H104.803V24H102.135ZM115.38 19.6364L116.675 23.3097H116.726L118.022 19.6364H118.576L116.974 24H116.428L114.826 19.6364H115.38ZM129.264 19.6364V24H128.736V19.6364H129.264ZM143.264 19.6364V24H142.752L140.374 20.5739H140.332V24H139.803V19.6364H140.315L142.701 23.071H142.744V19.6364H143.264ZM153.98 24H153.426L155.028 19.6364H155.574L157.176 24H156.622L155.318 20.3267H155.284L153.98 24ZM154.185 22.2955H156.417V22.7642H154.185V22.2955ZM169.142 21.5838V22.0526H167.233V21.5838H169.142ZM181.962 20.7273C181.936 20.5114 181.833 20.3438 181.651 20.2244C181.469 20.1051 181.246 20.0455 180.982 20.0455C180.789 20.0455 180.619 20.0767 180.475 20.1392C180.331 20.2017 180.219 20.2876 180.138 20.397C180.058 20.5064 180.019 20.6307 180.019 20.7699C180.019 20.8864 180.046 20.9865 180.102 21.0703C180.159 21.1527 180.231 21.2216 180.319 21.277C180.407 21.331 180.499 21.3757 180.596 21.4112C180.693 21.4453 180.781 21.473 180.862 21.4943L181.306 21.6136C181.419 21.6435 181.546 21.6847 181.685 21.7372C181.825 21.7898 181.96 21.8615 182.088 21.9524C182.217 22.0419 182.323 22.157 182.407 22.2976C182.491 22.4382 182.533 22.6108 182.533 22.8153C182.533 23.0511 182.471 23.2642 182.347 23.4545C182.225 23.6449 182.046 23.7962 181.811 23.9084C181.576 24.0206 181.291 24.0767 180.956 24.0767C180.644 24.0767 180.373 24.0263 180.144 23.9254C179.917 23.8246 179.738 23.6839 179.607 23.5036C179.478 23.3232 179.405 23.1136 179.388 22.875H179.933C179.948 23.0398 180.003 23.1761 180.1 23.2841C180.198 23.3906 180.321 23.4702 180.47 23.5227C180.621 23.5739 180.783 23.5994 180.956 23.5994C181.158 23.5994 181.339 23.5668 181.499 23.5014C181.66 23.4347 181.787 23.3423 181.881 23.2244C181.975 23.1051 182.021 22.9659 182.021 22.8068C182.021 22.6619 181.981 22.544 181.9 22.4531C181.819 22.3622 181.713 22.2884 181.58 22.2315C181.448 22.1747 181.306 22.125 181.152 22.0824L180.615 21.929C180.274 21.831 180.004 21.6911 179.806 21.5092C179.607 21.3274 179.507 21.0895 179.507 20.7955C179.507 20.5511 179.573 20.3381 179.705 20.1562C179.839 19.973 180.018 19.831 180.242 19.7301C180.468 19.6278 180.72 19.5767 180.999 19.5767C181.28 19.5767 181.53 19.6271 181.749 19.728C181.967 19.8274 182.141 19.9638 182.269 20.1371C182.398 20.3104 182.466 20.5071 182.473 20.7273H181.962ZM192.882 24V19.6364H195.515V20.1051H193.41V21.5795H195.379V22.0483H193.41V23.5312H195.549V24H192.882ZM206.544 19.6364L206.502 22.7727H206.007L205.965 19.6364H206.544ZM206.254 24.0341C206.149 24.0341 206.059 23.9964 205.984 23.9212C205.908 23.8459 205.871 23.7557 205.871 23.6506C205.871 23.5455 205.908 23.4553 205.984 23.38C206.059 23.3047 206.149 23.267 206.254 23.267C206.359 23.267 206.45 23.3047 206.525 23.38C206.6 23.4553 206.638 23.5455 206.638 23.6506C206.638 23.7202 206.62 23.7841 206.585 23.8423C206.551 23.9006 206.504 23.9474 206.446 23.983C206.389 24.017 206.325 24.0341 206.254 24.0341Z" fill="white"/>
<path d="M269.619 6.18182H270.233L272.343 11.25H272.394L274.505 6.18182H275.119V12H274.619V7.30398H274.573L272.61 12H272.127L270.164 7.30398H270.119V12H269.619V6.18182ZM277.106 12V6.18182H280.481V6.65909H277.637V8.84943H280.302V9.3267H277.637V11.5227H280.538V12H277.106ZM279.475 5.68182L278.796 4.8608L278.117 5.68182H277.623V5.64489L278.583 4.5H279.009L279.969 5.64489V5.68182H279.475ZM285.455 7.63636C285.423 7.3125 285.28 7.05492 285.026 6.86364C284.772 6.67235 284.453 6.5767 284.069 6.5767C283.798 6.5767 283.559 6.62311 283.353 6.71591C283.148 6.80871 282.987 6.9375 282.87 7.10227C282.754 7.26515 282.696 7.45076 282.696 7.65909C282.696 7.8125 282.73 7.94697 282.796 8.0625C282.862 8.17803 282.951 8.27746 283.063 8.3608C283.176 8.44223 283.301 8.51231 283.438 8.57102C283.576 8.62973 283.715 8.67898 283.855 8.71875L284.469 8.89489C284.655 8.94602 284.84 9.01136 285.026 9.09091C285.212 9.17045 285.381 9.27083 285.534 9.39205C285.69 9.51136 285.814 9.65814 285.907 9.83239C286.001 10.0047 286.049 10.2121 286.049 10.4545C286.049 10.7652 285.968 11.0445 285.807 11.2926C285.646 11.5407 285.415 11.7377 285.114 11.8835C284.813 12.0275 284.452 12.0994 284.032 12.0994C283.636 12.0994 283.292 12.0341 283 11.9034C282.709 11.7708 282.48 11.5881 282.313 11.3551C282.146 11.1222 282.052 10.8523 282.032 10.5455H282.577C282.596 10.7746 282.672 10.9687 282.804 11.1278C282.937 11.2869 283.109 11.4081 283.321 11.4915C283.533 11.5729 283.77 11.6136 284.032 11.6136C284.321 11.6136 284.579 11.5653 284.804 11.4688C285.032 11.3703 285.21 11.2339 285.338 11.0597C285.469 10.8835 285.534 10.679 285.534 10.446C285.534 10.2491 285.483 10.0843 285.381 9.9517C285.279 9.81723 285.136 9.70455 284.952 9.61364C284.77 9.52273 284.559 9.44223 284.319 9.37216L283.622 9.16761C283.166 9.03125 282.812 8.8428 282.56 8.60227C282.308 8.36174 282.182 8.05492 282.182 7.68182C282.182 7.36932 282.265 7.0947 282.432 6.85795C282.601 6.61932 282.828 6.43371 283.114 6.30114C283.402 6.16667 283.725 6.09943 284.083 6.09943C284.444 6.09943 284.765 6.16572 285.043 6.2983C285.321 6.43087 285.542 6.61364 285.705 6.84659C285.87 7.07765 285.958 7.34091 285.969 7.63636H285.455ZM292.162 12H290.457V6.18182H292.264C292.819 6.18182 293.293 6.29735 293.687 6.52841C294.083 6.75947 294.386 7.09091 294.596 7.52273C294.806 7.95455 294.912 8.47254 294.912 9.0767C294.912 9.68655 294.804 10.2102 294.588 10.6477C294.374 11.0833 294.061 11.4176 293.65 11.6506C293.241 11.8835 292.745 12 292.162 12ZM290.988 11.5227H292.13C292.63 11.5227 293.049 11.4242 293.386 11.2273C293.723 11.0303 293.976 10.7491 294.145 10.3835C294.313 10.018 294.397 9.58239 294.397 9.0767C294.395 8.57481 294.312 8.14299 294.147 7.78125C293.985 7.41951 293.742 7.14205 293.42 6.94886C293.1 6.75568 292.704 6.65909 292.233 6.65909H290.988V11.5227ZM296.639 12V6.18182H300.014V6.65909H297.17V8.84943H299.835V9.3267H297.17V11.5227H300.071V12H296.639ZM304.519 12V6.18182H306.397C306.81 6.18182 307.155 6.26136 307.431 6.42045C307.71 6.57765 307.919 6.79167 308.059 7.0625C308.201 7.33333 308.272 7.63826 308.272 7.97727C308.272 8.31629 308.202 8.62216 308.062 8.89489C307.922 9.16572 307.713 9.38068 307.437 9.53977C307.16 9.69697 306.817 9.77557 306.406 9.77557H304.928V9.2983H306.391C306.696 9.2983 306.949 9.24148 307.15 9.12784C307.351 9.01231 307.5 8.85511 307.599 8.65625C307.699 8.45739 307.749 8.23106 307.749 7.97727C307.749 7.72348 307.699 7.49716 307.599 7.2983C307.5 7.09943 307.35 6.94318 307.147 6.82955C306.946 6.71591 306.692 6.65909 306.383 6.65909H305.05V12H304.519ZM309.959 12V6.18182H311.837C312.25 6.18182 312.595 6.25663 312.871 6.40625C313.15 6.55398 313.359 6.75947 313.499 7.02273C313.641 7.28409 313.712 7.58428 313.712 7.9233C313.712 8.26231 313.641 8.56155 313.499 8.82102C313.359 9.08049 313.151 9.28314 312.874 9.42898C312.597 9.57481 312.255 9.64773 311.846 9.64773H310.246V9.16193H311.831C312.134 9.16193 312.386 9.11174 312.587 9.01136C312.79 8.91098 312.94 8.76799 313.039 8.58239C313.139 8.39678 313.189 8.17708 313.189 7.9233C313.189 7.66951 313.139 7.44792 313.039 7.25852C312.938 7.06723 312.787 6.91951 312.584 6.81534C312.383 6.71117 312.13 6.65909 311.823 6.65909H310.49V12H309.959ZM312.525 9.375L313.956 12H313.343L311.925 9.375H312.525ZM315.446 12V6.18182H318.821V6.65909H315.977V8.84943H318.642V9.3267H315.977V11.5227H318.878V12H315.446ZM320.645 6.18182L322.463 11.3097H322.514L324.332 6.18182H324.889L322.772 12H322.204L320.088 6.18182H320.645ZM326.326 12V6.18182H329.701V6.65909H326.857V8.84943H329.522V9.3267H326.857V11.5227H329.758V12H326.326ZM336.047 6.18182V12H335.53L332.093 7.12784H332.047V12H331.516V6.18182H332.03L335.479 11.0597H335.525V6.18182H336.047ZM342.591 8H342.057C342.017 7.80114 341.945 7.61742 341.841 7.44886C341.739 7.27841 341.61 7.12973 341.455 7.00284C341.299 6.87595 341.123 6.77746 340.926 6.70739C340.729 6.63731 340.516 6.60227 340.287 6.60227C339.92 6.60227 339.584 6.69792 339.281 6.8892C338.98 7.08049 338.739 7.36174 338.557 7.73295C338.377 8.10227 338.287 8.55492 338.287 9.09091C338.287 9.63068 338.377 10.0852 338.557 10.4545C338.739 10.8239 338.98 11.1042 339.281 11.2955C339.584 11.4848 339.92 11.5795 340.287 11.5795C340.516 11.5795 340.729 11.5445 340.926 11.4744C341.123 11.4044 341.299 11.3068 341.455 11.1818C341.61 11.0549 341.739 10.9062 341.841 10.7358C341.945 10.5653 342.017 10.3807 342.057 10.1818H342.591C342.544 10.4489 342.455 10.6979 342.324 10.929C342.195 11.1581 342.03 11.3589 341.83 11.5312C341.631 11.7036 341.402 11.8381 341.142 11.9347C340.883 12.0312 340.598 12.0795 340.287 12.0795C339.798 12.0795 339.365 11.9574 338.986 11.7131C338.607 11.4669 338.31 11.1203 338.094 10.6733C337.88 10.2263 337.773 9.69886 337.773 9.09091C337.773 8.48295 337.88 7.95549 338.094 7.50852C338.31 7.06155 338.607 6.71591 338.986 6.47159C339.365 6.22538 339.798 6.10227 340.287 6.10227C340.598 6.10227 340.883 6.15057 341.142 6.24716C341.402 6.34186 341.631 6.47633 341.83 6.65057C342.03 6.82292 342.195 7.02367 342.324 7.25284C342.455 7.48201 342.544 7.73106 342.591 8ZM340.06 12.0085H340.492L340.449 12.2358C340.612 12.2604 340.75 12.3258 340.864 12.4318C340.979 12.5398 341.038 12.697 341.04 12.9034C341.038 13.1326 340.948 13.3144 340.77 13.4489C340.594 13.5833 340.333 13.6525 339.989 13.6562L339.972 13.3011C340.159 13.2973 340.307 13.2652 340.415 13.2045C340.523 13.1458 340.577 13.0502 340.577 12.9176C340.577 12.7756 340.527 12.6752 340.426 12.6165C340.328 12.5578 340.172 12.5227 339.958 12.5114L340.06 12.0085ZM344.287 12H343.731L345.847 6.18182H346.415L348.532 12H347.975L346.151 6.87216H346.111L344.287 12ZM344.688 9.76989H347.574V10.2472H344.688V9.76989ZM345.174 5.5142L344.765 5.49148C344.774 5.23958 344.858 5.03409 345.015 4.875C345.172 4.71402 345.364 4.63352 345.591 4.63352C345.707 4.63352 345.808 4.65341 345.895 4.69318C345.983 4.73295 346.064 4.77936 346.14 4.83239C346.217 4.88352 346.296 4.92992 346.376 4.97159C346.457 5.01136 346.549 5.03125 346.651 5.03125C346.767 5.03125 346.867 4.98958 346.952 4.90625C347.039 4.82292 347.089 4.71875 347.1 4.59375L347.501 4.6392C347.487 4.89489 347.401 5.09848 347.242 5.25C347.085 5.40152 346.895 5.47727 346.674 5.47727C346.547 5.47727 346.44 5.45739 346.353 5.41761C346.268 5.37595 346.19 5.32955 346.12 5.27841C346.052 5.22727 345.978 5.18182 345.898 5.14205C345.821 5.10038 345.726 5.07955 345.614 5.07955C345.493 5.07955 345.391 5.12216 345.307 5.20739C345.226 5.29072 345.181 5.39299 345.174 5.5142ZM354.465 9.09091C354.465 9.69697 354.357 10.2244 354.142 10.6733C353.926 11.1203 353.628 11.4669 353.249 11.7131C352.873 11.9574 352.439 12.0795 351.948 12.0795C351.458 12.0795 351.023 11.9574 350.644 11.7131C350.267 11.4669 349.971 11.1203 349.755 10.6733C349.541 10.2244 349.434 9.69697 349.434 9.09091C349.434 8.48485 349.541 7.95833 349.755 7.51136C349.971 7.0625 350.268 6.71591 350.647 6.47159C351.026 6.22538 351.46 6.10227 351.948 6.10227C352.439 6.10227 352.873 6.22538 353.249 6.47159C353.628 6.71591 353.926 7.0625 354.142 7.51136C354.357 7.95833 354.465 8.48485 354.465 9.09091ZM353.948 9.09091C353.948 8.57008 353.861 8.12405 353.687 7.75284C353.513 7.37973 353.275 7.0947 352.974 6.89773C352.673 6.70076 352.331 6.60227 351.948 6.60227C351.568 6.60227 351.227 6.70076 350.926 6.89773C350.624 7.0947 350.386 7.37879 350.21 7.75C350.035 8.12121 349.948 8.56818 349.948 9.09091C349.948 9.61174 350.035 10.0578 350.21 10.429C350.384 10.8002 350.622 11.0852 350.923 11.2841C351.224 11.4811 351.566 11.5795 351.948 11.5795C352.331 11.5795 352.673 11.4811 352.974 11.2841C353.277 11.0871 353.516 10.803 353.69 10.4318C353.864 10.0587 353.95 9.61174 353.948 9.09091ZM358.889 12H358.332L360.448 6.18182H361.017L363.133 12H362.576L360.752 6.87216H360.713L358.889 12ZM359.289 9.76989H362.176V10.2472H359.289V9.76989ZM369.067 9.09091C369.067 9.69697 368.959 10.2244 368.743 10.6733C368.527 11.1203 368.229 11.4669 367.851 11.7131C367.474 11.9574 367.04 12.0795 366.55 12.0795C366.059 12.0795 365.624 11.9574 365.246 11.7131C364.869 11.4669 364.572 11.1203 364.356 10.6733C364.142 10.2244 364.035 9.69697 364.035 9.09091C364.035 8.48485 364.142 7.95833 364.356 7.51136C364.572 7.0625 364.87 6.71591 365.248 6.47159C365.627 6.22538 366.061 6.10227 366.55 6.10227C367.04 6.10227 367.474 6.22538 367.851 6.47159C368.229 6.71591 368.527 7.0625 368.743 7.51136C368.959 7.95833 369.067 8.48485 369.067 9.09091ZM368.55 9.09091C368.55 8.57008 368.462 8.12405 368.288 7.75284C368.114 7.37973 367.876 7.0947 367.575 6.89773C367.274 6.70076 366.932 6.60227 366.55 6.60227C366.169 6.60227 365.828 6.70076 365.527 6.89773C365.226 7.0947 364.987 7.37879 364.811 7.75C364.637 8.12121 364.55 8.56818 364.55 9.09091C364.55 9.61174 364.637 10.0578 364.811 10.429C364.985 10.8002 365.223 11.0852 365.524 11.2841C365.825 11.4811 366.167 11.5795 366.55 11.5795C366.932 11.5795 367.274 11.4811 367.575 11.2841C367.878 11.0871 368.117 10.803 368.291 10.4318C368.465 10.0587 368.551 9.61174 368.55 9.09091ZM274.485 20.2188H273.241C273.218 20.0578 273.172 19.9148 273.102 19.7898C273.032 19.6629 272.942 19.5549 272.832 19.4659C272.722 19.3769 272.595 19.3087 272.451 19.2614C272.309 19.214 272.155 19.1903 271.988 19.1903C271.687 19.1903 271.425 19.2652 271.201 19.4148C270.978 19.5625 270.805 19.7784 270.681 20.0625C270.558 20.3447 270.497 20.6875 270.497 21.0909C270.497 21.5057 270.558 21.8542 270.681 22.1364C270.806 22.4186 270.981 22.6316 271.204 22.7756C271.428 22.9195 271.686 22.9915 271.98 22.9915C272.144 22.9915 272.297 22.9697 272.437 22.9261C272.579 22.8826 272.705 22.8191 272.815 22.7358C272.925 22.6506 273.016 22.5473 273.088 22.4261C273.162 22.3049 273.213 22.1667 273.241 22.0114L274.485 22.017C274.453 22.2841 274.373 22.5417 274.244 22.7898C274.117 23.036 273.946 23.2566 273.73 23.4517C273.516 23.6449 273.26 23.7983 272.963 23.9119C272.667 24.0237 272.333 24.0795 271.96 24.0795C271.441 24.0795 270.977 23.9621 270.568 23.7273C270.161 23.4924 269.839 23.1525 269.602 22.7074C269.367 22.2623 269.25 21.7235 269.25 21.0909C269.25 20.4564 269.369 19.9167 269.608 19.4716C269.846 19.0265 270.17 18.6875 270.579 18.4545C270.988 18.2197 271.448 18.1023 271.96 18.1023C272.297 18.1023 272.609 18.1496 272.897 18.2443C273.187 18.339 273.444 18.4773 273.667 18.6591C273.891 18.839 274.073 19.0597 274.213 19.321C274.355 19.5824 274.446 19.8816 274.485 20.2188ZM276.821 24H275.503L277.511 18.1818H279.097L281.102 24H279.784L278.327 19.5114H278.281L276.821 24ZM276.739 21.7131H279.852V22.6733H276.739V21.7131ZM287.229 18.1818V24H286.166L283.635 20.3381H283.593V24H282.362V18.1818H283.442L285.953 21.8409H286.005V18.1818H287.229ZM293.939 20.2188H292.695C292.672 20.0578 292.625 19.9148 292.555 19.7898C292.485 19.6629 292.395 19.5549 292.285 19.4659C292.176 19.3769 292.049 19.3087 291.905 19.2614C291.763 19.214 291.608 19.1903 291.442 19.1903C291.141 19.1903 290.878 19.2652 290.655 19.4148C290.431 19.5625 290.258 19.7784 290.135 20.0625C290.012 20.3447 289.95 20.6875 289.95 21.0909C289.95 21.5057 290.012 21.8542 290.135 22.1364C290.26 22.4186 290.434 22.6316 290.658 22.7756C290.881 22.9195 291.14 22.9915 291.433 22.9915C291.598 22.9915 291.75 22.9697 291.891 22.9261C292.033 22.8826 292.159 22.8191 292.268 22.7358C292.378 22.6506 292.469 22.5473 292.541 22.4261C292.615 22.3049 292.666 22.1667 292.695 22.0114L293.939 22.017C293.907 22.2841 293.826 22.5417 293.697 22.7898C293.57 23.036 293.399 23.2566 293.183 23.4517C292.969 23.6449 292.713 23.7983 292.416 23.9119C292.121 24.0237 291.786 24.0795 291.413 24.0795C290.894 24.0795 290.43 23.9621 290.021 23.7273C289.614 23.4924 289.292 23.1525 289.055 22.7074C288.82 22.2623 288.703 21.7235 288.703 21.0909C288.703 20.4564 288.822 19.9167 289.061 19.4716C289.3 19.0265 289.623 18.6875 290.033 18.4545C290.442 18.2197 290.902 18.1023 291.413 18.1023C291.75 18.1023 292.063 18.1496 292.351 18.2443C292.641 18.339 292.897 18.4773 293.121 18.6591C293.344 18.839 293.526 19.0597 293.666 19.321C293.808 19.5824 293.899 19.8816 293.939 20.2188ZM295.381 24V18.1818H299.301V19.196H296.611V20.5824H299.1V21.5966H296.611V22.9858H299.313V24H295.381ZM297.921 17.6591L297.35 16.9659L296.779 17.6591H295.747V17.6193L296.898 16.3693H297.799L298.952 17.6193V17.6591H297.921ZM300.839 24V18.1818H303.135C303.574 18.1818 303.949 18.2604 304.26 18.4176C304.572 18.5729 304.81 18.7936 304.973 19.0795C305.138 19.3636 305.22 19.6979 305.22 20.0824C305.22 20.4687 305.137 20.8011 304.97 21.0795C304.803 21.3561 304.562 21.5682 304.246 21.7159C303.931 21.8636 303.551 21.9375 303.104 21.9375H301.567V20.9489H302.905C303.14 20.9489 303.335 20.9167 303.49 20.8523C303.645 20.7879 303.761 20.6913 303.837 20.5625C303.914 20.4337 303.953 20.2737 303.953 20.0824C303.953 19.8892 303.914 19.7263 303.837 19.5938C303.761 19.4612 303.644 19.3608 303.487 19.2926C303.332 19.2225 303.136 19.1875 302.899 19.1875H302.069V24H300.839ZM303.981 21.3523L305.427 24H304.069L302.655 21.3523H303.981ZM311.123 24H309.061V18.1818H311.14C311.726 18.1818 312.229 18.2983 312.652 18.5312C313.074 18.7623 313.399 19.0947 313.626 19.5284C313.855 19.9621 313.97 20.4811 313.97 21.0852C313.97 21.6913 313.855 22.2121 313.626 22.6477C313.399 23.0833 313.072 23.4176 312.646 23.6506C312.222 23.8835 311.714 24 311.123 24ZM310.291 22.946H311.072C311.436 22.946 311.742 22.8816 311.99 22.7528C312.24 22.6222 312.427 22.4205 312.552 22.1477C312.679 21.8731 312.743 21.5189 312.743 21.0852C312.743 20.6553 312.679 20.304 312.552 20.0312C312.427 19.7585 312.241 19.5578 311.993 19.429C311.745 19.3002 311.439 19.2358 311.075 19.2358H310.291V22.946ZM315.441 24V18.1818H319.362V19.196H316.671V20.5824H319.16V21.5966H316.671V22.9858H319.373V24H315.441ZM323.311 24V18.1818H325.607C326.048 18.1818 326.424 18.2661 326.735 18.4347C327.045 18.6013 327.282 18.8333 327.445 19.1307C327.61 19.4261 327.692 19.767 327.692 20.1534C327.692 20.5398 327.609 20.8807 327.442 21.1761C327.275 21.4716 327.034 21.7017 326.717 21.8665C326.403 22.0312 326.022 22.1136 325.575 22.1136H324.112V21.1278H325.377C325.613 21.1278 325.808 21.0871 325.962 21.0057C326.117 20.9223 326.233 20.8078 326.308 20.6619C326.386 20.5142 326.425 20.3447 326.425 20.1534C326.425 19.9602 326.386 19.7917 326.308 19.6477C326.233 19.5019 326.117 19.3892 325.962 19.3097C325.807 19.2282 325.61 19.1875 325.371 19.1875H324.541V24H323.311ZM329.051 24V18.1818H331.346C331.786 18.1818 332.161 18.2604 332.471 18.4176C332.784 18.5729 333.022 18.7936 333.184 19.0795C333.349 19.3636 333.432 19.6979 333.432 20.0824C333.432 20.4687 333.348 20.8011 333.182 21.0795C333.015 21.3561 332.773 21.5682 332.457 21.7159C332.143 21.8636 331.762 21.9375 331.315 21.9375H329.778V20.9489H331.116C331.351 20.9489 331.546 20.9167 331.702 20.8523C331.857 20.7879 331.972 20.6913 332.048 20.5625C332.126 20.4337 332.165 20.2737 332.165 20.0824C332.165 19.8892 332.126 19.7263 332.048 19.5938C331.972 19.4612 331.856 19.3608 331.699 19.2926C331.543 19.2225 331.347 19.1875 331.111 19.1875H330.281V24H329.051ZM332.193 21.3523L333.639 24H332.281L330.866 21.3523H332.193ZM340.208 21.0909C340.208 21.7254 340.087 22.2652 339.847 22.7102C339.608 23.1553 339.282 23.4953 338.869 23.7301C338.458 23.9631 337.996 24.0795 337.483 24.0795C336.966 24.0795 336.502 23.9621 336.091 23.7273C335.68 23.4924 335.355 23.1525 335.117 22.7074C334.878 22.2623 334.759 21.7235 334.759 21.0909C334.759 20.4564 334.878 19.9167 335.117 19.4716C335.355 19.0265 335.68 18.6875 336.091 18.4545C336.502 18.2197 336.966 18.1023 337.483 18.1023C337.996 18.1023 338.458 18.2197 338.869 18.4545C339.282 18.6875 339.608 19.0265 339.847 19.4716C340.087 19.9167 340.208 20.4564 340.208 21.0909ZM338.96 21.0909C338.96 20.6799 338.899 20.3333 338.776 20.0511C338.654 19.7689 338.483 19.5549 338.262 19.4091C338.04 19.2633 337.78 19.1903 337.483 19.1903C337.186 19.1903 336.926 19.2633 336.705 19.4091C336.483 19.5549 336.311 19.7689 336.188 20.0511C336.066 20.3333 336.006 20.6799 336.006 21.0909C336.006 21.5019 336.066 21.8485 336.188 22.1307C336.311 22.4129 336.483 22.6269 336.705 22.7727C336.926 22.9186 337.186 22.9915 337.483 22.9915C337.78 22.9915 338.04 22.9186 338.262 22.7727C338.483 22.6269 338.654 22.4129 338.776 22.1307C338.899 21.8485 338.96 21.5019 338.96 21.0909ZM337.048 17.6193L337.651 16.3267H338.77L337.904 17.6193H337.048ZM344.835 19.8551C344.812 19.6259 344.715 19.4479 344.542 19.321C344.37 19.1941 344.136 19.1307 343.841 19.1307C343.64 19.1307 343.47 19.1591 343.332 19.2159C343.194 19.2708 343.088 19.3475 343.014 19.446C342.942 19.5445 342.906 19.6562 342.906 19.7812C342.902 19.8854 342.924 19.9763 342.971 20.054C343.021 20.1316 343.088 20.1989 343.173 20.2557C343.258 20.3106 343.357 20.3589 343.469 20.4006C343.58 20.4403 343.7 20.4744 343.826 20.5028L344.349 20.6278C344.603 20.6847 344.836 20.7604 345.048 20.8551C345.26 20.9498 345.444 21.0663 345.599 21.2045C345.755 21.3428 345.875 21.5057 345.96 21.6932C346.047 21.8807 346.092 22.0956 346.094 22.3381C346.092 22.6941 346.001 23.0028 345.821 23.2642C345.643 23.5237 345.385 23.7254 345.048 23.8693C344.713 24.0114 344.308 24.0824 343.835 24.0824C343.365 24.0824 342.956 24.0104 342.608 23.8665C342.261 23.7225 341.99 23.5095 341.795 23.2273C341.602 22.9432 341.501 22.5919 341.491 22.1733H342.682C342.695 22.3684 342.751 22.5312 342.849 22.6619C342.95 22.7907 343.083 22.8883 343.25 22.9545C343.418 23.0189 343.609 23.0511 343.821 23.0511C344.029 23.0511 344.21 23.0208 344.363 22.9602C344.519 22.8996 344.639 22.8153 344.724 22.7074C344.809 22.5994 344.852 22.4754 344.852 22.3352C344.852 22.2045 344.813 22.0947 344.736 22.0057C344.66 21.9167 344.548 21.8409 344.4 21.7784C344.255 21.7159 344.076 21.6591 343.863 21.608L343.23 21.4489C342.739 21.3295 342.352 21.143 342.068 20.8892C341.784 20.6354 341.643 20.2936 341.645 19.8636C341.643 19.5114 341.737 19.2036 341.926 18.9403C342.117 18.6771 342.38 18.4716 342.713 18.3239C343.046 18.1761 343.425 18.1023 343.849 18.1023C344.281 18.1023 344.658 18.1761 344.98 18.3239C345.304 18.4716 345.556 18.6771 345.736 18.9403C345.915 19.2036 346.008 19.5085 346.014 19.8551H344.835ZM347.259 19.196V18.1818H352.038V19.196H350.257V24H349.041V19.196H347.259ZM353.677 24H352.358L354.367 18.1818H355.952L357.958 24H356.64L355.182 19.5114H355.137L353.677 24ZM353.594 21.7131H356.708V22.6733H353.594V21.7131ZM358.286 19.196V18.1818H363.064V19.196H361.283V24H360.067V19.196H358.286ZM364.703 24H363.385L365.393 18.1818H366.978L368.984 24H367.666L366.209 19.5114H366.163L364.703 24ZM364.62 21.7131H367.734V22.6733H364.62V21.7131Z" fill="white"/>
<defs>
<linearGradient id="paint0_linear_178_1383" x1="225" y1="0" x2="225" y2="28" gradientUnits="userSpaceOnUse">
<stop offset="0.0430933" stop-color="#014B8D"/>
<stop offset="0.53125" stop-color="#006ECF"/>
<stop offset="1" stop-color="#004C92"/>
</linearGradient>
</defs>
</svg>
